M48
; DRILL file {KiCad 7.0.10} date Thu Mar  7 18:43:02 2024
; FORMAT={-:-/ absolute / metric / decimal}
; #@! TF.CreationDate,2024-03-07T18:43:02+01:00
; #@! TF.GenerationSoftware,Kicad,Pcbnew,7.0.10
; #@! TF.FileFunction,NonPlated,1,2,NPTH
FMAT,2
METRIC
; #@! TA.AperFunction,NonPlated,NPTH,ComponentDrill
T1C0.100
; #@! TA.AperFunction,NonPlated,NPTH,ComponentDrill
T2C1.700
; #@! TA.AperFunction,NonPlated,NPTH,ComponentDrill
T3C1.900
; #@! TA.AperFunction,NonPlated,NPTH,ComponentDrill
T4C3.000
; #@! TA.AperFunction,NonPlated,NPTH,ComponentDrill
T5C4.000
%
G90
G05
T1
X97.15Y-130.324
X99.766Y-137.513
T2
X99.145Y-128.262
X102.62Y-137.81
X108.439Y-42.602
X108.439Y-61.652
X108.439Y-80.702
X108.439Y-99.752
X114.955Y-126.664
X118.599Y-42.602
X118.599Y-61.652
X118.599Y-80.702
X118.599Y-99.752
X124.502Y-123.189
X127.489Y-40.316
X127.489Y-59.366
X127.489Y-78.416
X127.489Y-97.466
X137.187Y-119.927
X137.649Y-40.316
X137.649Y-59.366
X137.649Y-78.416
X137.649Y-97.466
X146.539Y-37.84
X146.539Y-56.89
X146.539Y-75.94
X146.539Y-94.99
X147.001Y-117.297
X156.699Y-37.84
X156.699Y-56.89
X156.699Y-75.94
X156.699Y-94.99
X165.589Y-40.316
X165.589Y-59.366
X165.589Y-78.416
X165.589Y-97.466
X175.749Y-40.316
X175.749Y-59.366
X175.749Y-78.416
X175.749Y-97.466
X184.639Y-45.079
X184.639Y-64.129
X184.639Y-83.179
X184.639Y-102.229
X194.799Y-45.079
X194.799Y-64.129
X194.799Y-83.179
X194.799Y-102.229
X203.689Y-45.079
X203.689Y-64.129
X203.689Y-83.179
X203.689Y-102.229
X213.849Y-45.079
X213.849Y-64.129
X213.849Y-83.179
X213.849Y-102.229
T3
X99.001Y-127.868
X102.763Y-138.204
X108.019Y-42.602
X108.019Y-61.652
X108.019Y-80.702
X108.019Y-99.752
X114.56Y-126.808
X119.019Y-42.602
X119.019Y-61.652
X119.019Y-80.702
X119.019Y-99.752
X124.897Y-123.046
X127.069Y-40.316
X127.069Y-59.366
X127.069Y-78.416
X127.069Y-97.466
X136.781Y-120.036
X138.069Y-40.316
X138.069Y-59.366
X138.069Y-78.416
X138.069Y-97.466
X146.119Y-37.84
X146.119Y-56.89
X146.119Y-75.94
X146.119Y-94.99
X147.406Y-117.189
X157.119Y-37.84
X157.119Y-56.89
X157.119Y-75.94
X157.119Y-94.99
X165.169Y-40.316
X165.169Y-59.366
X165.169Y-78.416
X165.169Y-97.466
X176.169Y-40.316
X176.169Y-59.366
X176.169Y-78.416
X176.169Y-97.466
X184.219Y-45.079
X184.219Y-64.129
X184.219Y-83.179
X184.219Y-102.229
X195.219Y-45.079
X195.219Y-64.129
X195.219Y-83.179
X195.219Y-102.229
X203.269Y-45.079
X203.269Y-64.129
X203.269Y-83.179
X203.269Y-102.229
X214.269Y-45.079
X214.269Y-64.129
X214.269Y-83.179
X214.269Y-102.229
T4
X95.24Y-132.387
X96.977Y-137.16
X97.192Y-130.325
X99.798Y-137.485
X99.798Y-137.485
X102.649Y-127.072
X106.069Y-136.469
X106.426Y-131.018
X108.519Y-38.902
X108.519Y-57.952
X108.519Y-77.002
X108.519Y-96.052
X109.709Y-45.142
X109.709Y-64.192
X109.709Y-83.242
X109.709Y-102.292
X110.979Y-47.682
X110.979Y-66.732
X110.979Y-85.782
X110.979Y-104.832
X113.519Y-36.702
X113.519Y-55.752
X113.519Y-74.802
X113.519Y-93.852
X113.765Y-123.16
X116.059Y-47.682
X116.059Y-66.732
X116.059Y-85.782
X116.059Y-104.832
X117.017Y-128.617
X117.329Y-45.142
X117.329Y-64.192
X117.329Y-83.242
X117.329Y-102.292
X117.711Y-119.383
X118.519Y-38.902
X118.519Y-57.952
X118.519Y-77.002
X118.519Y-96.052
X119.079Y-130.569
X123.162Y-119.74
X123.853Y-128.832
X124.178Y-126.011
X127.569Y-36.616
X127.569Y-55.666
X127.569Y-74.716
X127.569Y-93.766
X128.759Y-42.856
X128.759Y-61.906
X128.759Y-80.956
X128.759Y-100.006
X130.029Y-45.396
X130.029Y-64.446
X130.029Y-83.496
X130.029Y-102.546
X132.569Y-34.416
X132.569Y-53.466
X132.569Y-72.516
X132.569Y-91.566
X135.109Y-45.396
X135.109Y-64.446
X135.109Y-83.496
X135.109Y-102.546
X136.307Y-116.332
X136.379Y-42.856
X136.379Y-61.906
X136.379Y-80.956
X136.379Y-100.006
X137.569Y-36.616
X137.569Y-55.666
X137.569Y-74.716
X137.569Y-93.766
X139.071Y-122.052
X140.567Y-112.913
X140.955Y-124.176
X145.862Y-122.862
X145.966Y-113.744
X146.431Y-120.079
X146.619Y-34.14
X146.619Y-53.19
X146.619Y-72.24
X146.619Y-91.29
X147.809Y-40.38
X147.809Y-59.43
X147.809Y-78.48
X147.809Y-97.53
X149.079Y-42.92
X149.079Y-61.97
X149.079Y-81.02
X149.079Y-100.07
X151.619Y-31.94
X151.619Y-50.99
X151.619Y-70.04
X151.619Y-89.09
X154.159Y-42.92
X154.159Y-61.97
X154.159Y-81.02
X154.159Y-100.07
X155.429Y-40.38
X155.429Y-59.43
X155.429Y-78.48
X155.429Y-97.53
X156.619Y-34.14
X156.619Y-53.19
X156.619Y-72.24
X156.619Y-91.29
X165.669Y-36.616
X165.669Y-55.666
X165.669Y-74.716
X165.669Y-93.766
X166.859Y-42.856
X166.859Y-61.906
X166.859Y-80.956
X166.859Y-100.006
X168.129Y-45.396
X168.129Y-64.446
X168.129Y-83.496
X168.129Y-102.546
X170.669Y-34.416
X170.669Y-53.466
X170.669Y-72.516
X170.669Y-91.566
X173.209Y-45.396
X173.209Y-64.446
X173.209Y-83.496
X173.209Y-102.546
X174.479Y-42.856
X174.479Y-61.906
X174.479Y-80.956
X174.479Y-100.006
X175.669Y-36.616
X175.669Y-55.666
X175.669Y-74.716
X175.669Y-93.766
X184.719Y-41.379
X184.719Y-60.429
X184.719Y-79.479
X184.719Y-98.529
X185.909Y-47.619
X185.909Y-66.669
X185.909Y-85.719
X185.909Y-104.769
X187.179Y-50.159
X187.179Y-69.209
X187.179Y-88.259
X187.179Y-107.309
X189.719Y-39.179
X189.719Y-58.229
X189.719Y-77.279
X189.719Y-96.329
X192.259Y-50.159
X192.259Y-69.209
X192.259Y-88.259
X192.259Y-107.309
X193.529Y-47.619
X193.529Y-66.669
X193.529Y-85.719
X193.529Y-104.769
X194.719Y-41.379
X194.719Y-60.429
X194.719Y-79.479
X194.719Y-98.529
X203.769Y-41.379
X203.769Y-60.429
X203.769Y-79.479
X203.769Y-98.529
X204.959Y-47.619
X204.959Y-66.669
X204.959Y-85.719
X204.959Y-104.769
X206.229Y-50.159
X206.229Y-69.209
X206.229Y-88.259
X206.229Y-107.309
X208.769Y-39.179
X208.769Y-58.229
X208.769Y-77.279
X208.769Y-96.329
X211.309Y-50.159
X211.309Y-69.209
X211.309Y-88.259
X211.309Y-107.309
X212.579Y-47.619
X212.579Y-66.669
X212.579Y-85.719
X212.579Y-104.769
X213.769Y-41.379
X213.769Y-60.429
X213.769Y-79.479
X213.769Y-98.529
T5
X100.882Y-133.036
X113.519Y-42.602
X113.519Y-61.652
X113.519Y-80.702
X113.519Y-99.752
X119.729Y-124.927
X132.569Y-40.316
X132.569Y-59.366
X132.569Y-78.416
X132.569Y-97.466
X142.094Y-118.612
X151.619Y-37.84
X151.619Y-56.89
X151.619Y-75.94
X151.619Y-94.99
X170.669Y-40.316
X170.669Y-59.366
X170.669Y-78.416
X170.669Y-97.466
X189.719Y-45.079
X189.719Y-64.129
X189.719Y-83.179
X189.719Y-102.229
X208.769Y-45.079
X208.769Y-64.129
X208.769Y-83.179
X208.769Y-102.229
M30
