%TF.GenerationSoftware,KiCad,Pcbnew,7.0.10*%
%TF.CreationDate,2024-03-07T18:43:10+01:00*%
%TF.ProjectId,xurp_right,78757270-5f72-4696-9768-742e6b696361,rev?*%
%TF.SameCoordinates,Original*%
%TF.FileFunction,Paste,Bot*%
%TF.FilePolarity,Positive*%
%FSLAX46Y46*%
G04 Gerber Fmt 4.6, Leading zero omitted, Abs format (unit mm)*
G04 Created by KiCad (PCBNEW 7.0.10) date 2024-03-07 18:43:10*
%MOMM*%
%LPD*%
G01*
G04 APERTURE LIST*
G04 Aperture macros list*
%AMRotRect*
0 Rectangle, with rotation*
0 The origin of the aperture is its center*
0 $1 length*
0 $2 width*
0 $3 Rotation angle, in degrees counterclockwise*
0 Add horizontal line*
21,1,$1,$2,0,0,$3*%
G04 Aperture macros list end*
%ADD10R,2.000000X2.000000*%
%ADD11R,1.900000X2.000000*%
%ADD12RotRect,1.500000X2.000000X110.000000*%
%ADD13RotRect,2.000000X2.000000X200.000000*%
%ADD14RotRect,1.800000X2.000000X200.000000*%
%ADD15RotRect,2.000000X2.000000X195.000000*%
%ADD16RotRect,1.800000X2.000000X195.000000*%
G04 APERTURE END LIST*
D10*
%TO.C,K42*%
X159718900Y-53190100D03*
X158518900Y-59430100D03*
D11*
X148818900Y-50990100D03*
D10*
X146018900Y-61970100D03*
%TD*%
%TO.C,K54*%
X140669100Y-93766100D03*
X139469100Y-100006100D03*
D11*
X129769100Y-91566100D03*
D10*
X126969100Y-102546100D03*
%TD*%
%TO.C,K41*%
X159718900Y-34140100D03*
X158518900Y-40380100D03*
D11*
X148818900Y-31940100D03*
D10*
X146018900Y-42920100D03*
%TD*%
%TO.C,K34*%
X178768900Y-93766100D03*
X177568900Y-100006100D03*
D11*
X167868900Y-91566100D03*
D10*
X165068900Y-102546100D03*
%TD*%
%TO.C,K14*%
X216868900Y-98529100D03*
X215668900Y-104769100D03*
D11*
X205968900Y-96329100D03*
D10*
X203168900Y-107309100D03*
%TD*%
%TO.C,K51*%
X140669100Y-36616100D03*
X139469100Y-42856100D03*
D11*
X129769100Y-34416100D03*
D10*
X126969100Y-45396100D03*
%TD*%
%TO.C,K24*%
X197818900Y-98529100D03*
X196618900Y-104769100D03*
D11*
X186918900Y-96329100D03*
D10*
X184118900Y-107309100D03*
%TD*%
%TO.C,K44*%
X159718900Y-91290100D03*
X158518900Y-97530100D03*
D11*
X148818900Y-89090100D03*
D10*
X146018900Y-100070100D03*
%TD*%
%TO.C,K52*%
X140669100Y-55666100D03*
X139469100Y-61906100D03*
D11*
X129769100Y-53466100D03*
D10*
X126969100Y-64446100D03*
%TD*%
%TO.C,K21*%
X197818900Y-41379100D03*
X196618900Y-47619100D03*
D11*
X186918900Y-39179100D03*
D10*
X184118900Y-50159100D03*
%TD*%
D12*
%TO.C,K65*%
X94227451Y-129605253D03*
X107095224Y-139288166D03*
X100821117Y-140294741D03*
X105400326Y-128199103D03*
%TD*%
D10*
%TO.C,K61*%
X121618900Y-38902100D03*
X120418900Y-45142100D03*
D11*
X110718900Y-36702100D03*
D10*
X107918900Y-47682100D03*
%TD*%
%TO.C,K11*%
X216868900Y-41379100D03*
X215668900Y-47619100D03*
D11*
X205968900Y-39179100D03*
D10*
X203168900Y-50159100D03*
%TD*%
%TO.C,K13*%
X216868900Y-79479100D03*
X215668900Y-85719100D03*
D11*
X205968900Y-77279100D03*
D10*
X203168900Y-88259100D03*
%TD*%
%TO.C,K33*%
X178768900Y-74716100D03*
X177568900Y-80956100D03*
D11*
X167868900Y-72516100D03*
D10*
X165068900Y-83496100D03*
%TD*%
%TO.C,K32*%
X178768900Y-55666100D03*
X177568900Y-61906100D03*
D11*
X167868900Y-53466100D03*
D10*
X165068900Y-64446100D03*
%TD*%
%TO.C,K43*%
X159718900Y-72240100D03*
X158518900Y-78480100D03*
D11*
X148818900Y-70040100D03*
D10*
X146018900Y-81020100D03*
%TD*%
%TO.C,K23*%
X197818900Y-79479100D03*
X196618900Y-85719100D03*
D11*
X186918900Y-77279100D03*
D10*
X184118900Y-88259100D03*
%TD*%
%TO.C,K22*%
X197818900Y-60429100D03*
X196618900Y-66669100D03*
D11*
X186918900Y-58229100D03*
D10*
X184118900Y-69209100D03*
%TD*%
%TO.C,K53*%
X140669100Y-74716100D03*
X139469100Y-80956100D03*
D11*
X129769100Y-72516100D03*
D10*
X126969100Y-83496100D03*
%TD*%
%TO.C,K31*%
X178768900Y-36616100D03*
X177568900Y-42856100D03*
D11*
X167868900Y-34416100D03*
D10*
X165068900Y-45396100D03*
%TD*%
%TO.C,K12*%
X216868900Y-60429100D03*
X215668900Y-66669100D03*
D11*
X205968900Y-58229100D03*
D10*
X203168900Y-69209100D03*
%TD*%
%TO.C,K64*%
X121618900Y-96052100D03*
X120418900Y-102292100D03*
D11*
X110718900Y-93852100D03*
D10*
X107918900Y-104832100D03*
%TD*%
%TO.C,K63*%
X121618900Y-77002100D03*
X120418900Y-83242100D03*
D11*
X110718900Y-74802100D03*
D10*
X107918900Y-85782100D03*
%TD*%
%TO.C,K62*%
X121618900Y-57952100D03*
X120418900Y-64192100D03*
D11*
X110718900Y-55752100D03*
D10*
X107918900Y-66732100D03*
%TD*%
D13*
%TO.C,K55*%
X116203884Y-131615851D03*
X126074736Y-118679674D03*
D14*
X115079642Y-120340370D03*
D13*
X127081310Y-124953780D03*
%TD*%
D15*
%TO.C,K45*%
X137999516Y-124968390D03*
X148960269Y-112941740D03*
D16*
X137862275Y-113637831D03*
D15*
X149416189Y-119279700D03*
%TD*%
M02*
