%TF.GenerationSoftware,KiCad,Pcbnew,7.0.10*%
%TF.CreationDate,2024-03-07T18:43:10+01:00*%
%TF.ProjectId,xurp_right,78757270-5f72-4696-9768-742e6b696361,rev?*%
%TF.SameCoordinates,Original*%
%TF.FileFunction,Legend,Bot*%
%TF.FilePolarity,Positive*%
%FSLAX46Y46*%
G04 Gerber Fmt 4.6, Leading zero omitted, Abs format (unit mm)*
G04 Created by KiCad (PCBNEW 7.0.10) date 2024-03-07 18:43:10*
%MOMM*%
%LPD*%
G01*
G04 APERTURE LIST*
%ADD10C,0.150000*%
G04 APERTURE END LIST*
D10*
X199966575Y-89807200D02*
X199871337Y-89854819D01*
X199871337Y-89854819D02*
X199680861Y-89854819D01*
X199680861Y-89854819D02*
X199585623Y-89807200D01*
X199585623Y-89807200D02*
X199538004Y-89711961D01*
X199538004Y-89711961D02*
X199538004Y-89664342D01*
X199538004Y-89664342D02*
X199585623Y-89569104D01*
X199585623Y-89569104D02*
X199680861Y-89521485D01*
X199680861Y-89521485D02*
X199823718Y-89521485D01*
X199823718Y-89521485D02*
X199918956Y-89473866D01*
X199918956Y-89473866D02*
X199966575Y-89378628D01*
X199966575Y-89378628D02*
X199966575Y-89331009D01*
X199966575Y-89331009D02*
X199918956Y-89235771D01*
X199918956Y-89235771D02*
X199823718Y-89188152D01*
X199823718Y-89188152D02*
X199680861Y-89188152D01*
X199680861Y-89188152D02*
X199585623Y-89235771D01*
X198633242Y-88854819D02*
X199109432Y-88854819D01*
X199109432Y-88854819D02*
X199157051Y-89331009D01*
X199157051Y-89331009D02*
X199109432Y-89283390D01*
X199109432Y-89283390D02*
X199014194Y-89235771D01*
X199014194Y-89235771D02*
X198776099Y-89235771D01*
X198776099Y-89235771D02*
X198680861Y-89283390D01*
X198680861Y-89283390D02*
X198633242Y-89331009D01*
X198633242Y-89331009D02*
X198585623Y-89426247D01*
X198585623Y-89426247D02*
X198585623Y-89664342D01*
X198585623Y-89664342D02*
X198633242Y-89759580D01*
X198633242Y-89759580D02*
X198680861Y-89807200D01*
X198680861Y-89807200D02*
X198776099Y-89854819D01*
X198776099Y-89854819D02*
X199014194Y-89854819D01*
X199014194Y-89854819D02*
X199109432Y-89807200D01*
X199109432Y-89807200D02*
X199157051Y-89759580D01*
X123766575Y-48007200D02*
X123671337Y-48054819D01*
X123671337Y-48054819D02*
X123480861Y-48054819D01*
X123480861Y-48054819D02*
X123385623Y-48007200D01*
X123385623Y-48007200D02*
X123338004Y-47911961D01*
X123338004Y-47911961D02*
X123338004Y-47864342D01*
X123338004Y-47864342D02*
X123385623Y-47769104D01*
X123385623Y-47769104D02*
X123480861Y-47721485D01*
X123480861Y-47721485D02*
X123623718Y-47721485D01*
X123623718Y-47721485D02*
X123718956Y-47673866D01*
X123718956Y-47673866D02*
X123766575Y-47578628D01*
X123766575Y-47578628D02*
X123766575Y-47531009D01*
X123766575Y-47531009D02*
X123718956Y-47435771D01*
X123718956Y-47435771D02*
X123623718Y-47388152D01*
X123623718Y-47388152D02*
X123480861Y-47388152D01*
X123480861Y-47388152D02*
X123385623Y-47435771D01*
X122385623Y-48054819D02*
X122957051Y-48054819D01*
X122671337Y-48054819D02*
X122671337Y-47054819D01*
X122671337Y-47054819D02*
X122766575Y-47197676D01*
X122766575Y-47197676D02*
X122861813Y-47292914D01*
X122861813Y-47292914D02*
X122957051Y-47340533D01*
X199966575Y-51707200D02*
X199871337Y-51754819D01*
X199871337Y-51754819D02*
X199680861Y-51754819D01*
X199680861Y-51754819D02*
X199585623Y-51707200D01*
X199585623Y-51707200D02*
X199538004Y-51611961D01*
X199538004Y-51611961D02*
X199538004Y-51564342D01*
X199538004Y-51564342D02*
X199585623Y-51469104D01*
X199585623Y-51469104D02*
X199680861Y-51421485D01*
X199680861Y-51421485D02*
X199823718Y-51421485D01*
X199823718Y-51421485D02*
X199918956Y-51373866D01*
X199918956Y-51373866D02*
X199966575Y-51278628D01*
X199966575Y-51278628D02*
X199966575Y-51231009D01*
X199966575Y-51231009D02*
X199918956Y-51135771D01*
X199918956Y-51135771D02*
X199823718Y-51088152D01*
X199823718Y-51088152D02*
X199680861Y-51088152D01*
X199680861Y-51088152D02*
X199585623Y-51135771D01*
X198680861Y-51088152D02*
X198680861Y-51754819D01*
X198918956Y-50707200D02*
X199157051Y-51421485D01*
X199157051Y-51421485D02*
X198538004Y-51421485D01*
X99866575Y-115907200D02*
X99771337Y-115954819D01*
X99771337Y-115954819D02*
X99580861Y-115954819D01*
X99580861Y-115954819D02*
X99485623Y-115907200D01*
X99485623Y-115907200D02*
X99438004Y-115811961D01*
X99438004Y-115811961D02*
X99438004Y-115764342D01*
X99438004Y-115764342D02*
X99485623Y-115669104D01*
X99485623Y-115669104D02*
X99580861Y-115621485D01*
X99580861Y-115621485D02*
X99723718Y-115621485D01*
X99723718Y-115621485D02*
X99818956Y-115573866D01*
X99818956Y-115573866D02*
X99866575Y-115478628D01*
X99866575Y-115478628D02*
X99866575Y-115431009D01*
X99866575Y-115431009D02*
X99818956Y-115335771D01*
X99818956Y-115335771D02*
X99723718Y-115288152D01*
X99723718Y-115288152D02*
X99580861Y-115288152D01*
X99580861Y-115288152D02*
X99485623Y-115335771D01*
X98580861Y-114954819D02*
X98771337Y-114954819D01*
X98771337Y-114954819D02*
X98866575Y-115002438D01*
X98866575Y-115002438D02*
X98914194Y-115050057D01*
X98914194Y-115050057D02*
X99009432Y-115192914D01*
X99009432Y-115192914D02*
X99057051Y-115383390D01*
X99057051Y-115383390D02*
X99057051Y-115764342D01*
X99057051Y-115764342D02*
X99009432Y-115859580D01*
X99009432Y-115859580D02*
X98961813Y-115907200D01*
X98961813Y-115907200D02*
X98866575Y-115954819D01*
X98866575Y-115954819D02*
X98676099Y-115954819D01*
X98676099Y-115954819D02*
X98580861Y-115907200D01*
X98580861Y-115907200D02*
X98533242Y-115859580D01*
X98533242Y-115859580D02*
X98485623Y-115764342D01*
X98485623Y-115764342D02*
X98485623Y-115526247D01*
X98485623Y-115526247D02*
X98533242Y-115431009D01*
X98533242Y-115431009D02*
X98580861Y-115383390D01*
X98580861Y-115383390D02*
X98676099Y-115335771D01*
X98676099Y-115335771D02*
X98866575Y-115335771D01*
X98866575Y-115335771D02*
X98961813Y-115383390D01*
X98961813Y-115383390D02*
X99009432Y-115431009D01*
X99009432Y-115431009D02*
X99057051Y-115526247D01*
X161766575Y-64707200D02*
X161671337Y-64754819D01*
X161671337Y-64754819D02*
X161480861Y-64754819D01*
X161480861Y-64754819D02*
X161385623Y-64707200D01*
X161385623Y-64707200D02*
X161338004Y-64611961D01*
X161338004Y-64611961D02*
X161338004Y-64564342D01*
X161338004Y-64564342D02*
X161385623Y-64469104D01*
X161385623Y-64469104D02*
X161480861Y-64421485D01*
X161480861Y-64421485D02*
X161623718Y-64421485D01*
X161623718Y-64421485D02*
X161718956Y-64373866D01*
X161718956Y-64373866D02*
X161766575Y-64278628D01*
X161766575Y-64278628D02*
X161766575Y-64231009D01*
X161766575Y-64231009D02*
X161718956Y-64135771D01*
X161718956Y-64135771D02*
X161623718Y-64088152D01*
X161623718Y-64088152D02*
X161480861Y-64088152D01*
X161480861Y-64088152D02*
X161385623Y-64135771D01*
X161004670Y-63754819D02*
X160385623Y-63754819D01*
X160385623Y-63754819D02*
X160718956Y-64135771D01*
X160718956Y-64135771D02*
X160576099Y-64135771D01*
X160576099Y-64135771D02*
X160480861Y-64183390D01*
X160480861Y-64183390D02*
X160433242Y-64231009D01*
X160433242Y-64231009D02*
X160385623Y-64326247D01*
X160385623Y-64326247D02*
X160385623Y-64564342D01*
X160385623Y-64564342D02*
X160433242Y-64659580D01*
X160433242Y-64659580D02*
X160480861Y-64707200D01*
X160480861Y-64707200D02*
X160576099Y-64754819D01*
X160576099Y-64754819D02*
X160861813Y-64754819D01*
X160861813Y-64754819D02*
X160957051Y-64707200D01*
X160957051Y-64707200D02*
X161004670Y-64659580D01*
X123566575Y-85807200D02*
X123471337Y-85854819D01*
X123471337Y-85854819D02*
X123280861Y-85854819D01*
X123280861Y-85854819D02*
X123185623Y-85807200D01*
X123185623Y-85807200D02*
X123138004Y-85711961D01*
X123138004Y-85711961D02*
X123138004Y-85664342D01*
X123138004Y-85664342D02*
X123185623Y-85569104D01*
X123185623Y-85569104D02*
X123280861Y-85521485D01*
X123280861Y-85521485D02*
X123423718Y-85521485D01*
X123423718Y-85521485D02*
X123518956Y-85473866D01*
X123518956Y-85473866D02*
X123566575Y-85378628D01*
X123566575Y-85378628D02*
X123566575Y-85331009D01*
X123566575Y-85331009D02*
X123518956Y-85235771D01*
X123518956Y-85235771D02*
X123423718Y-85188152D01*
X123423718Y-85188152D02*
X123280861Y-85188152D01*
X123280861Y-85188152D02*
X123185623Y-85235771D01*
X122757051Y-84950057D02*
X122709432Y-84902438D01*
X122709432Y-84902438D02*
X122614194Y-84854819D01*
X122614194Y-84854819D02*
X122376099Y-84854819D01*
X122376099Y-84854819D02*
X122280861Y-84902438D01*
X122280861Y-84902438D02*
X122233242Y-84950057D01*
X122233242Y-84950057D02*
X122185623Y-85045295D01*
X122185623Y-85045295D02*
X122185623Y-85140533D01*
X122185623Y-85140533D02*
X122233242Y-85283390D01*
X122233242Y-85283390D02*
X122804670Y-85854819D01*
X122804670Y-85854819D02*
X122185623Y-85854819D01*
%TO.C,K42*%
X158893900Y-55490100D02*
X158918900Y-50890100D01*
X157718900Y-61740100D02*
X157718900Y-57795100D01*
X157718900Y-57786100D02*
X154108900Y-57786100D01*
X155118900Y-50865100D02*
X158893900Y-50865100D01*
X154193900Y-55515100D02*
X158893900Y-55515100D01*
X153898900Y-49390100D02*
X153898900Y-48690100D01*
X149343900Y-53315100D02*
X151893900Y-53315100D01*
X149343900Y-48665100D02*
X153893900Y-48665100D01*
X149318900Y-53290100D02*
X149318900Y-48690100D01*
X146818900Y-63694100D02*
X155443900Y-63694100D01*
X146818900Y-59786100D02*
X146818900Y-63694100D01*
X146818900Y-59740100D02*
X151868900Y-59694100D01*
X155443900Y-63694099D02*
G75*
G03*
X157707899Y-61810100I190000J2073999D01*
G01*
X153898900Y-49440100D02*
G75*
G03*
X155118900Y-50860100I1320000J-100000D01*
G01*
X151843900Y-59690099D02*
G75*
G03*
X154103899Y-57810100I190000J2069999D01*
G01*
X154188899Y-55490100D02*
G75*
G03*
X151818900Y-53320101I-2269999J-100000D01*
G01*
%TO.C,K54*%
X139844100Y-96066100D02*
X139869100Y-91466100D01*
X138669100Y-102316100D02*
X138669100Y-98371100D01*
X138669100Y-98362100D02*
X135059100Y-98362100D01*
X136069100Y-91441100D02*
X139844100Y-91441100D01*
X135144100Y-96091100D02*
X139844100Y-96091100D01*
X134849100Y-89966100D02*
X134849100Y-89266100D01*
X130294100Y-93891100D02*
X132844100Y-93891100D01*
X130294100Y-89241100D02*
X134844100Y-89241100D01*
X130269100Y-93866100D02*
X130269100Y-89266100D01*
X127769100Y-104270100D02*
X136394100Y-104270100D01*
X127769100Y-100362100D02*
X127769100Y-104270100D01*
X127769100Y-100316100D02*
X132819100Y-100270100D01*
X136394100Y-104270099D02*
G75*
G03*
X138658099Y-102386100I190000J2073999D01*
G01*
X134849100Y-90016100D02*
G75*
G03*
X136069100Y-91436100I1320000J-100000D01*
G01*
X132794100Y-100266099D02*
G75*
G03*
X135054099Y-98386100I190000J2069999D01*
G01*
X135139099Y-96066100D02*
G75*
G03*
X132769100Y-93896101I-2269999J-100000D01*
G01*
%TO.C,K41*%
X158893900Y-36440100D02*
X158918900Y-31840100D01*
X157718900Y-42690100D02*
X157718900Y-38745100D01*
X157718900Y-38736100D02*
X154108900Y-38736100D01*
X155118900Y-31815100D02*
X158893900Y-31815100D01*
X154193900Y-36465100D02*
X158893900Y-36465100D01*
X153898900Y-30340100D02*
X153898900Y-29640100D01*
X149343900Y-34265100D02*
X151893900Y-34265100D01*
X149343900Y-29615100D02*
X153893900Y-29615100D01*
X149318900Y-34240100D02*
X149318900Y-29640100D01*
X146818900Y-44644100D02*
X155443900Y-44644100D01*
X146818900Y-40736100D02*
X146818900Y-44644100D01*
X146818900Y-40690100D02*
X151868900Y-40644100D01*
X155443900Y-44644099D02*
G75*
G03*
X157707899Y-42760100I190000J2073999D01*
G01*
X153898900Y-30390100D02*
G75*
G03*
X155118900Y-31810100I1320000J-100000D01*
G01*
X151843900Y-40640099D02*
G75*
G03*
X154103899Y-38760100I190000J2069999D01*
G01*
X154188899Y-36440100D02*
G75*
G03*
X151818900Y-34270101I-2269999J-100000D01*
G01*
%TO.C,K34*%
X177943900Y-96066100D02*
X177968900Y-91466100D01*
X176768900Y-102316100D02*
X176768900Y-98371100D01*
X176768900Y-98362100D02*
X173158900Y-98362100D01*
X174168900Y-91441100D02*
X177943900Y-91441100D01*
X173243900Y-96091100D02*
X177943900Y-96091100D01*
X172948900Y-89966100D02*
X172948900Y-89266100D01*
X168393900Y-93891100D02*
X170943900Y-93891100D01*
X168393900Y-89241100D02*
X172943900Y-89241100D01*
X168368900Y-93866100D02*
X168368900Y-89266100D01*
X165868900Y-104270100D02*
X174493900Y-104270100D01*
X165868900Y-100362100D02*
X165868900Y-104270100D01*
X165868900Y-100316100D02*
X170918900Y-100270100D01*
X174493900Y-104270099D02*
G75*
G03*
X176757899Y-102386100I190000J2073999D01*
G01*
X172948900Y-90016100D02*
G75*
G03*
X174168900Y-91436100I1320000J-100000D01*
G01*
X170893900Y-100266099D02*
G75*
G03*
X173153899Y-98386100I190000J2069999D01*
G01*
X173238899Y-96066100D02*
G75*
G03*
X170868900Y-93896101I-2269999J-100000D01*
G01*
%TO.C,K14*%
X216043900Y-100829100D02*
X216068900Y-96229100D01*
X214868900Y-107079100D02*
X214868900Y-103134100D01*
X214868900Y-103125100D02*
X211258900Y-103125100D01*
X212268900Y-96204100D02*
X216043900Y-96204100D01*
X211343900Y-100854100D02*
X216043900Y-100854100D01*
X211048900Y-94729100D02*
X211048900Y-94029100D01*
X206493900Y-98654100D02*
X209043900Y-98654100D01*
X206493900Y-94004100D02*
X211043900Y-94004100D01*
X206468900Y-98629100D02*
X206468900Y-94029100D01*
X203968900Y-109033100D02*
X212593900Y-109033100D01*
X203968900Y-105125100D02*
X203968900Y-109033100D01*
X203968900Y-105079100D02*
X209018900Y-105033100D01*
X212593900Y-109033099D02*
G75*
G03*
X214857899Y-107149100I190000J2073999D01*
G01*
X211048900Y-94779100D02*
G75*
G03*
X212268900Y-96199100I1320000J-100000D01*
G01*
X208993900Y-105029099D02*
G75*
G03*
X211253899Y-103149100I190000J2069999D01*
G01*
X211338899Y-100829100D02*
G75*
G03*
X208968900Y-98659101I-2269999J-100000D01*
G01*
%TO.C,K51*%
X139844100Y-38916100D02*
X139869100Y-34316100D01*
X138669100Y-45166100D02*
X138669100Y-41221100D01*
X138669100Y-41212100D02*
X135059100Y-41212100D01*
X136069100Y-34291100D02*
X139844100Y-34291100D01*
X135144100Y-38941100D02*
X139844100Y-38941100D01*
X134849100Y-32816100D02*
X134849100Y-32116100D01*
X130294100Y-36741100D02*
X132844100Y-36741100D01*
X130294100Y-32091100D02*
X134844100Y-32091100D01*
X130269100Y-36716100D02*
X130269100Y-32116100D01*
X127769100Y-47120100D02*
X136394100Y-47120100D01*
X127769100Y-43212100D02*
X127769100Y-47120100D01*
X127769100Y-43166100D02*
X132819100Y-43120100D01*
X136394100Y-47120099D02*
G75*
G03*
X138658099Y-45236100I190000J2073999D01*
G01*
X134849100Y-32866100D02*
G75*
G03*
X136069100Y-34286100I1320000J-100000D01*
G01*
X132794100Y-43116099D02*
G75*
G03*
X135054099Y-41236100I190000J2069999D01*
G01*
X135139099Y-38916100D02*
G75*
G03*
X132769100Y-36746101I-2269999J-100000D01*
G01*
%TO.C,K24*%
X196993900Y-100829100D02*
X197018900Y-96229100D01*
X195818900Y-107079100D02*
X195818900Y-103134100D01*
X195818900Y-103125100D02*
X192208900Y-103125100D01*
X193218900Y-96204100D02*
X196993900Y-96204100D01*
X192293900Y-100854100D02*
X196993900Y-100854100D01*
X191998900Y-94729100D02*
X191998900Y-94029100D01*
X187443900Y-98654100D02*
X189993900Y-98654100D01*
X187443900Y-94004100D02*
X191993900Y-94004100D01*
X187418900Y-98629100D02*
X187418900Y-94029100D01*
X184918900Y-109033100D02*
X193543900Y-109033100D01*
X184918900Y-105125100D02*
X184918900Y-109033100D01*
X184918900Y-105079100D02*
X189968900Y-105033100D01*
X193543900Y-109033099D02*
G75*
G03*
X195807899Y-107149100I190000J2073999D01*
G01*
X191998900Y-94779100D02*
G75*
G03*
X193218900Y-96199100I1320000J-100000D01*
G01*
X189943900Y-105029099D02*
G75*
G03*
X192203899Y-103149100I190000J2069999D01*
G01*
X192288899Y-100829100D02*
G75*
G03*
X189918900Y-98659101I-2269999J-100000D01*
G01*
%TO.C,K44*%
X158893900Y-93590100D02*
X158918900Y-88990100D01*
X157718900Y-99840100D02*
X157718900Y-95895100D01*
X157718900Y-95886100D02*
X154108900Y-95886100D01*
X155118900Y-88965100D02*
X158893900Y-88965100D01*
X154193900Y-93615100D02*
X158893900Y-93615100D01*
X153898900Y-87490100D02*
X153898900Y-86790100D01*
X149343900Y-91415100D02*
X151893900Y-91415100D01*
X149343900Y-86765100D02*
X153893900Y-86765100D01*
X149318900Y-91390100D02*
X149318900Y-86790100D01*
X146818900Y-101794100D02*
X155443900Y-101794100D01*
X146818900Y-97886100D02*
X146818900Y-101794100D01*
X146818900Y-97840100D02*
X151868900Y-97794100D01*
X155443900Y-101794099D02*
G75*
G03*
X157707899Y-99910100I190000J2073999D01*
G01*
X153898900Y-87540100D02*
G75*
G03*
X155118900Y-88960100I1320000J-100000D01*
G01*
X151843900Y-97790099D02*
G75*
G03*
X154103899Y-95910100I190000J2069999D01*
G01*
X154188899Y-93590100D02*
G75*
G03*
X151818900Y-91420101I-2269999J-100000D01*
G01*
%TO.C,K52*%
X139844100Y-57966100D02*
X139869100Y-53366100D01*
X138669100Y-64216100D02*
X138669100Y-60271100D01*
X138669100Y-60262100D02*
X135059100Y-60262100D01*
X136069100Y-53341100D02*
X139844100Y-53341100D01*
X135144100Y-57991100D02*
X139844100Y-57991100D01*
X134849100Y-51866100D02*
X134849100Y-51166100D01*
X130294100Y-55791100D02*
X132844100Y-55791100D01*
X130294100Y-51141100D02*
X134844100Y-51141100D01*
X130269100Y-55766100D02*
X130269100Y-51166100D01*
X127769100Y-66170100D02*
X136394100Y-66170100D01*
X127769100Y-62262100D02*
X127769100Y-66170100D01*
X127769100Y-62216100D02*
X132819100Y-62170100D01*
X136394100Y-66170099D02*
G75*
G03*
X138658099Y-64286100I190000J2073999D01*
G01*
X134849100Y-51916100D02*
G75*
G03*
X136069100Y-53336100I1320000J-100000D01*
G01*
X132794100Y-62166099D02*
G75*
G03*
X135054099Y-60286100I190000J2069999D01*
G01*
X135139099Y-57966100D02*
G75*
G03*
X132769100Y-55796101I-2269999J-100000D01*
G01*
%TO.C,K21*%
X196993900Y-43679100D02*
X197018900Y-39079100D01*
X195818900Y-49929100D02*
X195818900Y-45984100D01*
X195818900Y-45975100D02*
X192208900Y-45975100D01*
X193218900Y-39054100D02*
X196993900Y-39054100D01*
X192293900Y-43704100D02*
X196993900Y-43704100D01*
X191998900Y-37579100D02*
X191998900Y-36879100D01*
X187443900Y-41504100D02*
X189993900Y-41504100D01*
X187443900Y-36854100D02*
X191993900Y-36854100D01*
X187418900Y-41479100D02*
X187418900Y-36879100D01*
X184918900Y-51883100D02*
X193543900Y-51883100D01*
X184918900Y-47975100D02*
X184918900Y-51883100D01*
X184918900Y-47929100D02*
X189968900Y-47883100D01*
X193543900Y-51883099D02*
G75*
G03*
X195807899Y-49999100I190000J2073999D01*
G01*
X191998900Y-37629100D02*
G75*
G03*
X193218900Y-39049100I1320000J-100000D01*
G01*
X189943900Y-47879099D02*
G75*
G03*
X192203899Y-45999100I190000J2069999D01*
G01*
X192288899Y-43679100D02*
G75*
G03*
X189918900Y-41509101I-2269999J-100000D01*
G01*
%TO.C,K65*%
X92846835Y-130852680D02*
X95796758Y-138957529D01*
X98411014Y-140427023D02*
X102118101Y-139077753D01*
X96519153Y-129516066D02*
X92846835Y-130852680D01*
X96562379Y-129500333D02*
X98332807Y-134230048D01*
X102126558Y-139074675D02*
X100891866Y-135682385D01*
X103054979Y-134985531D02*
X104662474Y-139402086D01*
X104685966Y-139393536D02*
X109017102Y-137843734D01*
X103463505Y-129675577D02*
X104335657Y-132071793D01*
X103478446Y-129643535D02*
X107801033Y-128070242D01*
X107740919Y-134264353D02*
X109032045Y-137811692D01*
X108709701Y-132613448D02*
X109367485Y-132374034D01*
X107833076Y-128085184D02*
X109389268Y-132360785D01*
X95796759Y-138957529D02*
G75*
G03*
X98341473Y-140440627I2013906J530808D01*
G01*
X98328015Y-134205187D02*
G75*
G03*
X100867602Y-135685894I2010146J529438D01*
G01*
X103076761Y-134972283D02*
G75*
G03*
X104305307Y-132003027I-870355J2098901D01*
G01*
X108662716Y-132630549D02*
G75*
G03*
X107745617Y-134262643I357497J-1274596D01*
G01*
%TO.C,K61*%
X120793900Y-41202100D02*
X120818900Y-36602100D01*
X119618900Y-47452100D02*
X119618900Y-43507100D01*
X119618900Y-43498100D02*
X116008900Y-43498100D01*
X117018900Y-36577100D02*
X120793900Y-36577100D01*
X116093900Y-41227100D02*
X120793900Y-41227100D01*
X115798900Y-35102100D02*
X115798900Y-34402100D01*
X111243900Y-39027100D02*
X113793900Y-39027100D01*
X111243900Y-34377100D02*
X115793900Y-34377100D01*
X111218900Y-39002100D02*
X111218900Y-34402100D01*
X108718900Y-49406100D02*
X117343900Y-49406100D01*
X108718900Y-45498100D02*
X108718900Y-49406100D01*
X108718900Y-45452100D02*
X113768900Y-45406100D01*
X117343900Y-49406099D02*
G75*
G03*
X119607899Y-47522100I190000J2073999D01*
G01*
X115798900Y-35152100D02*
G75*
G03*
X117018900Y-36572100I1320000J-100000D01*
G01*
X113743900Y-45402099D02*
G75*
G03*
X116003899Y-43522100I190000J2069999D01*
G01*
X116088899Y-41202100D02*
G75*
G03*
X113718900Y-39032101I-2269999J-100000D01*
G01*
%TO.C,K11*%
X216043900Y-43679100D02*
X216068900Y-39079100D01*
X214868900Y-49929100D02*
X214868900Y-45984100D01*
X214868900Y-45975100D02*
X211258900Y-45975100D01*
X212268900Y-39054100D02*
X216043900Y-39054100D01*
X211343900Y-43704100D02*
X216043900Y-43704100D01*
X211048900Y-37579100D02*
X211048900Y-36879100D01*
X206493900Y-41504100D02*
X209043900Y-41504100D01*
X206493900Y-36854100D02*
X211043900Y-36854100D01*
X206468900Y-41479100D02*
X206468900Y-36879100D01*
X203968900Y-51883100D02*
X212593900Y-51883100D01*
X203968900Y-47975100D02*
X203968900Y-51883100D01*
X203968900Y-47929100D02*
X209018900Y-47883100D01*
X212593900Y-51883099D02*
G75*
G03*
X214857899Y-49999100I190000J2073999D01*
G01*
X211048900Y-37629100D02*
G75*
G03*
X212268900Y-39049100I1320000J-100000D01*
G01*
X208993900Y-47879099D02*
G75*
G03*
X211253899Y-45999100I190000J2069999D01*
G01*
X211338899Y-43679100D02*
G75*
G03*
X208968900Y-41509101I-2269999J-100000D01*
G01*
%TO.C,K13*%
X216043900Y-81779100D02*
X216068900Y-77179100D01*
X214868900Y-88029100D02*
X214868900Y-84084100D01*
X214868900Y-84075100D02*
X211258900Y-84075100D01*
X212268900Y-77154100D02*
X216043900Y-77154100D01*
X211343900Y-81804100D02*
X216043900Y-81804100D01*
X211048900Y-75679100D02*
X211048900Y-74979100D01*
X206493900Y-79604100D02*
X209043900Y-79604100D01*
X206493900Y-74954100D02*
X211043900Y-74954100D01*
X206468900Y-79579100D02*
X206468900Y-74979100D01*
X203968900Y-89983100D02*
X212593900Y-89983100D01*
X203968900Y-86075100D02*
X203968900Y-89983100D01*
X203968900Y-86029100D02*
X209018900Y-85983100D01*
X212593900Y-89983099D02*
G75*
G03*
X214857899Y-88099100I190000J2073999D01*
G01*
X211048900Y-75729100D02*
G75*
G03*
X212268900Y-77149100I1320000J-100000D01*
G01*
X208993900Y-85979099D02*
G75*
G03*
X211253899Y-84099100I190000J2069999D01*
G01*
X211338899Y-81779100D02*
G75*
G03*
X208968900Y-79609101I-2269999J-100000D01*
G01*
%TO.C,K33*%
X177943900Y-77016100D02*
X177968900Y-72416100D01*
X176768900Y-83266100D02*
X176768900Y-79321100D01*
X176768900Y-79312100D02*
X173158900Y-79312100D01*
X174168900Y-72391100D02*
X177943900Y-72391100D01*
X173243900Y-77041100D02*
X177943900Y-77041100D01*
X172948900Y-70916100D02*
X172948900Y-70216100D01*
X168393900Y-74841100D02*
X170943900Y-74841100D01*
X168393900Y-70191100D02*
X172943900Y-70191100D01*
X168368900Y-74816100D02*
X168368900Y-70216100D01*
X165868900Y-85220100D02*
X174493900Y-85220100D01*
X165868900Y-81312100D02*
X165868900Y-85220100D01*
X165868900Y-81266100D02*
X170918900Y-81220100D01*
X174493900Y-85220099D02*
G75*
G03*
X176757899Y-83336100I190000J2073999D01*
G01*
X172948900Y-70966100D02*
G75*
G03*
X174168900Y-72386100I1320000J-100000D01*
G01*
X170893900Y-81216099D02*
G75*
G03*
X173153899Y-79336100I190000J2069999D01*
G01*
X173238899Y-77016100D02*
G75*
G03*
X170868900Y-74846101I-2269999J-100000D01*
G01*
%TO.C,K32*%
X177943900Y-57966100D02*
X177968900Y-53366100D01*
X176768900Y-64216100D02*
X176768900Y-60271100D01*
X176768900Y-60262100D02*
X173158900Y-60262100D01*
X174168900Y-53341100D02*
X177943900Y-53341100D01*
X173243900Y-57991100D02*
X177943900Y-57991100D01*
X172948900Y-51866100D02*
X172948900Y-51166100D01*
X168393900Y-55791100D02*
X170943900Y-55791100D01*
X168393900Y-51141100D02*
X172943900Y-51141100D01*
X168368900Y-55766100D02*
X168368900Y-51166100D01*
X165868900Y-66170100D02*
X174493900Y-66170100D01*
X165868900Y-62262100D02*
X165868900Y-66170100D01*
X165868900Y-62216100D02*
X170918900Y-62170100D01*
X174493900Y-66170099D02*
G75*
G03*
X176757899Y-64286100I190000J2073999D01*
G01*
X172948900Y-51916100D02*
G75*
G03*
X174168900Y-53336100I1320000J-100000D01*
G01*
X170893900Y-62166099D02*
G75*
G03*
X173153899Y-60286100I190000J2069999D01*
G01*
X173238899Y-57966100D02*
G75*
G03*
X170868900Y-55796101I-2269999J-100000D01*
G01*
%TO.C,K43*%
X158893900Y-74540100D02*
X158918900Y-69940100D01*
X157718900Y-80790100D02*
X157718900Y-76845100D01*
X157718900Y-76836100D02*
X154108900Y-76836100D01*
X155118900Y-69915100D02*
X158893900Y-69915100D01*
X154193900Y-74565100D02*
X158893900Y-74565100D01*
X153898900Y-68440100D02*
X153898900Y-67740100D01*
X149343900Y-72365100D02*
X151893900Y-72365100D01*
X149343900Y-67715100D02*
X153893900Y-67715100D01*
X149318900Y-72340100D02*
X149318900Y-67740100D01*
X146818900Y-82744100D02*
X155443900Y-82744100D01*
X146818900Y-78836100D02*
X146818900Y-82744100D01*
X146818900Y-78790100D02*
X151868900Y-78744100D01*
X155443900Y-82744099D02*
G75*
G03*
X157707899Y-80860100I190000J2073999D01*
G01*
X153898900Y-68490100D02*
G75*
G03*
X155118900Y-69910100I1320000J-100000D01*
G01*
X151843900Y-78740099D02*
G75*
G03*
X154103899Y-76860100I190000J2069999D01*
G01*
X154188899Y-74540100D02*
G75*
G03*
X151818900Y-72370101I-2269999J-100000D01*
G01*
%TO.C,K23*%
X196993900Y-81779100D02*
X197018900Y-77179100D01*
X195818900Y-88029100D02*
X195818900Y-84084100D01*
X195818900Y-84075100D02*
X192208900Y-84075100D01*
X193218900Y-77154100D02*
X196993900Y-77154100D01*
X192293900Y-81804100D02*
X196993900Y-81804100D01*
X191998900Y-75679100D02*
X191998900Y-74979100D01*
X187443900Y-79604100D02*
X189993900Y-79604100D01*
X187443900Y-74954100D02*
X191993900Y-74954100D01*
X187418900Y-79579100D02*
X187418900Y-74979100D01*
X184918900Y-89983100D02*
X193543900Y-89983100D01*
X184918900Y-86075100D02*
X184918900Y-89983100D01*
X184918900Y-86029100D02*
X189968900Y-85983100D01*
X193543900Y-89983099D02*
G75*
G03*
X195807899Y-88099100I190000J2073999D01*
G01*
X191998900Y-75729100D02*
G75*
G03*
X193218900Y-77149100I1320000J-100000D01*
G01*
X189943900Y-85979099D02*
G75*
G03*
X192203899Y-84099100I190000J2069999D01*
G01*
X192288899Y-81779100D02*
G75*
G03*
X189918900Y-79609101I-2269999J-100000D01*
G01*
%TO.C,K22*%
X196993900Y-62729100D02*
X197018900Y-58129100D01*
X195818900Y-68979100D02*
X195818900Y-65034100D01*
X195818900Y-65025100D02*
X192208900Y-65025100D01*
X193218900Y-58104100D02*
X196993900Y-58104100D01*
X192293900Y-62754100D02*
X196993900Y-62754100D01*
X191998900Y-56629100D02*
X191998900Y-55929100D01*
X187443900Y-60554100D02*
X189993900Y-60554100D01*
X187443900Y-55904100D02*
X191993900Y-55904100D01*
X187418900Y-60529100D02*
X187418900Y-55929100D01*
X184918900Y-70933100D02*
X193543900Y-70933100D01*
X184918900Y-67025100D02*
X184918900Y-70933100D01*
X184918900Y-66979100D02*
X189968900Y-66933100D01*
X193543900Y-70933099D02*
G75*
G03*
X195807899Y-69049100I190000J2073999D01*
G01*
X191998900Y-56679100D02*
G75*
G03*
X193218900Y-58099100I1320000J-100000D01*
G01*
X189943900Y-66929099D02*
G75*
G03*
X192203899Y-65049100I190000J2069999D01*
G01*
X192288899Y-62729100D02*
G75*
G03*
X189918900Y-60559101I-2269999J-100000D01*
G01*
%TO.C,K53*%
X139844100Y-77016100D02*
X139869100Y-72416100D01*
X138669100Y-83266100D02*
X138669100Y-79321100D01*
X138669100Y-79312100D02*
X135059100Y-79312100D01*
X136069100Y-72391100D02*
X139844100Y-72391100D01*
X135144100Y-77041100D02*
X139844100Y-77041100D01*
X134849100Y-70916100D02*
X134849100Y-70216100D01*
X130294100Y-74841100D02*
X132844100Y-74841100D01*
X130294100Y-70191100D02*
X134844100Y-70191100D01*
X130269100Y-74816100D02*
X130269100Y-70216100D01*
X127769100Y-85220100D02*
X136394100Y-85220100D01*
X127769100Y-81312100D02*
X127769100Y-85220100D01*
X127769100Y-81266100D02*
X132819100Y-81220100D01*
X136394100Y-85220099D02*
G75*
G03*
X138658099Y-83336100I190000J2073999D01*
G01*
X134849100Y-70966100D02*
G75*
G03*
X136069100Y-72386100I1320000J-100000D01*
G01*
X132794100Y-81216099D02*
G75*
G03*
X135054099Y-79336100I190000J2069999D01*
G01*
X135139099Y-77016100D02*
G75*
G03*
X132769100Y-74846101I-2269999J-100000D01*
G01*
%TO.C,K31*%
X177943900Y-38916100D02*
X177968900Y-34316100D01*
X176768900Y-45166100D02*
X176768900Y-41221100D01*
X176768900Y-41212100D02*
X173158900Y-41212100D01*
X174168900Y-34291100D02*
X177943900Y-34291100D01*
X173243900Y-38941100D02*
X177943900Y-38941100D01*
X172948900Y-32816100D02*
X172948900Y-32116100D01*
X168393900Y-36741100D02*
X170943900Y-36741100D01*
X168393900Y-32091100D02*
X172943900Y-32091100D01*
X168368900Y-36716100D02*
X168368900Y-32116100D01*
X165868900Y-47120100D02*
X174493900Y-47120100D01*
X165868900Y-43212100D02*
X165868900Y-47120100D01*
X165868900Y-43166100D02*
X170918900Y-43120100D01*
X174493900Y-47120099D02*
G75*
G03*
X176757899Y-45236100I190000J2073999D01*
G01*
X172948900Y-32866100D02*
G75*
G03*
X174168900Y-34286100I1320000J-100000D01*
G01*
X170893900Y-43116099D02*
G75*
G03*
X173153899Y-41236100I190000J2069999D01*
G01*
X173238899Y-38916100D02*
G75*
G03*
X170868900Y-36746101I-2269999J-100000D01*
G01*
%TO.C,K12*%
X216043900Y-62729100D02*
X216068900Y-58129100D01*
X214868900Y-68979100D02*
X214868900Y-65034100D01*
X214868900Y-65025100D02*
X211258900Y-65025100D01*
X212268900Y-58104100D02*
X216043900Y-58104100D01*
X211343900Y-62754100D02*
X216043900Y-62754100D01*
X211048900Y-56629100D02*
X211048900Y-55929100D01*
X206493900Y-60554100D02*
X209043900Y-60554100D01*
X206493900Y-55904100D02*
X211043900Y-55904100D01*
X206468900Y-60529100D02*
X206468900Y-55929100D01*
X203968900Y-70933100D02*
X212593900Y-70933100D01*
X203968900Y-67025100D02*
X203968900Y-70933100D01*
X203968900Y-66979100D02*
X209018900Y-66933100D01*
X212593900Y-70933099D02*
G75*
G03*
X214857899Y-69049100I190000J2073999D01*
G01*
X211048900Y-56679100D02*
G75*
G03*
X212268900Y-58099100I1320000J-100000D01*
G01*
X208993900Y-66929099D02*
G75*
G03*
X211253899Y-65049100I190000J2069999D01*
G01*
X211338899Y-62729100D02*
G75*
G03*
X208968900Y-60559101I-2269999J-100000D01*
G01*
%TO.C,K64*%
X120793900Y-98352100D02*
X120818900Y-93752100D01*
X119618900Y-104602100D02*
X119618900Y-100657100D01*
X119618900Y-100648100D02*
X116008900Y-100648100D01*
X117018900Y-93727100D02*
X120793900Y-93727100D01*
X116093900Y-98377100D02*
X120793900Y-98377100D01*
X115798900Y-92252100D02*
X115798900Y-91552100D01*
X111243900Y-96177100D02*
X113793900Y-96177100D01*
X111243900Y-91527100D02*
X115793900Y-91527100D01*
X111218900Y-96152100D02*
X111218900Y-91552100D01*
X108718900Y-106556100D02*
X117343900Y-106556100D01*
X108718900Y-102648100D02*
X108718900Y-106556100D01*
X108718900Y-102602100D02*
X113768900Y-102556100D01*
X117343900Y-106556099D02*
G75*
G03*
X119607899Y-104672100I190000J2073999D01*
G01*
X115798900Y-92302100D02*
G75*
G03*
X117018900Y-93722100I1320000J-100000D01*
G01*
X113743900Y-102552099D02*
G75*
G03*
X116003899Y-100672100I190000J2069999D01*
G01*
X116088899Y-98352100D02*
G75*
G03*
X113718900Y-96182101I-2269999J-100000D01*
G01*
%TO.C,K63*%
X120793900Y-79302100D02*
X120818900Y-74702100D01*
X119618900Y-85552100D02*
X119618900Y-81607100D01*
X119618900Y-81598100D02*
X116008900Y-81598100D01*
X117018900Y-74677100D02*
X120793900Y-74677100D01*
X116093900Y-79327100D02*
X120793900Y-79327100D01*
X115798900Y-73202100D02*
X115798900Y-72502100D01*
X111243900Y-77127100D02*
X113793900Y-77127100D01*
X111243900Y-72477100D02*
X115793900Y-72477100D01*
X111218900Y-77102100D02*
X111218900Y-72502100D01*
X108718900Y-87506100D02*
X117343900Y-87506100D01*
X108718900Y-83598100D02*
X108718900Y-87506100D01*
X108718900Y-83552100D02*
X113768900Y-83506100D01*
X117343900Y-87506099D02*
G75*
G03*
X119607899Y-85622100I190000J2073999D01*
G01*
X115798900Y-73252100D02*
G75*
G03*
X117018900Y-74672100I1320000J-100000D01*
G01*
X113743900Y-83502099D02*
G75*
G03*
X116003899Y-81622100I190000J2069999D01*
G01*
X116088899Y-79302100D02*
G75*
G03*
X113718900Y-77132101I-2269999J-100000D01*
G01*
%TO.C,K62*%
X120793900Y-60252100D02*
X120818900Y-55652100D01*
X119618900Y-66502100D02*
X119618900Y-62557100D01*
X119618900Y-62548100D02*
X116008900Y-62548100D01*
X117018900Y-55627100D02*
X120793900Y-55627100D01*
X116093900Y-60277100D02*
X120793900Y-60277100D01*
X115798900Y-54152100D02*
X115798900Y-53452100D01*
X111243900Y-58077100D02*
X113793900Y-58077100D01*
X111243900Y-53427100D02*
X115793900Y-53427100D01*
X111218900Y-58052100D02*
X111218900Y-53452100D01*
X108718900Y-68456100D02*
X117343900Y-68456100D01*
X108718900Y-64548100D02*
X108718900Y-68456100D01*
X108718900Y-64502100D02*
X113768900Y-64456100D01*
X117343900Y-68456099D02*
G75*
G03*
X119607899Y-66572100I190000J2073999D01*
G01*
X115798900Y-54202100D02*
G75*
G03*
X117018900Y-55622100I1320000J-100000D01*
G01*
X113743900Y-64452099D02*
G75*
G03*
X116003899Y-62572100I190000J2069999D01*
G01*
X116088899Y-60252100D02*
G75*
G03*
X113718900Y-58082101I-2269999J-100000D01*
G01*
%TO.C,K55*%
X116192933Y-129246721D02*
X120922648Y-127476293D01*
X116208666Y-129289947D02*
X117545280Y-132962265D01*
X117545280Y-132962265D02*
X125650129Y-130012342D01*
X116336134Y-122330653D02*
X114762842Y-118008067D01*
X114777784Y-117976024D02*
X119053385Y-116419832D01*
X116368177Y-122345595D02*
X118764393Y-121473443D01*
X119306048Y-117099399D02*
X119066634Y-116441615D01*
X121678131Y-122754121D02*
X126094686Y-121146626D01*
X120956953Y-118068181D02*
X124504292Y-116777055D01*
X125767275Y-123682542D02*
X122374985Y-124917234D01*
X127119623Y-127398086D02*
X125770353Y-123690999D01*
X126086136Y-121123134D02*
X124536335Y-116791997D01*
X121664883Y-122732339D02*
G75*
G03*
X118695627Y-121503793I-2098901J-870355D01*
G01*
X120897787Y-127481084D02*
G75*
G03*
X122378494Y-124941497I-529440J2010147D01*
G01*
X119323149Y-117146384D02*
G75*
G03*
X120955243Y-118063483I1274596J357497D01*
G01*
X125650129Y-130012341D02*
G75*
G03*
X127133227Y-127467627I-530808J2013906D01*
G01*
%TO.C,K45*%
X138195090Y-122607320D02*
X143061110Y-121255851D01*
X138206996Y-122651753D02*
X139218461Y-126426591D01*
X139218461Y-126426591D02*
X147549571Y-124194276D01*
X138940522Y-115730051D02*
X137749954Y-111286792D01*
X137767632Y-111256173D02*
X142162595Y-110078547D01*
X138971141Y-115747728D02*
X141434252Y-115087740D01*
X142355068Y-110777549D02*
X142173895Y-110101401D01*
X144225283Y-116617493D02*
X148765134Y-115401043D01*
X143915256Y-111886530D02*
X147561626Y-110909488D01*
X148217949Y-117898773D02*
X144730957Y-118833110D01*
X149241320Y-121718044D02*
X148220279Y-117907467D01*
X148758664Y-115376895D02*
X147592244Y-110927166D01*
X144213982Y-116594639D02*
G75*
G03*
X141363101Y-115111982I-2166769J-684112D01*
G01*
X143035927Y-121258457D02*
G75*
G03*
X144732338Y-118857586I-352230J2048641D01*
G01*
X142368009Y-110825845D02*
G75*
G03*
X143913962Y-111881700I1300904J245048D01*
G01*
X147549571Y-124194277D02*
G75*
G03*
X149248812Y-121788506I-353265J2052506D01*
G01*
%TD*%
M02*
