%TF.GenerationSoftware,KiCad,Pcbnew,7.0.10*%
%TF.CreationDate,2024-03-07T18:43:10+01:00*%
%TF.ProjectId,xurp_right,78757270-5f72-4696-9768-742e6b696361,rev?*%
%TF.SameCoordinates,Original*%
%TF.FileFunction,Soldermask,Top*%
%TF.FilePolarity,Negative*%
%FSLAX46Y46*%
G04 Gerber Fmt 4.6, Leading zero omitted, Abs format (unit mm)*
G04 Created by KiCad (PCBNEW 7.0.10) date 2024-03-07 18:43:10*
%MOMM*%
%LPD*%
G01*
G04 APERTURE LIST*
G04 Aperture macros list*
%AMRotRect*
0 Rectangle, with rotation*
0 The origin of the aperture is its center*
0 $1 length*
0 $2 width*
0 $3 Rotation angle, in degrees counterclockwise*
0 Add horizontal line*
21,1,$1,$2,0,0,$3*%
G04 Aperture macros list end*
%ADD10C,1.900000*%
%ADD11C,1.700000*%
%ADD12C,3.000000*%
%ADD13C,4.000000*%
%ADD14R,2.000000X2.000000*%
%ADD15R,1.800000X2.000000*%
%ADD16R,1.400000X1.300000*%
%ADD17R,3.500000X1.700000*%
%ADD18O,3.600000X1.700000*%
%ADD19O,3.700000X1.700000*%
%ADD20C,0.500000*%
%ADD21C,0.100000*%
%ADD22RotRect,1.500000X2.000000X110.000000*%
%ADD23RotRect,2.000000X2.000000X200.000000*%
%ADD24RotRect,1.900000X2.000000X200.000000*%
%ADD25RotRect,2.000000X2.000000X195.000000*%
%ADD26RotRect,1.900000X2.000000X195.000000*%
G04 APERTURE END LIST*
D10*
%TO.C,K42*%
X157118900Y-56890100D03*
D11*
X156698900Y-56890100D03*
D12*
X156618900Y-53190100D03*
X155428900Y-59430100D03*
X154158900Y-61970100D03*
D13*
X151618900Y-56890100D03*
D12*
X151618900Y-50990100D03*
X149078900Y-61970100D03*
X147808900Y-59430100D03*
X146618900Y-53190100D03*
D11*
X146538900Y-56890100D03*
D10*
X146118900Y-56890100D03*
D14*
X157218900Y-61970100D03*
X143518900Y-53190100D03*
D15*
X154418900Y-50990100D03*
D14*
X144718900Y-59430100D03*
%TD*%
D16*
%TO.C,D13*%
X206993900Y-73679100D03*
X210543900Y-73679100D03*
%TD*%
D10*
%TO.C,K54*%
X138069100Y-97466100D03*
D11*
X137649100Y-97466100D03*
D12*
X137569100Y-93766100D03*
X136379100Y-100006100D03*
X135109100Y-102546100D03*
D13*
X132569100Y-97466100D03*
D12*
X132569100Y-91566100D03*
X130029100Y-102546100D03*
X128759100Y-100006100D03*
X127569100Y-93766100D03*
D11*
X127489100Y-97466100D03*
D10*
X127069100Y-97466100D03*
D14*
X138169100Y-102546100D03*
X124469100Y-93766100D03*
D15*
X135369100Y-91566100D03*
D14*
X125669100Y-100006100D03*
%TD*%
D16*
%TO.C,D31*%
X168893900Y-30816100D03*
X172443900Y-30816100D03*
%TD*%
D10*
%TO.C,K41*%
X157118900Y-37840100D03*
D11*
X156698900Y-37840100D03*
D12*
X156618900Y-34140100D03*
X155428900Y-40380100D03*
X154158900Y-42920100D03*
D13*
X151618900Y-37840100D03*
D12*
X151618900Y-31940100D03*
X149078900Y-42920100D03*
X147808900Y-40380100D03*
X146618900Y-34140100D03*
D11*
X146538900Y-37840100D03*
D10*
X146118900Y-37840100D03*
D14*
X157218900Y-42920100D03*
X143518900Y-34140100D03*
D15*
X154418900Y-31940100D03*
D14*
X144718900Y-40380100D03*
%TD*%
D16*
%TO.C,D55*%
X121268900Y-111398100D03*
X124818900Y-111398100D03*
%TD*%
D17*
%TO.C,U1*%
X84476100Y-95100000D03*
D18*
X84476100Y-97640000D03*
X84476100Y-100180000D03*
X84476100Y-102720000D03*
X84476100Y-105260000D03*
X84476100Y-107800000D03*
X84476100Y-110340000D03*
X101726100Y-110340000D03*
X101726100Y-107800000D03*
X101726100Y-105260000D03*
D19*
X101726100Y-102720000D03*
X101726100Y-100180000D03*
X101726100Y-97640000D03*
X101726100Y-95100000D03*
%TD*%
D10*
%TO.C,K34*%
X176168900Y-97466100D03*
D11*
X175748900Y-97466100D03*
D12*
X175668900Y-93766100D03*
X174478900Y-100006100D03*
X173208900Y-102546100D03*
D13*
X170668900Y-97466100D03*
D12*
X170668900Y-91566100D03*
X168128900Y-102546100D03*
X166858900Y-100006100D03*
X165668900Y-93766100D03*
D11*
X165588900Y-97466100D03*
D10*
X165168900Y-97466100D03*
D14*
X176268900Y-102546100D03*
X162568900Y-93766100D03*
D15*
X173468900Y-91566100D03*
D14*
X163768900Y-100006100D03*
%TD*%
D10*
%TO.C,K14*%
X214268900Y-102229100D03*
D11*
X213848900Y-102229100D03*
D12*
X213768900Y-98529100D03*
X212578900Y-104769100D03*
X211308900Y-107309100D03*
D13*
X208768900Y-102229100D03*
D12*
X208768900Y-96329100D03*
X206228900Y-107309100D03*
X204958900Y-104769100D03*
X203768900Y-98529100D03*
D11*
X203688900Y-102229100D03*
D10*
X203268900Y-102229100D03*
D14*
X214368900Y-107309100D03*
X200668900Y-98529100D03*
D15*
X211568900Y-96329100D03*
D14*
X201868900Y-104769100D03*
%TD*%
D16*
%TO.C,D33*%
X168893900Y-68916100D03*
X172443900Y-68916100D03*
%TD*%
D10*
%TO.C,K51*%
X138069100Y-40316100D03*
D11*
X137649100Y-40316100D03*
D12*
X137569100Y-36616100D03*
X136379100Y-42856100D03*
X135109100Y-45396100D03*
D13*
X132569100Y-40316100D03*
D12*
X132569100Y-34416100D03*
X130029100Y-45396100D03*
X128759100Y-42856100D03*
X127569100Y-36616100D03*
D11*
X127489100Y-40316100D03*
D10*
X127069100Y-40316100D03*
D14*
X138169100Y-45396100D03*
X124469100Y-36616100D03*
D15*
X135369100Y-34416100D03*
D14*
X125669100Y-42856100D03*
%TD*%
D16*
%TO.C,D34*%
X168893900Y-87966100D03*
X172443900Y-87966100D03*
%TD*%
%TO.C,D65*%
X110307200Y-114136100D03*
X113857200Y-114136100D03*
%TD*%
D20*
%TO.C,s5*%
X200776100Y-92600000D03*
X200336100Y-91540000D03*
X200336100Y-93660000D03*
X199276100Y-91100000D03*
D13*
X199276100Y-92600000D03*
D20*
X199276100Y-94100000D03*
X198216100Y-91540000D03*
X198216100Y-93660000D03*
X197776100Y-92600000D03*
%TD*%
D10*
%TO.C,K24*%
X195218900Y-102229100D03*
D11*
X194798900Y-102229100D03*
D12*
X194718900Y-98529100D03*
X193528900Y-104769100D03*
X192258900Y-107309100D03*
D13*
X189718900Y-102229100D03*
D12*
X189718900Y-96329100D03*
X187178900Y-107309100D03*
X185908900Y-104769100D03*
X184718900Y-98529100D03*
D11*
X184638900Y-102229100D03*
D10*
X184218900Y-102229100D03*
D14*
X195318900Y-107309100D03*
X181618900Y-98529100D03*
D15*
X192518900Y-96329100D03*
D14*
X182818900Y-104769100D03*
%TD*%
D20*
%TO.C,s1*%
X124576100Y-50800000D03*
X124136100Y-49740000D03*
X124136100Y-51860000D03*
X123076100Y-49300000D03*
D13*
X123076100Y-50800000D03*
D20*
X123076100Y-52300000D03*
X122016100Y-49740000D03*
X122016100Y-51860000D03*
X121576100Y-50800000D03*
%TD*%
D16*
%TO.C,D52*%
X130794100Y-49866100D03*
X134344100Y-49866100D03*
%TD*%
D10*
%TO.C,K44*%
X157118900Y-94990100D03*
D11*
X156698900Y-94990100D03*
D12*
X156618900Y-91290100D03*
X155428900Y-97530100D03*
X154158900Y-100070100D03*
D13*
X151618900Y-94990100D03*
D12*
X151618900Y-89090100D03*
X149078900Y-100070100D03*
X147808900Y-97530100D03*
X146618900Y-91290100D03*
D11*
X146538900Y-94990100D03*
D10*
X146118900Y-94990100D03*
D14*
X157218900Y-100070100D03*
X143518900Y-91290100D03*
D15*
X154418900Y-89090100D03*
D14*
X144718900Y-97530100D03*
%TD*%
D16*
%TO.C,D51*%
X130794100Y-30816100D03*
X134344100Y-30816100D03*
%TD*%
D10*
%TO.C,K52*%
X138069100Y-59366100D03*
D11*
X137649100Y-59366100D03*
D12*
X137569100Y-55666100D03*
X136379100Y-61906100D03*
X135109100Y-64446100D03*
D13*
X132569100Y-59366100D03*
D12*
X132569100Y-53466100D03*
X130029100Y-64446100D03*
X128759100Y-61906100D03*
X127569100Y-55666100D03*
D11*
X127489100Y-59366100D03*
D10*
X127069100Y-59366100D03*
D14*
X138169100Y-64446100D03*
X124469100Y-55666100D03*
D15*
X135369100Y-53466100D03*
D14*
X125669100Y-61906100D03*
%TD*%
D10*
%TO.C,K21*%
X195218900Y-45079100D03*
D11*
X194798900Y-45079100D03*
D12*
X194718900Y-41379100D03*
X193528900Y-47619100D03*
X192258900Y-50159100D03*
D13*
X189718900Y-45079100D03*
D12*
X189718900Y-39179100D03*
X187178900Y-50159100D03*
X185908900Y-47619100D03*
X184718900Y-41379100D03*
D11*
X184638900Y-45079100D03*
D10*
X184218900Y-45079100D03*
D14*
X195318900Y-50159100D03*
X181618900Y-41379100D03*
D15*
X192518900Y-39179100D03*
D14*
X182818900Y-47619100D03*
%TD*%
D12*
%TO.C,K65*%
X96977293Y-137160382D03*
X95239830Y-132386743D03*
D21*
X99766020Y-137512836D03*
X97149566Y-130324188D03*
D12*
X99798477Y-137485060D03*
X99798477Y-137485060D03*
X97192284Y-130324602D03*
D10*
X102763311Y-138204409D03*
D11*
X102619662Y-137809739D03*
D13*
X100882200Y-133036100D03*
D11*
X99144738Y-128262461D03*
D10*
X99001089Y-127867791D03*
D12*
X106069163Y-136469089D03*
X102648962Y-127072162D03*
X106426386Y-131018181D03*
D22*
X96169644Y-127514921D03*
X101622902Y-124253085D03*
X97989672Y-139941872D03*
X107452447Y-133837259D03*
%TD*%
D10*
%TO.C,K61*%
X119018900Y-42602100D03*
D11*
X118598900Y-42602100D03*
D12*
X118518900Y-38902100D03*
X117328900Y-45142100D03*
X116058900Y-47682100D03*
D13*
X113518900Y-42602100D03*
D12*
X113518900Y-36702100D03*
X110978900Y-47682100D03*
X109708900Y-45142100D03*
X108518900Y-38902100D03*
D11*
X108438900Y-42602100D03*
D10*
X108018900Y-42602100D03*
D14*
X119118900Y-47682100D03*
X105418900Y-38902100D03*
D15*
X116318900Y-36702100D03*
D14*
X106618900Y-45142100D03*
%TD*%
D10*
%TO.C,K11*%
X214268900Y-45079100D03*
D11*
X213848900Y-45079100D03*
D12*
X213768900Y-41379100D03*
X212578900Y-47619100D03*
X211308900Y-50159100D03*
D13*
X208768900Y-45079100D03*
D12*
X208768900Y-39179100D03*
X206228900Y-50159100D03*
X204958900Y-47619100D03*
X203768900Y-41379100D03*
D11*
X203688900Y-45079100D03*
D10*
X203268900Y-45079100D03*
D14*
X214368900Y-50159100D03*
X200668900Y-41379100D03*
D15*
X211568900Y-39179100D03*
D14*
X201868900Y-47619100D03*
%TD*%
D10*
%TO.C,K13*%
X214268900Y-83179100D03*
D11*
X213848900Y-83179100D03*
D12*
X213768900Y-79479100D03*
X212578900Y-85719100D03*
X211308900Y-88259100D03*
D13*
X208768900Y-83179100D03*
D12*
X208768900Y-77279100D03*
X206228900Y-88259100D03*
X204958900Y-85719100D03*
X203768900Y-79479100D03*
D11*
X203688900Y-83179100D03*
D10*
X203268900Y-83179100D03*
D14*
X214368900Y-88259100D03*
X200668900Y-79479100D03*
D15*
X211568900Y-77279100D03*
D14*
X201868900Y-85719100D03*
%TD*%
D10*
%TO.C,K33*%
X176168900Y-78416100D03*
D11*
X175748900Y-78416100D03*
D12*
X175668900Y-74716100D03*
X174478900Y-80956100D03*
X173208900Y-83496100D03*
D13*
X170668900Y-78416100D03*
D12*
X170668900Y-72516100D03*
X168128900Y-83496100D03*
X166858900Y-80956100D03*
X165668900Y-74716100D03*
D11*
X165588900Y-78416100D03*
D10*
X165168900Y-78416100D03*
D14*
X176268900Y-83496100D03*
X162568900Y-74716100D03*
D15*
X173468900Y-72516100D03*
D14*
X163768900Y-80956100D03*
%TD*%
D10*
%TO.C,K32*%
X176168900Y-59366100D03*
D11*
X175748900Y-59366100D03*
D12*
X175668900Y-55666100D03*
X174478900Y-61906100D03*
X173208900Y-64446100D03*
D13*
X170668900Y-59366100D03*
D12*
X170668900Y-53466100D03*
X168128900Y-64446100D03*
X166858900Y-61906100D03*
X165668900Y-55666100D03*
D11*
X165588900Y-59366100D03*
D10*
X165168900Y-59366100D03*
D14*
X176268900Y-64446100D03*
X162568900Y-55666100D03*
D15*
X173468900Y-53466100D03*
D14*
X163768900Y-61906100D03*
%TD*%
D20*
%TO.C,s4*%
X200776100Y-54500000D03*
X200336100Y-53440000D03*
X200336100Y-55560000D03*
X199276100Y-53000000D03*
D13*
X199276100Y-54500000D03*
D20*
X199276100Y-56000000D03*
X198216100Y-53440000D03*
X198216100Y-55560000D03*
X197776100Y-54500000D03*
%TD*%
D10*
%TO.C,K43*%
X157118900Y-75940100D03*
D11*
X156698900Y-75940100D03*
D12*
X156618900Y-72240100D03*
X155428900Y-78480100D03*
X154158900Y-81020100D03*
D13*
X151618900Y-75940100D03*
D12*
X151618900Y-70040100D03*
X149078900Y-81020100D03*
X147808900Y-78480100D03*
X146618900Y-72240100D03*
D11*
X146538900Y-75940100D03*
D10*
X146118900Y-75940100D03*
D14*
X157218900Y-81020100D03*
X143518900Y-72240100D03*
D15*
X154418900Y-70040100D03*
D14*
X144718900Y-78480100D03*
%TD*%
D10*
%TO.C,K23*%
X195218900Y-83179100D03*
D11*
X194798900Y-83179100D03*
D12*
X194718900Y-79479100D03*
X193528900Y-85719100D03*
X192258900Y-88259100D03*
D13*
X189718900Y-83179100D03*
D12*
X189718900Y-77279100D03*
X187178900Y-88259100D03*
X185908900Y-85719100D03*
X184718900Y-79479100D03*
D11*
X184638900Y-83179100D03*
D10*
X184218900Y-83179100D03*
D14*
X195318900Y-88259100D03*
X181618900Y-79479100D03*
D15*
X192518900Y-77279100D03*
D14*
X182818900Y-85719100D03*
%TD*%
D16*
%TO.C,D42*%
X149843900Y-47390100D03*
X153393900Y-47390100D03*
%TD*%
%TO.C,D54*%
X130794100Y-87966100D03*
X134344100Y-87966100D03*
%TD*%
%TO.C,D61*%
X111743900Y-33102100D03*
X115293900Y-33102100D03*
%TD*%
D10*
%TO.C,K22*%
X195218900Y-64129100D03*
D11*
X194798900Y-64129100D03*
D12*
X194718900Y-60429100D03*
X193528900Y-66669100D03*
X192258900Y-69209100D03*
D13*
X189718900Y-64129100D03*
D12*
X189718900Y-58229100D03*
X187178900Y-69209100D03*
X185908900Y-66669100D03*
X184718900Y-60429100D03*
D11*
X184638900Y-64129100D03*
D10*
X184218900Y-64129100D03*
D14*
X195318900Y-69209100D03*
X181618900Y-60429100D03*
D15*
X192518900Y-58229100D03*
D14*
X182818900Y-66669100D03*
%TD*%
D16*
%TO.C,D32*%
X168893900Y-49866100D03*
X172443900Y-49866100D03*
%TD*%
%TO.C,D14*%
X206993900Y-92729100D03*
X210543900Y-92729100D03*
%TD*%
%TO.C,D22*%
X187943900Y-54629100D03*
X191493900Y-54629100D03*
%TD*%
D20*
%TO.C,s6*%
X100676100Y-118700000D03*
X100236100Y-117640000D03*
X100236100Y-119760000D03*
X99176100Y-117200000D03*
D13*
X99176100Y-118700000D03*
D20*
X99176100Y-120200000D03*
X98116100Y-117640000D03*
X98116100Y-119760000D03*
X97676100Y-118700000D03*
%TD*%
D16*
%TO.C,D44*%
X149843900Y-85490100D03*
X153393900Y-85490100D03*
%TD*%
D10*
%TO.C,K53*%
X138069100Y-78416100D03*
D11*
X137649100Y-78416100D03*
D12*
X137569100Y-74716100D03*
X136379100Y-80956100D03*
X135109100Y-83496100D03*
D13*
X132569100Y-78416100D03*
D12*
X132569100Y-72516100D03*
X130029100Y-83496100D03*
X128759100Y-80956100D03*
X127569100Y-74716100D03*
D11*
X127489100Y-78416100D03*
D10*
X127069100Y-78416100D03*
D14*
X138169100Y-83496100D03*
X124469100Y-74716100D03*
D15*
X135369100Y-72516100D03*
D14*
X125669100Y-80956100D03*
%TD*%
D20*
%TO.C,s3*%
X162576100Y-67500000D03*
X162136100Y-66440000D03*
X162136100Y-68560000D03*
X161076100Y-66000000D03*
D13*
X161076100Y-67500000D03*
D20*
X161076100Y-69000000D03*
X160016100Y-66440000D03*
X160016100Y-68560000D03*
X159576100Y-67500000D03*
%TD*%
D16*
%TO.C,D23*%
X187943900Y-73679100D03*
X191493900Y-73679100D03*
%TD*%
%TO.C,D63*%
X111743900Y-71202100D03*
X115293900Y-71202100D03*
%TD*%
D10*
%TO.C,K31*%
X176168900Y-40316100D03*
D11*
X175748900Y-40316100D03*
D12*
X175668900Y-36616100D03*
X174478900Y-42856100D03*
X173208900Y-45396100D03*
D13*
X170668900Y-40316100D03*
D12*
X170668900Y-34416100D03*
X168128900Y-45396100D03*
X166858900Y-42856100D03*
X165668900Y-36616100D03*
D11*
X165588900Y-40316100D03*
D10*
X165168900Y-40316100D03*
D14*
X176268900Y-45396100D03*
X162568900Y-36616100D03*
D15*
X173468900Y-34416100D03*
D14*
X163768900Y-42856100D03*
%TD*%
D16*
%TO.C,D41*%
X149843900Y-28340100D03*
X153393900Y-28340100D03*
%TD*%
D10*
%TO.C,K12*%
X214268900Y-64129100D03*
D11*
X213848900Y-64129100D03*
D12*
X213768900Y-60429100D03*
X212578900Y-66669100D03*
X211308900Y-69209100D03*
D13*
X208768900Y-64129100D03*
D12*
X208768900Y-58229100D03*
X206228900Y-69209100D03*
X204958900Y-66669100D03*
X203768900Y-60429100D03*
D11*
X203688900Y-64129100D03*
D10*
X203268900Y-64129100D03*
D14*
X214368900Y-69209100D03*
X200668900Y-60429100D03*
D15*
X211568900Y-58229100D03*
D14*
X201868900Y-66669100D03*
%TD*%
D20*
%TO.C,s2*%
X124376100Y-88600000D03*
X123936100Y-87540000D03*
X123936100Y-89660000D03*
X122876100Y-87100000D03*
D13*
X122876100Y-88600000D03*
D20*
X122876100Y-90100000D03*
X121816100Y-87540000D03*
X121816100Y-89660000D03*
X121376100Y-88600000D03*
%TD*%
D16*
%TO.C,D53*%
X130794100Y-68916100D03*
X134344100Y-68916100D03*
%TD*%
%TO.C,D24*%
X187943900Y-92729100D03*
X191493900Y-92729100D03*
%TD*%
D10*
%TO.C,K64*%
X119018900Y-99752100D03*
D11*
X118598900Y-99752100D03*
D12*
X118518900Y-96052100D03*
X117328900Y-102292100D03*
X116058900Y-104832100D03*
D13*
X113518900Y-99752100D03*
D12*
X113518900Y-93852100D03*
X110978900Y-104832100D03*
X109708900Y-102292100D03*
X108518900Y-96052100D03*
D11*
X108438900Y-99752100D03*
D10*
X108018900Y-99752100D03*
D14*
X119118900Y-104832100D03*
X105418900Y-96052100D03*
D15*
X116318900Y-93852100D03*
D14*
X106618900Y-102292100D03*
%TD*%
D16*
%TO.C,D21*%
X187943900Y-35579100D03*
X191493900Y-35579100D03*
%TD*%
D10*
%TO.C,K63*%
X119018900Y-80702100D03*
D11*
X118598900Y-80702100D03*
D12*
X118518900Y-77002100D03*
X117328900Y-83242100D03*
X116058900Y-85782100D03*
D13*
X113518900Y-80702100D03*
D12*
X113518900Y-74802100D03*
X110978900Y-85782100D03*
X109708900Y-83242100D03*
X108518900Y-77002100D03*
D11*
X108438900Y-80702100D03*
D10*
X108018900Y-80702100D03*
D14*
X119118900Y-85782100D03*
X105418900Y-77002100D03*
D15*
X116318900Y-74802100D03*
D14*
X106618900Y-83242100D03*
%TD*%
D16*
%TO.C,D43*%
X149843900Y-66440100D03*
X153393900Y-66440100D03*
%TD*%
%TO.C,D11*%
X206993900Y-35579100D03*
X210543900Y-35579100D03*
%TD*%
%TO.C,D64*%
X111743900Y-90252100D03*
X115293900Y-90252100D03*
%TD*%
%TO.C,D62*%
X111743900Y-52152100D03*
X115293900Y-52152100D03*
%TD*%
D10*
%TO.C,K62*%
X119018900Y-61652100D03*
D11*
X118598900Y-61652100D03*
D12*
X118518900Y-57952100D03*
X117328900Y-64192100D03*
X116058900Y-66732100D03*
D13*
X113518900Y-61652100D03*
D12*
X113518900Y-55752100D03*
X110978900Y-66732100D03*
X109708900Y-64192100D03*
X108518900Y-57952100D03*
D11*
X108438900Y-61652100D03*
D10*
X108018900Y-61652100D03*
D14*
X119118900Y-66732100D03*
X105418900Y-57952100D03*
D15*
X116318900Y-55752100D03*
D14*
X106618900Y-64192100D03*
%TD*%
D16*
%TO.C,D12*%
X206993900Y-54629100D03*
X210543900Y-54629100D03*
%TD*%
%TO.C,D45*%
X140318900Y-109112100D03*
X143868900Y-109112100D03*
%TD*%
D10*
%TO.C,K55*%
X114560391Y-126808011D03*
D11*
X114955061Y-126664362D03*
D12*
X113764762Y-123160138D03*
X117017202Y-128616816D03*
X119079343Y-130569270D03*
X117710781Y-119382714D03*
D13*
X119728700Y-124926900D03*
D12*
X123852982Y-128831807D03*
X124177660Y-126010623D03*
X123161689Y-119739937D03*
D11*
X124502339Y-123189438D03*
D10*
X124897009Y-123045789D03*
D23*
X110851715Y-124220400D03*
X114113552Y-129673658D03*
D24*
X120341920Y-118425057D03*
D23*
X126728441Y-127785226D03*
%TD*%
D10*
%TO.C,K45*%
X136781308Y-120035605D03*
D11*
X137186997Y-119926901D03*
D12*
X136306640Y-116332270D03*
X139071123Y-122051652D03*
X140955249Y-124176404D03*
X140566868Y-112913138D03*
D13*
X142093900Y-118612100D03*
D12*
X145862152Y-122861603D03*
X146431478Y-120079451D03*
X145965899Y-113744079D03*
D11*
X147000803Y-117297299D03*
D10*
X147406492Y-117188595D03*
D25*
X133312270Y-117134609D03*
X136086412Y-122851403D03*
D26*
X143271460Y-112188444D03*
D25*
X148817885Y-122069617D03*
%TD*%
M02*
