%TF.GenerationSoftware,KiCad,Pcbnew,7.0.10*%
%TF.CreationDate,2024-03-07T18:43:10+01:00*%
%TF.ProjectId,xurp_right,78757270-5f72-4696-9768-742e6b696361,rev?*%
%TF.SameCoordinates,Original*%
%TF.FileFunction,Copper,L1,Top*%
%TF.FilePolarity,Positive*%
%FSLAX46Y46*%
G04 Gerber Fmt 4.6, Leading zero omitted, Abs format (unit mm)*
G04 Created by KiCad (PCBNEW 7.0.10) date 2024-03-07 18:43:10*
%MOMM*%
%LPD*%
G01*
G04 APERTURE LIST*
G04 Aperture macros list*
%AMRotRect*
0 Rectangle, with rotation*
0 The origin of the aperture is its center*
0 $1 length*
0 $2 width*
0 $3 Rotation angle, in degrees counterclockwise*
0 Add horizontal line*
21,1,$1,$2,0,0,$3*%
G04 Aperture macros list end*
%TA.AperFunction,SMDPad,CuDef*%
%ADD10R,2.000000X2.000000*%
%TD*%
%TA.AperFunction,SMDPad,CuDef*%
%ADD11R,1.800000X2.000000*%
%TD*%
%TA.AperFunction,ComponentPad*%
%ADD12R,1.778000X1.300000*%
%TD*%
%TA.AperFunction,SMDPad,CuDef*%
%ADD13R,1.400000X1.300000*%
%TD*%
%TA.AperFunction,ComponentPad*%
%ADD14O,1.778000X1.300000*%
%TD*%
%TA.AperFunction,ComponentPad*%
%ADD15R,3.500000X1.700000*%
%TD*%
%TA.AperFunction,ComponentPad*%
%ADD16O,3.600000X1.700000*%
%TD*%
%TA.AperFunction,ComponentPad*%
%ADD17O,3.700000X1.700000*%
%TD*%
%TA.AperFunction,ComponentPad*%
%ADD18C,0.500000*%
%TD*%
%TA.AperFunction,ComponentPad*%
%ADD19C,4.000000*%
%TD*%
%TA.AperFunction,SMDPad,CuDef*%
%ADD20RotRect,1.500000X2.000000X110.000000*%
%TD*%
%TA.AperFunction,SMDPad,CuDef*%
%ADD21RotRect,2.000000X2.000000X200.000000*%
%TD*%
%TA.AperFunction,SMDPad,CuDef*%
%ADD22RotRect,1.900000X2.000000X200.000000*%
%TD*%
%TA.AperFunction,SMDPad,CuDef*%
%ADD23RotRect,2.000000X2.000000X195.000000*%
%TD*%
%TA.AperFunction,SMDPad,CuDef*%
%ADD24RotRect,1.900000X2.000000X195.000000*%
%TD*%
%TA.AperFunction,ViaPad*%
%ADD25C,0.800000*%
%TD*%
%TA.AperFunction,Conductor*%
%ADD26C,0.250000*%
%TD*%
G04 APERTURE END LIST*
D10*
%TO.P,K42,1*%
%TO.N,Column 4*%
X157218900Y-61970100D03*
X143518900Y-53190100D03*
D11*
%TO.P,K42,2*%
%TO.N,Net-(D42-A)*%
X154418900Y-50990100D03*
D10*
X144718900Y-59430100D03*
%TD*%
D12*
%TO.P,D13,1,K*%
%TO.N,Row 3*%
X205768900Y-73679100D03*
D13*
X206993900Y-73679100D03*
%TO.P,D13,2,A*%
%TO.N,Net-(D13-A)*%
X210543900Y-73679100D03*
D14*
X211768900Y-73679100D03*
%TD*%
D10*
%TO.P,K54,1*%
%TO.N,Column 5*%
X138169100Y-102546100D03*
X124469100Y-93766100D03*
D11*
%TO.P,K54,2*%
%TO.N,Net-(D54-A)*%
X135369100Y-91566100D03*
D10*
X125669100Y-100006100D03*
%TD*%
D12*
%TO.P,D31,1,K*%
%TO.N,Row 1*%
X167668900Y-30816100D03*
D13*
X168893900Y-30816100D03*
%TO.P,D31,2,A*%
%TO.N,Net-(D31-A)*%
X172443900Y-30816100D03*
D14*
X173668900Y-30816100D03*
%TD*%
D10*
%TO.P,K41,1*%
%TO.N,Column 4*%
X157218900Y-42920100D03*
X143518900Y-34140100D03*
D11*
%TO.P,K41,2*%
%TO.N,Net-(D41-A)*%
X154418900Y-31940100D03*
D10*
X144718900Y-40380100D03*
%TD*%
D12*
%TO.P,D55,1,K*%
%TO.N,Row 5*%
X120043900Y-111398100D03*
D13*
X121268900Y-111398100D03*
%TO.P,D55,2,A*%
%TO.N,Net-(D55-A)*%
X124818900Y-111398100D03*
D14*
X126043900Y-111398100D03*
%TD*%
D15*
%TO.P,U1,1,PA02_A0_D0*%
%TO.N,Row 1*%
X84476100Y-95100000D03*
D16*
%TO.P,U1,2,PA4_A1_D1*%
%TO.N,Row 2*%
X84476100Y-97640000D03*
%TO.P,U1,3,PA10_A2_D2*%
%TO.N,Row 3*%
X84476100Y-100180000D03*
%TO.P,U1,4,PA11_A3_D3*%
%TO.N,Row 4*%
X84476100Y-102720000D03*
%TO.P,U1,5,PA8_A4_D4_SDA*%
%TO.N,Row 5*%
X84476100Y-105260000D03*
%TO.P,U1,6,PA9_A5_D5_SCL*%
%TO.N,Column 1*%
X84476100Y-107800000D03*
%TO.P,U1,7,PB08_A6_TX*%
%TO.N,Column 2*%
X84476100Y-110340000D03*
%TO.P,U1,8,PB09_D7_RX*%
%TO.N,Column 6*%
X101726100Y-110340000D03*
%TO.P,U1,9,PA7_A8_D8_SCK*%
%TO.N,Column 5*%
X101726100Y-107800000D03*
%TO.P,U1,10,PA5_A9_D9_MISO*%
%TO.N,Column 4*%
X101726100Y-105260000D03*
D17*
%TO.P,U1,11,PA6_A10_D10_MOSI*%
%TO.N,Column 3*%
X101726100Y-102720000D03*
%TO.P,U1,12,3V3*%
%TO.N,unconnected-(U1-3V3-Pad12)*%
X101726100Y-100180000D03*
%TO.P,U1,13,GND*%
%TO.N,ground*%
X101726100Y-97640000D03*
%TO.P,U1,14,5V*%
%TO.N,unconnected-(U1-5V-Pad14)*%
X101726100Y-95100000D03*
%TD*%
D10*
%TO.P,K34,1*%
%TO.N,Column 3*%
X176268900Y-102546100D03*
X162568900Y-93766100D03*
D11*
%TO.P,K34,2*%
%TO.N,Net-(D34-A)*%
X173468900Y-91566100D03*
D10*
X163768900Y-100006100D03*
%TD*%
%TO.P,K14,1*%
%TO.N,Column 1*%
X214368900Y-107309100D03*
X200668900Y-98529100D03*
D11*
%TO.P,K14,2*%
%TO.N,Net-(D14-A)*%
X211568900Y-96329100D03*
D10*
X201868900Y-104769100D03*
%TD*%
D12*
%TO.P,D33,1,K*%
%TO.N,Row 3*%
X167668900Y-68916100D03*
D13*
X168893900Y-68916100D03*
%TO.P,D33,2,A*%
%TO.N,Net-(D33-A)*%
X172443900Y-68916100D03*
D14*
X173668900Y-68916100D03*
%TD*%
D10*
%TO.P,K51,1*%
%TO.N,Column 5*%
X138169100Y-45396100D03*
X124469100Y-36616100D03*
D11*
%TO.P,K51,2*%
%TO.N,Net-(D51-A)*%
X135369100Y-34416100D03*
D10*
X125669100Y-42856100D03*
%TD*%
D12*
%TO.P,D34,1,K*%
%TO.N,Row 4*%
X167668900Y-87966100D03*
D13*
X168893900Y-87966100D03*
%TO.P,D34,2,A*%
%TO.N,Net-(D34-A)*%
X172443900Y-87966100D03*
D14*
X173668900Y-87966100D03*
%TD*%
D12*
%TO.P,D65,1,K*%
%TO.N,Row 5*%
X109082200Y-114136100D03*
D13*
X110307200Y-114136100D03*
%TO.P,D65,2,A*%
%TO.N,Net-(D65-A)*%
X113857200Y-114136100D03*
D14*
X115082200Y-114136100D03*
%TD*%
D18*
%TO.P,s5,1*%
%TO.N,N/C*%
X200776100Y-92600000D03*
X200336100Y-91540000D03*
X200336100Y-93660000D03*
X199276100Y-91100000D03*
D19*
X199276100Y-92600000D03*
D18*
X199276100Y-94100000D03*
X198216100Y-91540000D03*
X198216100Y-93660000D03*
X197776100Y-92600000D03*
%TD*%
D10*
%TO.P,K24,1*%
%TO.N,Column 2*%
X195318900Y-107309100D03*
X181618900Y-98529100D03*
D11*
%TO.P,K24,2*%
%TO.N,Net-(D24-A)*%
X192518900Y-96329100D03*
D10*
X182818900Y-104769100D03*
%TD*%
D18*
%TO.P,s1,1*%
%TO.N,N/C*%
X124576100Y-50800000D03*
X124136100Y-49740000D03*
X124136100Y-51860000D03*
X123076100Y-49300000D03*
D19*
X123076100Y-50800000D03*
D18*
X123076100Y-52300000D03*
X122016100Y-49740000D03*
X122016100Y-51860000D03*
X121576100Y-50800000D03*
%TD*%
D12*
%TO.P,D52,1,K*%
%TO.N,Row 2*%
X129569100Y-49866100D03*
D13*
X130794100Y-49866100D03*
%TO.P,D52,2,A*%
%TO.N,Net-(D52-A)*%
X134344100Y-49866100D03*
D14*
X135569100Y-49866100D03*
%TD*%
D10*
%TO.P,K44,1*%
%TO.N,Column 4*%
X157218900Y-100070100D03*
X143518900Y-91290100D03*
D11*
%TO.P,K44,2*%
%TO.N,Net-(D44-A)*%
X154418900Y-89090100D03*
D10*
X144718900Y-97530100D03*
%TD*%
D12*
%TO.P,D51,1,K*%
%TO.N,Row 1*%
X129569100Y-30816100D03*
D13*
X130794100Y-30816100D03*
%TO.P,D51,2,A*%
%TO.N,Net-(D51-A)*%
X134344100Y-30816100D03*
D14*
X135569100Y-30816100D03*
%TD*%
D10*
%TO.P,K52,1*%
%TO.N,Column 5*%
X138169100Y-64446100D03*
X124469100Y-55666100D03*
D11*
%TO.P,K52,2*%
%TO.N,Net-(D52-A)*%
X135369100Y-53466100D03*
D10*
X125669100Y-61906100D03*
%TD*%
%TO.P,K21,1*%
%TO.N,Column 2*%
X195318900Y-50159100D03*
X181618900Y-41379100D03*
D11*
%TO.P,K21,2*%
%TO.N,Net-(D21-A)*%
X192518900Y-39179100D03*
D10*
X182818900Y-47619100D03*
%TD*%
D20*
%TO.P,K65,1*%
%TO.N,Column 6*%
X96169644Y-127514921D03*
X101622902Y-124253085D03*
%TO.P,K65,2*%
%TO.N,Net-(D65-A)*%
X97989672Y-139941872D03*
X107452447Y-133837259D03*
%TD*%
D10*
%TO.P,K61,1*%
%TO.N,Column 6*%
X119118900Y-47682100D03*
X105418900Y-38902100D03*
D11*
%TO.P,K61,2*%
%TO.N,Net-(D61-A)*%
X116318900Y-36702100D03*
D10*
X106618900Y-45142100D03*
%TD*%
%TO.P,K11,1*%
%TO.N,Column 1*%
X214368900Y-50159100D03*
X200668900Y-41379100D03*
D11*
%TO.P,K11,2*%
%TO.N,Net-(D11-A)*%
X211568900Y-39179100D03*
D10*
X201868900Y-47619100D03*
%TD*%
%TO.P,K13,1*%
%TO.N,Column 1*%
X214368900Y-88259100D03*
X200668900Y-79479100D03*
D11*
%TO.P,K13,2*%
%TO.N,Net-(D13-A)*%
X211568900Y-77279100D03*
D10*
X201868900Y-85719100D03*
%TD*%
%TO.P,K33,1*%
%TO.N,Column 3*%
X176268900Y-83496100D03*
X162568900Y-74716100D03*
D11*
%TO.P,K33,2*%
%TO.N,Net-(D33-A)*%
X173468900Y-72516100D03*
D10*
X163768900Y-80956100D03*
%TD*%
%TO.P,K32,1*%
%TO.N,Column 3*%
X176268900Y-64446100D03*
X162568900Y-55666100D03*
D11*
%TO.P,K32,2*%
%TO.N,Net-(D32-A)*%
X173468900Y-53466100D03*
D10*
X163768900Y-61906100D03*
%TD*%
D18*
%TO.P,s4,1*%
%TO.N,N/C*%
X200776100Y-54500000D03*
X200336100Y-53440000D03*
X200336100Y-55560000D03*
X199276100Y-53000000D03*
D19*
X199276100Y-54500000D03*
D18*
X199276100Y-56000000D03*
X198216100Y-53440000D03*
X198216100Y-55560000D03*
X197776100Y-54500000D03*
%TD*%
D10*
%TO.P,K43,1*%
%TO.N,Column 4*%
X157218900Y-81020100D03*
X143518900Y-72240100D03*
D11*
%TO.P,K43,2*%
%TO.N,Net-(D43-A)*%
X154418900Y-70040100D03*
D10*
X144718900Y-78480100D03*
%TD*%
%TO.P,K23,1*%
%TO.N,Column 2*%
X195318900Y-88259100D03*
X181618900Y-79479100D03*
D11*
%TO.P,K23,2*%
%TO.N,Net-(D23-A)*%
X192518900Y-77279100D03*
D10*
X182818900Y-85719100D03*
%TD*%
D12*
%TO.P,D42,1,K*%
%TO.N,Row 2*%
X148618900Y-47390100D03*
D13*
X149843900Y-47390100D03*
%TO.P,D42,2,A*%
%TO.N,Net-(D42-A)*%
X153393900Y-47390100D03*
D14*
X154618900Y-47390100D03*
%TD*%
D12*
%TO.P,D54,1,K*%
%TO.N,Row 4*%
X129569100Y-87966100D03*
D13*
X130794100Y-87966100D03*
%TO.P,D54,2,A*%
%TO.N,Net-(D54-A)*%
X134344100Y-87966100D03*
D14*
X135569100Y-87966100D03*
%TD*%
D12*
%TO.P,D61,1,K*%
%TO.N,Row 1*%
X110518900Y-33102100D03*
D13*
X111743900Y-33102100D03*
%TO.P,D61,2,A*%
%TO.N,Net-(D61-A)*%
X115293900Y-33102100D03*
D14*
X116518900Y-33102100D03*
%TD*%
D10*
%TO.P,K22,1*%
%TO.N,Column 2*%
X195318900Y-69209100D03*
X181618900Y-60429100D03*
D11*
%TO.P,K22,2*%
%TO.N,Net-(D22-A)*%
X192518900Y-58229100D03*
D10*
X182818900Y-66669100D03*
%TD*%
D12*
%TO.P,D32,1,K*%
%TO.N,Row 2*%
X167668900Y-49866100D03*
D13*
X168893900Y-49866100D03*
%TO.P,D32,2,A*%
%TO.N,Net-(D32-A)*%
X172443900Y-49866100D03*
D14*
X173668900Y-49866100D03*
%TD*%
D12*
%TO.P,D14,1,K*%
%TO.N,Row 4*%
X205768900Y-92729100D03*
D13*
X206993900Y-92729100D03*
%TO.P,D14,2,A*%
%TO.N,Net-(D14-A)*%
X210543900Y-92729100D03*
D14*
X211768900Y-92729100D03*
%TD*%
D12*
%TO.P,D22,1,K*%
%TO.N,Row 2*%
X186718900Y-54629100D03*
D13*
X187943900Y-54629100D03*
%TO.P,D22,2,A*%
%TO.N,Net-(D22-A)*%
X191493900Y-54629100D03*
D14*
X192718900Y-54629100D03*
%TD*%
D18*
%TO.P,s6,1*%
%TO.N,N/C*%
X100676100Y-118700000D03*
X100236100Y-117640000D03*
X100236100Y-119760000D03*
X99176100Y-117200000D03*
D19*
X99176100Y-118700000D03*
D18*
X99176100Y-120200000D03*
X98116100Y-117640000D03*
X98116100Y-119760000D03*
X97676100Y-118700000D03*
%TD*%
D12*
%TO.P,D44,1,K*%
%TO.N,Row 4*%
X148618900Y-85490100D03*
D13*
X149843900Y-85490100D03*
%TO.P,D44,2,A*%
%TO.N,Net-(D44-A)*%
X153393900Y-85490100D03*
D14*
X154618900Y-85490100D03*
%TD*%
D10*
%TO.P,K53,1*%
%TO.N,Column 5*%
X138169100Y-83496100D03*
X124469100Y-74716100D03*
D11*
%TO.P,K53,2*%
%TO.N,Net-(D53-A)*%
X135369100Y-72516100D03*
D10*
X125669100Y-80956100D03*
%TD*%
D18*
%TO.P,s3,1*%
%TO.N,N/C*%
X162576100Y-67500000D03*
X162136100Y-66440000D03*
X162136100Y-68560000D03*
X161076100Y-66000000D03*
D19*
X161076100Y-67500000D03*
D18*
X161076100Y-69000000D03*
X160016100Y-66440000D03*
X160016100Y-68560000D03*
X159576100Y-67500000D03*
%TD*%
D12*
%TO.P,D23,1,K*%
%TO.N,Row 3*%
X186718900Y-73679100D03*
D13*
X187943900Y-73679100D03*
%TO.P,D23,2,A*%
%TO.N,Net-(D23-A)*%
X191493900Y-73679100D03*
D14*
X192718900Y-73679100D03*
%TD*%
D12*
%TO.P,D63,1,K*%
%TO.N,Row 3*%
X110518900Y-71202100D03*
D13*
X111743900Y-71202100D03*
%TO.P,D63,2,A*%
%TO.N,Net-(D63-A)*%
X115293900Y-71202100D03*
D14*
X116518900Y-71202100D03*
%TD*%
D10*
%TO.P,K31,1*%
%TO.N,Column 3*%
X176268900Y-45396100D03*
X162568900Y-36616100D03*
D11*
%TO.P,K31,2*%
%TO.N,Net-(D31-A)*%
X173468900Y-34416100D03*
D10*
X163768900Y-42856100D03*
%TD*%
D12*
%TO.P,D41,1,K*%
%TO.N,Row 1*%
X148618900Y-28340100D03*
D13*
X149843900Y-28340100D03*
%TO.P,D41,2,A*%
%TO.N,Net-(D41-A)*%
X153393900Y-28340100D03*
D14*
X154618900Y-28340100D03*
%TD*%
D10*
%TO.P,K12,1*%
%TO.N,Column 1*%
X214368900Y-69209100D03*
X200668900Y-60429100D03*
D11*
%TO.P,K12,2*%
%TO.N,Net-(D12-A)*%
X211568900Y-58229100D03*
D10*
X201868900Y-66669100D03*
%TD*%
D18*
%TO.P,s2,1*%
%TO.N,N/C*%
X124376100Y-88600000D03*
X123936100Y-87540000D03*
X123936100Y-89660000D03*
X122876100Y-87100000D03*
D19*
X122876100Y-88600000D03*
D18*
X122876100Y-90100000D03*
X121816100Y-87540000D03*
X121816100Y-89660000D03*
X121376100Y-88600000D03*
%TD*%
D12*
%TO.P,D53,1,K*%
%TO.N,Row 3*%
X129569100Y-68916100D03*
D13*
X130794100Y-68916100D03*
%TO.P,D53,2,A*%
%TO.N,Net-(D53-A)*%
X134344100Y-68916100D03*
D14*
X135569100Y-68916100D03*
%TD*%
D12*
%TO.P,D24,1,K*%
%TO.N,Row 4*%
X186718900Y-92729100D03*
D13*
X187943900Y-92729100D03*
%TO.P,D24,2,A*%
%TO.N,Net-(D24-A)*%
X191493900Y-92729100D03*
D14*
X192718900Y-92729100D03*
%TD*%
D10*
%TO.P,K64,1*%
%TO.N,Column 6*%
X119118900Y-104832100D03*
X105418900Y-96052100D03*
D11*
%TO.P,K64,2*%
%TO.N,Net-(D64-A)*%
X116318900Y-93852100D03*
D10*
X106618900Y-102292100D03*
%TD*%
D12*
%TO.P,D21,1,K*%
%TO.N,Row 1*%
X186718900Y-35579100D03*
D13*
X187943900Y-35579100D03*
%TO.P,D21,2,A*%
%TO.N,Net-(D21-A)*%
X191493900Y-35579100D03*
D14*
X192718900Y-35579100D03*
%TD*%
D10*
%TO.P,K63,1*%
%TO.N,Column 6*%
X119118900Y-85782100D03*
X105418900Y-77002100D03*
D11*
%TO.P,K63,2*%
%TO.N,Net-(D63-A)*%
X116318900Y-74802100D03*
D10*
X106618900Y-83242100D03*
%TD*%
D12*
%TO.P,D43,1,K*%
%TO.N,Row 3*%
X148618900Y-66440100D03*
D13*
X149843900Y-66440100D03*
%TO.P,D43,2,A*%
%TO.N,Net-(D43-A)*%
X153393900Y-66440100D03*
D14*
X154618900Y-66440100D03*
%TD*%
D12*
%TO.P,D11,1,K*%
%TO.N,Row 1*%
X205768900Y-35579100D03*
D13*
X206993900Y-35579100D03*
%TO.P,D11,2,A*%
%TO.N,Net-(D11-A)*%
X210543900Y-35579100D03*
D14*
X211768900Y-35579100D03*
%TD*%
D12*
%TO.P,D64,1,K*%
%TO.N,Row 4*%
X110518900Y-90252100D03*
D13*
X111743900Y-90252100D03*
%TO.P,D64,2,A*%
%TO.N,Net-(D64-A)*%
X115293900Y-90252100D03*
D14*
X116518900Y-90252100D03*
%TD*%
D12*
%TO.P,D62,1,K*%
%TO.N,Row 2*%
X110518900Y-52152100D03*
D13*
X111743900Y-52152100D03*
%TO.P,D62,2,A*%
%TO.N,Net-(D62-A)*%
X115293900Y-52152100D03*
D14*
X116518900Y-52152100D03*
%TD*%
D10*
%TO.P,K62,1*%
%TO.N,Column 6*%
X119118900Y-66732100D03*
X105418900Y-57952100D03*
D11*
%TO.P,K62,2*%
%TO.N,Net-(D62-A)*%
X116318900Y-55752100D03*
D10*
X106618900Y-64192100D03*
%TD*%
D12*
%TO.P,D12,1,K*%
%TO.N,Row 2*%
X205768900Y-54629100D03*
D13*
X206993900Y-54629100D03*
%TO.P,D12,2,A*%
%TO.N,Net-(D12-A)*%
X210543900Y-54629100D03*
D14*
X211768900Y-54629100D03*
%TD*%
D12*
%TO.P,D45,1,K*%
%TO.N,Row 5*%
X139093900Y-109112100D03*
D13*
X140318900Y-109112100D03*
%TO.P,D45,2,A*%
%TO.N,Net-(D45-A)*%
X143868900Y-109112100D03*
D14*
X145093900Y-109112100D03*
%TD*%
D21*
%TO.P,K55,1*%
%TO.N,Column 5*%
X110851715Y-124220400D03*
X114113552Y-129673658D03*
D22*
%TO.P,K55,2*%
%TO.N,Net-(D55-A)*%
X120341920Y-118425057D03*
D21*
X126728441Y-127785226D03*
%TD*%
D23*
%TO.P,K45,1*%
%TO.N,Column 4*%
X133312270Y-117134609D03*
X136086412Y-122851403D03*
D24*
%TO.P,K45,2*%
%TO.N,Net-(D45-A)*%
X143271460Y-112188444D03*
D23*
X148817885Y-122069617D03*
%TD*%
D25*
%TO.N,ground*%
X92600000Y-108700000D03*
%TO.N,Column 1*%
X89100000Y-111900000D03*
%TO.N,Net-(D65-A)*%
X102638900Y-140378000D03*
X109028200Y-132464300D03*
%TO.N,Net-(D55-A)*%
X127349700Y-122613800D03*
%TO.N,Net-(D54-A)*%
X123206500Y-99715400D03*
%TO.N,Net-(D45-A)*%
X150882500Y-115881400D03*
%TO.N,Net-(D44-A)*%
X147574400Y-101897500D03*
%TO.N,Net-(D43-A)*%
X142831600Y-81036600D03*
%TO.N,Net-(D42-A)*%
X144200800Y-57300700D03*
%TO.N,Net-(D41-A)*%
X144193300Y-37877700D03*
%TO.N,Net-(D31-A)*%
X173393900Y-32667000D03*
%TO.N,Net-(D24-A)*%
X181679300Y-106858500D03*
%TO.N,Net-(D23-A)*%
X181785100Y-88194700D03*
%TO.N,Net-(D22-A)*%
X182345000Y-68877500D03*
%TO.N,Net-(D12-A)*%
X200940100Y-63918300D03*
%TO.N,Row 5*%
X91827472Y-113275000D03*
%TO.N,Row 4*%
X194859600Y-91626800D03*
%TO.N,Row 3*%
X153280900Y-65047000D03*
%TO.N,Row 2*%
X142245300Y-51240000D03*
X136338300Y-51491100D03*
X88236600Y-100180100D03*
X104755000Y-107818400D03*
%TO.N,Column 3*%
X178804300Y-40134200D03*
X112806773Y-109138325D03*
X178754300Y-64516400D03*
X178220400Y-71997400D03*
X178804300Y-96283200D03*
%TO.N,Column 4*%
X136077100Y-124795400D03*
X151341400Y-64477500D03*
X142183100Y-115439800D03*
%TO.N,Column 5*%
X135225300Y-48181100D03*
X94535400Y-114552500D03*
X139929500Y-102449400D03*
X114309400Y-132194300D03*
%TO.N,Column 6*%
X93920200Y-127036600D03*
X120872100Y-81084300D03*
%TO.N,Column 2*%
X198115100Y-44354900D03*
X198115100Y-63918300D03*
%TO.N,Column 1*%
X217370500Y-63918300D03*
%TD*%
D26*
%TO.N,ground*%
X100726100Y-97640000D02*
X92600000Y-105766100D01*
X92600000Y-105766100D02*
X92600000Y-108700000D01*
%TO.N,Row 2*%
X120523200Y-93949200D02*
X120523200Y-86367500D01*
%TO.N,Column 1*%
X139979900Y-106100000D02*
X139179900Y-106900000D01*
X122246584Y-106900000D02*
X116731584Y-112415000D01*
%TO.N,Row 2*%
X118997316Y-106157100D02*
X120443900Y-106157100D01*
%TO.N,Column 2*%
X181618900Y-99856000D02*
X181618900Y-98529100D01*
%TO.N,Row 2*%
X117336016Y-107818400D02*
X118997316Y-106157100D01*
%TO.N,Column 1*%
X89000000Y-111800000D02*
X89100000Y-111900000D01*
%TO.N,Column 4*%
X106563883Y-108363325D02*
X103412208Y-111515000D01*
%TO.N,Row 2*%
X120523200Y-86367500D02*
X121647500Y-85243200D01*
%TO.N,Column 1*%
X200596100Y-106003900D02*
X197415900Y-109184100D01*
%TO.N,Column 4*%
X103412208Y-111515000D02*
X100249400Y-111515000D01*
%TO.N,Column 3*%
X121873792Y-106000000D02*
X118873792Y-109000000D01*
%TO.N,Column 4*%
X99599200Y-110864800D02*
X99599200Y-106386900D01*
%TO.N,Column 1*%
X200596100Y-106003900D02*
X204009400Y-109417200D01*
X197415900Y-109184100D02*
X160084100Y-109184100D01*
%TO.N,Row 2*%
X121647500Y-85243200D02*
X121647500Y-53582200D01*
%TO.N,Column 4*%
X100249400Y-111515000D02*
X99599200Y-110864800D01*
%TO.N,Column 1*%
X116731584Y-112415000D02*
X89615000Y-112415000D01*
%TO.N,Column 4*%
X143917600Y-99489300D02*
X137856900Y-105550000D01*
%TO.N,Row 5*%
X109082200Y-114136100D02*
X107943200Y-114136100D01*
X107082100Y-113275000D02*
X91827472Y-113275000D01*
X128613604Y-111250000D02*
X136956000Y-111250000D01*
%TO.N,Row 2*%
X120443900Y-106157100D02*
X120443900Y-105258300D01*
%TO.N,Column 1*%
X200490800Y-105898600D02*
X200596100Y-106003900D01*
%TO.N,Row 5*%
X127784804Y-110421200D02*
X128613604Y-111250000D01*
%TO.N,Row 2*%
X120602200Y-94028200D02*
X120523200Y-93949200D01*
%TO.N,Column 3*%
X140901000Y-103184100D02*
X138085100Y-106000000D01*
%TO.N,Column 1*%
X159037100Y-108137100D02*
X154237100Y-108137100D01*
%TO.N,Row 2*%
X120443900Y-105258300D02*
X120602200Y-105100000D01*
%TO.N,Column 1*%
X154237100Y-108137100D02*
X152200000Y-106100000D01*
X139179900Y-106900000D02*
X122246584Y-106900000D01*
X152200000Y-106100000D02*
X139979900Y-106100000D01*
%TO.N,Column 3*%
X160415200Y-103184100D02*
X140901000Y-103184100D01*
X112945098Y-109000000D02*
X112806773Y-109138325D01*
%TO.N,Row 5*%
X107943200Y-114136100D02*
X107082100Y-113275000D01*
%TO.N,Column 4*%
X137856900Y-105550000D02*
X121687396Y-105550000D01*
%TO.N,Row 2*%
X121647500Y-53582200D02*
X119299200Y-51233900D01*
X104755000Y-107818400D02*
X117336016Y-107818400D01*
%TO.N,Row 5*%
X121268900Y-110909600D02*
X121757300Y-110421200D01*
X136956000Y-111250000D02*
X139093900Y-109112100D01*
%TO.N,Column 4*%
X99599200Y-106386900D02*
X100726100Y-105260000D01*
%TO.N,Column 2*%
X85476100Y-110340000D02*
X96376396Y-110340000D01*
%TO.N,Row 2*%
X120602200Y-105100000D02*
X120602200Y-94028200D01*
%TO.N,Column 1*%
X160084100Y-109184100D02*
X159037100Y-108137100D01*
%TO.N,Column 3*%
X118873792Y-109000000D02*
X112945098Y-109000000D01*
X162433900Y-101165400D02*
X160415200Y-103184100D01*
%TO.N,Row 5*%
X121757300Y-110421200D02*
X127784804Y-110421200D01*
%TO.N,Column 3*%
X138085100Y-106000000D02*
X121873792Y-106000000D01*
%TO.N,Column 4*%
X121687396Y-105550000D02*
X118874071Y-108363325D01*
%TO.N,Column 2*%
X122060188Y-106450000D02*
X138513604Y-106450000D01*
X175824900Y-105650000D02*
X181618900Y-99856000D01*
X116545188Y-111965000D02*
X122060188Y-106450000D01*
X139313604Y-105650000D02*
X175824900Y-105650000D01*
X138513604Y-106450000D02*
X139313604Y-105650000D01*
%TO.N,Column 4*%
X118874071Y-108363325D02*
X106563883Y-108363325D01*
%TO.N,Column 2*%
X96376396Y-110340000D02*
X98001396Y-111965000D01*
X98001396Y-111965000D02*
X116545188Y-111965000D01*
%TO.N,Column 1*%
X89615000Y-112415000D02*
X89100000Y-111900000D01*
%TO.N,Net-(D65-A)*%
X107452400Y-133837300D02*
X107985900Y-135303100D01*
X102638900Y-139941900D02*
X102638900Y-140378000D01*
X97989700Y-139941900D02*
X102638900Y-139941900D01*
X108149200Y-135466400D02*
X107985900Y-135303100D01*
X108149200Y-137364300D02*
X108149200Y-135466400D01*
X105571600Y-139941900D02*
X108149200Y-137364300D01*
X102638900Y-139941900D02*
X105571600Y-139941900D01*
X115082200Y-114136100D02*
X113857200Y-114136100D01*
X109067800Y-133108300D02*
X109067800Y-133249400D01*
X109028200Y-133068700D02*
X109067800Y-133108300D01*
X109028200Y-132464300D02*
X109028200Y-133068700D01*
X107452400Y-133837300D02*
X109067800Y-133249400D01*
%TO.N,Net-(D55-A)*%
X120341900Y-118425100D02*
X121995700Y-117823200D01*
X124818900Y-111398100D02*
X124818900Y-112375000D01*
X122155900Y-117663000D02*
X121995700Y-117823200D01*
X124138200Y-117663000D02*
X122155900Y-117663000D01*
X124138200Y-113055700D02*
X124818900Y-112375000D01*
X124138200Y-117663000D02*
X124138200Y-113055700D01*
X126043900Y-111398100D02*
X124818900Y-111398100D01*
X126728400Y-122613800D02*
X127349700Y-122613800D01*
X126728400Y-127785200D02*
X126728400Y-122613800D01*
X126728400Y-120253200D02*
X124138200Y-117663000D01*
X126728400Y-122613800D02*
X126728400Y-120253200D01*
%TO.N,Net-(D54-A)*%
X135369100Y-87966100D02*
X135369100Y-91566100D01*
X135569100Y-87966100D02*
X135369100Y-87966100D01*
X135369100Y-87966100D02*
X134344100Y-87966100D01*
X124051500Y-99715400D02*
X124342200Y-100006100D01*
X123206500Y-99715400D02*
X124051500Y-99715400D01*
X125669100Y-100006100D02*
X124342200Y-100006100D01*
%TO.N,Net-(D64-A)*%
X116518900Y-90252100D02*
X116318900Y-90252100D01*
X116318900Y-90252100D02*
X115293900Y-90252100D01*
X116318900Y-90252100D02*
X116318900Y-93852100D01*
X106447300Y-100793600D02*
X106618900Y-100965200D01*
X106447300Y-99126500D02*
X106447300Y-100793600D01*
X107415900Y-98157900D02*
X106447300Y-99126500D01*
X110634900Y-98157900D02*
X107415900Y-98157900D01*
X112745300Y-96047500D02*
X110634900Y-98157900D01*
X115450400Y-96047500D02*
X112745300Y-96047500D01*
X116318900Y-95179000D02*
X115450400Y-96047500D01*
X116318900Y-93852100D02*
X116318900Y-95179000D01*
X106618900Y-102292100D02*
X106618900Y-100965200D01*
%TO.N,Net-(D45-A)*%
X143271500Y-112188400D02*
X144848300Y-111765900D01*
X148937700Y-115881400D02*
X150882500Y-115881400D01*
X148937700Y-121949800D02*
X148937700Y-115881400D01*
X148817900Y-122069600D02*
X148937700Y-121949800D01*
X143868900Y-109112100D02*
X143868900Y-109901800D01*
X146890400Y-111667200D02*
X144947000Y-111667200D01*
X148937700Y-113714500D02*
X146890400Y-111667200D01*
X148937700Y-115881400D02*
X148937700Y-113714500D01*
X144947000Y-111667200D02*
X144848300Y-111765900D01*
X145093900Y-109112100D02*
X145093900Y-109901800D01*
X145093900Y-109901800D02*
X143868900Y-109901800D01*
X144947000Y-110979900D02*
X144947000Y-111667200D01*
X143868900Y-109901800D02*
X144947000Y-110979900D01*
%TO.N,Net-(D44-A)*%
X154618900Y-85490100D02*
X154418900Y-85490100D01*
X154418900Y-85490100D02*
X153393900Y-85490100D01*
X154418900Y-85490100D02*
X154418900Y-89090100D01*
X144528700Y-96013000D02*
X144718900Y-96203200D01*
X144528700Y-94338600D02*
X144528700Y-96013000D01*
X145471400Y-93395900D02*
X144528700Y-94338600D01*
X148734900Y-93395900D02*
X145471400Y-93395900D01*
X150845300Y-91285500D02*
X148734900Y-93395900D01*
X153550400Y-91285500D02*
X150845300Y-91285500D01*
X154418900Y-90417000D02*
X153550400Y-91285500D01*
X154418900Y-89090100D02*
X154418900Y-90417000D01*
X144718900Y-96910100D02*
X144718900Y-96203200D01*
X144718900Y-96910100D02*
X144718900Y-97530100D01*
X144718900Y-99042000D02*
X147574400Y-101897500D01*
X144718900Y-97530100D02*
X144718900Y-99042000D01*
%TO.N,Net-(D43-A)*%
X154618900Y-66440100D02*
X154418900Y-66440100D01*
X154418900Y-66440100D02*
X153393900Y-66440100D01*
X154418900Y-66440100D02*
X154418900Y-70040100D01*
X144528700Y-76963000D02*
X144718900Y-77153200D01*
X144528700Y-75288600D02*
X144528700Y-76963000D01*
X145471400Y-74345900D02*
X144528700Y-75288600D01*
X148734900Y-74345900D02*
X145471400Y-74345900D01*
X150845300Y-72235500D02*
X148734900Y-74345900D01*
X153550400Y-72235500D02*
X150845300Y-72235500D01*
X154418900Y-71367000D02*
X153550400Y-72235500D01*
X154418900Y-70040100D02*
X154418900Y-71367000D01*
X144718900Y-78480100D02*
X144718900Y-77860100D01*
X144718900Y-77860100D02*
X144718900Y-77153200D01*
X142831600Y-79747400D02*
X142831600Y-81036600D01*
X144718900Y-77860100D02*
X142831600Y-79747400D01*
%TO.N,Net-(D42-A)*%
X154418900Y-47390100D02*
X154418900Y-49663200D01*
X154618900Y-47390100D02*
X154418900Y-47390100D01*
X154418900Y-47390100D02*
X153393900Y-47390100D01*
X154418900Y-50898300D02*
X154418900Y-49663200D01*
X154418900Y-50898300D02*
X154418900Y-50990100D01*
X154418900Y-50990100D02*
X154418900Y-52317000D01*
X144718900Y-59430100D02*
X144718900Y-58103200D01*
X144528700Y-57300700D02*
X144200800Y-57300700D01*
X144528700Y-56238600D02*
X144528700Y-57300700D01*
X145471400Y-55295900D02*
X144528700Y-56238600D01*
X148734900Y-55295900D02*
X145471400Y-55295900D01*
X150845300Y-53185500D02*
X148734900Y-55295900D01*
X153550400Y-53185500D02*
X150845300Y-53185500D01*
X154418900Y-52317000D02*
X153550400Y-53185500D01*
X144528700Y-57913000D02*
X144718900Y-58103200D01*
X144528700Y-57300700D02*
X144528700Y-57913000D01*
%TO.N,Net-(D41-A)*%
X154618900Y-28340100D02*
X154418900Y-28340100D01*
X154418900Y-28340100D02*
X153393900Y-28340100D01*
X154418900Y-28340100D02*
X154418900Y-31940100D01*
X154418900Y-31940100D02*
X154418900Y-33267000D01*
X144718900Y-40380100D02*
X144718900Y-39053200D01*
X144528700Y-37877700D02*
X144193300Y-37877700D01*
X144528700Y-37188600D02*
X144528700Y-37877700D01*
X145471400Y-36245900D02*
X144528700Y-37188600D01*
X148734900Y-36245900D02*
X145471400Y-36245900D01*
X150845300Y-34135500D02*
X148734900Y-36245900D01*
X153550400Y-34135500D02*
X150845300Y-34135500D01*
X154418900Y-33267000D02*
X153550400Y-34135500D01*
X144528700Y-38863000D02*
X144718900Y-39053200D01*
X144528700Y-37877700D02*
X144528700Y-38863000D01*
%TO.N,Net-(D63-A)*%
X116518900Y-71202100D02*
X116318900Y-71202100D01*
X116318900Y-71202100D02*
X115293900Y-71202100D01*
X116318900Y-71202100D02*
X116318900Y-74802100D01*
X106462800Y-81759100D02*
X106618900Y-81915200D01*
X106462800Y-80036200D02*
X106462800Y-81759100D01*
X107391100Y-79107900D02*
X106462800Y-80036200D01*
X110634900Y-79107900D02*
X107391100Y-79107900D01*
X112745300Y-76997500D02*
X110634900Y-79107900D01*
X115450400Y-76997500D02*
X112745300Y-76997500D01*
X116318900Y-76129000D02*
X115450400Y-76997500D01*
X116318900Y-74802100D02*
X116318900Y-76129000D01*
X106618900Y-83242100D02*
X106618900Y-81915200D01*
%TO.N,Net-(D62-A)*%
X116518900Y-52152100D02*
X116318900Y-52152100D01*
X116318900Y-52152100D02*
X115293900Y-52152100D01*
X116318900Y-52152100D02*
X116318900Y-55752100D01*
X106462800Y-62709100D02*
X106618900Y-62865200D01*
X106462800Y-60986200D02*
X106462800Y-62709100D01*
X107391100Y-60057900D02*
X106462800Y-60986200D01*
X110634900Y-60057900D02*
X107391100Y-60057900D01*
X112745300Y-57947500D02*
X110634900Y-60057900D01*
X115450400Y-57947500D02*
X112745300Y-57947500D01*
X116318900Y-57079000D02*
X115450400Y-57947500D01*
X116318900Y-55752100D02*
X116318900Y-57079000D01*
X106618900Y-64192100D02*
X106618900Y-62865200D01*
%TO.N,Net-(D34-A)*%
X173668900Y-87966100D02*
X173468900Y-87966100D01*
X173468900Y-87966100D02*
X172443900Y-87966100D01*
X173468900Y-87966100D02*
X173468900Y-90239200D01*
X173468900Y-91474300D02*
X173468900Y-90239200D01*
X173468900Y-91474300D02*
X173468900Y-91566100D01*
X163578700Y-98489000D02*
X163768900Y-98679200D01*
X163578700Y-96862100D02*
X163578700Y-98489000D01*
X164568900Y-95871900D02*
X163578700Y-96862100D01*
X167784900Y-95871900D02*
X164568900Y-95871900D01*
X169895300Y-93761500D02*
X167784900Y-95871900D01*
X172600400Y-93761500D02*
X169895300Y-93761500D01*
X173468900Y-92893000D02*
X172600400Y-93761500D01*
X173468900Y-91566100D02*
X173468900Y-92893000D01*
X163768900Y-100006100D02*
X163768900Y-98679200D01*
%TO.N,Net-(D33-A)*%
X173668900Y-68916100D02*
X173468900Y-68916100D01*
X173468900Y-68916100D02*
X172443900Y-68916100D01*
X173468900Y-68916100D02*
X173468900Y-72516100D01*
X163578700Y-79439000D02*
X163768900Y-79629200D01*
X163578700Y-77812100D02*
X163578700Y-79439000D01*
X164568900Y-76821900D02*
X163578700Y-77812100D01*
X167784900Y-76821900D02*
X164568900Y-76821900D01*
X169895300Y-74711500D02*
X167784900Y-76821900D01*
X172600400Y-74711500D02*
X169895300Y-74711500D01*
X173468900Y-73843000D02*
X172600400Y-74711500D01*
X173468900Y-72516100D02*
X173468900Y-73843000D01*
X163768900Y-80956100D02*
X163768900Y-79629200D01*
%TO.N,Net-(D32-A)*%
X173668900Y-49866100D02*
X173468900Y-49866100D01*
X173468900Y-49866100D02*
X172443900Y-49866100D01*
X173468900Y-53374300D02*
X173468900Y-52139200D01*
X173468900Y-53374300D02*
X173468900Y-53466100D01*
X163578700Y-60389000D02*
X163768900Y-60579200D01*
X163578700Y-58762100D02*
X163578700Y-60389000D01*
X164568900Y-57771900D02*
X163578700Y-58762100D01*
X167784900Y-57771900D02*
X164568900Y-57771900D01*
X169895300Y-55661500D02*
X167784900Y-57771900D01*
X172600400Y-55661500D02*
X169895300Y-55661500D01*
X173468900Y-54793000D02*
X172600400Y-55661500D01*
X173468900Y-53466100D02*
X173468900Y-54793000D01*
X163768900Y-61906100D02*
X163768900Y-60579200D01*
X173468900Y-49866100D02*
X173468900Y-52139200D01*
%TO.N,Net-(D31-A)*%
X173668900Y-30816100D02*
X172443900Y-30816100D01*
X173468900Y-32742000D02*
X173393900Y-32667000D01*
X173468900Y-34416100D02*
X173468900Y-32742000D01*
X161187000Y-38947300D02*
X163768900Y-41529200D01*
X161187000Y-35532000D02*
X161187000Y-38947300D01*
X164427000Y-32292000D02*
X161187000Y-35532000D01*
X173018900Y-32292000D02*
X164427000Y-32292000D01*
X173393900Y-32667000D02*
X173018900Y-32292000D01*
X163768900Y-42856100D02*
X163768900Y-41529200D01*
%TO.N,Net-(D61-A)*%
X116518900Y-33102100D02*
X115293900Y-33102100D01*
X115293900Y-33102100D02*
X115293900Y-34079000D01*
X116318900Y-35104000D02*
X116318900Y-36702100D01*
X115293900Y-34079000D02*
X116318900Y-35104000D01*
X106453800Y-43650100D02*
X106618900Y-43815200D01*
X106453800Y-41987100D02*
X106453800Y-43650100D01*
X107433000Y-41007900D02*
X106453800Y-41987100D01*
X110634900Y-41007900D02*
X107433000Y-41007900D01*
X112745300Y-38897500D02*
X110634900Y-41007900D01*
X115450400Y-38897500D02*
X112745300Y-38897500D01*
X116318900Y-38029000D02*
X115450400Y-38897500D01*
X116318900Y-36702100D02*
X116318900Y-38029000D01*
X106618900Y-45142100D02*
X106618900Y-43815200D01*
%TO.N,Net-(D53-A)*%
X135569100Y-68916100D02*
X135369100Y-68916100D01*
X135369100Y-68916100D02*
X134344100Y-68916100D01*
X135369100Y-68916100D02*
X135369100Y-72516100D01*
X125499100Y-79459200D02*
X125669100Y-79629200D01*
X125499100Y-77797900D02*
X125499100Y-79459200D01*
X126475100Y-76821900D02*
X125499100Y-77797900D01*
X129685100Y-76821900D02*
X126475100Y-76821900D01*
X131795500Y-74711500D02*
X129685100Y-76821900D01*
X134500600Y-74711500D02*
X131795500Y-74711500D01*
X135369100Y-73843000D02*
X134500600Y-74711500D01*
X135369100Y-72516100D02*
X135369100Y-73843000D01*
X125669100Y-80956100D02*
X125669100Y-79629200D01*
%TO.N,Net-(D24-A)*%
X192718900Y-92729100D02*
X192518900Y-92729100D01*
X192518900Y-92729100D02*
X191493900Y-92729100D01*
X192518900Y-92729100D02*
X192518900Y-96329100D01*
X182628700Y-103252000D02*
X182818900Y-103442200D01*
X182628700Y-101590300D02*
X182628700Y-103252000D01*
X183584100Y-100634900D02*
X182628700Y-101590300D01*
X186834900Y-100634900D02*
X183584100Y-100634900D01*
X188945300Y-98524500D02*
X186834900Y-100634900D01*
X191650400Y-98524500D02*
X188945300Y-98524500D01*
X192518900Y-97656000D02*
X191650400Y-98524500D01*
X192518900Y-96329100D02*
X192518900Y-97656000D01*
X182818900Y-104769100D02*
X182818900Y-104105600D01*
X182818900Y-104105600D02*
X182818900Y-103442200D01*
X181679300Y-105245200D02*
X181679300Y-106858500D01*
X182818900Y-104105600D02*
X181679300Y-105245200D01*
%TO.N,Net-(D23-A)*%
X192718900Y-73679100D02*
X192518900Y-73679100D01*
X192518900Y-73679100D02*
X191493900Y-73679100D01*
X192518900Y-73679100D02*
X192518900Y-77279100D01*
X182628700Y-84202000D02*
X182818900Y-84392200D01*
X182628700Y-82540300D02*
X182628700Y-84202000D01*
X183584100Y-81584900D02*
X182628700Y-82540300D01*
X186834900Y-81584900D02*
X183584100Y-81584900D01*
X188945300Y-79474500D02*
X186834900Y-81584900D01*
X191650400Y-79474500D02*
X188945300Y-79474500D01*
X192518900Y-78606000D02*
X191650400Y-79474500D01*
X192518900Y-77279100D02*
X192518900Y-78606000D01*
X182818900Y-85719100D02*
X182818900Y-85055600D01*
X182818900Y-85055600D02*
X182818900Y-84392200D01*
X181785100Y-86089400D02*
X181785100Y-88194700D01*
X182818900Y-85055600D02*
X181785100Y-86089400D01*
%TO.N,Net-(D22-A)*%
X192718900Y-54629100D02*
X192518900Y-54629100D01*
X192518900Y-54629100D02*
X191493900Y-54629100D01*
X192518900Y-54629100D02*
X192518900Y-58229100D01*
X182628700Y-65152000D02*
X182818900Y-65342200D01*
X182628700Y-63477600D02*
X182628700Y-65152000D01*
X183571400Y-62534900D02*
X182628700Y-63477600D01*
X186834900Y-62534900D02*
X183571400Y-62534900D01*
X188945300Y-60424500D02*
X186834900Y-62534900D01*
X191650400Y-60424500D02*
X188945300Y-60424500D01*
X192518900Y-59556000D02*
X191650400Y-60424500D01*
X192518900Y-58229100D02*
X192518900Y-59556000D01*
X182818900Y-66669100D02*
X182818900Y-66005600D01*
X182818900Y-66005600D02*
X182818900Y-65342200D01*
X182345000Y-66479500D02*
X182345000Y-68877500D01*
X182818900Y-66005600D02*
X182345000Y-66479500D01*
%TO.N,Net-(D21-A)*%
X192718900Y-35579100D02*
X192518900Y-35579100D01*
X192518900Y-35579100D02*
X191493900Y-35579100D01*
X192518900Y-35579100D02*
X192518900Y-39179100D01*
%TO.N,Net-(D52-A)*%
X135569100Y-49866100D02*
X135369100Y-49866100D01*
X135369100Y-49866100D02*
X134344100Y-49866100D01*
X135369100Y-49866100D02*
X135369100Y-53466100D01*
X125504000Y-60414100D02*
X125669100Y-60579200D01*
X125504000Y-58751100D02*
X125504000Y-60414100D01*
X126483200Y-57771900D02*
X125504000Y-58751100D01*
X129685100Y-57771900D02*
X126483200Y-57771900D01*
X131795500Y-55661500D02*
X129685100Y-57771900D01*
X134500600Y-55661500D02*
X131795500Y-55661500D01*
X135369100Y-54793000D02*
X134500600Y-55661500D01*
X135369100Y-53466100D02*
X135369100Y-54793000D01*
X125669100Y-61906100D02*
X125669100Y-60579200D01*
%TO.N,Net-(D51-A)*%
X135569100Y-30816100D02*
X135369100Y-30816100D01*
X135369100Y-30816100D02*
X134344100Y-30816100D01*
X125669100Y-42856100D02*
X125669100Y-41529200D01*
X123089800Y-38949900D02*
X125669100Y-41529200D01*
X123089800Y-35439500D02*
X123089800Y-38949900D01*
X124626500Y-33902800D02*
X123089800Y-35439500D01*
X128802300Y-33902800D02*
X124626500Y-33902800D01*
X130384700Y-32320400D02*
X128802300Y-33902800D01*
X135369100Y-32320400D02*
X130384700Y-32320400D01*
X135369100Y-30816100D02*
X135369100Y-32320400D01*
X135369100Y-32320400D02*
X135369100Y-34416100D01*
%TO.N,Net-(D14-A)*%
X211768900Y-92729100D02*
X211568900Y-92729100D01*
X211568900Y-92729100D02*
X210543900Y-92729100D01*
X211568900Y-92729100D02*
X211568900Y-96329100D01*
X201678700Y-103252000D02*
X201868900Y-103442200D01*
X201678700Y-101655300D02*
X201678700Y-103252000D01*
X202699100Y-100634900D02*
X201678700Y-101655300D01*
X205884900Y-100634900D02*
X202699100Y-100634900D01*
X207995300Y-98524500D02*
X205884900Y-100634900D01*
X210700400Y-98524500D02*
X207995300Y-98524500D01*
X211568900Y-97656000D02*
X210700400Y-98524500D01*
X211568900Y-96329100D02*
X211568900Y-97656000D01*
X201868900Y-104769100D02*
X201868900Y-103442200D01*
%TO.N,Net-(D13-A)*%
X211768900Y-73679100D02*
X211568900Y-73679100D01*
X211568900Y-73679100D02*
X210543900Y-73679100D01*
X211568900Y-73679100D02*
X211568900Y-77279100D01*
X201678700Y-84202000D02*
X201868900Y-84392200D01*
X201678700Y-82527600D02*
X201678700Y-84202000D01*
X202621400Y-81584900D02*
X201678700Y-82527600D01*
X205884900Y-81584900D02*
X202621400Y-81584900D01*
X207995300Y-79474500D02*
X205884900Y-81584900D01*
X210700400Y-79474500D02*
X207995300Y-79474500D01*
X211568900Y-78606000D02*
X210700400Y-79474500D01*
X211568900Y-77279100D02*
X211568900Y-78606000D01*
X201868900Y-85719100D02*
X201868900Y-84392200D01*
%TO.N,Net-(D12-A)*%
X211568900Y-54629100D02*
X211568900Y-58229100D01*
X211768900Y-54629100D02*
X211568900Y-54629100D01*
X211568900Y-54629100D02*
X210543900Y-54629100D01*
X200940100Y-64413400D02*
X201868900Y-65342200D01*
X200940100Y-63918300D02*
X200940100Y-64413400D01*
X201868900Y-66669100D02*
X201868900Y-65342200D01*
%TO.N,Net-(D11-A)*%
X211768900Y-35579100D02*
X211568900Y-35579100D01*
X211568900Y-35579100D02*
X210543900Y-35579100D01*
X211568900Y-35579100D02*
X211568900Y-39179100D01*
X201701300Y-46124600D02*
X201868900Y-46292200D01*
X201701300Y-44450000D02*
X201701300Y-46124600D01*
X202666400Y-43484900D02*
X201701300Y-44450000D01*
X205884900Y-43484900D02*
X202666400Y-43484900D01*
X207995300Y-41374500D02*
X205884900Y-43484900D01*
X210700400Y-41374500D02*
X207995300Y-41374500D01*
X211568900Y-40506000D02*
X210700400Y-41374500D01*
X211568900Y-39179100D02*
X211568900Y-40506000D01*
X201868900Y-47619100D02*
X201868900Y-46292200D01*
%TO.N,Row 5*%
X140318900Y-109112100D02*
X139093900Y-109112100D01*
X110307200Y-114136100D02*
X109082200Y-114136100D01*
X119259700Y-113159200D02*
X120043900Y-112375000D01*
X110307200Y-113159200D02*
X119259700Y-113159200D01*
X110307200Y-114136100D02*
X110307200Y-113159200D01*
X120043900Y-111398100D02*
X120043900Y-112375000D01*
X121268900Y-111398100D02*
X121268900Y-110909600D01*
X121259800Y-110918700D02*
X121259800Y-111398100D01*
X121268900Y-110909600D02*
X121259800Y-110918700D01*
X120043900Y-111398100D02*
X121259800Y-111398100D01*
%TO.N,Row 4*%
X85476100Y-102720000D02*
X86603000Y-102720000D01*
X110518900Y-90252100D02*
X111743900Y-90252100D01*
X130794100Y-87477600D02*
X129569100Y-87477600D01*
X130794100Y-87966100D02*
X130794100Y-87477600D01*
X129569100Y-87966100D02*
X129569100Y-87477600D01*
X149843900Y-85490100D02*
X148618900Y-85490100D01*
X165192900Y-84513200D02*
X167668900Y-86989200D01*
X148618900Y-84513200D02*
X165192900Y-84513200D01*
X148618900Y-85490100D02*
X148618900Y-84513200D01*
X167668900Y-87966100D02*
X167668900Y-86989200D01*
X168884800Y-88445400D02*
X168884800Y-87966100D01*
X168893900Y-88454500D02*
X168884800Y-88445400D01*
X167668900Y-87966100D02*
X168884800Y-87966100D01*
X187943900Y-92729100D02*
X186718900Y-92729100D01*
X168893900Y-87978000D02*
X168893900Y-88454500D01*
X168893900Y-87978000D02*
X168893900Y-87966100D01*
X183756700Y-92729100D02*
X186718900Y-92729100D01*
X178016800Y-86989200D02*
X183756700Y-92729100D01*
X168893900Y-86989200D02*
X178016800Y-86989200D01*
X168893900Y-87966100D02*
X168893900Y-86989200D01*
X206993900Y-92729100D02*
X205768900Y-92729100D01*
X205768900Y-92729100D02*
X205768900Y-91752200D01*
X204239400Y-90222700D02*
X205768900Y-91752200D01*
X196263700Y-90222700D02*
X204239400Y-90222700D01*
X194859600Y-91626800D02*
X196263700Y-90222700D01*
X108683400Y-90252100D02*
X110518900Y-90252100D01*
X104015100Y-94920400D02*
X108683400Y-90252100D01*
X104015100Y-95534000D02*
X104015100Y-94920400D01*
X103179100Y-96370000D02*
X104015100Y-95534000D01*
X92953000Y-96370000D02*
X103179100Y-96370000D01*
X88963500Y-100359500D02*
X92953000Y-96370000D01*
X88963500Y-100481200D02*
X88963500Y-100359500D01*
X88537700Y-100907000D02*
X88963500Y-100481200D01*
X88416000Y-100907000D02*
X88537700Y-100907000D01*
X86603000Y-102720000D02*
X88416000Y-100907000D01*
%TO.N,Row 3*%
X145903900Y-67939200D02*
X130794100Y-67939200D01*
X147403000Y-66440100D02*
X145903900Y-67939200D01*
X148618900Y-66440100D02*
X147403000Y-66440100D01*
X130794100Y-68916100D02*
X130794100Y-68427600D01*
X130794100Y-68427600D02*
X130794100Y-67939200D01*
X130785000Y-68436700D02*
X130785000Y-68916100D01*
X130794100Y-68427600D02*
X130785000Y-68436700D01*
X130160900Y-68916100D02*
X130785000Y-68916100D01*
X130160900Y-68916100D02*
X129569100Y-68916100D01*
X111743900Y-71202100D02*
X111743900Y-70713600D01*
X111734800Y-70722700D02*
X111734800Y-71202100D01*
X111743900Y-70713600D02*
X111734800Y-70722700D01*
X110518900Y-71202100D02*
X111734800Y-71202100D01*
X149843900Y-66440100D02*
X148618900Y-66440100D01*
X168893900Y-68916100D02*
X167668900Y-68916100D01*
X206993900Y-73679100D02*
X205768900Y-73679100D01*
X167668900Y-68916100D02*
X167668900Y-67939200D01*
X205768900Y-73679100D02*
X205768900Y-72702200D01*
X186718900Y-73679100D02*
X187943900Y-73679100D01*
X187943900Y-72702200D02*
X205768900Y-72702200D01*
X187943900Y-73679100D02*
X187943900Y-72702200D01*
X164776700Y-65047000D02*
X167668900Y-67939200D01*
X153280900Y-65047000D02*
X164776700Y-65047000D01*
%TO.N,Row 2*%
X129569100Y-49866100D02*
X129569100Y-48889200D01*
X110518900Y-52152100D02*
X111743900Y-52152100D01*
X111743900Y-52152100D02*
X111743900Y-51175200D01*
X187943900Y-54629100D02*
X186718900Y-54629100D01*
X168884800Y-50345400D02*
X168884800Y-49866100D01*
X168893900Y-50354500D02*
X168884800Y-50345400D01*
X167668900Y-49866100D02*
X168884800Y-49866100D01*
X149834800Y-47869400D02*
X149834800Y-47390100D01*
X149843900Y-47878500D02*
X149834800Y-47869400D01*
X148618900Y-47390100D02*
X149834800Y-47390100D01*
X130794100Y-49866100D02*
X129569100Y-49866100D01*
X206993900Y-54629100D02*
X205768900Y-54629100D01*
X194583000Y-53652200D02*
X187943900Y-53652200D01*
X196070900Y-52164300D02*
X194583000Y-53652200D01*
X201958700Y-52164300D02*
X196070900Y-52164300D01*
X204423500Y-54629100D02*
X201958700Y-52164300D01*
X205768900Y-54629100D02*
X204423500Y-54629100D01*
X187943900Y-54629100D02*
X187943900Y-54140600D01*
X187943900Y-54140600D02*
X187943900Y-53652200D01*
X168893900Y-49878000D02*
X168893900Y-50354500D01*
X168893900Y-49878000D02*
X168893900Y-49866100D01*
X185653400Y-54140600D02*
X187943900Y-54140600D01*
X180402000Y-48889200D02*
X185653400Y-54140600D01*
X168893900Y-48889200D02*
X180402000Y-48889200D01*
X168893900Y-49866100D02*
X168893900Y-48889200D01*
X149843900Y-47390100D02*
X149843900Y-47634300D01*
X149843900Y-47634300D02*
X149843900Y-47878500D01*
X165144700Y-46365000D02*
X167668900Y-48889200D01*
X151113200Y-46365000D02*
X165144700Y-46365000D01*
X149843900Y-47634300D02*
X151113200Y-46365000D01*
X167668900Y-49866100D02*
X167668900Y-48889200D01*
X136589400Y-51240000D02*
X136338300Y-51491100D01*
X142245300Y-51240000D02*
X136589400Y-51240000D01*
X88016200Y-100180100D02*
X88236600Y-100180100D01*
X85476100Y-97640000D02*
X88016200Y-100180100D01*
X129124200Y-48444300D02*
X129569100Y-48889200D01*
X122088800Y-48444300D02*
X129124200Y-48444300D01*
X119299200Y-51233900D02*
X122088800Y-48444300D01*
X119240500Y-51175200D02*
X111743900Y-51175200D01*
X119299200Y-51233900D02*
X119240500Y-51175200D01*
%TO.N,Row 1*%
X206993900Y-35579100D02*
X205768900Y-35579100D01*
X205768900Y-35579100D02*
X205768900Y-34602200D01*
X187943900Y-34602200D02*
X205768900Y-34602200D01*
X187943900Y-35579100D02*
X187943900Y-34602200D01*
X132293200Y-28340100D02*
X130794100Y-29839200D01*
X148618900Y-28340100D02*
X132293200Y-28340100D01*
X110518900Y-33102100D02*
X111743900Y-33102100D01*
X129236900Y-32125200D02*
X129569100Y-31793000D01*
X111743900Y-32125200D02*
X129236900Y-32125200D01*
X111743900Y-33102100D02*
X111743900Y-32125200D01*
X129569100Y-30816100D02*
X129569100Y-31793000D01*
X130794100Y-30816100D02*
X130794100Y-30327600D01*
X130794100Y-30327600D02*
X130794100Y-29839200D01*
X130785000Y-30336700D02*
X130785000Y-30816100D01*
X130794100Y-30327600D02*
X130785000Y-30336700D01*
X129569100Y-30816100D02*
X130785000Y-30816100D01*
X167668900Y-30816100D02*
X167867000Y-30816100D01*
X148618900Y-28340100D02*
X149843900Y-28340100D01*
X162790400Y-30816100D02*
X167668900Y-30816100D01*
X159337500Y-27363200D02*
X162790400Y-30816100D01*
X149843900Y-27363200D02*
X159337500Y-27363200D01*
X149843900Y-28340100D02*
X149843900Y-27363200D01*
X168893900Y-30816100D02*
X167867000Y-30816100D01*
X187943900Y-35579100D02*
X186718900Y-35579100D01*
X186718900Y-35579100D02*
X186718900Y-34602200D01*
X168893900Y-30816100D02*
X168893900Y-31793000D01*
X183909700Y-31793000D02*
X168893900Y-31793000D01*
X186718900Y-34602200D02*
X183909700Y-31793000D01*
%TO.N,Column 3*%
X176268900Y-45174300D02*
X176268900Y-44069200D01*
X176268900Y-45174300D02*
X176268900Y-45396100D01*
X178804300Y-40134200D02*
X177724000Y-40134200D01*
X177724000Y-42614100D02*
X176268900Y-44069200D01*
X177724000Y-40134200D02*
X177724000Y-42614100D01*
X177724000Y-39652300D02*
X177724000Y-40134200D01*
X176812700Y-38741000D02*
X177724000Y-39652300D01*
X173572100Y-38741000D02*
X176812700Y-38741000D01*
X172535600Y-37704500D02*
X173572100Y-38741000D01*
X167517700Y-37704500D02*
X172535600Y-37704500D01*
X166529200Y-38693000D02*
X167517700Y-37704500D01*
X164645800Y-38693000D02*
X166529200Y-38693000D01*
X162568900Y-36616100D02*
X164645800Y-38693000D01*
X169967500Y-69722400D02*
X169967500Y-67109400D01*
X169497700Y-70192200D02*
X169967500Y-69722400D01*
X167092800Y-70192200D02*
X169497700Y-70192200D01*
X162568900Y-74716100D02*
X167092800Y-70192200D01*
X162379400Y-57182500D02*
X162568900Y-56993000D01*
X162379400Y-63040800D02*
X162379400Y-57182500D01*
X162702700Y-63364100D02*
X162379400Y-63040800D01*
X163825500Y-63364100D02*
X162702700Y-63364100D01*
X167570800Y-67109400D02*
X163825500Y-63364100D01*
X169967500Y-67109400D02*
X167570800Y-67109400D01*
X162568900Y-55666100D02*
X162568900Y-56993000D01*
X176268900Y-83496100D02*
X176268900Y-82169200D01*
X176268900Y-64446100D02*
X173605600Y-67109400D01*
X173605600Y-67109400D02*
X169967500Y-67109400D01*
X162568900Y-93766100D02*
X162568900Y-95093000D01*
X162433900Y-95228000D02*
X162568900Y-95093000D01*
X162433900Y-101165400D02*
X162433900Y-95228000D01*
X177666100Y-64516400D02*
X177595800Y-64446100D01*
X178754300Y-64516400D02*
X177666100Y-64516400D01*
X176268900Y-64446100D02*
X177595800Y-64446100D01*
X177761200Y-71997400D02*
X178220400Y-71997400D01*
X177761200Y-80676900D02*
X177761200Y-71997400D01*
X176268900Y-82169200D02*
X177761200Y-80676900D01*
X177761200Y-71265000D02*
X173605600Y-67109400D01*
X177761200Y-71997400D02*
X177761200Y-71265000D01*
X178804300Y-98683800D02*
X178804300Y-96283200D01*
X176268900Y-101219200D02*
X178804300Y-98683800D01*
X176268900Y-102546100D02*
X176268900Y-101219200D01*
X165897500Y-104629000D02*
X162433900Y-101165400D01*
X174186000Y-104629000D02*
X165897500Y-104629000D01*
X176268900Y-102546100D02*
X174186000Y-104629000D01*
%TO.N,Column 4*%
X136396000Y-124476500D02*
X136521800Y-124476500D01*
X136077100Y-124795400D02*
X136396000Y-124476500D01*
X136086400Y-122851400D02*
X136521800Y-124476500D01*
X135650900Y-121226300D02*
X135651000Y-121226300D01*
X133747700Y-119323100D02*
X135650900Y-121226300D01*
X133747700Y-118759800D02*
X133747700Y-119323100D01*
X133747800Y-118759800D02*
X133747700Y-118759800D01*
X136086400Y-122851400D02*
X135651000Y-121226300D01*
X143518900Y-91290100D02*
X143518900Y-89963200D01*
X143518900Y-91290100D02*
X143518900Y-92617000D01*
X143518900Y-34140100D02*
X143518900Y-35467000D01*
X143342600Y-41476600D02*
X146895600Y-45029600D01*
X143342600Y-35643300D02*
X143342600Y-41476600D01*
X143518900Y-35467000D02*
X143342600Y-35643300D01*
X155109400Y-45029600D02*
X157218900Y-42920100D01*
X146895600Y-45029600D02*
X155109400Y-45029600D01*
X143518900Y-48406300D02*
X143518900Y-53190100D01*
X146895600Y-45029600D02*
X143518900Y-48406300D01*
X143518900Y-53190100D02*
X143518900Y-54517000D01*
X147258700Y-64477500D02*
X151341400Y-64477500D01*
X143357700Y-60576500D02*
X147258700Y-64477500D01*
X143357700Y-54678200D02*
X143357700Y-60576500D01*
X143518900Y-54517000D02*
X143357700Y-54678200D01*
X152979900Y-64320100D02*
X152082000Y-65218000D01*
X154868900Y-64320100D02*
X152979900Y-64320100D01*
X157218900Y-61970100D02*
X154868900Y-64320100D01*
X151341400Y-64477500D02*
X152082000Y-65218000D01*
X148042800Y-67716200D02*
X143518900Y-72240100D01*
X150423800Y-67716200D02*
X148042800Y-67716200D01*
X152082000Y-66058000D02*
X150423800Y-67716200D01*
X152082000Y-65218100D02*
X152082000Y-66058000D01*
X152082000Y-65218000D02*
X152082000Y-65218100D01*
X145033300Y-88448800D02*
X143518900Y-89963200D01*
X145033300Y-84288100D02*
X145033300Y-88448800D01*
X142092600Y-81347400D02*
X145033300Y-84288100D01*
X142092600Y-74993300D02*
X142092600Y-81347400D01*
X143518900Y-73567000D02*
X142092600Y-74993300D01*
X155095200Y-83143800D02*
X157218900Y-81020100D01*
X146177600Y-83143800D02*
X155095200Y-83143800D01*
X145033300Y-84288100D02*
X146177600Y-83143800D01*
X143518900Y-72240100D02*
X143518900Y-73567000D01*
X133312300Y-117134600D02*
X133747800Y-118759800D01*
X155128500Y-102160500D02*
X157218900Y-100070100D01*
X148339300Y-102160500D02*
X155128500Y-102160500D01*
X148339300Y-102160600D02*
X148339300Y-102160500D01*
X147875500Y-102624400D02*
X148339300Y-102160600D01*
X147052700Y-102624400D02*
X147875500Y-102624400D01*
X143917600Y-99489300D02*
X147052700Y-102624400D01*
X143363300Y-92772600D02*
X143518900Y-92617000D01*
X143363300Y-98935000D02*
X143363300Y-92772600D01*
X143917600Y-99489300D02*
X143363300Y-98935000D01*
X133312300Y-117134600D02*
X132876900Y-115509500D01*
X134183000Y-115509500D02*
X132876900Y-115509500D01*
X135446900Y-114245600D02*
X134183000Y-115509500D01*
X137632900Y-114245600D02*
X135446900Y-114245600D01*
X138827100Y-115439800D02*
X137632900Y-114245600D01*
X142183100Y-115439800D02*
X138827100Y-115439800D01*
%TO.N,Column 5*%
X111470600Y-125921200D02*
X111470700Y-125921200D01*
X111470600Y-125948900D02*
X111470600Y-125921200D01*
X113494500Y-127972800D02*
X111470600Y-125948900D01*
X113494600Y-127972800D02*
X113494500Y-127972800D01*
X110851700Y-124220400D02*
X111470700Y-125921200D01*
X124342200Y-63081800D02*
X128424800Y-67164400D01*
X124342200Y-57119900D02*
X124342200Y-63081800D01*
X124469100Y-56993000D02*
X124342200Y-57119900D01*
X135450800Y-67164400D02*
X138169100Y-64446100D01*
X128424800Y-67164400D02*
X135450800Y-67164400D01*
X124469100Y-71120100D02*
X128424800Y-67164400D01*
X124469100Y-74716100D02*
X124469100Y-71120100D01*
X135014000Y-86651200D02*
X128837400Y-86651200D01*
X138169100Y-83496100D02*
X135014000Y-86651200D01*
X124469100Y-74716100D02*
X124469100Y-76043000D01*
X139656000Y-42582300D02*
X138169100Y-44069200D01*
X139656000Y-39741300D02*
X139656000Y-42582300D01*
X138655700Y-38741000D02*
X139656000Y-39741300D01*
X135472300Y-38741000D02*
X138655700Y-38741000D01*
X134470500Y-37739200D02*
X135472300Y-38741000D01*
X131629300Y-37739200D02*
X134470500Y-37739200D01*
X131629300Y-37739100D02*
X131629300Y-37739200D01*
X128429400Y-34539200D02*
X131629300Y-37739100D01*
X126708900Y-34539200D02*
X128429400Y-34539200D01*
X124632100Y-36616000D02*
X126708900Y-34539200D01*
X124632100Y-36616100D02*
X124632100Y-36616000D01*
X124469100Y-36616100D02*
X124632100Y-36616100D01*
X138169100Y-45174300D02*
X138169100Y-44069200D01*
X138169100Y-45174300D02*
X138169100Y-45396100D01*
X124469100Y-55907900D02*
X124469100Y-56993000D01*
X124469100Y-55907900D02*
X124469100Y-55666100D01*
X135384100Y-48181100D02*
X138169100Y-45396100D01*
X135225300Y-48181100D02*
X135384100Y-48181100D01*
X134181100Y-48181100D02*
X135225300Y-48181100D01*
X132650700Y-49711500D02*
X134181100Y-48181100D01*
X132650700Y-49821800D02*
X132650700Y-49711500D01*
X131629500Y-50843000D02*
X132650700Y-49821800D01*
X129292200Y-50843000D02*
X131629500Y-50843000D01*
X124469100Y-55666100D02*
X129292200Y-50843000D01*
X124469100Y-91019500D02*
X124469100Y-93766100D01*
X128837400Y-86651200D02*
X124469100Y-91019500D01*
X139655800Y-99732500D02*
X138169100Y-101219200D01*
X139655800Y-96891300D02*
X139655800Y-99732500D01*
X138655500Y-95891000D02*
X139655800Y-96891300D01*
X135472300Y-95891000D02*
X138655500Y-95891000D01*
X134470500Y-94889200D02*
X135472300Y-95891000D01*
X131629300Y-94889200D02*
X134470500Y-94889200D01*
X131629300Y-94889100D02*
X131629300Y-94889200D01*
X128429400Y-91689200D02*
X131629300Y-94889100D01*
X126708900Y-91689200D02*
X128429400Y-91689200D01*
X124632100Y-93766000D02*
X126708900Y-91689200D01*
X124632100Y-93766100D02*
X124632100Y-93766000D01*
X124469100Y-93766100D02*
X124632100Y-93766100D01*
X138169100Y-102546100D02*
X138169100Y-101219200D01*
X109150900Y-122519600D02*
X110232700Y-122519600D01*
X103004400Y-116373100D02*
X109150900Y-122519600D01*
X96356000Y-116373100D02*
X103004400Y-116373100D01*
X94535400Y-114552500D02*
X96356000Y-116373100D01*
X110851700Y-124220400D02*
X110232700Y-122519600D01*
X139592700Y-102449400D02*
X139496000Y-102546100D01*
X139929500Y-102449400D02*
X139592700Y-102449400D01*
X138169100Y-102546100D02*
X139496000Y-102546100D01*
X114113600Y-129673700D02*
X113494600Y-127972800D01*
X114732500Y-131374500D02*
X114732600Y-131374500D01*
X114309400Y-131797600D02*
X114732500Y-131374500D01*
X114309400Y-132194300D02*
X114309400Y-131797600D01*
X114113600Y-129673700D02*
X114732600Y-131374500D01*
X124302600Y-76209500D02*
X124469100Y-76043000D01*
X124302600Y-82116400D02*
X124302600Y-76209500D01*
X128837400Y-86651200D02*
X124302600Y-82116400D01*
%TO.N,Column 6*%
X105418900Y-38902100D02*
X105418900Y-40229000D01*
X105292000Y-40355900D02*
X105418900Y-40229000D01*
X105292000Y-46335800D02*
X105292000Y-40355900D01*
X109805200Y-50849000D02*
X105292000Y-46335800D01*
X116400600Y-50400400D02*
X119118900Y-47682100D01*
X110253800Y-50400400D02*
X116400600Y-50400400D01*
X109805200Y-50849000D02*
X110253800Y-50400400D01*
X105418900Y-96052100D02*
X105418900Y-97379000D01*
X105240100Y-97557800D02*
X105418900Y-97379000D01*
X105240100Y-106916400D02*
X105240100Y-97557800D01*
X100726100Y-110340000D02*
X103853000Y-110340000D01*
X112771900Y-91104000D02*
X112771900Y-89275200D01*
X112347700Y-91528200D02*
X112771900Y-91104000D01*
X109942800Y-91528200D02*
X112347700Y-91528200D01*
X105418900Y-96052100D02*
X109942800Y-91528200D01*
X105265100Y-78482800D02*
X105418900Y-78329000D01*
X105265100Y-84399300D02*
X105265100Y-78482800D01*
X110141000Y-89275200D02*
X105265100Y-84399300D01*
X112771900Y-89275200D02*
X110141000Y-89275200D01*
X105418900Y-77002100D02*
X105418900Y-78329000D01*
X105418900Y-55235300D02*
X109805200Y-50849000D01*
X105418900Y-57952100D02*
X105418900Y-55235300D01*
X112817500Y-72008400D02*
X112817500Y-69395400D01*
X112347700Y-72478200D02*
X112817500Y-72008400D01*
X109942800Y-72478200D02*
X112347700Y-72478200D01*
X105418900Y-77002100D02*
X109942800Y-72478200D01*
X116455600Y-69395400D02*
X112817500Y-69395400D01*
X119118900Y-66732100D02*
X116455600Y-69395400D01*
X105255000Y-59442900D02*
X105418900Y-59279000D01*
X105255000Y-65367000D02*
X105255000Y-59442900D01*
X109283400Y-69395400D02*
X105255000Y-65367000D01*
X112817500Y-69395400D02*
X109283400Y-69395400D01*
X105418900Y-57952100D02*
X105418900Y-59279000D01*
X115625800Y-89275200D02*
X119118900Y-85782100D01*
X112771900Y-89275200D02*
X115625800Y-89275200D01*
X120872100Y-82702000D02*
X120872100Y-81084300D01*
X119118900Y-84455200D02*
X120872100Y-82702000D01*
X119118900Y-85782100D02*
X119118900Y-84455200D01*
X101622900Y-124253100D02*
X101089400Y-122787200D01*
X94554300Y-127670700D02*
X93920200Y-127036600D01*
X94554300Y-128102800D02*
X94554300Y-127670700D01*
X98169600Y-122787200D02*
X93920200Y-127036600D01*
X101089400Y-122787200D02*
X98169600Y-122787200D01*
X96169600Y-127514900D02*
X94554300Y-128102800D01*
X103853000Y-107692500D02*
X103853000Y-110340000D01*
X104629100Y-106916400D02*
X103853000Y-107692500D01*
X105240100Y-106916400D02*
X104629100Y-106916400D01*
X117034600Y-106916400D02*
X105240100Y-106916400D01*
X119118900Y-104832100D02*
X117034600Y-106916400D01*
%TO.N,Column 2*%
X195318900Y-50159100D02*
X195318900Y-48832200D01*
X181618900Y-60429100D02*
X181618900Y-61756000D01*
X181618900Y-79479100D02*
X181618900Y-78152200D01*
X196816600Y-95083400D02*
X192655600Y-90922400D01*
X196816600Y-104484500D02*
X196816600Y-95083400D01*
X195318900Y-105982200D02*
X196816600Y-104484500D01*
X192655600Y-90922400D02*
X195318900Y-88259100D01*
X195318900Y-107309100D02*
X195318900Y-105982200D01*
X196895700Y-44354900D02*
X196785400Y-44465200D01*
X198115100Y-44354900D02*
X196895700Y-44354900D01*
X195824200Y-43504000D02*
X196785400Y-44465200D01*
X192622100Y-43504000D02*
X195824200Y-43504000D01*
X191620300Y-42502200D02*
X192622100Y-43504000D01*
X188779100Y-42502200D02*
X191620300Y-42502200D01*
X188779100Y-42502100D02*
X188779100Y-42502200D01*
X185579200Y-39302200D02*
X188779100Y-42502100D01*
X183858700Y-39302200D02*
X185579200Y-39302200D01*
X181781900Y-41379000D02*
X183858700Y-39302200D01*
X181781900Y-41379100D02*
X181781900Y-41379000D01*
X181618900Y-41379100D02*
X181781900Y-41379100D01*
X196785400Y-47365700D02*
X195318900Y-48832200D01*
X196785400Y-44465200D02*
X196785400Y-47365700D01*
X181618900Y-79479100D02*
X181618900Y-80806000D01*
X192655600Y-90922400D02*
X189017500Y-90922400D01*
X181020300Y-81404600D02*
X181618900Y-80806000D01*
X181020300Y-88507900D02*
X181020300Y-81404600D01*
X183434800Y-90922400D02*
X181020300Y-88507900D01*
X189017500Y-90922400D02*
X183434800Y-90922400D01*
X181618900Y-71288300D02*
X181618900Y-78152200D01*
X181446000Y-71115400D02*
X181618900Y-71288300D01*
X181446000Y-61928900D02*
X181446000Y-71115400D01*
X181618900Y-61756000D02*
X181446000Y-61928900D01*
X193239700Y-71288300D02*
X195318900Y-69209100D01*
X181618900Y-71288300D02*
X193239700Y-71288300D01*
X198115100Y-65086000D02*
X198115100Y-63918300D01*
X195318900Y-67882200D02*
X198115100Y-65086000D01*
X195318900Y-69209100D02*
X195318900Y-67882200D01*
X186142800Y-94005200D02*
X181618900Y-98529100D01*
X188547700Y-94005200D02*
X186142800Y-94005200D01*
X189017500Y-93535400D02*
X188547700Y-94005200D01*
X189017500Y-90922400D02*
X189017500Y-93535400D01*
%TO.N,Column 1*%
X200668900Y-41379100D02*
X200668900Y-42706000D01*
X207495600Y-53103400D02*
X208850500Y-54458300D01*
X204813700Y-53103400D02*
X207495600Y-53103400D01*
X200521600Y-48811300D02*
X204813700Y-53103400D01*
X200521600Y-42853300D02*
X200521600Y-48811300D01*
X200668900Y-42706000D02*
X200521600Y-42853300D01*
X211705600Y-52822400D02*
X214368900Y-50159100D01*
X210486400Y-52822400D02*
X211705600Y-52822400D01*
X208850500Y-54458300D02*
X210486400Y-52822400D01*
X214368900Y-69209100D02*
X214368900Y-67882200D01*
X203039500Y-58058500D02*
X205656000Y-58058500D01*
X200668900Y-60429100D02*
X203039500Y-58058500D01*
X208850500Y-54864000D02*
X205656000Y-58058500D01*
X208850500Y-54458300D02*
X208850500Y-54864000D01*
X217370500Y-63918300D02*
X215819200Y-63918300D01*
X215819200Y-63470900D02*
X215819200Y-63918300D01*
X214902300Y-62554000D02*
X215819200Y-63470900D01*
X211672100Y-62554000D02*
X214902300Y-62554000D01*
X209542600Y-60424500D02*
X211672100Y-62554000D01*
X208022000Y-60424500D02*
X209542600Y-60424500D01*
X205656000Y-58058500D02*
X208022000Y-60424500D01*
X215819200Y-66431900D02*
X214368900Y-67882200D01*
X215819200Y-63918300D02*
X215819200Y-66431900D01*
X205192800Y-74955200D02*
X200668900Y-79479100D01*
X207597700Y-74955200D02*
X205192800Y-74955200D01*
X208850500Y-73702400D02*
X207597700Y-74955200D01*
X208850500Y-73473500D02*
X208850500Y-73702400D01*
X210451600Y-71872400D02*
X208850500Y-73473500D01*
X211705600Y-71872400D02*
X210451600Y-71872400D01*
X214368900Y-69209100D02*
X211705600Y-71872400D01*
X208019300Y-90906300D02*
X209243500Y-92130500D01*
X205655100Y-90906300D02*
X208019300Y-90906300D01*
X202997900Y-88249100D02*
X205655100Y-90906300D01*
X201877000Y-88249100D02*
X202997900Y-88249100D01*
X200480500Y-86852600D02*
X201877000Y-88249100D01*
X200480500Y-80994400D02*
X200480500Y-86852600D01*
X200668900Y-80806000D02*
X200480500Y-80994400D01*
X211705600Y-90922400D02*
X214368900Y-88259100D01*
X210451600Y-90922400D02*
X211705600Y-90922400D01*
X209243500Y-92130500D02*
X210451600Y-90922400D01*
X200668900Y-79479100D02*
X200668900Y-80806000D01*
X205192800Y-94005200D02*
X200668900Y-98529100D01*
X207597700Y-94005200D02*
X205192800Y-94005200D01*
X209243500Y-92359400D02*
X207597700Y-94005200D01*
X209243500Y-92130500D02*
X209243500Y-92359400D01*
X200668900Y-98529100D02*
X200668900Y-99856000D01*
X212260800Y-109417200D02*
X214368900Y-107309100D01*
X204009400Y-109417200D02*
X212260800Y-109417200D01*
X200490800Y-100034100D02*
X200490800Y-105898600D01*
X200668900Y-99856000D02*
X200490800Y-100034100D01*
%TD*%
%TA.AperFunction,Conductor*%
%TO.N,ground*%
G36*
X99409473Y-97015185D02*
G01*
X99455228Y-97067989D01*
X99465172Y-97137147D01*
X99454816Y-97171904D01*
X99452671Y-97176502D01*
X99452667Y-97176513D01*
X99395464Y-97389999D01*
X99395464Y-97390000D01*
X100292414Y-97390000D01*
X100266607Y-97430156D01*
X100226100Y-97568111D01*
X100226100Y-97711889D01*
X100266607Y-97849844D01*
X100292414Y-97890000D01*
X99395464Y-97890000D01*
X99452667Y-98103486D01*
X99452670Y-98103492D01*
X99552499Y-98317577D01*
X99552500Y-98317579D01*
X99687986Y-98511073D01*
X99687991Y-98511079D01*
X99855020Y-98678108D01*
X99855026Y-98678113D01*
X100040694Y-98808119D01*
X100084319Y-98862696D01*
X100091513Y-98932194D01*
X100059990Y-98994549D01*
X100040695Y-99011269D01*
X99854694Y-99141508D01*
X99687606Y-99308597D01*
X99687601Y-99308604D01*
X99552067Y-99502165D01*
X99552065Y-99502169D01*
X99452198Y-99716335D01*
X99452194Y-99716344D01*
X99391038Y-99944586D01*
X99391036Y-99944596D01*
X99370441Y-100179999D01*
X99370441Y-100180000D01*
X99391036Y-100415403D01*
X99391038Y-100415413D01*
X99452194Y-100643655D01*
X99452196Y-100643659D01*
X99452197Y-100643663D01*
X99484666Y-100713292D01*
X99552064Y-100857828D01*
X99552065Y-100857830D01*
X99687605Y-101051402D01*
X99854697Y-101218494D01*
X100040258Y-101348425D01*
X100083883Y-101403002D01*
X100091077Y-101472500D01*
X100059554Y-101534855D01*
X100040258Y-101551575D01*
X99854697Y-101681505D01*
X99687606Y-101848597D01*
X99687601Y-101848604D01*
X99552067Y-102042165D01*
X99552065Y-102042169D01*
X99452198Y-102256335D01*
X99452194Y-102256344D01*
X99391038Y-102484586D01*
X99391036Y-102484596D01*
X99370441Y-102719999D01*
X99370441Y-102720000D01*
X99391036Y-102955403D01*
X99391038Y-102955413D01*
X99452194Y-103183655D01*
X99452196Y-103183659D01*
X99452197Y-103183663D01*
X99482341Y-103248307D01*
X99552064Y-103397828D01*
X99552065Y-103397830D01*
X99687605Y-103591402D01*
X99854697Y-103758494D01*
X100048269Y-103894034D01*
X100052961Y-103896743D01*
X100052399Y-103897715D01*
X100100600Y-103940152D01*
X100119755Y-104007345D01*
X100099543Y-104074227D01*
X100066883Y-104107942D01*
X99904694Y-104221508D01*
X99737606Y-104388597D01*
X99737601Y-104388604D01*
X99602067Y-104582165D01*
X99602065Y-104582169D01*
X99502198Y-104796335D01*
X99502194Y-104796344D01*
X99441038Y-105024586D01*
X99441036Y-105024596D01*
X99420441Y-105259999D01*
X99420441Y-105260000D01*
X99441037Y-105495409D01*
X99441037Y-105495410D01*
X99457389Y-105556440D01*
X99455725Y-105626290D01*
X99425295Y-105676212D01*
X99215408Y-105886099D01*
X99203151Y-105895920D01*
X99203334Y-105896141D01*
X99197322Y-105901114D01*
X99151298Y-105950123D01*
X99148591Y-105952916D01*
X99129089Y-105972417D01*
X99129075Y-105972434D01*
X99126607Y-105975615D01*
X99119043Y-105984470D01*
X99089137Y-106016318D01*
X99089136Y-106016320D01*
X99079484Y-106033876D01*
X99068810Y-106050126D01*
X99056529Y-106065961D01*
X99056524Y-106065968D01*
X99039175Y-106106058D01*
X99034038Y-106116544D01*
X99013003Y-106154806D01*
X99008022Y-106174207D01*
X99001721Y-106192610D01*
X98993762Y-106211002D01*
X98993761Y-106211005D01*
X98986928Y-106254143D01*
X98984560Y-106265574D01*
X98973701Y-106307871D01*
X98973700Y-106307882D01*
X98973700Y-106327916D01*
X98972173Y-106347315D01*
X98969040Y-106367094D01*
X98969040Y-106367095D01*
X98973150Y-106410574D01*
X98973700Y-106422243D01*
X98973700Y-110782055D01*
X98971975Y-110797672D01*
X98972261Y-110797699D01*
X98971526Y-110805465D01*
X98973639Y-110872672D01*
X98973700Y-110876567D01*
X98973700Y-110904157D01*
X98974203Y-110908135D01*
X98975118Y-110919767D01*
X98976490Y-110963424D01*
X98976491Y-110963427D01*
X98982080Y-110982667D01*
X98986024Y-111001711D01*
X98988061Y-111017829D01*
X98988536Y-111021592D01*
X99004614Y-111062203D01*
X99008397Y-111073252D01*
X99016878Y-111102444D01*
X99020582Y-111115190D01*
X99028050Y-111127819D01*
X99030780Y-111132434D01*
X99039334Y-111149894D01*
X99046714Y-111168532D01*
X99046715Y-111168534D01*
X99047236Y-111169848D01*
X99053615Y-111239426D01*
X99021365Y-111301408D01*
X98960724Y-111336114D01*
X98931945Y-111339500D01*
X98311848Y-111339500D01*
X98244809Y-111319815D01*
X98224167Y-111303181D01*
X97561823Y-110640837D01*
X96877199Y-109956212D01*
X96867376Y-109943950D01*
X96867155Y-109944134D01*
X96862182Y-109938122D01*
X96813172Y-109892099D01*
X96810373Y-109889386D01*
X96790873Y-109869885D01*
X96790484Y-109869583D01*
X96787682Y-109867409D01*
X96778830Y-109859848D01*
X96747464Y-109830394D01*
X96746976Y-109829936D01*
X96746973Y-109829935D01*
X96729425Y-109820288D01*
X96713159Y-109809604D01*
X96711609Y-109808402D01*
X96697332Y-109797327D01*
X96697331Y-109797326D01*
X96697328Y-109797324D01*
X96657245Y-109779978D01*
X96646759Y-109774841D01*
X96608490Y-109753803D01*
X96608488Y-109753802D01*
X96589089Y-109748822D01*
X96570677Y-109742518D01*
X96552294Y-109734562D01*
X96552288Y-109734560D01*
X96509156Y-109727729D01*
X96497718Y-109725361D01*
X96455416Y-109714500D01*
X96455415Y-109714500D01*
X96435380Y-109714500D01*
X96415982Y-109712973D01*
X96408558Y-109711797D01*
X96396201Y-109709840D01*
X96396200Y-109709840D01*
X96352721Y-109713950D01*
X96341052Y-109714500D01*
X86701327Y-109714500D01*
X86634288Y-109694815D01*
X86599752Y-109661623D01*
X86464594Y-109468597D01*
X86297503Y-109301506D01*
X86179257Y-109218710D01*
X86111938Y-109171573D01*
X86068315Y-109116999D01*
X86061121Y-109047500D01*
X86092643Y-108985145D01*
X86111936Y-108968428D01*
X86297501Y-108838495D01*
X86464595Y-108671401D01*
X86600135Y-108477830D01*
X86700003Y-108263663D01*
X86761163Y-108035408D01*
X86781759Y-107800000D01*
X86761163Y-107564592D01*
X86700003Y-107336337D01*
X86600135Y-107122171D01*
X86600134Y-107122169D01*
X86464594Y-106928597D01*
X86297503Y-106761506D01*
X86167166Y-106670244D01*
X86111938Y-106631573D01*
X86068315Y-106576999D01*
X86061121Y-106507500D01*
X86092643Y-106445145D01*
X86111936Y-106428428D01*
X86297501Y-106298495D01*
X86464595Y-106131401D01*
X86600135Y-105937830D01*
X86700003Y-105723663D01*
X86761163Y-105495408D01*
X86781759Y-105260000D01*
X86761163Y-105024592D01*
X86712445Y-104842770D01*
X86700005Y-104796344D01*
X86700004Y-104796343D01*
X86700003Y-104796337D01*
X86600135Y-104582171D01*
X86600134Y-104582169D01*
X86464594Y-104388597D01*
X86297503Y-104221506D01*
X86210566Y-104160633D01*
X86111938Y-104091573D01*
X86068315Y-104036999D01*
X86061121Y-103967500D01*
X86092643Y-103905145D01*
X86111936Y-103888428D01*
X86297501Y-103758495D01*
X86464595Y-103591401D01*
X86600135Y-103397830D01*
X86600136Y-103397825D01*
X86601699Y-103395595D01*
X86656276Y-103351970D01*
X86693918Y-103343945D01*
X86693916Y-103343931D01*
X86694182Y-103343888D01*
X86699386Y-103342779D01*
X86701627Y-103342709D01*
X86720869Y-103337117D01*
X86739912Y-103333174D01*
X86759792Y-103330664D01*
X86800401Y-103314585D01*
X86811444Y-103310803D01*
X86853390Y-103298618D01*
X86870629Y-103288422D01*
X86888103Y-103279862D01*
X86906727Y-103272488D01*
X86906727Y-103272487D01*
X86906732Y-103272486D01*
X86942083Y-103246800D01*
X86951814Y-103240408D01*
X86989420Y-103218170D01*
X87003589Y-103203999D01*
X87018379Y-103191368D01*
X87034587Y-103179594D01*
X87062438Y-103145926D01*
X87070279Y-103137309D01*
X88668777Y-101538812D01*
X88710808Y-101511203D01*
X88735102Y-101501585D01*
X88746144Y-101497803D01*
X88788090Y-101485618D01*
X88805329Y-101475422D01*
X88822803Y-101466862D01*
X88841427Y-101459488D01*
X88841427Y-101459487D01*
X88841432Y-101459486D01*
X88876783Y-101433800D01*
X88886514Y-101427408D01*
X88924120Y-101405170D01*
X88938289Y-101390999D01*
X88953079Y-101378368D01*
X88969287Y-101366594D01*
X88997138Y-101332926D01*
X89004979Y-101324309D01*
X89347285Y-100982003D01*
X89359541Y-100972187D01*
X89359358Y-100971965D01*
X89365370Y-100966990D01*
X89365377Y-100966986D01*
X89411449Y-100917922D01*
X89414066Y-100915223D01*
X89433620Y-100895671D01*
X89436076Y-100892503D01*
X89443656Y-100883627D01*
X89473562Y-100851782D01*
X89483213Y-100834224D01*
X89493896Y-100817961D01*
X89506173Y-100802136D01*
X89523521Y-100762044D01*
X89528651Y-100751571D01*
X89549697Y-100713292D01*
X89554680Y-100693885D01*
X89560983Y-100675475D01*
X89561129Y-100675139D01*
X89568937Y-100657096D01*
X89568937Y-100657094D01*
X89572036Y-100649934D01*
X89574042Y-100650802D01*
X89599000Y-100608588D01*
X93175772Y-97031819D01*
X93237095Y-96998334D01*
X93263453Y-96995500D01*
X99342434Y-96995500D01*
X99409473Y-97015185D01*
G37*
%TD.AperFunction*%
%TA.AperFunction,Conductor*%
G36*
X104060878Y-97409685D02*
G01*
X104068150Y-97414734D01*
X104176564Y-97495893D01*
X104176571Y-97495897D01*
X104219867Y-97512045D01*
X104311417Y-97546191D01*
X104371027Y-97552600D01*
X104490600Y-97552599D01*
X104557639Y-97572283D01*
X104603394Y-97625087D01*
X104614600Y-97676599D01*
X104614600Y-106176147D01*
X104594915Y-106243186D01*
X104542111Y-106288941D01*
X104525195Y-106295224D01*
X104511234Y-106299280D01*
X104492179Y-106303225D01*
X104472311Y-106305734D01*
X104472310Y-106305735D01*
X104431700Y-106321813D01*
X104420653Y-106325595D01*
X104378710Y-106337781D01*
X104378709Y-106337782D01*
X104361467Y-106347979D01*
X104343999Y-106356537D01*
X104325369Y-106363913D01*
X104325366Y-106363915D01*
X104290039Y-106389581D01*
X104280280Y-106395992D01*
X104242679Y-106418230D01*
X104228508Y-106432400D01*
X104213723Y-106445028D01*
X104197512Y-106456807D01*
X104169671Y-106490459D01*
X104161811Y-106499096D01*
X103811133Y-106849774D01*
X103749810Y-106883259D01*
X103680118Y-106878275D01*
X103635771Y-106849774D01*
X103547503Y-106761506D01*
X103417166Y-106670244D01*
X103361938Y-106631573D01*
X103318315Y-106576999D01*
X103311121Y-106507500D01*
X103342643Y-106445145D01*
X103361936Y-106428428D01*
X103547501Y-106298495D01*
X103714595Y-106131401D01*
X103850135Y-105937830D01*
X103950003Y-105723663D01*
X104011163Y-105495408D01*
X104031759Y-105260000D01*
X104011163Y-105024592D01*
X103962445Y-104842770D01*
X103950005Y-104796344D01*
X103950004Y-104796343D01*
X103950003Y-104796337D01*
X103850135Y-104582171D01*
X103850134Y-104582169D01*
X103714594Y-104388597D01*
X103547505Y-104221508D01*
X103503629Y-104190786D01*
X103464027Y-104163056D01*
X103385316Y-104107942D01*
X103341692Y-104053365D01*
X103334499Y-103983866D01*
X103366021Y-103921512D01*
X103399531Y-103897249D01*
X103399239Y-103896743D01*
X103403925Y-103894036D01*
X103403929Y-103894035D01*
X103597501Y-103758495D01*
X103764595Y-103591401D01*
X103900135Y-103397830D01*
X104000003Y-103183663D01*
X104061163Y-102955408D01*
X104081759Y-102720000D01*
X104061163Y-102484592D01*
X104012900Y-102304469D01*
X104000005Y-102256344D01*
X104000004Y-102256343D01*
X104000003Y-102256337D01*
X103900135Y-102042171D01*
X103900134Y-102042169D01*
X103764594Y-101848597D01*
X103597503Y-101681506D01*
X103509365Y-101619792D01*
X103411938Y-101551573D01*
X103368315Y-101496999D01*
X103361121Y-101427500D01*
X103392643Y-101365145D01*
X103411936Y-101348428D01*
X103597501Y-101218495D01*
X103764595Y-101051401D01*
X103900135Y-100857830D01*
X104000003Y-100643663D01*
X104061163Y-100415408D01*
X104081759Y-100180000D01*
X104061163Y-99944592D01*
X104008396Y-99747662D01*
X104000005Y-99716344D01*
X104000004Y-99716343D01*
X104000003Y-99716337D01*
X103900135Y-99502171D01*
X103900134Y-99502169D01*
X103764594Y-99308597D01*
X103597502Y-99141505D01*
X103411505Y-99011269D01*
X103367880Y-98956692D01*
X103360686Y-98887194D01*
X103392209Y-98824839D01*
X103411505Y-98808119D01*
X103597173Y-98678113D01*
X103597179Y-98678108D01*
X103764205Y-98511082D01*
X103899700Y-98317578D01*
X103999529Y-98103492D01*
X103999532Y-98103486D01*
X104056736Y-97890000D01*
X101159786Y-97890000D01*
X101185593Y-97849844D01*
X101226100Y-97711889D01*
X101226100Y-97568111D01*
X101185593Y-97430156D01*
X101159786Y-97390000D01*
X103993839Y-97390000D01*
X104060878Y-97409685D01*
G37*
%TD.AperFunction*%
%TD*%
M02*
