M48
; DRILL file {KiCad 7.0.10} date Thu Mar 21 20:23:25 2024
; FORMAT={-:-/ absolute / metric / decimal}
; #@! TF.CreationDate,2024-03-21T20:23:25+01:00
; #@! TF.GenerationSoftware,Kicad,Pcbnew,7.0.10
; #@! TF.FileFunction,Plated,1,2,PTH
FMAT,2
METRIC
; #@! TA.AperFunction,Plated,PTH,ViaDrill
T1C0.400
; #@! TA.AperFunction,Plated,PTH,ComponentDrill
T2C0.400
; #@! TA.AperFunction,Plated,PTH,ComponentDrill
T3C0.813
; #@! TA.AperFunction,Plated,PTH,ComponentDrill
T4C1.000
; #@! TA.AperFunction,Plated,PTH,ComponentDrill
T5C2.300
%
G90
G05
T1
X101.286Y-88.3
X101.336Y-102.222
X104.161Y-83.341
X112.251Y-60.929
X119.845Y-50.724
X120.647Y-63.924
X120.647Y-83.341
X120.672Y-100.644
X128.857Y-32.667
X131.822Y-75.216
X134.437Y-89.748
X137.513Y-87.345
X139.958Y-40.134
X139.958Y-96.283
X142.568Y-83.6
X142.833Y-80.72
X142.834Y-100.145
X143.239Y-37.878
X143.256Y-57.301
X151.394Y-115.881
X153.555Y-48.817
X166.199Y-124.795
X170.965Y-108.456
X175.122Y-71.526
X175.417Y-104.631
X177.752Y-67.459
X178.299Y-76.86
X185.836Y-35.078
X191.661Y-122.111
X193.99Y-139.433
X195.618Y-91.599
X197.353Y-99.595
X197.361Y-52.27
X197.672Y-79.984
X203.6Y-113.1
X204.079Y-135.395
X204.356Y-126.383
X207.6Y-104.8
X207.9Y-110.2
T2
X101.5Y-54.5
X101.5Y-92.6
X101.94Y-53.44
X101.94Y-55.56
X101.94Y-91.54
X101.94Y-93.66
X103.0Y-53.0
X103.0Y-56.0
X103.0Y-91.1
X103.0Y-94.1
X104.06Y-53.44
X104.06Y-55.56
X104.06Y-91.54
X104.06Y-93.66
X104.5Y-54.5
X104.5Y-92.6
X139.7Y-67.5
X140.14Y-66.44
X140.14Y-68.56
X141.2Y-66.0
X141.2Y-69.0
X142.26Y-66.44
X142.26Y-68.56
X142.7Y-67.5
X177.7Y-50.8
X177.9Y-88.6
X178.14Y-49.74
X178.14Y-51.86
X178.34Y-87.54
X178.34Y-89.66
X179.2Y-49.3
X179.2Y-52.3
X179.4Y-87.1
X179.4Y-90.1
X180.26Y-49.74
X180.26Y-51.86
X180.46Y-87.54
X180.46Y-89.66
X180.7Y-50.8
X180.9Y-88.6
X201.6Y-118.7
X202.04Y-117.64
X202.04Y-119.76
X203.1Y-117.2
X203.1Y-120.2
X204.16Y-117.64
X204.16Y-119.76
X204.6Y-118.7
T3
X90.507Y-35.579
X90.507Y-54.629
X90.507Y-73.679
X90.507Y-92.729
X96.507Y-35.579
X96.507Y-54.629
X96.507Y-73.679
X96.507Y-92.729
X109.557Y-35.579
X109.557Y-54.629
X109.557Y-73.679
X109.557Y-92.729
X115.557Y-35.579
X115.557Y-54.629
X115.557Y-73.679
X115.557Y-92.729
X128.607Y-30.816
X128.607Y-49.866
X128.607Y-68.916
X128.607Y-87.966
X134.607Y-30.816
X134.607Y-49.866
X134.607Y-68.916
X134.607Y-87.966
X147.657Y-28.34
X147.657Y-47.39
X147.657Y-66.44
X147.657Y-85.49
X153.657Y-28.34
X153.657Y-47.39
X153.657Y-66.44
X153.657Y-85.49
X157.182Y-109.112
X163.182Y-109.112
X166.707Y-30.816
X166.707Y-49.866
X166.707Y-68.916
X166.707Y-87.966
X172.707Y-30.816
X172.707Y-49.866
X172.707Y-68.916
X172.707Y-87.966
X176.232Y-111.398
X182.232Y-111.398
X185.757Y-33.102
X185.757Y-52.152
X185.757Y-71.202
X185.757Y-90.252
X187.194Y-114.136
X191.757Y-33.102
X191.757Y-52.152
X191.757Y-71.202
X191.757Y-90.252
X193.194Y-114.136
T4
X201.55Y-95.1
X201.55Y-97.64
X201.55Y-100.18
X201.55Y-102.72
X201.55Y-105.26
X201.55Y-107.8
X201.55Y-110.34
X216.8Y-95.1
X216.8Y-97.64
X216.8Y-100.18
X216.8Y-102.72
X216.8Y-105.26
X216.8Y-107.8
X216.8Y-110.34
T5
X103.0Y-54.5
X103.0Y-92.6
X141.2Y-67.5
X179.2Y-50.8
X179.4Y-88.6
X203.1Y-118.7
M30
