%TF.GenerationSoftware,KiCad,Pcbnew,7.0.10*%
%TF.CreationDate,2024-03-21T20:23:32+01:00*%
%TF.ProjectId,duosync,64756f73-796e-4632-9e6b-696361645f70,rev?*%
%TF.SameCoordinates,Original*%
%TF.FileFunction,Paste,Bot*%
%TF.FilePolarity,Positive*%
%FSLAX46Y46*%
G04 Gerber Fmt 4.6, Leading zero omitted, Abs format (unit mm)*
G04 Created by KiCad (PCBNEW 7.0.10) date 2024-03-21 20:23:32*
%MOMM*%
%LPD*%
G01*
G04 APERTURE LIST*
G04 Aperture macros list*
%AMRotRect*
0 Rectangle, with rotation*
0 The origin of the aperture is its center*
0 $1 length*
0 $2 width*
0 $3 Rotation angle, in degrees counterclockwise*
0 Add horizontal line*
21,1,$1,$2,0,0,$3*%
G04 Aperture macros list end*
%ADD10R,2.000000X2.000000*%
%ADD11R,1.900000X2.000000*%
%ADD12RotRect,1.500000X2.000000X250.000000*%
%ADD13RotRect,2.000000X2.000000X340.000000*%
%ADD14RotRect,1.800000X2.000000X340.000000*%
%ADD15RotRect,2.000000X2.000000X165.000000*%
%ADD16RotRect,1.800000X2.000000X165.000000*%
G04 APERTURE END LIST*
D10*
%TO.C,K42*%
X158757200Y-53190100D03*
X157557200Y-59430100D03*
D11*
X147857200Y-50990100D03*
D10*
X145057200Y-61970100D03*
%TD*%
%TO.C,K54*%
X177807000Y-93766100D03*
X176607000Y-100006100D03*
D11*
X166907000Y-91566100D03*
D10*
X164107000Y-102546100D03*
%TD*%
%TO.C,K41*%
X158757200Y-34140100D03*
X157557200Y-40380100D03*
D11*
X147857200Y-31940100D03*
D10*
X145057200Y-42920100D03*
%TD*%
%TO.C,K34*%
X139707200Y-93766100D03*
X138507200Y-100006100D03*
D11*
X128807200Y-91566100D03*
D10*
X126007200Y-102546100D03*
%TD*%
%TO.C,K14*%
X101607200Y-98529100D03*
X100407200Y-104769100D03*
D11*
X90707200Y-96329100D03*
D10*
X87907200Y-107309100D03*
%TD*%
%TO.C,K51*%
X177807000Y-36616100D03*
X176607000Y-42856100D03*
D11*
X166907000Y-34416100D03*
D10*
X164107000Y-45396100D03*
%TD*%
%TO.C,K24*%
X120657200Y-98529100D03*
X119457200Y-104769100D03*
D11*
X109757200Y-96329100D03*
D10*
X106957200Y-107309100D03*
%TD*%
%TO.C,K44*%
X158757200Y-91290100D03*
X157557200Y-97530100D03*
D11*
X147857200Y-89090100D03*
D10*
X145057200Y-100070100D03*
%TD*%
%TO.C,K52*%
X177807000Y-55666100D03*
X176607000Y-61906100D03*
D11*
X166907000Y-53466100D03*
D10*
X164107000Y-64446100D03*
%TD*%
%TO.C,K21*%
X120657200Y-41379100D03*
X119457200Y-47619100D03*
D11*
X109757200Y-39179100D03*
D10*
X106957200Y-50159100D03*
%TD*%
D12*
%TO.C,K65*%
X196681344Y-138557279D03*
X202134602Y-141819115D03*
X198501372Y-126130328D03*
X207964147Y-132234941D03*
%TD*%
D10*
%TO.C,K61*%
X196857200Y-38902100D03*
X195657200Y-45142100D03*
D11*
X185957200Y-36702100D03*
D10*
X183157200Y-47682100D03*
%TD*%
%TO.C,K11*%
X101607200Y-41379100D03*
X100407200Y-47619100D03*
D11*
X90707200Y-39179100D03*
D10*
X87907200Y-50159100D03*
%TD*%
%TO.C,K13*%
X101607200Y-79479100D03*
X100407200Y-85719100D03*
D11*
X90707200Y-77279100D03*
D10*
X87907200Y-88259100D03*
%TD*%
%TO.C,K33*%
X139707200Y-74716100D03*
X138507200Y-80956100D03*
D11*
X128807200Y-72516100D03*
D10*
X126007200Y-83496100D03*
%TD*%
%TO.C,K32*%
X139707200Y-55666100D03*
X138507200Y-61906100D03*
D11*
X128807200Y-53466100D03*
D10*
X126007200Y-64446100D03*
%TD*%
%TO.C,K43*%
X158757200Y-72240100D03*
X157557200Y-78480100D03*
D11*
X147857200Y-70040100D03*
D10*
X145057200Y-81020100D03*
%TD*%
%TO.C,K23*%
X120657200Y-79479100D03*
X119457200Y-85719100D03*
D11*
X109757200Y-77279100D03*
D10*
X106957200Y-88259100D03*
%TD*%
%TO.C,K22*%
X120657200Y-60429100D03*
X119457200Y-66669100D03*
D11*
X109757200Y-58229100D03*
D10*
X106957200Y-69209100D03*
%TD*%
%TO.C,K53*%
X177807000Y-74716100D03*
X176607000Y-80956100D03*
D11*
X166907000Y-72516100D03*
D10*
X164107000Y-83496100D03*
%TD*%
%TO.C,K31*%
X139707200Y-36616100D03*
X138507200Y-42856100D03*
D11*
X128807200Y-34416100D03*
D10*
X126007200Y-45396100D03*
%TD*%
%TO.C,K12*%
X101607200Y-60429100D03*
X100407200Y-66669100D03*
D11*
X90707200Y-58229100D03*
D10*
X87907200Y-69209100D03*
%TD*%
%TO.C,K64*%
X196857200Y-96052100D03*
X195657200Y-102292100D03*
D11*
X185957200Y-93852100D03*
D10*
X183157200Y-104832100D03*
%TD*%
%TO.C,K63*%
X196857200Y-77002100D03*
X195657200Y-83242100D03*
D11*
X185957200Y-74802100D03*
D10*
X183157200Y-85782100D03*
%TD*%
%TO.C,K62*%
X196857200Y-57952100D03*
X195657200Y-64192100D03*
D11*
X185957200Y-55752100D03*
D10*
X183157200Y-66732100D03*
%TD*%
D13*
%TO.C,K55*%
X189547141Y-122068574D03*
X173670415Y-125633400D03*
D14*
X183160620Y-131428743D03*
D13*
X176932252Y-120180142D03*
%TD*%
D15*
%TO.C,K45*%
X153458215Y-122069617D03*
X168963830Y-117134609D03*
D16*
X159004640Y-112188444D03*
D15*
X166189688Y-122851403D03*
%TD*%
M02*
