%TF.GenerationSoftware,KiCad,Pcbnew,7.0.10*%
%TF.CreationDate,2024-03-21T20:23:33+01:00*%
%TF.ProjectId,duosync,64756f73-796e-4632-9e6b-696361645f70,rev?*%
%TF.SameCoordinates,Original*%
%TF.FileFunction,Profile,NP*%
%FSLAX46Y46*%
G04 Gerber Fmt 4.6, Leading zero omitted, Abs format (unit mm)*
G04 Created by KiCad (PCBNEW 7.0.10) date 2024-03-21 20:23:33*
%MOMM*%
%LPD*%
G01*
G04 APERTURE LIST*
%TA.AperFunction,Profile*%
%ADD10C,0.100000*%
%TD*%
G04 APERTURE END LIST*
D10*
X82993903Y-111836100D02*
G75*
G03*
X83893900Y-112936097I999997J-100000D01*
G01*
X219793900Y-122436100D02*
X219693900Y-93636100D01*
X197093900Y-32736100D02*
X181793900Y-29236100D01*
X83893900Y-112936100D02*
X132293900Y-112936100D01*
X160093900Y-26636100D02*
X141093900Y-26636100D01*
X219693900Y-93636100D02*
X198393900Y-93736100D01*
X132293900Y-112936100D02*
X137293900Y-112936100D01*
X102993900Y-33936100D02*
X83993900Y-33936100D01*
X82993900Y-34936100D02*
X82993901Y-111836100D01*
X138093900Y-112936100D02*
X137293900Y-112936100D01*
X198393900Y-93736100D02*
X198293900Y-33936100D01*
X187493900Y-143236100D02*
X203891456Y-149162984D01*
X121893900Y-29936100D02*
X102993900Y-33936100D01*
X141093900Y-26636100D02*
X121893900Y-29936100D01*
X148493900Y-125336100D02*
X187493900Y-143236100D01*
X203891456Y-149162983D02*
G75*
G03*
X206293898Y-147336100I202444J2226883D01*
G01*
X83993900Y-33936100D02*
G75*
G03*
X82993900Y-34936100I0J-1000000D01*
G01*
X206293900Y-147336100D02*
X219793900Y-122436100D01*
X181793900Y-29236100D02*
X160093900Y-26636100D01*
X198293900Y-33936100D02*
G75*
G03*
X197093900Y-32736100I-1200000J0D01*
G01*
X148493900Y-125336100D02*
X138093900Y-112936100D01*
M02*
