M48
; DRILL file {KiCad 7.0.10} date Thu Mar 21 20:23:25 2024
; FORMAT={-:-/ absolute / metric / decimal}
; #@! TF.CreationDate,2024-03-21T20:23:25+01:00
; #@! TF.GenerationSoftware,Kicad,Pcbnew,7.0.10
; #@! TF.FileFunction,NonPlated,1,2,NPTH
FMAT,2
METRIC
; #@! TA.AperFunction,NonPlated,NPTH,ComponentDrill
T1C0.100
; #@! TA.AperFunction,NonPlated,NPTH,ComponentDrill
T2C1.700
; #@! TA.AperFunction,NonPlated,NPTH,ComponentDrill
T3C1.900
; #@! TA.AperFunction,NonPlated,NPTH,ComponentDrill
T4C3.000
; #@! TA.AperFunction,NonPlated,NPTH,ComponentDrill
T5C4.000
%
G90
G05
T1
X197.661Y-135.748
X200.278Y-128.559
T2
X88.427Y-45.079
X88.427Y-64.129
X88.427Y-83.179
X88.427Y-102.229
X98.587Y-45.079
X98.587Y-64.129
X98.587Y-83.179
X98.587Y-102.229
X107.477Y-45.079
X107.477Y-64.129
X107.477Y-83.179
X107.477Y-102.229
X117.637Y-45.079
X117.637Y-64.129
X117.637Y-83.179
X117.637Y-102.229
X126.527Y-40.316
X126.527Y-59.366
X126.527Y-78.416
X126.527Y-97.466
X136.687Y-40.316
X136.687Y-59.366
X136.687Y-78.416
X136.687Y-97.466
X145.577Y-37.84
X145.577Y-56.89
X145.577Y-75.94
X145.577Y-94.99
X155.275Y-117.297
X155.737Y-37.84
X155.737Y-56.89
X155.737Y-75.94
X155.737Y-94.99
X164.627Y-40.316
X164.627Y-59.366
X164.627Y-78.416
X164.627Y-97.466
X165.089Y-119.927
X174.787Y-40.316
X174.787Y-59.366
X174.787Y-78.416
X174.787Y-97.466
X177.774Y-123.189
X183.677Y-42.602
X183.677Y-61.652
X183.677Y-80.702
X183.677Y-99.752
X187.321Y-126.664
X193.837Y-42.602
X193.837Y-61.652
X193.837Y-80.702
X193.837Y-99.752
X199.656Y-137.81
X203.131Y-128.262
T3
X88.007Y-45.079
X88.007Y-64.129
X88.007Y-83.179
X88.007Y-102.229
X99.007Y-45.079
X99.007Y-64.129
X99.007Y-83.179
X99.007Y-102.229
X107.057Y-45.079
X107.057Y-64.129
X107.057Y-83.179
X107.057Y-102.229
X118.057Y-45.079
X118.057Y-64.129
X118.057Y-83.179
X118.057Y-102.229
X126.107Y-40.316
X126.107Y-59.366
X126.107Y-78.416
X126.107Y-97.466
X137.107Y-40.316
X137.107Y-59.366
X137.107Y-78.416
X137.107Y-97.466
X145.157Y-37.84
X145.157Y-56.89
X145.157Y-75.94
X145.157Y-94.99
X154.87Y-117.189
X156.157Y-37.84
X156.157Y-56.89
X156.157Y-75.94
X156.157Y-94.99
X164.207Y-40.316
X164.207Y-59.366
X164.207Y-78.416
X164.207Y-97.466
X165.495Y-120.036
X175.207Y-40.316
X175.207Y-59.366
X175.207Y-78.416
X175.207Y-97.466
X177.379Y-123.046
X183.257Y-42.602
X183.257Y-61.652
X183.257Y-80.702
X183.257Y-99.752
X187.716Y-126.808
X194.257Y-42.602
X194.257Y-61.652
X194.257Y-80.702
X194.257Y-99.752
X199.513Y-138.204
X203.275Y-127.868
T4
X88.507Y-41.379
X88.507Y-60.429
X88.507Y-79.479
X88.507Y-98.529
X89.697Y-47.619
X89.697Y-66.669
X89.697Y-85.719
X89.697Y-104.769
X90.967Y-50.159
X90.967Y-69.209
X90.967Y-88.259
X90.967Y-107.309
X93.507Y-39.179
X93.507Y-58.229
X93.507Y-77.279
X93.507Y-96.329
X96.047Y-50.159
X96.047Y-69.209
X96.047Y-88.259
X96.047Y-107.309
X97.317Y-47.619
X97.317Y-66.669
X97.317Y-85.719
X97.317Y-104.769
X98.507Y-41.379
X98.507Y-60.429
X98.507Y-79.479
X98.507Y-98.529
X107.557Y-41.379
X107.557Y-60.429
X107.557Y-79.479
X107.557Y-98.529
X108.747Y-47.619
X108.747Y-66.669
X108.747Y-85.719
X108.747Y-104.769
X110.017Y-50.159
X110.017Y-69.209
X110.017Y-88.259
X110.017Y-107.309
X112.557Y-39.179
X112.557Y-58.229
X112.557Y-77.279
X112.557Y-96.329
X115.097Y-50.159
X115.097Y-69.209
X115.097Y-88.259
X115.097Y-107.309
X116.367Y-47.619
X116.367Y-66.669
X116.367Y-85.719
X116.367Y-104.769
X117.557Y-41.379
X117.557Y-60.429
X117.557Y-79.479
X117.557Y-98.529
X126.607Y-36.616
X126.607Y-55.666
X126.607Y-74.716
X126.607Y-93.766
X127.797Y-42.856
X127.797Y-61.906
X127.797Y-80.956
X127.797Y-100.006
X129.067Y-45.396
X129.067Y-64.446
X129.067Y-83.496
X129.067Y-102.546
X131.607Y-34.416
X131.607Y-53.466
X131.607Y-72.516
X131.607Y-91.566
X134.147Y-45.396
X134.147Y-64.446
X134.147Y-83.496
X134.147Y-102.546
X135.417Y-42.856
X135.417Y-61.906
X135.417Y-80.956
X135.417Y-100.006
X136.607Y-36.616
X136.607Y-55.666
X136.607Y-74.716
X136.607Y-93.766
X145.657Y-34.14
X145.657Y-53.19
X145.657Y-72.24
X145.657Y-91.29
X146.847Y-40.38
X146.847Y-59.43
X146.847Y-78.48
X146.847Y-97.53
X148.117Y-42.92
X148.117Y-61.97
X148.117Y-81.02
X148.117Y-100.07
X150.657Y-31.94
X150.657Y-50.99
X150.657Y-70.04
X150.657Y-89.09
X153.197Y-42.92
X153.197Y-61.97
X153.197Y-81.02
X153.197Y-100.07
X154.467Y-40.38
X154.467Y-59.43
X154.467Y-78.48
X154.467Y-97.53
X155.657Y-34.14
X155.657Y-53.19
X155.657Y-72.24
X155.657Y-91.29
X155.845Y-120.079
X156.31Y-113.744
X156.414Y-122.862
X161.321Y-124.176
X161.709Y-112.913
X163.205Y-122.052
X164.707Y-36.616
X164.707Y-55.666
X164.707Y-74.716
X164.707Y-93.766
X165.897Y-42.856
X165.897Y-61.906
X165.897Y-80.956
X165.897Y-100.006
X165.969Y-116.332
X167.167Y-45.396
X167.167Y-64.446
X167.167Y-83.496
X167.167Y-102.546
X169.707Y-34.416
X169.707Y-53.466
X169.707Y-72.516
X169.707Y-91.566
X172.247Y-45.396
X172.247Y-64.446
X172.247Y-83.496
X172.247Y-102.546
X173.517Y-42.856
X173.517Y-61.906
X173.517Y-80.956
X173.517Y-100.006
X174.707Y-36.616
X174.707Y-55.666
X174.707Y-74.716
X174.707Y-93.766
X176.583Y-126.694
X179.836Y-121.237
X180.529Y-130.471
X181.898Y-119.285
X183.757Y-38.902
X183.757Y-57.952
X183.757Y-77.002
X183.757Y-96.052
X184.947Y-45.142
X184.947Y-64.192
X184.947Y-83.242
X184.947Y-102.292
X185.98Y-130.114
X186.217Y-47.682
X186.217Y-66.732
X186.217Y-85.782
X186.217Y-104.832
X186.672Y-121.022
X186.996Y-123.843
X188.757Y-36.702
X188.757Y-55.752
X188.757Y-74.802
X188.757Y-93.852
X191.297Y-47.682
X191.297Y-66.732
X191.297Y-85.782
X191.297Y-104.832
X192.567Y-45.142
X192.567Y-64.192
X192.567Y-83.242
X192.567Y-102.292
X193.757Y-38.902
X193.757Y-57.952
X193.757Y-77.002
X193.757Y-96.052
X195.752Y-133.685
X197.489Y-128.912
X197.704Y-135.748
X200.31Y-128.587
X200.31Y-128.587
X203.161Y-139.0
X206.581Y-129.603
X206.938Y-135.054
T5
X93.507Y-45.079
X93.507Y-64.129
X93.507Y-83.179
X93.507Y-102.229
X112.557Y-45.079
X112.557Y-64.129
X112.557Y-83.179
X112.557Y-102.229
X131.607Y-40.316
X131.607Y-59.366
X131.607Y-78.416
X131.607Y-97.466
X150.657Y-37.84
X150.657Y-56.89
X150.657Y-75.94
X150.657Y-94.99
X160.182Y-118.612
X169.707Y-40.316
X169.707Y-59.366
X169.707Y-78.416
X169.707Y-97.466
X182.547Y-124.927
X188.757Y-42.602
X188.757Y-61.652
X188.757Y-80.702
X188.757Y-99.752
X201.394Y-133.036
M30
