%TF.GenerationSoftware,KiCad,Pcbnew,7.0.10*%
%TF.CreationDate,2024-03-21T20:23:33+01:00*%
%TF.ProjectId,duosync,64756f73-796e-4632-9e6b-696361645f70,rev?*%
%TF.SameCoordinates,Original*%
%TF.FileFunction,Legend,Bot*%
%TF.FilePolarity,Positive*%
%FSLAX46Y46*%
G04 Gerber Fmt 4.6, Leading zero omitted, Abs format (unit mm)*
G04 Created by KiCad (PCBNEW 7.0.10) date 2024-03-21 20:23:33*
%MOMM*%
%LPD*%
G01*
G04 APERTURE LIST*
%ADD10C,0.150000*%
G04 APERTURE END LIST*
D10*
%TO.C,K42*%
X157932200Y-55490100D02*
X157957200Y-50890100D01*
X156757200Y-61740100D02*
X156757200Y-57795100D01*
X156757200Y-57786100D02*
X153147200Y-57786100D01*
X154157200Y-50865100D02*
X157932200Y-50865100D01*
X153232200Y-55515100D02*
X157932200Y-55515100D01*
X152937200Y-49390100D02*
X152937200Y-48690100D01*
X148382200Y-53315100D02*
X150932200Y-53315100D01*
X148382200Y-48665100D02*
X152932200Y-48665100D01*
X148357200Y-53290100D02*
X148357200Y-48690100D01*
X145857200Y-63694100D02*
X154482200Y-63694100D01*
X145857200Y-59786100D02*
X145857200Y-63694100D01*
X145857200Y-59740100D02*
X150907200Y-59694100D01*
X154482200Y-63694099D02*
G75*
G03*
X156746199Y-61810100I190000J2073999D01*
G01*
X152937200Y-49440100D02*
G75*
G03*
X154157200Y-50860100I1320000J-100000D01*
G01*
X150882200Y-59690099D02*
G75*
G03*
X153142199Y-57810100I190000J2069999D01*
G01*
X153227199Y-55490100D02*
G75*
G03*
X150857200Y-53320101I-2269999J-100000D01*
G01*
%TO.C,K54*%
X176982000Y-96066100D02*
X177007000Y-91466100D01*
X175807000Y-102316100D02*
X175807000Y-98371100D01*
X175807000Y-98362100D02*
X172197000Y-98362100D01*
X173207000Y-91441100D02*
X176982000Y-91441100D01*
X172282000Y-96091100D02*
X176982000Y-96091100D01*
X171987000Y-89966100D02*
X171987000Y-89266100D01*
X167432000Y-93891100D02*
X169982000Y-93891100D01*
X167432000Y-89241100D02*
X171982000Y-89241100D01*
X167407000Y-93866100D02*
X167407000Y-89266100D01*
X164907000Y-104270100D02*
X173532000Y-104270100D01*
X164907000Y-100362100D02*
X164907000Y-104270100D01*
X164907000Y-100316100D02*
X169957000Y-100270100D01*
X173532000Y-104270099D02*
G75*
G03*
X175795999Y-102386100I190000J2073999D01*
G01*
X171987000Y-90016100D02*
G75*
G03*
X173207000Y-91436100I1320000J-100000D01*
G01*
X169932000Y-100266099D02*
G75*
G03*
X172191999Y-98386100I190000J2069999D01*
G01*
X172276999Y-96066100D02*
G75*
G03*
X169907000Y-93896101I-2269999J-100000D01*
G01*
%TO.C,K41*%
X157932200Y-36440100D02*
X157957200Y-31840100D01*
X156757200Y-42690100D02*
X156757200Y-38745100D01*
X156757200Y-38736100D02*
X153147200Y-38736100D01*
X154157200Y-31815100D02*
X157932200Y-31815100D01*
X153232200Y-36465100D02*
X157932200Y-36465100D01*
X152937200Y-30340100D02*
X152937200Y-29640100D01*
X148382200Y-34265100D02*
X150932200Y-34265100D01*
X148382200Y-29615100D02*
X152932200Y-29615100D01*
X148357200Y-34240100D02*
X148357200Y-29640100D01*
X145857200Y-44644100D02*
X154482200Y-44644100D01*
X145857200Y-40736100D02*
X145857200Y-44644100D01*
X145857200Y-40690100D02*
X150907200Y-40644100D01*
X154482200Y-44644099D02*
G75*
G03*
X156746199Y-42760100I190000J2073999D01*
G01*
X152937200Y-30390100D02*
G75*
G03*
X154157200Y-31810100I1320000J-100000D01*
G01*
X150882200Y-40640099D02*
G75*
G03*
X153142199Y-38760100I190000J2069999D01*
G01*
X153227199Y-36440100D02*
G75*
G03*
X150857200Y-34270101I-2269999J-100000D01*
G01*
%TO.C,K34*%
X138882200Y-96066100D02*
X138907200Y-91466100D01*
X137707200Y-102316100D02*
X137707200Y-98371100D01*
X137707200Y-98362100D02*
X134097200Y-98362100D01*
X135107200Y-91441100D02*
X138882200Y-91441100D01*
X134182200Y-96091100D02*
X138882200Y-96091100D01*
X133887200Y-89966100D02*
X133887200Y-89266100D01*
X129332200Y-93891100D02*
X131882200Y-93891100D01*
X129332200Y-89241100D02*
X133882200Y-89241100D01*
X129307200Y-93866100D02*
X129307200Y-89266100D01*
X126807200Y-104270100D02*
X135432200Y-104270100D01*
X126807200Y-100362100D02*
X126807200Y-104270100D01*
X126807200Y-100316100D02*
X131857200Y-100270100D01*
X135432200Y-104270099D02*
G75*
G03*
X137696199Y-102386100I190000J2073999D01*
G01*
X133887200Y-90016100D02*
G75*
G03*
X135107200Y-91436100I1320000J-100000D01*
G01*
X131832200Y-100266099D02*
G75*
G03*
X134092199Y-98386100I190000J2069999D01*
G01*
X134177199Y-96066100D02*
G75*
G03*
X131807200Y-93896101I-2269999J-100000D01*
G01*
%TO.C,K14*%
X100782200Y-100829100D02*
X100807200Y-96229100D01*
X99607200Y-107079100D02*
X99607200Y-103134100D01*
X99607200Y-103125100D02*
X95997200Y-103125100D01*
X97007200Y-96204100D02*
X100782200Y-96204100D01*
X96082200Y-100854100D02*
X100782200Y-100854100D01*
X95787200Y-94729100D02*
X95787200Y-94029100D01*
X91232200Y-98654100D02*
X93782200Y-98654100D01*
X91232200Y-94004100D02*
X95782200Y-94004100D01*
X91207200Y-98629100D02*
X91207200Y-94029100D01*
X88707200Y-109033100D02*
X97332200Y-109033100D01*
X88707200Y-105125100D02*
X88707200Y-109033100D01*
X88707200Y-105079100D02*
X93757200Y-105033100D01*
X97332200Y-109033099D02*
G75*
G03*
X99596199Y-107149100I190000J2073999D01*
G01*
X95787200Y-94779100D02*
G75*
G03*
X97007200Y-96199100I1320000J-100000D01*
G01*
X93732200Y-105029099D02*
G75*
G03*
X95992199Y-103149100I190000J2069999D01*
G01*
X96077199Y-100829100D02*
G75*
G03*
X93707200Y-98659101I-2269999J-100000D01*
G01*
%TO.C,K51*%
X176982000Y-38916100D02*
X177007000Y-34316100D01*
X175807000Y-45166100D02*
X175807000Y-41221100D01*
X175807000Y-41212100D02*
X172197000Y-41212100D01*
X173207000Y-34291100D02*
X176982000Y-34291100D01*
X172282000Y-38941100D02*
X176982000Y-38941100D01*
X171987000Y-32816100D02*
X171987000Y-32116100D01*
X167432000Y-36741100D02*
X169982000Y-36741100D01*
X167432000Y-32091100D02*
X171982000Y-32091100D01*
X167407000Y-36716100D02*
X167407000Y-32116100D01*
X164907000Y-47120100D02*
X173532000Y-47120100D01*
X164907000Y-43212100D02*
X164907000Y-47120100D01*
X164907000Y-43166100D02*
X169957000Y-43120100D01*
X173532000Y-47120099D02*
G75*
G03*
X175795999Y-45236100I190000J2073999D01*
G01*
X171987000Y-32866100D02*
G75*
G03*
X173207000Y-34286100I1320000J-100000D01*
G01*
X169932000Y-43116099D02*
G75*
G03*
X172191999Y-41236100I190000J2069999D01*
G01*
X172276999Y-38916100D02*
G75*
G03*
X169907000Y-36746101I-2269999J-100000D01*
G01*
%TO.C,K24*%
X119832200Y-100829100D02*
X119857200Y-96229100D01*
X118657200Y-107079100D02*
X118657200Y-103134100D01*
X118657200Y-103125100D02*
X115047200Y-103125100D01*
X116057200Y-96204100D02*
X119832200Y-96204100D01*
X115132200Y-100854100D02*
X119832200Y-100854100D01*
X114837200Y-94729100D02*
X114837200Y-94029100D01*
X110282200Y-98654100D02*
X112832200Y-98654100D01*
X110282200Y-94004100D02*
X114832200Y-94004100D01*
X110257200Y-98629100D02*
X110257200Y-94029100D01*
X107757200Y-109033100D02*
X116382200Y-109033100D01*
X107757200Y-105125100D02*
X107757200Y-109033100D01*
X107757200Y-105079100D02*
X112807200Y-105033100D01*
X116382200Y-109033099D02*
G75*
G03*
X118646199Y-107149100I190000J2073999D01*
G01*
X114837200Y-94779100D02*
G75*
G03*
X116057200Y-96199100I1320000J-100000D01*
G01*
X112782200Y-105029099D02*
G75*
G03*
X115042199Y-103149100I190000J2069999D01*
G01*
X115127199Y-100829100D02*
G75*
G03*
X112757200Y-98659101I-2269999J-100000D01*
G01*
%TO.C,K44*%
X157932200Y-93590100D02*
X157957200Y-88990100D01*
X156757200Y-99840100D02*
X156757200Y-95895100D01*
X156757200Y-95886100D02*
X153147200Y-95886100D01*
X154157200Y-88965100D02*
X157932200Y-88965100D01*
X153232200Y-93615100D02*
X157932200Y-93615100D01*
X152937200Y-87490100D02*
X152937200Y-86790100D01*
X148382200Y-91415100D02*
X150932200Y-91415100D01*
X148382200Y-86765100D02*
X152932200Y-86765100D01*
X148357200Y-91390100D02*
X148357200Y-86790100D01*
X145857200Y-101794100D02*
X154482200Y-101794100D01*
X145857200Y-97886100D02*
X145857200Y-101794100D01*
X145857200Y-97840100D02*
X150907200Y-97794100D01*
X154482200Y-101794099D02*
G75*
G03*
X156746199Y-99910100I190000J2073999D01*
G01*
X152937200Y-87540100D02*
G75*
G03*
X154157200Y-88960100I1320000J-100000D01*
G01*
X150882200Y-97790099D02*
G75*
G03*
X153142199Y-95910100I190000J2069999D01*
G01*
X153227199Y-93590100D02*
G75*
G03*
X150857200Y-91420101I-2269999J-100000D01*
G01*
%TO.C,K52*%
X176982000Y-57966100D02*
X177007000Y-53366100D01*
X175807000Y-64216100D02*
X175807000Y-60271100D01*
X175807000Y-60262100D02*
X172197000Y-60262100D01*
X173207000Y-53341100D02*
X176982000Y-53341100D01*
X172282000Y-57991100D02*
X176982000Y-57991100D01*
X171987000Y-51866100D02*
X171987000Y-51166100D01*
X167432000Y-55791100D02*
X169982000Y-55791100D01*
X167432000Y-51141100D02*
X171982000Y-51141100D01*
X167407000Y-55766100D02*
X167407000Y-51166100D01*
X164907000Y-66170100D02*
X173532000Y-66170100D01*
X164907000Y-62262100D02*
X164907000Y-66170100D01*
X164907000Y-62216100D02*
X169957000Y-62170100D01*
X173532000Y-66170099D02*
G75*
G03*
X175795999Y-64286100I190000J2073999D01*
G01*
X171987000Y-51916100D02*
G75*
G03*
X173207000Y-53336100I1320000J-100000D01*
G01*
X169932000Y-62166099D02*
G75*
G03*
X172191999Y-60286100I190000J2069999D01*
G01*
X172276999Y-57966100D02*
G75*
G03*
X169907000Y-55796101I-2269999J-100000D01*
G01*
%TO.C,K21*%
X119832200Y-43679100D02*
X119857200Y-39079100D01*
X118657200Y-49929100D02*
X118657200Y-45984100D01*
X118657200Y-45975100D02*
X115047200Y-45975100D01*
X116057200Y-39054100D02*
X119832200Y-39054100D01*
X115132200Y-43704100D02*
X119832200Y-43704100D01*
X114837200Y-37579100D02*
X114837200Y-36879100D01*
X110282200Y-41504100D02*
X112832200Y-41504100D01*
X110282200Y-36854100D02*
X114832200Y-36854100D01*
X110257200Y-41479100D02*
X110257200Y-36879100D01*
X107757200Y-51883100D02*
X116382200Y-51883100D01*
X107757200Y-47975100D02*
X107757200Y-51883100D01*
X107757200Y-47929100D02*
X112807200Y-47883100D01*
X116382200Y-51883099D02*
G75*
G03*
X118646199Y-49999100I190000J2073999D01*
G01*
X114837200Y-37629100D02*
G75*
G03*
X116057200Y-39049100I1320000J-100000D01*
G01*
X112782200Y-47879099D02*
G75*
G03*
X115042199Y-45999100I190000J2069999D01*
G01*
X115127199Y-43679100D02*
G75*
G03*
X112757200Y-41509101I-2269999J-100000D01*
G01*
%TO.C,K65*%
X196641928Y-126198470D02*
X193692004Y-134303319D01*
X194750068Y-137109427D02*
X198457155Y-138458697D01*
X200314247Y-127535085D02*
X196641928Y-126198470D01*
X200357473Y-127550818D02*
X198673497Y-132311999D01*
X198465613Y-138461775D02*
X199700305Y-135069485D01*
X201805275Y-135926086D02*
X200197781Y-140342642D01*
X200221273Y-140351192D02*
X204535308Y-141947977D01*
X205531397Y-132121021D02*
X204659246Y-134517237D01*
X205563439Y-132106080D02*
X209886025Y-133679373D01*
X205858478Y-138385696D02*
X204567351Y-141933035D01*
X207661789Y-137743750D02*
X208319574Y-137983164D01*
X209900968Y-133711415D02*
X208344776Y-137987016D01*
X193692005Y-134303320D02*
G75*
G03*
X194688052Y-137075149I1883938J-887891D01*
G01*
X198685807Y-132289875D02*
G75*
G03*
X199679461Y-135056578I1880179J-886524D01*
G01*
X201830478Y-135929939D02*
G75*
G03*
X204680199Y-134445050I682416J2167305D01*
G01*
X207614803Y-137726650D02*
G75*
G03*
X205863177Y-138387406I-545435J-1206191D01*
G01*
%TO.C,K61*%
X196032200Y-41202100D02*
X196057200Y-36602100D01*
X194857200Y-47452100D02*
X194857200Y-43507100D01*
X194857200Y-43498100D02*
X191247200Y-43498100D01*
X192257200Y-36577100D02*
X196032200Y-36577100D01*
X191332200Y-41227100D02*
X196032200Y-41227100D01*
X191037200Y-35102100D02*
X191037200Y-34402100D01*
X186482200Y-39027100D02*
X189032200Y-39027100D01*
X186482200Y-34377100D02*
X191032200Y-34377100D01*
X186457200Y-39002100D02*
X186457200Y-34402100D01*
X183957200Y-49406100D02*
X192582200Y-49406100D01*
X183957200Y-45498100D02*
X183957200Y-49406100D01*
X183957200Y-45452100D02*
X189007200Y-45406100D01*
X192582200Y-49406099D02*
G75*
G03*
X194846199Y-47522100I190000J2073999D01*
G01*
X191037200Y-35152100D02*
G75*
G03*
X192257200Y-36572100I1320000J-100000D01*
G01*
X188982200Y-45402099D02*
G75*
G03*
X191242199Y-43522100I190000J2069999D01*
G01*
X191327199Y-41202100D02*
G75*
G03*
X188957200Y-39032101I-2269999J-100000D01*
G01*
%TO.C,K11*%
X100782200Y-43679100D02*
X100807200Y-39079100D01*
X99607200Y-49929100D02*
X99607200Y-45984100D01*
X99607200Y-45975100D02*
X95997200Y-45975100D01*
X97007200Y-39054100D02*
X100782200Y-39054100D01*
X96082200Y-43704100D02*
X100782200Y-43704100D01*
X95787200Y-37579100D02*
X95787200Y-36879100D01*
X91232200Y-41504100D02*
X93782200Y-41504100D01*
X91232200Y-36854100D02*
X95782200Y-36854100D01*
X91207200Y-41479100D02*
X91207200Y-36879100D01*
X88707200Y-51883100D02*
X97332200Y-51883100D01*
X88707200Y-47975100D02*
X88707200Y-51883100D01*
X88707200Y-47929100D02*
X93757200Y-47883100D01*
X97332200Y-51883099D02*
G75*
G03*
X99596199Y-49999100I190000J2073999D01*
G01*
X95787200Y-37629100D02*
G75*
G03*
X97007200Y-39049100I1320000J-100000D01*
G01*
X93732200Y-47879099D02*
G75*
G03*
X95992199Y-45999100I190000J2069999D01*
G01*
X96077199Y-43679100D02*
G75*
G03*
X93707200Y-41509101I-2269999J-100000D01*
G01*
%TO.C,K13*%
X100782200Y-81779100D02*
X100807200Y-77179100D01*
X99607200Y-88029100D02*
X99607200Y-84084100D01*
X99607200Y-84075100D02*
X95997200Y-84075100D01*
X97007200Y-77154100D02*
X100782200Y-77154100D01*
X96082200Y-81804100D02*
X100782200Y-81804100D01*
X95787200Y-75679100D02*
X95787200Y-74979100D01*
X91232200Y-79604100D02*
X93782200Y-79604100D01*
X91232200Y-74954100D02*
X95782200Y-74954100D01*
X91207200Y-79579100D02*
X91207200Y-74979100D01*
X88707200Y-89983100D02*
X97332200Y-89983100D01*
X88707200Y-86075100D02*
X88707200Y-89983100D01*
X88707200Y-86029100D02*
X93757200Y-85983100D01*
X97332200Y-89983099D02*
G75*
G03*
X99596199Y-88099100I190000J2073999D01*
G01*
X95787200Y-75729100D02*
G75*
G03*
X97007200Y-77149100I1320000J-100000D01*
G01*
X93732200Y-85979099D02*
G75*
G03*
X95992199Y-84099100I190000J2069999D01*
G01*
X96077199Y-81779100D02*
G75*
G03*
X93707200Y-79609101I-2269999J-100000D01*
G01*
%TO.C,K33*%
X138882200Y-77016100D02*
X138907200Y-72416100D01*
X137707200Y-83266100D02*
X137707200Y-79321100D01*
X137707200Y-79312100D02*
X134097200Y-79312100D01*
X135107200Y-72391100D02*
X138882200Y-72391100D01*
X134182200Y-77041100D02*
X138882200Y-77041100D01*
X133887200Y-70916100D02*
X133887200Y-70216100D01*
X129332200Y-74841100D02*
X131882200Y-74841100D01*
X129332200Y-70191100D02*
X133882200Y-70191100D01*
X129307200Y-74816100D02*
X129307200Y-70216100D01*
X126807200Y-85220100D02*
X135432200Y-85220100D01*
X126807200Y-81312100D02*
X126807200Y-85220100D01*
X126807200Y-81266100D02*
X131857200Y-81220100D01*
X135432200Y-85220099D02*
G75*
G03*
X137696199Y-83336100I190000J2073999D01*
G01*
X133887200Y-70966100D02*
G75*
G03*
X135107200Y-72386100I1320000J-100000D01*
G01*
X131832200Y-81216099D02*
G75*
G03*
X134092199Y-79336100I190000J2069999D01*
G01*
X134177199Y-77016100D02*
G75*
G03*
X131807200Y-74846101I-2269999J-100000D01*
G01*
%TO.C,K32*%
X138882200Y-57966100D02*
X138907200Y-53366100D01*
X137707200Y-64216100D02*
X137707200Y-60271100D01*
X137707200Y-60262100D02*
X134097200Y-60262100D01*
X135107200Y-53341100D02*
X138882200Y-53341100D01*
X134182200Y-57991100D02*
X138882200Y-57991100D01*
X133887200Y-51866100D02*
X133887200Y-51166100D01*
X129332200Y-55791100D02*
X131882200Y-55791100D01*
X129332200Y-51141100D02*
X133882200Y-51141100D01*
X129307200Y-55766100D02*
X129307200Y-51166100D01*
X126807200Y-66170100D02*
X135432200Y-66170100D01*
X126807200Y-62262100D02*
X126807200Y-66170100D01*
X126807200Y-62216100D02*
X131857200Y-62170100D01*
X135432200Y-66170099D02*
G75*
G03*
X137696199Y-64286100I190000J2073999D01*
G01*
X133887200Y-51916100D02*
G75*
G03*
X135107200Y-53336100I1320000J-100000D01*
G01*
X131832200Y-62166099D02*
G75*
G03*
X134092199Y-60286100I190000J2069999D01*
G01*
X134177199Y-57966100D02*
G75*
G03*
X131807200Y-55796101I-2269999J-100000D01*
G01*
%TO.C,K43*%
X157932200Y-74540100D02*
X157957200Y-69940100D01*
X156757200Y-80790100D02*
X156757200Y-76845100D01*
X156757200Y-76836100D02*
X153147200Y-76836100D01*
X154157200Y-69915100D02*
X157932200Y-69915100D01*
X153232200Y-74565100D02*
X157932200Y-74565100D01*
X152937200Y-68440100D02*
X152937200Y-67740100D01*
X148382200Y-72365100D02*
X150932200Y-72365100D01*
X148382200Y-67715100D02*
X152932200Y-67715100D01*
X148357200Y-72340100D02*
X148357200Y-67740100D01*
X145857200Y-82744100D02*
X154482200Y-82744100D01*
X145857200Y-78836100D02*
X145857200Y-82744100D01*
X145857200Y-78790100D02*
X150907200Y-78744100D01*
X154482200Y-82744099D02*
G75*
G03*
X156746199Y-80860100I190000J2073999D01*
G01*
X152937200Y-68490100D02*
G75*
G03*
X154157200Y-69910100I1320000J-100000D01*
G01*
X150882200Y-78740099D02*
G75*
G03*
X153142199Y-76860100I190000J2069999D01*
G01*
X153227199Y-74540100D02*
G75*
G03*
X150857200Y-72370101I-2269999J-100000D01*
G01*
%TO.C,K23*%
X119832200Y-81779100D02*
X119857200Y-77179100D01*
X118657200Y-88029100D02*
X118657200Y-84084100D01*
X118657200Y-84075100D02*
X115047200Y-84075100D01*
X116057200Y-77154100D02*
X119832200Y-77154100D01*
X115132200Y-81804100D02*
X119832200Y-81804100D01*
X114837200Y-75679100D02*
X114837200Y-74979100D01*
X110282200Y-79604100D02*
X112832200Y-79604100D01*
X110282200Y-74954100D02*
X114832200Y-74954100D01*
X110257200Y-79579100D02*
X110257200Y-74979100D01*
X107757200Y-89983100D02*
X116382200Y-89983100D01*
X107757200Y-86075100D02*
X107757200Y-89983100D01*
X107757200Y-86029100D02*
X112807200Y-85983100D01*
X116382200Y-89983099D02*
G75*
G03*
X118646199Y-88099100I190000J2073999D01*
G01*
X114837200Y-75729100D02*
G75*
G03*
X116057200Y-77149100I1320000J-100000D01*
G01*
X112782200Y-85979099D02*
G75*
G03*
X115042199Y-84099100I190000J2069999D01*
G01*
X115127199Y-81779100D02*
G75*
G03*
X112757200Y-79609101I-2269999J-100000D01*
G01*
%TO.C,K22*%
X119832200Y-62729100D02*
X119857200Y-58129100D01*
X118657200Y-68979100D02*
X118657200Y-65034100D01*
X118657200Y-65025100D02*
X115047200Y-65025100D01*
X116057200Y-58104100D02*
X119832200Y-58104100D01*
X115132200Y-62754100D02*
X119832200Y-62754100D01*
X114837200Y-56629100D02*
X114837200Y-55929100D01*
X110282200Y-60554100D02*
X112832200Y-60554100D01*
X110282200Y-55904100D02*
X114832200Y-55904100D01*
X110257200Y-60529100D02*
X110257200Y-55929100D01*
X107757200Y-70933100D02*
X116382200Y-70933100D01*
X107757200Y-67025100D02*
X107757200Y-70933100D01*
X107757200Y-66979100D02*
X112807200Y-66933100D01*
X116382200Y-70933099D02*
G75*
G03*
X118646199Y-69049100I190000J2073999D01*
G01*
X114837200Y-56679100D02*
G75*
G03*
X116057200Y-58099100I1320000J-100000D01*
G01*
X112782200Y-66929099D02*
G75*
G03*
X115042199Y-65049100I190000J2069999D01*
G01*
X115127199Y-62729100D02*
G75*
G03*
X112757200Y-60559101I-2269999J-100000D01*
G01*
%TO.C,K53*%
X176982000Y-77016100D02*
X177007000Y-72416100D01*
X175807000Y-83266100D02*
X175807000Y-79321100D01*
X175807000Y-79312100D02*
X172197000Y-79312100D01*
X173207000Y-72391100D02*
X176982000Y-72391100D01*
X172282000Y-77041100D02*
X176982000Y-77041100D01*
X171987000Y-70916100D02*
X171987000Y-70216100D01*
X167432000Y-74841100D02*
X169982000Y-74841100D01*
X167432000Y-70191100D02*
X171982000Y-70191100D01*
X167407000Y-74816100D02*
X167407000Y-70216100D01*
X164907000Y-85220100D02*
X173532000Y-85220100D01*
X164907000Y-81312100D02*
X164907000Y-85220100D01*
X164907000Y-81266100D02*
X169957000Y-81220100D01*
X173532000Y-85220099D02*
G75*
G03*
X175795999Y-83336100I190000J2073999D01*
G01*
X171987000Y-70966100D02*
G75*
G03*
X173207000Y-72386100I1320000J-100000D01*
G01*
X169932000Y-81216099D02*
G75*
G03*
X172191999Y-79336100I190000J2069999D01*
G01*
X172276999Y-77016100D02*
G75*
G03*
X169907000Y-74846101I-2269999J-100000D01*
G01*
%TO.C,K31*%
X138882200Y-38916100D02*
X138907200Y-34316100D01*
X137707200Y-45166100D02*
X137707200Y-41221100D01*
X137707200Y-41212100D02*
X134097200Y-41212100D01*
X135107200Y-34291100D02*
X138882200Y-34291100D01*
X134182200Y-38941100D02*
X138882200Y-38941100D01*
X133887200Y-32816100D02*
X133887200Y-32116100D01*
X129332200Y-36741100D02*
X131882200Y-36741100D01*
X129332200Y-32091100D02*
X133882200Y-32091100D01*
X129307200Y-36716100D02*
X129307200Y-32116100D01*
X126807200Y-47120100D02*
X135432200Y-47120100D01*
X126807200Y-43212100D02*
X126807200Y-47120100D01*
X126807200Y-43166100D02*
X131857200Y-43120100D01*
X135432200Y-47120099D02*
G75*
G03*
X137696199Y-45236100I190000J2073999D01*
G01*
X133887200Y-32866100D02*
G75*
G03*
X135107200Y-34286100I1320000J-100000D01*
G01*
X131832200Y-43116099D02*
G75*
G03*
X134092199Y-41236100I190000J2069999D01*
G01*
X134177199Y-38916100D02*
G75*
G03*
X131807200Y-36746101I-2269999J-100000D01*
G01*
%TO.C,K12*%
X100782200Y-62729100D02*
X100807200Y-58129100D01*
X99607200Y-68979100D02*
X99607200Y-65034100D01*
X99607200Y-65025100D02*
X95997200Y-65025100D01*
X97007200Y-58104100D02*
X100782200Y-58104100D01*
X96082200Y-62754100D02*
X100782200Y-62754100D01*
X95787200Y-56629100D02*
X95787200Y-55929100D01*
X91232200Y-60554100D02*
X93782200Y-60554100D01*
X91232200Y-55904100D02*
X95782200Y-55904100D01*
X91207200Y-60529100D02*
X91207200Y-55929100D01*
X88707200Y-70933100D02*
X97332200Y-70933100D01*
X88707200Y-67025100D02*
X88707200Y-70933100D01*
X88707200Y-66979100D02*
X93757200Y-66933100D01*
X97332200Y-70933099D02*
G75*
G03*
X99596199Y-69049100I190000J2073999D01*
G01*
X95787200Y-56679100D02*
G75*
G03*
X97007200Y-58099100I1320000J-100000D01*
G01*
X93732200Y-66929099D02*
G75*
G03*
X95992199Y-65049100I190000J2069999D01*
G01*
X96077199Y-62729100D02*
G75*
G03*
X93707200Y-60559101I-2269999J-100000D01*
G01*
%TO.C,K64*%
X196032200Y-98352100D02*
X196057200Y-93752100D01*
X194857200Y-104602100D02*
X194857200Y-100657100D01*
X194857200Y-100648100D02*
X191247200Y-100648100D01*
X192257200Y-93727100D02*
X196032200Y-93727100D01*
X191332200Y-98377100D02*
X196032200Y-98377100D01*
X191037200Y-92252100D02*
X191037200Y-91552100D01*
X186482200Y-96177100D02*
X189032200Y-96177100D01*
X186482200Y-91527100D02*
X191032200Y-91527100D01*
X186457200Y-96152100D02*
X186457200Y-91552100D01*
X183957200Y-106556100D02*
X192582200Y-106556100D01*
X183957200Y-102648100D02*
X183957200Y-106556100D01*
X183957200Y-102602100D02*
X189007200Y-102556100D01*
X192582200Y-106556099D02*
G75*
G03*
X194846199Y-104672100I190000J2073999D01*
G01*
X191037200Y-92302100D02*
G75*
G03*
X192257200Y-93722100I1320000J-100000D01*
G01*
X188982200Y-102552099D02*
G75*
G03*
X191242199Y-100672100I190000J2069999D01*
G01*
X191327199Y-98352100D02*
G75*
G03*
X188957200Y-96182101I-2269999J-100000D01*
G01*
%TO.C,K63*%
X196032200Y-79302100D02*
X196057200Y-74702100D01*
X194857200Y-85552100D02*
X194857200Y-81607100D01*
X194857200Y-81598100D02*
X191247200Y-81598100D01*
X192257200Y-74677100D02*
X196032200Y-74677100D01*
X191332200Y-79327100D02*
X196032200Y-79327100D01*
X191037200Y-73202100D02*
X191037200Y-72502100D01*
X186482200Y-77127100D02*
X189032200Y-77127100D01*
X186482200Y-72477100D02*
X191032200Y-72477100D01*
X186457200Y-77102100D02*
X186457200Y-72502100D01*
X183957200Y-87506100D02*
X192582200Y-87506100D01*
X183957200Y-83598100D02*
X183957200Y-87506100D01*
X183957200Y-83552100D02*
X189007200Y-83506100D01*
X192582200Y-87506099D02*
G75*
G03*
X194846199Y-85622100I190000J2073999D01*
G01*
X191037200Y-73252100D02*
G75*
G03*
X192257200Y-74672100I1320000J-100000D01*
G01*
X188982200Y-83502099D02*
G75*
G03*
X191242199Y-81622100I190000J2069999D01*
G01*
X191327199Y-79302100D02*
G75*
G03*
X188957200Y-77132101I-2269999J-100000D01*
G01*
%TO.C,K62*%
X196032200Y-60252100D02*
X196057200Y-55652100D01*
X194857200Y-66502100D02*
X194857200Y-62557100D01*
X194857200Y-62548100D02*
X191247200Y-62548100D01*
X192257200Y-55627100D02*
X196032200Y-55627100D01*
X191332200Y-60277100D02*
X196032200Y-60277100D01*
X191037200Y-54152100D02*
X191037200Y-53452100D01*
X186482200Y-58077100D02*
X189032200Y-58077100D01*
X186482200Y-53427100D02*
X191032200Y-53427100D01*
X186457200Y-58052100D02*
X186457200Y-53452100D01*
X183957200Y-68456100D02*
X192582200Y-68456100D01*
X183957200Y-64548100D02*
X183957200Y-68456100D01*
X183957200Y-64502100D02*
X189007200Y-64456100D01*
X192582200Y-68456099D02*
G75*
G03*
X194846199Y-66572100I190000J2073999D01*
G01*
X191037200Y-54202100D02*
G75*
G03*
X192257200Y-55622100I1320000J-100000D01*
G01*
X188982200Y-64452099D02*
G75*
G03*
X191242199Y-62572100I190000J2069999D01*
G01*
X191327199Y-60252100D02*
G75*
G03*
X188957200Y-58082101I-2269999J-100000D01*
G01*
%TO.C,K55*%
X188032682Y-123890473D02*
X183271501Y-122206497D01*
X188048415Y-123847247D02*
X189385030Y-120174928D01*
X189385030Y-120174928D02*
X181280181Y-117225004D01*
X183477421Y-129096440D02*
X181904128Y-133419026D01*
X181872085Y-133433968D02*
X177596484Y-131877776D01*
X183462479Y-129064397D02*
X181066263Y-128192246D01*
X177839750Y-131194789D02*
X177600336Y-131852574D01*
X179657414Y-125338275D02*
X175240858Y-123730781D01*
X177197804Y-129391478D02*
X173650465Y-128100351D01*
X177121725Y-121998613D02*
X180514015Y-123233305D01*
X178474073Y-118283068D02*
X177124803Y-121990155D01*
X175232308Y-123754273D02*
X173635523Y-128068309D01*
X179653561Y-125363478D02*
G75*
G03*
X181138450Y-128213199I2167305J-682416D01*
G01*
X183293626Y-122218807D02*
G75*
G03*
X180526922Y-123212463I-886524J-1880179D01*
G01*
X177856850Y-131147803D02*
G75*
G03*
X177196094Y-129396177I-1206191J545435D01*
G01*
X181280180Y-117225005D02*
G75*
G03*
X178508351Y-118221052I-887891J-1883938D01*
G01*
%TO.C,K45*%
X154808122Y-120122657D02*
X159697953Y-121385261D01*
X154796216Y-120167090D02*
X153784751Y-123941928D01*
X153784751Y-123941928D02*
X162115862Y-126174242D01*
X158892319Y-114539483D02*
X160082887Y-110096224D01*
X160113505Y-110078547D02*
X164508468Y-111256173D01*
X158909997Y-114570102D02*
X161373108Y-115230090D01*
X164325654Y-111957764D02*
X164506827Y-111281616D01*
X163025335Y-117950411D02*
X167565187Y-119166861D01*
X165122325Y-113698264D02*
X168768695Y-114675305D01*
X165842446Y-121056366D02*
X162355453Y-120122029D01*
X164819075Y-124875636D02*
X165840116Y-121065059D01*
X167571657Y-119142712D02*
X168786373Y-114705924D01*
X163026975Y-117924969D02*
G75*
G03*
X161299369Y-115215510I-2218532J490927D01*
G01*
X159674840Y-121374926D02*
G75*
G03*
X162344411Y-120143917I719281J1950290D01*
G01*
X164312713Y-112006060D02*
G75*
G03*
X165123619Y-113693434I1249140J-438234D01*
G01*
X162115862Y-126174243D02*
G75*
G03*
X164790333Y-124940404I720316J1954155D01*
G01*
%TD*%
M02*
