%TF.GenerationSoftware,KiCad,Pcbnew,7.0.10*%
%TF.CreationDate,2024-03-21T20:23:33+01:00*%
%TF.ProjectId,duosync,64756f73-796e-4632-9e6b-696361645f70,rev?*%
%TF.SameCoordinates,Original*%
%TF.FileFunction,Soldermask,Bot*%
%TF.FilePolarity,Negative*%
%FSLAX46Y46*%
G04 Gerber Fmt 4.6, Leading zero omitted, Abs format (unit mm)*
G04 Created by KiCad (PCBNEW 7.0.10) date 2024-03-21 20:23:33*
%MOMM*%
%LPD*%
G01*
G04 APERTURE LIST*
G04 Aperture macros list*
%AMRotRect*
0 Rectangle, with rotation*
0 The origin of the aperture is its center*
0 $1 length*
0 $2 width*
0 $3 Rotation angle, in degrees counterclockwise*
0 Add horizontal line*
21,1,$1,$2,0,0,$3*%
G04 Aperture macros list end*
%ADD10C,1.900000*%
%ADD11C,1.700000*%
%ADD12C,3.000000*%
%ADD13C,4.000000*%
%ADD14R,2.000000X2.000000*%
%ADD15R,1.900000X2.000000*%
%ADD16R,1.778000X1.300000*%
%ADD17O,1.778000X1.300000*%
%ADD18R,3.500000X1.700000*%
%ADD19O,3.600000X1.700000*%
%ADD20O,3.700000X1.700000*%
%ADD21C,0.500000*%
%ADD22C,0.100000*%
%ADD23RotRect,1.500000X2.000000X250.000000*%
%ADD24RotRect,2.000000X2.000000X340.000000*%
%ADD25RotRect,1.800000X2.000000X340.000000*%
%ADD26RotRect,2.000000X2.000000X165.000000*%
%ADD27RotRect,1.800000X2.000000X165.000000*%
G04 APERTURE END LIST*
D10*
%TO.C,K42*%
X156157200Y-56890100D03*
D11*
X155737200Y-56890100D03*
D12*
X155657200Y-53190100D03*
X154467200Y-59430100D03*
X153197200Y-61970100D03*
D13*
X150657200Y-56890100D03*
D12*
X150657200Y-50990100D03*
X148117200Y-61970100D03*
X146847200Y-59430100D03*
X145657200Y-53190100D03*
D11*
X145577200Y-56890100D03*
D10*
X145157200Y-56890100D03*
D14*
X158757200Y-53190100D03*
X157557200Y-59430100D03*
D15*
X147857200Y-50990100D03*
D14*
X145057200Y-61970100D03*
%TD*%
D16*
%TO.C,D13*%
X96507200Y-73679100D03*
D17*
X90507200Y-73679100D03*
%TD*%
D10*
%TO.C,K54*%
X175207000Y-97466100D03*
D11*
X174787000Y-97466100D03*
D12*
X174707000Y-93766100D03*
X173517000Y-100006100D03*
X172247000Y-102546100D03*
D13*
X169707000Y-97466100D03*
D12*
X169707000Y-91566100D03*
X167167000Y-102546100D03*
X165897000Y-100006100D03*
X164707000Y-93766100D03*
D11*
X164627000Y-97466100D03*
D10*
X164207000Y-97466100D03*
D14*
X177807000Y-93766100D03*
X176607000Y-100006100D03*
D15*
X166907000Y-91566100D03*
D14*
X164107000Y-102546100D03*
%TD*%
D16*
%TO.C,D31*%
X134607200Y-30816100D03*
D17*
X128607200Y-30816100D03*
%TD*%
D10*
%TO.C,K41*%
X156157200Y-37840100D03*
D11*
X155737200Y-37840100D03*
D12*
X155657200Y-34140100D03*
X154467200Y-40380100D03*
X153197200Y-42920100D03*
D13*
X150657200Y-37840100D03*
D12*
X150657200Y-31940100D03*
X148117200Y-42920100D03*
X146847200Y-40380100D03*
X145657200Y-34140100D03*
D11*
X145577200Y-37840100D03*
D10*
X145157200Y-37840100D03*
D14*
X158757200Y-34140100D03*
X157557200Y-40380100D03*
D15*
X147857200Y-31940100D03*
D14*
X145057200Y-42920100D03*
%TD*%
D16*
%TO.C,D55*%
X182232200Y-111398100D03*
D17*
X176232200Y-111398100D03*
%TD*%
D18*
%TO.C,U1*%
X200550000Y-95100000D03*
D19*
X200550000Y-97640000D03*
X200550000Y-100180000D03*
X200550000Y-102720000D03*
X200550000Y-105260000D03*
X200550000Y-107800000D03*
X200550000Y-110340000D03*
X217800000Y-110340000D03*
X217800000Y-107800000D03*
X217800000Y-105260000D03*
D20*
X217800000Y-102720000D03*
X217800000Y-100180000D03*
X217800000Y-97640000D03*
X217800000Y-95100000D03*
%TD*%
D10*
%TO.C,K34*%
X137107200Y-97466100D03*
D11*
X136687200Y-97466100D03*
D12*
X136607200Y-93766100D03*
X135417200Y-100006100D03*
X134147200Y-102546100D03*
D13*
X131607200Y-97466100D03*
D12*
X131607200Y-91566100D03*
X129067200Y-102546100D03*
X127797200Y-100006100D03*
X126607200Y-93766100D03*
D11*
X126527200Y-97466100D03*
D10*
X126107200Y-97466100D03*
D14*
X139707200Y-93766100D03*
X138507200Y-100006100D03*
D15*
X128807200Y-91566100D03*
D14*
X126007200Y-102546100D03*
%TD*%
D10*
%TO.C,K14*%
X99007200Y-102229100D03*
D11*
X98587200Y-102229100D03*
D12*
X98507200Y-98529100D03*
X97317200Y-104769100D03*
X96047200Y-107309100D03*
D13*
X93507200Y-102229100D03*
D12*
X93507200Y-96329100D03*
X90967200Y-107309100D03*
X89697200Y-104769100D03*
X88507200Y-98529100D03*
D11*
X88427200Y-102229100D03*
D10*
X88007200Y-102229100D03*
D14*
X101607200Y-98529100D03*
X100407200Y-104769100D03*
D15*
X90707200Y-96329100D03*
D14*
X87907200Y-107309100D03*
%TD*%
D16*
%TO.C,D33*%
X134607200Y-68916100D03*
D17*
X128607200Y-68916100D03*
%TD*%
D10*
%TO.C,K51*%
X175207000Y-40316100D03*
D11*
X174787000Y-40316100D03*
D12*
X174707000Y-36616100D03*
X173517000Y-42856100D03*
X172247000Y-45396100D03*
D13*
X169707000Y-40316100D03*
D12*
X169707000Y-34416100D03*
X167167000Y-45396100D03*
X165897000Y-42856100D03*
X164707000Y-36616100D03*
D11*
X164627000Y-40316100D03*
D10*
X164207000Y-40316100D03*
D14*
X177807000Y-36616100D03*
X176607000Y-42856100D03*
D15*
X166907000Y-34416100D03*
D14*
X164107000Y-45396100D03*
%TD*%
D16*
%TO.C,D34*%
X134607200Y-87966100D03*
D17*
X128607200Y-87966100D03*
%TD*%
D16*
%TO.C,D65*%
X193193900Y-114136100D03*
D17*
X187193900Y-114136100D03*
%TD*%
D21*
%TO.C,s2*%
X101500000Y-92600000D03*
X101940000Y-91540000D03*
X101940000Y-93660000D03*
X103000000Y-91100000D03*
D13*
X103000000Y-92600000D03*
D21*
X103000000Y-94100000D03*
X104060000Y-91540000D03*
X104060000Y-93660000D03*
X104500000Y-92600000D03*
%TD*%
D10*
%TO.C,K24*%
X118057200Y-102229100D03*
D11*
X117637200Y-102229100D03*
D12*
X117557200Y-98529100D03*
X116367200Y-104769100D03*
X115097200Y-107309100D03*
D13*
X112557200Y-102229100D03*
D12*
X112557200Y-96329100D03*
X110017200Y-107309100D03*
X108747200Y-104769100D03*
X107557200Y-98529100D03*
D11*
X107477200Y-102229100D03*
D10*
X107057200Y-102229100D03*
D14*
X120657200Y-98529100D03*
X119457200Y-104769100D03*
D15*
X109757200Y-96329100D03*
D14*
X106957200Y-107309100D03*
%TD*%
D21*
%TO.C,s4*%
X177700000Y-50800000D03*
X178140000Y-49740000D03*
X178140000Y-51860000D03*
X179200000Y-49300000D03*
D13*
X179200000Y-50800000D03*
D21*
X179200000Y-52300000D03*
X180260000Y-49740000D03*
X180260000Y-51860000D03*
X180700000Y-50800000D03*
%TD*%
D16*
%TO.C,D52*%
X172707000Y-49866100D03*
D17*
X166707000Y-49866100D03*
%TD*%
D10*
%TO.C,K44*%
X156157200Y-94990100D03*
D11*
X155737200Y-94990100D03*
D12*
X155657200Y-91290100D03*
X154467200Y-97530100D03*
X153197200Y-100070100D03*
D13*
X150657200Y-94990100D03*
D12*
X150657200Y-89090100D03*
X148117200Y-100070100D03*
X146847200Y-97530100D03*
X145657200Y-91290100D03*
D11*
X145577200Y-94990100D03*
D10*
X145157200Y-94990100D03*
D14*
X158757200Y-91290100D03*
X157557200Y-97530100D03*
D15*
X147857200Y-89090100D03*
D14*
X145057200Y-100070100D03*
%TD*%
D16*
%TO.C,D51*%
X172707000Y-30816100D03*
D17*
X166707000Y-30816100D03*
%TD*%
D10*
%TO.C,K52*%
X175207000Y-59366100D03*
D11*
X174787000Y-59366100D03*
D12*
X174707000Y-55666100D03*
X173517000Y-61906100D03*
X172247000Y-64446100D03*
D13*
X169707000Y-59366100D03*
D12*
X169707000Y-53466100D03*
X167167000Y-64446100D03*
X165897000Y-61906100D03*
X164707000Y-55666100D03*
D11*
X164627000Y-59366100D03*
D10*
X164207000Y-59366100D03*
D14*
X177807000Y-55666100D03*
X176607000Y-61906100D03*
D15*
X166907000Y-53466100D03*
D14*
X164107000Y-64446100D03*
%TD*%
D10*
%TO.C,K21*%
X118057200Y-45079100D03*
D11*
X117637200Y-45079100D03*
D12*
X117557200Y-41379100D03*
X116367200Y-47619100D03*
X115097200Y-50159100D03*
D13*
X112557200Y-45079100D03*
D12*
X112557200Y-39179100D03*
X110017200Y-50159100D03*
X108747200Y-47619100D03*
X107557200Y-41379100D03*
D11*
X107477200Y-45079100D03*
D10*
X107057200Y-45079100D03*
D14*
X120657200Y-41379100D03*
X119457200Y-47619100D03*
D15*
X109757200Y-39179100D03*
D14*
X106957200Y-50159100D03*
%TD*%
D12*
%TO.C,K65*%
X197488993Y-128911818D03*
X195751530Y-133685457D03*
D22*
X200277720Y-128559364D03*
X197661266Y-135748012D03*
D12*
X200310177Y-128587140D03*
X200310177Y-128587140D03*
X197703984Y-135747598D03*
D10*
X203275011Y-127867791D03*
D11*
X203131362Y-128262461D03*
D13*
X201393900Y-133036100D03*
D11*
X199656438Y-137809739D03*
D10*
X199512789Y-138204409D03*
D12*
X206580863Y-129603111D03*
X203160662Y-139000038D03*
X206938086Y-135054019D03*
D23*
X196681344Y-138557279D03*
X202134602Y-141819115D03*
X198501372Y-126130328D03*
X207964147Y-132234941D03*
%TD*%
D10*
%TO.C,K61*%
X194257200Y-42602100D03*
D11*
X193837200Y-42602100D03*
D12*
X193757200Y-38902100D03*
X192567200Y-45142100D03*
X191297200Y-47682100D03*
D13*
X188757200Y-42602100D03*
D12*
X188757200Y-36702100D03*
X186217200Y-47682100D03*
X184947200Y-45142100D03*
X183757200Y-38902100D03*
D11*
X183677200Y-42602100D03*
D10*
X183257200Y-42602100D03*
D14*
X196857200Y-38902100D03*
X195657200Y-45142100D03*
D15*
X185957200Y-36702100D03*
D14*
X183157200Y-47682100D03*
%TD*%
D10*
%TO.C,K11*%
X99007200Y-45079100D03*
D11*
X98587200Y-45079100D03*
D12*
X98507200Y-41379100D03*
X97317200Y-47619100D03*
X96047200Y-50159100D03*
D13*
X93507200Y-45079100D03*
D12*
X93507200Y-39179100D03*
X90967200Y-50159100D03*
X89697200Y-47619100D03*
X88507200Y-41379100D03*
D11*
X88427200Y-45079100D03*
D10*
X88007200Y-45079100D03*
D14*
X101607200Y-41379100D03*
X100407200Y-47619100D03*
D15*
X90707200Y-39179100D03*
D14*
X87907200Y-50159100D03*
%TD*%
D10*
%TO.C,K13*%
X99007200Y-83179100D03*
D11*
X98587200Y-83179100D03*
D12*
X98507200Y-79479100D03*
X97317200Y-85719100D03*
X96047200Y-88259100D03*
D13*
X93507200Y-83179100D03*
D12*
X93507200Y-77279100D03*
X90967200Y-88259100D03*
X89697200Y-85719100D03*
X88507200Y-79479100D03*
D11*
X88427200Y-83179100D03*
D10*
X88007200Y-83179100D03*
D14*
X101607200Y-79479100D03*
X100407200Y-85719100D03*
D15*
X90707200Y-77279100D03*
D14*
X87907200Y-88259100D03*
%TD*%
D10*
%TO.C,K33*%
X137107200Y-78416100D03*
D11*
X136687200Y-78416100D03*
D12*
X136607200Y-74716100D03*
X135417200Y-80956100D03*
X134147200Y-83496100D03*
D13*
X131607200Y-78416100D03*
D12*
X131607200Y-72516100D03*
X129067200Y-83496100D03*
X127797200Y-80956100D03*
X126607200Y-74716100D03*
D11*
X126527200Y-78416100D03*
D10*
X126107200Y-78416100D03*
D14*
X139707200Y-74716100D03*
X138507200Y-80956100D03*
D15*
X128807200Y-72516100D03*
D14*
X126007200Y-83496100D03*
%TD*%
D10*
%TO.C,K32*%
X137107200Y-59366100D03*
D11*
X136687200Y-59366100D03*
D12*
X136607200Y-55666100D03*
X135417200Y-61906100D03*
X134147200Y-64446100D03*
D13*
X131607200Y-59366100D03*
D12*
X131607200Y-53466100D03*
X129067200Y-64446100D03*
X127797200Y-61906100D03*
X126607200Y-55666100D03*
D11*
X126527200Y-59366100D03*
D10*
X126107200Y-59366100D03*
D14*
X139707200Y-55666100D03*
X138507200Y-61906100D03*
D15*
X128807200Y-53466100D03*
D14*
X126007200Y-64446100D03*
%TD*%
D21*
%TO.C,s1*%
X101500000Y-54500000D03*
X101940000Y-53440000D03*
X101940000Y-55560000D03*
X103000000Y-53000000D03*
D13*
X103000000Y-54500000D03*
D21*
X103000000Y-56000000D03*
X104060000Y-53440000D03*
X104060000Y-55560000D03*
X104500000Y-54500000D03*
%TD*%
D10*
%TO.C,K43*%
X156157200Y-75940100D03*
D11*
X155737200Y-75940100D03*
D12*
X155657200Y-72240100D03*
X154467200Y-78480100D03*
X153197200Y-81020100D03*
D13*
X150657200Y-75940100D03*
D12*
X150657200Y-70040100D03*
X148117200Y-81020100D03*
X146847200Y-78480100D03*
X145657200Y-72240100D03*
D11*
X145577200Y-75940100D03*
D10*
X145157200Y-75940100D03*
D14*
X158757200Y-72240100D03*
X157557200Y-78480100D03*
D15*
X147857200Y-70040100D03*
D14*
X145057200Y-81020100D03*
%TD*%
D10*
%TO.C,K23*%
X118057200Y-83179100D03*
D11*
X117637200Y-83179100D03*
D12*
X117557200Y-79479100D03*
X116367200Y-85719100D03*
X115097200Y-88259100D03*
D13*
X112557200Y-83179100D03*
D12*
X112557200Y-77279100D03*
X110017200Y-88259100D03*
X108747200Y-85719100D03*
X107557200Y-79479100D03*
D11*
X107477200Y-83179100D03*
D10*
X107057200Y-83179100D03*
D14*
X120657200Y-79479100D03*
X119457200Y-85719100D03*
D15*
X109757200Y-77279100D03*
D14*
X106957200Y-88259100D03*
%TD*%
D16*
%TO.C,D42*%
X153657200Y-47390100D03*
D17*
X147657200Y-47390100D03*
%TD*%
D16*
%TO.C,D54*%
X172707000Y-87966100D03*
D17*
X166707000Y-87966100D03*
%TD*%
D16*
%TO.C,D61*%
X191757200Y-33102100D03*
D17*
X185757200Y-33102100D03*
%TD*%
D10*
%TO.C,K22*%
X118057200Y-64129100D03*
D11*
X117637200Y-64129100D03*
D12*
X117557200Y-60429100D03*
X116367200Y-66669100D03*
X115097200Y-69209100D03*
D13*
X112557200Y-64129100D03*
D12*
X112557200Y-58229100D03*
X110017200Y-69209100D03*
X108747200Y-66669100D03*
X107557200Y-60429100D03*
D11*
X107477200Y-64129100D03*
D10*
X107057200Y-64129100D03*
D14*
X120657200Y-60429100D03*
X119457200Y-66669100D03*
D15*
X109757200Y-58229100D03*
D14*
X106957200Y-69209100D03*
%TD*%
D16*
%TO.C,D32*%
X134607200Y-49866100D03*
D17*
X128607200Y-49866100D03*
%TD*%
D16*
%TO.C,D14*%
X96507200Y-92729100D03*
D17*
X90507200Y-92729100D03*
%TD*%
D16*
%TO.C,D22*%
X115557200Y-54629100D03*
D17*
X109557200Y-54629100D03*
%TD*%
D21*
%TO.C,s6*%
X201600000Y-118700000D03*
X202040000Y-117640000D03*
X202040000Y-119760000D03*
X203100000Y-117200000D03*
D13*
X203100000Y-118700000D03*
D21*
X203100000Y-120200000D03*
X204160000Y-117640000D03*
X204160000Y-119760000D03*
X204600000Y-118700000D03*
%TD*%
D16*
%TO.C,D44*%
X153657200Y-85490100D03*
D17*
X147657200Y-85490100D03*
%TD*%
D10*
%TO.C,K53*%
X175207000Y-78416100D03*
D11*
X174787000Y-78416100D03*
D12*
X174707000Y-74716100D03*
X173517000Y-80956100D03*
X172247000Y-83496100D03*
D13*
X169707000Y-78416100D03*
D12*
X169707000Y-72516100D03*
X167167000Y-83496100D03*
X165897000Y-80956100D03*
X164707000Y-74716100D03*
D11*
X164627000Y-78416100D03*
D10*
X164207000Y-78416100D03*
D14*
X177807000Y-74716100D03*
X176607000Y-80956100D03*
D15*
X166907000Y-72516100D03*
D14*
X164107000Y-83496100D03*
%TD*%
D21*
%TO.C,s3*%
X139700000Y-67500000D03*
X140140000Y-66440000D03*
X140140000Y-68560000D03*
X141200000Y-66000000D03*
D13*
X141200000Y-67500000D03*
D21*
X141200000Y-69000000D03*
X142260000Y-66440000D03*
X142260000Y-68560000D03*
X142700000Y-67500000D03*
%TD*%
D16*
%TO.C,D23*%
X115557200Y-73679100D03*
D17*
X109557200Y-73679100D03*
%TD*%
D16*
%TO.C,D63*%
X191757200Y-71202100D03*
D17*
X185757200Y-71202100D03*
%TD*%
D10*
%TO.C,K31*%
X137107200Y-40316100D03*
D11*
X136687200Y-40316100D03*
D12*
X136607200Y-36616100D03*
X135417200Y-42856100D03*
X134147200Y-45396100D03*
D13*
X131607200Y-40316100D03*
D12*
X131607200Y-34416100D03*
X129067200Y-45396100D03*
X127797200Y-42856100D03*
X126607200Y-36616100D03*
D11*
X126527200Y-40316100D03*
D10*
X126107200Y-40316100D03*
D14*
X139707200Y-36616100D03*
X138507200Y-42856100D03*
D15*
X128807200Y-34416100D03*
D14*
X126007200Y-45396100D03*
%TD*%
D16*
%TO.C,D41*%
X153657200Y-28340100D03*
D17*
X147657200Y-28340100D03*
%TD*%
D10*
%TO.C,K12*%
X99007200Y-64129100D03*
D11*
X98587200Y-64129100D03*
D12*
X98507200Y-60429100D03*
X97317200Y-66669100D03*
X96047200Y-69209100D03*
D13*
X93507200Y-64129100D03*
D12*
X93507200Y-58229100D03*
X90967200Y-69209100D03*
X89697200Y-66669100D03*
X88507200Y-60429100D03*
D11*
X88427200Y-64129100D03*
D10*
X88007200Y-64129100D03*
D14*
X101607200Y-60429100D03*
X100407200Y-66669100D03*
D15*
X90707200Y-58229100D03*
D14*
X87907200Y-69209100D03*
%TD*%
D21*
%TO.C,s5*%
X177900000Y-88600000D03*
X178340000Y-87540000D03*
X178340000Y-89660000D03*
X179400000Y-87100000D03*
D13*
X179400000Y-88600000D03*
D21*
X179400000Y-90100000D03*
X180460000Y-87540000D03*
X180460000Y-89660000D03*
X180900000Y-88600000D03*
%TD*%
D16*
%TO.C,D53*%
X172707000Y-68916100D03*
D17*
X166707000Y-68916100D03*
%TD*%
D16*
%TO.C,D24*%
X115557200Y-92729100D03*
D17*
X109557200Y-92729100D03*
%TD*%
D10*
%TO.C,K64*%
X194257200Y-99752100D03*
D11*
X193837200Y-99752100D03*
D12*
X193757200Y-96052100D03*
X192567200Y-102292100D03*
X191297200Y-104832100D03*
D13*
X188757200Y-99752100D03*
D12*
X188757200Y-93852100D03*
X186217200Y-104832100D03*
X184947200Y-102292100D03*
X183757200Y-96052100D03*
D11*
X183677200Y-99752100D03*
D10*
X183257200Y-99752100D03*
D14*
X196857200Y-96052100D03*
X195657200Y-102292100D03*
D15*
X185957200Y-93852100D03*
D14*
X183157200Y-104832100D03*
%TD*%
D16*
%TO.C,D21*%
X115557200Y-35579100D03*
D17*
X109557200Y-35579100D03*
%TD*%
D10*
%TO.C,K63*%
X194257200Y-80702100D03*
D11*
X193837200Y-80702100D03*
D12*
X193757200Y-77002100D03*
X192567200Y-83242100D03*
X191297200Y-85782100D03*
D13*
X188757200Y-80702100D03*
D12*
X188757200Y-74802100D03*
X186217200Y-85782100D03*
X184947200Y-83242100D03*
X183757200Y-77002100D03*
D11*
X183677200Y-80702100D03*
D10*
X183257200Y-80702100D03*
D14*
X196857200Y-77002100D03*
X195657200Y-83242100D03*
D15*
X185957200Y-74802100D03*
D14*
X183157200Y-85782100D03*
%TD*%
D16*
%TO.C,D43*%
X153657200Y-66440100D03*
D17*
X147657200Y-66440100D03*
%TD*%
D16*
%TO.C,D11*%
X96507200Y-35579100D03*
D17*
X90507200Y-35579100D03*
%TD*%
D16*
%TO.C,D64*%
X191757200Y-90252100D03*
D17*
X185757200Y-90252100D03*
%TD*%
D16*
%TO.C,D62*%
X191757200Y-52152100D03*
D17*
X185757200Y-52152100D03*
%TD*%
D10*
%TO.C,K62*%
X194257200Y-61652100D03*
D11*
X193837200Y-61652100D03*
D12*
X193757200Y-57952100D03*
X192567200Y-64192100D03*
X191297200Y-66732100D03*
D13*
X188757200Y-61652100D03*
D12*
X188757200Y-55752100D03*
X186217200Y-66732100D03*
X184947200Y-64192100D03*
X183757200Y-57952100D03*
D11*
X183677200Y-61652100D03*
D10*
X183257200Y-61652100D03*
D14*
X196857200Y-57952100D03*
X195657200Y-64192100D03*
D15*
X185957200Y-55752100D03*
D14*
X183157200Y-66732100D03*
%TD*%
D16*
%TO.C,D12*%
X96507200Y-54629100D03*
D17*
X90507200Y-54629100D03*
%TD*%
D16*
%TO.C,D45*%
X163182200Y-109112100D03*
D17*
X157182200Y-109112100D03*
%TD*%
D10*
%TO.C,K55*%
X187715709Y-126808011D03*
D11*
X187321039Y-126664362D03*
D12*
X185980389Y-130113863D03*
X186996360Y-123843177D03*
X186671682Y-121021993D03*
X180529481Y-130471086D03*
D13*
X182547400Y-124926900D03*
D12*
X181898043Y-119284530D03*
X179835902Y-121236984D03*
X176583462Y-126693662D03*
D11*
X177773761Y-123189438D03*
D10*
X177379091Y-123045789D03*
D24*
X189547141Y-122068574D03*
X173670415Y-125633400D03*
D25*
X183160620Y-131428743D03*
D24*
X176932252Y-120180142D03*
%TD*%
D10*
%TO.C,K45*%
X154869608Y-117188595D03*
D11*
X155275297Y-117297299D03*
D12*
X156310201Y-113744079D03*
X155844622Y-120079451D03*
X156413948Y-122861603D03*
X161709232Y-112913138D03*
D13*
X160182200Y-118612100D03*
D12*
X161320851Y-124176404D03*
X163204977Y-122051652D03*
X165969460Y-116332270D03*
D11*
X165089103Y-119926901D03*
D10*
X165494792Y-120035605D03*
D26*
X153458215Y-122069617D03*
X168963830Y-117134609D03*
D27*
X159004640Y-112188444D03*
D26*
X166189688Y-122851403D03*
%TD*%
M02*
