%TF.GenerationSoftware,KiCad,Pcbnew,7.0.10*%
%TF.CreationDate,2024-03-21T20:23:32+01:00*%
%TF.ProjectId,duosync,64756f73-796e-4632-9e6b-696361645f70,rev?*%
%TF.SameCoordinates,Original*%
%TF.FileFunction,Copper,L1,Top*%
%TF.FilePolarity,Positive*%
%FSLAX46Y46*%
G04 Gerber Fmt 4.6, Leading zero omitted, Abs format (unit mm)*
G04 Created by KiCad (PCBNEW 7.0.10) date 2024-03-21 20:23:32*
%MOMM*%
%LPD*%
G01*
G04 APERTURE LIST*
G04 Aperture macros list*
%AMRotRect*
0 Rectangle, with rotation*
0 The origin of the aperture is its center*
0 $1 length*
0 $2 width*
0 $3 Rotation angle, in degrees counterclockwise*
0 Add horizontal line*
21,1,$1,$2,0,0,$3*%
G04 Aperture macros list end*
%TA.AperFunction,SMDPad,CuDef*%
%ADD10R,2.000000X2.000000*%
%TD*%
%TA.AperFunction,SMDPad,CuDef*%
%ADD11R,1.800000X2.000000*%
%TD*%
%TA.AperFunction,ComponentPad*%
%ADD12R,1.778000X1.300000*%
%TD*%
%TA.AperFunction,SMDPad,CuDef*%
%ADD13R,1.400000X1.300000*%
%TD*%
%TA.AperFunction,ComponentPad*%
%ADD14O,1.778000X1.300000*%
%TD*%
%TA.AperFunction,ComponentPad*%
%ADD15R,3.500000X1.700000*%
%TD*%
%TA.AperFunction,ComponentPad*%
%ADD16O,3.600000X1.700000*%
%TD*%
%TA.AperFunction,ComponentPad*%
%ADD17O,3.700000X1.700000*%
%TD*%
%TA.AperFunction,ComponentPad*%
%ADD18C,0.500000*%
%TD*%
%TA.AperFunction,ComponentPad*%
%ADD19C,4.000000*%
%TD*%
%TA.AperFunction,SMDPad,CuDef*%
%ADD20RotRect,1.500000X2.000000X250.000000*%
%TD*%
%TA.AperFunction,SMDPad,CuDef*%
%ADD21RotRect,2.000000X2.000000X340.000000*%
%TD*%
%TA.AperFunction,SMDPad,CuDef*%
%ADD22RotRect,1.900000X2.000000X340.000000*%
%TD*%
%TA.AperFunction,SMDPad,CuDef*%
%ADD23RotRect,2.000000X2.000000X165.000000*%
%TD*%
%TA.AperFunction,SMDPad,CuDef*%
%ADD24RotRect,1.900000X2.000000X165.000000*%
%TD*%
%TA.AperFunction,ViaPad*%
%ADD25C,0.800000*%
%TD*%
%TA.AperFunction,Conductor*%
%ADD26C,0.250000*%
%TD*%
G04 APERTURE END LIST*
D10*
%TO.P,K42,1*%
%TO.N,Column 4*%
X156257200Y-61970100D03*
X142557200Y-53190100D03*
D11*
%TO.P,K42,2*%
%TO.N,Net-(D42-A)*%
X153457200Y-50990100D03*
D10*
X143757200Y-59430100D03*
%TD*%
D12*
%TO.P,D13,1,K*%
%TO.N,Row 3*%
X96507200Y-73679100D03*
D13*
X95282200Y-73679100D03*
%TO.P,D13,2,A*%
%TO.N,Net-(D13-A)*%
X91732200Y-73679100D03*
D14*
X90507200Y-73679100D03*
%TD*%
D10*
%TO.P,K54,1*%
%TO.N,Column 5*%
X175307000Y-102546100D03*
X161607000Y-93766100D03*
D11*
%TO.P,K54,2*%
%TO.N,Net-(D54-A)*%
X172507000Y-91566100D03*
D10*
X162807000Y-100006100D03*
%TD*%
D12*
%TO.P,D31,1,K*%
%TO.N,Row 1*%
X134607200Y-30816100D03*
D13*
X133382200Y-30816100D03*
%TO.P,D31,2,A*%
%TO.N,Net-(D31-A)*%
X129832200Y-30816100D03*
D14*
X128607200Y-30816100D03*
%TD*%
D10*
%TO.P,K41,1*%
%TO.N,Column 4*%
X156257200Y-42920100D03*
X142557200Y-34140100D03*
D11*
%TO.P,K41,2*%
%TO.N,Net-(D41-A)*%
X153457200Y-31940100D03*
D10*
X143757200Y-40380100D03*
%TD*%
D12*
%TO.P,D55,1,K*%
%TO.N,Row 5*%
X182232200Y-111398100D03*
D13*
X181007200Y-111398100D03*
%TO.P,D55,2,A*%
%TO.N,Net-(D55-A)*%
X177457200Y-111398100D03*
D14*
X176232200Y-111398100D03*
%TD*%
D15*
%TO.P,U1,1,PA02_A0_D0*%
%TO.N,Row 1*%
X200550000Y-95100000D03*
D16*
%TO.P,U1,2,PA4_A1_D1*%
%TO.N,Row 2*%
X200550000Y-97640000D03*
%TO.P,U1,3,PA10_A2_D2*%
%TO.N,Row 3*%
X200550000Y-100180000D03*
%TO.P,U1,4,PA11_A3_D3*%
%TO.N,Row 4*%
X200550000Y-102720000D03*
%TO.P,U1,5,PA8_A4_D4_SDA*%
%TO.N,Row 5*%
X200550000Y-105260000D03*
%TO.P,U1,6,PA9_A5_D5_SCL*%
%TO.N,Column 1*%
X200550000Y-107800000D03*
%TO.P,U1,7,PB08_A6_TX*%
%TO.N,Column 2*%
X200550000Y-110340000D03*
%TO.P,U1,8,PB09_D7_RX*%
%TO.N,Column 6*%
X217800000Y-110340000D03*
%TO.P,U1,9,PA7_A8_D8_SCK*%
%TO.N,Column 5*%
X217800000Y-107800000D03*
%TO.P,U1,10,PA5_A9_D9_MISO*%
%TO.N,Column 4*%
X217800000Y-105260000D03*
D17*
%TO.P,U1,11,PA6_A10_D10_MOSI*%
%TO.N,Column 3*%
X217800000Y-102720000D03*
%TO.P,U1,12,3V3*%
%TO.N,unconnected-(U1-3V3-Pad12)*%
X217800000Y-100180000D03*
%TO.P,U1,13,GND*%
%TO.N,ground*%
X217800000Y-97640000D03*
%TO.P,U1,14,5V*%
%TO.N,unconnected-(U1-5V-Pad14)*%
X217800000Y-95100000D03*
%TD*%
D10*
%TO.P,K34,1*%
%TO.N,Column 3*%
X137207200Y-102546100D03*
X123507200Y-93766100D03*
D11*
%TO.P,K34,2*%
%TO.N,Net-(D34-A)*%
X134407200Y-91566100D03*
D10*
X124707200Y-100006100D03*
%TD*%
%TO.P,K14,1*%
%TO.N,Column 1*%
X99107200Y-107309100D03*
X85407200Y-98529100D03*
D11*
%TO.P,K14,2*%
%TO.N,Net-(D14-A)*%
X96307200Y-96329100D03*
D10*
X86607200Y-104769100D03*
%TD*%
D12*
%TO.P,D33,1,K*%
%TO.N,Row 3*%
X134607200Y-68916100D03*
D13*
X133382200Y-68916100D03*
%TO.P,D33,2,A*%
%TO.N,Net-(D33-A)*%
X129832200Y-68916100D03*
D14*
X128607200Y-68916100D03*
%TD*%
D10*
%TO.P,K51,1*%
%TO.N,Column 5*%
X175307000Y-45396100D03*
X161607000Y-36616100D03*
D11*
%TO.P,K51,2*%
%TO.N,Net-(D51-A)*%
X172507000Y-34416100D03*
D10*
X162807000Y-42856100D03*
%TD*%
D12*
%TO.P,D34,1,K*%
%TO.N,Row 4*%
X134607200Y-87966100D03*
D13*
X133382200Y-87966100D03*
%TO.P,D34,2,A*%
%TO.N,Net-(D34-A)*%
X129832200Y-87966100D03*
D14*
X128607200Y-87966100D03*
%TD*%
D12*
%TO.P,D65,1,K*%
%TO.N,Row 5*%
X193193900Y-114136100D03*
D13*
X191968900Y-114136100D03*
%TO.P,D65,2,A*%
%TO.N,Net-(D65-A)*%
X188418900Y-114136100D03*
D14*
X187193900Y-114136100D03*
%TD*%
D18*
%TO.P,s2,1*%
%TO.N,N/C*%
X101500000Y-92600000D03*
X101940000Y-91540000D03*
X101940000Y-93660000D03*
X103000000Y-91100000D03*
D19*
X103000000Y-92600000D03*
D18*
X103000000Y-94100000D03*
X104060000Y-91540000D03*
X104060000Y-93660000D03*
X104500000Y-92600000D03*
%TD*%
D10*
%TO.P,K24,1*%
%TO.N,Column 2*%
X118157200Y-107309100D03*
X104457200Y-98529100D03*
D11*
%TO.P,K24,2*%
%TO.N,Net-(D24-A)*%
X115357200Y-96329100D03*
D10*
X105657200Y-104769100D03*
%TD*%
D18*
%TO.P,s4,1*%
%TO.N,N/C*%
X177700000Y-50800000D03*
X178140000Y-49740000D03*
X178140000Y-51860000D03*
X179200000Y-49300000D03*
D19*
X179200000Y-50800000D03*
D18*
X179200000Y-52300000D03*
X180260000Y-49740000D03*
X180260000Y-51860000D03*
X180700000Y-50800000D03*
%TD*%
D12*
%TO.P,D52,1,K*%
%TO.N,Row 2*%
X172707000Y-49866100D03*
D13*
X171482000Y-49866100D03*
%TO.P,D52,2,A*%
%TO.N,Net-(D52-A)*%
X167932000Y-49866100D03*
D14*
X166707000Y-49866100D03*
%TD*%
D10*
%TO.P,K44,1*%
%TO.N,Column 4*%
X156257200Y-100070100D03*
X142557200Y-91290100D03*
D11*
%TO.P,K44,2*%
%TO.N,Net-(D44-A)*%
X153457200Y-89090100D03*
D10*
X143757200Y-97530100D03*
%TD*%
D12*
%TO.P,D51,1,K*%
%TO.N,Row 1*%
X172707000Y-30816100D03*
D13*
X171482000Y-30816100D03*
%TO.P,D51,2,A*%
%TO.N,Net-(D51-A)*%
X167932000Y-30816100D03*
D14*
X166707000Y-30816100D03*
%TD*%
D10*
%TO.P,K52,1*%
%TO.N,Column 5*%
X175307000Y-64446100D03*
X161607000Y-55666100D03*
D11*
%TO.P,K52,2*%
%TO.N,Net-(D52-A)*%
X172507000Y-53466100D03*
D10*
X162807000Y-61906100D03*
%TD*%
%TO.P,K21,1*%
%TO.N,Column 2*%
X118157200Y-50159100D03*
X104457200Y-41379100D03*
D11*
%TO.P,K21,2*%
%TO.N,Net-(D21-A)*%
X115357200Y-39179100D03*
D10*
X105657200Y-47619100D03*
%TD*%
D20*
%TO.P,K65,1*%
%TO.N,Column 6*%
X194739151Y-136466947D03*
X207606924Y-126784034D03*
%TO.P,K65,2*%
%TO.N,Net-(D65-A)*%
X201332817Y-125777459D03*
X205912026Y-137873097D03*
%TD*%
D10*
%TO.P,K61,1*%
%TO.N,Column 6*%
X194357200Y-47682100D03*
X180657200Y-38902100D03*
D11*
%TO.P,K61,2*%
%TO.N,Net-(D61-A)*%
X191557200Y-36702100D03*
D10*
X181857200Y-45142100D03*
%TD*%
%TO.P,K11,1*%
%TO.N,Column 1*%
X99107200Y-50159100D03*
X85407200Y-41379100D03*
D11*
%TO.P,K11,2*%
%TO.N,Net-(D11-A)*%
X96307200Y-39179100D03*
D10*
X86607200Y-47619100D03*
%TD*%
%TO.P,K13,1*%
%TO.N,Column 1*%
X99107200Y-88259100D03*
X85407200Y-79479100D03*
D11*
%TO.P,K13,2*%
%TO.N,Net-(D13-A)*%
X96307200Y-77279100D03*
D10*
X86607200Y-85719100D03*
%TD*%
%TO.P,K33,1*%
%TO.N,Column 3*%
X137207200Y-83496100D03*
X123507200Y-74716100D03*
D11*
%TO.P,K33,2*%
%TO.N,Net-(D33-A)*%
X134407200Y-72516100D03*
D10*
X124707200Y-80956100D03*
%TD*%
%TO.P,K32,1*%
%TO.N,Column 3*%
X137207200Y-64446100D03*
X123507200Y-55666100D03*
D11*
%TO.P,K32,2*%
%TO.N,Net-(D32-A)*%
X134407200Y-53466100D03*
D10*
X124707200Y-61906100D03*
%TD*%
D18*
%TO.P,s1,1*%
%TO.N,N/C*%
X101500000Y-54500000D03*
X101940000Y-53440000D03*
X101940000Y-55560000D03*
X103000000Y-53000000D03*
D19*
X103000000Y-54500000D03*
D18*
X103000000Y-56000000D03*
X104060000Y-53440000D03*
X104060000Y-55560000D03*
X104500000Y-54500000D03*
%TD*%
D10*
%TO.P,K43,1*%
%TO.N,Column 4*%
X156257200Y-81020100D03*
X142557200Y-72240100D03*
D11*
%TO.P,K43,2*%
%TO.N,Net-(D43-A)*%
X153457200Y-70040100D03*
D10*
X143757200Y-78480100D03*
%TD*%
%TO.P,K23,1*%
%TO.N,Column 2*%
X118157200Y-88259100D03*
X104457200Y-79479100D03*
D11*
%TO.P,K23,2*%
%TO.N,Net-(D23-A)*%
X115357200Y-77279100D03*
D10*
X105657200Y-85719100D03*
%TD*%
D12*
%TO.P,D42,1,K*%
%TO.N,Row 2*%
X153657200Y-47390100D03*
D13*
X152432200Y-47390100D03*
%TO.P,D42,2,A*%
%TO.N,Net-(D42-A)*%
X148882200Y-47390100D03*
D14*
X147657200Y-47390100D03*
%TD*%
D12*
%TO.P,D54,1,K*%
%TO.N,Row 4*%
X172707000Y-87966100D03*
D13*
X171482000Y-87966100D03*
%TO.P,D54,2,A*%
%TO.N,Net-(D54-A)*%
X167932000Y-87966100D03*
D14*
X166707000Y-87966100D03*
%TD*%
D12*
%TO.P,D61,1,K*%
%TO.N,Row 1*%
X191757200Y-33102100D03*
D13*
X190532200Y-33102100D03*
%TO.P,D61,2,A*%
%TO.N,Net-(D61-A)*%
X186982200Y-33102100D03*
D14*
X185757200Y-33102100D03*
%TD*%
D10*
%TO.P,K22,1*%
%TO.N,Column 2*%
X118157200Y-69209100D03*
X104457200Y-60429100D03*
D11*
%TO.P,K22,2*%
%TO.N,Net-(D22-A)*%
X115357200Y-58229100D03*
D10*
X105657200Y-66669100D03*
%TD*%
D12*
%TO.P,D32,1,K*%
%TO.N,Row 2*%
X134607200Y-49866100D03*
D13*
X133382200Y-49866100D03*
%TO.P,D32,2,A*%
%TO.N,Net-(D32-A)*%
X129832200Y-49866100D03*
D14*
X128607200Y-49866100D03*
%TD*%
D12*
%TO.P,D14,1,K*%
%TO.N,Row 4*%
X96507200Y-92729100D03*
D13*
X95282200Y-92729100D03*
%TO.P,D14,2,A*%
%TO.N,Net-(D14-A)*%
X91732200Y-92729100D03*
D14*
X90507200Y-92729100D03*
%TD*%
D12*
%TO.P,D22,1,K*%
%TO.N,Row 2*%
X115557200Y-54629100D03*
D13*
X114332200Y-54629100D03*
%TO.P,D22,2,A*%
%TO.N,Net-(D22-A)*%
X110782200Y-54629100D03*
D14*
X109557200Y-54629100D03*
%TD*%
D18*
%TO.P,s6,1*%
%TO.N,N/C*%
X201600000Y-118700000D03*
X202040000Y-117640000D03*
X202040000Y-119760000D03*
X203100000Y-117200000D03*
D19*
X203100000Y-118700000D03*
D18*
X203100000Y-120200000D03*
X204160000Y-117640000D03*
X204160000Y-119760000D03*
X204600000Y-118700000D03*
%TD*%
D12*
%TO.P,D44,1,K*%
%TO.N,Row 4*%
X153657200Y-85490100D03*
D13*
X152432200Y-85490100D03*
%TO.P,D44,2,A*%
%TO.N,Net-(D44-A)*%
X148882200Y-85490100D03*
D14*
X147657200Y-85490100D03*
%TD*%
D10*
%TO.P,K53,1*%
%TO.N,Column 5*%
X175307000Y-83496100D03*
X161607000Y-74716100D03*
D11*
%TO.P,K53,2*%
%TO.N,Net-(D53-A)*%
X172507000Y-72516100D03*
D10*
X162807000Y-80956100D03*
%TD*%
D18*
%TO.P,s3,1*%
%TO.N,N/C*%
X139700000Y-67500000D03*
X140140000Y-66440000D03*
X140140000Y-68560000D03*
X141200000Y-66000000D03*
D19*
X141200000Y-67500000D03*
D18*
X141200000Y-69000000D03*
X142260000Y-66440000D03*
X142260000Y-68560000D03*
X142700000Y-67500000D03*
%TD*%
D12*
%TO.P,D23,1,K*%
%TO.N,Row 3*%
X115557200Y-73679100D03*
D13*
X114332200Y-73679100D03*
%TO.P,D23,2,A*%
%TO.N,Net-(D23-A)*%
X110782200Y-73679100D03*
D14*
X109557200Y-73679100D03*
%TD*%
D12*
%TO.P,D63,1,K*%
%TO.N,Row 3*%
X191757200Y-71202100D03*
D13*
X190532200Y-71202100D03*
%TO.P,D63,2,A*%
%TO.N,Net-(D63-A)*%
X186982200Y-71202100D03*
D14*
X185757200Y-71202100D03*
%TD*%
D10*
%TO.P,K31,1*%
%TO.N,Column 3*%
X137207200Y-45396100D03*
X123507200Y-36616100D03*
D11*
%TO.P,K31,2*%
%TO.N,Net-(D31-A)*%
X134407200Y-34416100D03*
D10*
X124707200Y-42856100D03*
%TD*%
D12*
%TO.P,D41,1,K*%
%TO.N,Row 1*%
X153657200Y-28340100D03*
D13*
X152432200Y-28340100D03*
%TO.P,D41,2,A*%
%TO.N,Net-(D41-A)*%
X148882200Y-28340100D03*
D14*
X147657200Y-28340100D03*
%TD*%
D10*
%TO.P,K12,1*%
%TO.N,Column 1*%
X99107200Y-69209100D03*
X85407200Y-60429100D03*
D11*
%TO.P,K12,2*%
%TO.N,Net-(D12-A)*%
X96307200Y-58229100D03*
D10*
X86607200Y-66669100D03*
%TD*%
D18*
%TO.P,s5,1*%
%TO.N,N/C*%
X177900000Y-88600000D03*
X178340000Y-87540000D03*
X178340000Y-89660000D03*
X179400000Y-87100000D03*
D19*
X179400000Y-88600000D03*
D18*
X179400000Y-90100000D03*
X180460000Y-87540000D03*
X180460000Y-89660000D03*
X180900000Y-88600000D03*
%TD*%
D12*
%TO.P,D53,1,K*%
%TO.N,Row 3*%
X172707000Y-68916100D03*
D13*
X171482000Y-68916100D03*
%TO.P,D53,2,A*%
%TO.N,Net-(D53-A)*%
X167932000Y-68916100D03*
D14*
X166707000Y-68916100D03*
%TD*%
D12*
%TO.P,D24,1,K*%
%TO.N,Row 4*%
X115557200Y-92729100D03*
D13*
X114332200Y-92729100D03*
%TO.P,D24,2,A*%
%TO.N,Net-(D24-A)*%
X110782200Y-92729100D03*
D14*
X109557200Y-92729100D03*
%TD*%
D10*
%TO.P,K64,1*%
%TO.N,Column 6*%
X194357200Y-104832100D03*
X180657200Y-96052100D03*
D11*
%TO.P,K64,2*%
%TO.N,Net-(D64-A)*%
X191557200Y-93852100D03*
D10*
X181857200Y-102292100D03*
%TD*%
D12*
%TO.P,D21,1,K*%
%TO.N,Row 1*%
X115557200Y-35579100D03*
D13*
X114332200Y-35579100D03*
%TO.P,D21,2,A*%
%TO.N,Net-(D21-A)*%
X110782200Y-35579100D03*
D14*
X109557200Y-35579100D03*
%TD*%
D10*
%TO.P,K63,1*%
%TO.N,Column 6*%
X194357200Y-85782100D03*
X180657200Y-77002100D03*
D11*
%TO.P,K63,2*%
%TO.N,Net-(D63-A)*%
X191557200Y-74802100D03*
D10*
X181857200Y-83242100D03*
%TD*%
D12*
%TO.P,D43,1,K*%
%TO.N,Row 3*%
X153657200Y-66440100D03*
D13*
X152432200Y-66440100D03*
%TO.P,D43,2,A*%
%TO.N,Net-(D43-A)*%
X148882200Y-66440100D03*
D14*
X147657200Y-66440100D03*
%TD*%
D12*
%TO.P,D11,1,K*%
%TO.N,Row 1*%
X96507200Y-35579100D03*
D13*
X95282200Y-35579100D03*
%TO.P,D11,2,A*%
%TO.N,Net-(D11-A)*%
X91732200Y-35579100D03*
D14*
X90507200Y-35579100D03*
%TD*%
D12*
%TO.P,D64,1,K*%
%TO.N,Row 4*%
X191757200Y-90252100D03*
D13*
X190532200Y-90252100D03*
%TO.P,D64,2,A*%
%TO.N,Net-(D64-A)*%
X186982200Y-90252100D03*
D14*
X185757200Y-90252100D03*
%TD*%
D12*
%TO.P,D62,1,K*%
%TO.N,Row 2*%
X191757200Y-52152100D03*
D13*
X190532200Y-52152100D03*
%TO.P,D62,2,A*%
%TO.N,Net-(D62-A)*%
X186982200Y-52152100D03*
D14*
X185757200Y-52152100D03*
%TD*%
D10*
%TO.P,K62,1*%
%TO.N,Column 6*%
X194357200Y-66732100D03*
X180657200Y-57952100D03*
D11*
%TO.P,K62,2*%
%TO.N,Net-(D62-A)*%
X191557200Y-55752100D03*
D10*
X181857200Y-64192100D03*
%TD*%
D12*
%TO.P,D12,1,K*%
%TO.N,Row 2*%
X96507200Y-54629100D03*
D13*
X95282200Y-54629100D03*
%TO.P,D12,2,A*%
%TO.N,Net-(D12-A)*%
X91732200Y-54629100D03*
D14*
X90507200Y-54629100D03*
%TD*%
D12*
%TO.P,D45,1,K*%
%TO.N,Row 5*%
X163182200Y-109112100D03*
D13*
X161957200Y-109112100D03*
%TO.P,D45,2,A*%
%TO.N,Net-(D45-A)*%
X158407200Y-109112100D03*
D14*
X157182200Y-109112100D03*
%TD*%
D21*
%TO.P,K55,1*%
%TO.N,Column 5*%
X188893436Y-131174126D03*
X189900010Y-124900020D03*
D22*
%TO.P,K55,2*%
%TO.N,Net-(D55-A)*%
X177898342Y-129513430D03*
D21*
X179022584Y-118237949D03*
%TD*%
D23*
%TO.P,K45,1*%
%TO.N,Column 4*%
X153315831Y-112941740D03*
X152859911Y-119279700D03*
D24*
%TO.P,K45,2*%
%TO.N,Net-(D45-A)*%
X164413825Y-113637831D03*
D23*
X164276584Y-124968390D03*
%TD*%
D25*
%TO.N,Column 1*%
X203600000Y-113100000D03*
X101286200Y-88300500D03*
X101336200Y-102222200D03*
%TO.N,Column 2*%
X120646900Y-63924100D03*
X120646900Y-83341300D03*
X120671900Y-100644300D03*
%TO.N,Column 6*%
X193989600Y-139432600D03*
X197353200Y-99594900D03*
X197361500Y-52269600D03*
%TO.N,Column 5*%
X175416900Y-104630800D03*
X191661500Y-122110900D03*
X175121900Y-71526000D03*
%TO.N,Column 4*%
X153554800Y-48816600D03*
X170965400Y-108456000D03*
X151393900Y-115881400D03*
%TO.N,Column 3*%
X139957700Y-96283200D03*
X139957700Y-40134200D03*
%TO.N,Row 1*%
X195617600Y-91599100D03*
X178299200Y-76860200D03*
X177751600Y-67458900D03*
%TO.N,Row 2*%
X119844700Y-50724500D03*
%TO.N,Row 3*%
X197671600Y-79984000D03*
%TO.N,Row 4*%
X142567800Y-83599700D03*
X137513000Y-87345000D03*
%TO.N,Net-(D22-A)*%
X112250900Y-60929100D03*
%TO.N,Net-(D23-A)*%
X104161200Y-83341300D03*
%TO.N,Net-(D61-A)*%
X185836300Y-35077600D03*
%TO.N,Net-(D31-A)*%
X128857200Y-32667000D03*
%TO.N,Net-(D33-A)*%
X131822400Y-75216100D03*
%TO.N,Net-(D34-A)*%
X134437300Y-89748100D03*
%TO.N,Net-(D41-A)*%
X143239100Y-37877700D03*
%TO.N,Net-(D42-A)*%
X143256300Y-57300700D03*
%TO.N,Net-(D43-A)*%
X142832700Y-80720200D03*
%TO.N,Net-(D44-A)*%
X142834300Y-100144800D03*
%TO.N,Net-(D45-A)*%
X166199100Y-124795400D03*
%TO.N,Net-(D65-A)*%
X204079100Y-135395000D03*
X204356000Y-126383200D03*
%TO.N,ground*%
X207600000Y-104800000D03*
X207900000Y-110200000D03*
%TD*%
D26*
%TO.N,Column 1*%
X85235000Y-42878200D02*
X85407200Y-42706000D01*
X85407200Y-60429100D02*
X85407200Y-58098900D01*
X85407200Y-79479100D02*
X85407200Y-80806000D01*
X101336200Y-103734496D02*
X108001704Y-110400000D01*
X100434100Y-103124300D02*
X100434100Y-107309100D01*
X85407200Y-77148900D02*
X90009900Y-72546200D01*
X90009900Y-91596200D02*
X85235000Y-86821300D01*
X85235000Y-80978200D02*
X85407200Y-80806000D01*
X179685562Y-124414438D02*
X188900000Y-115200000D01*
X85407200Y-60429100D02*
X85407200Y-61756000D01*
X85235000Y-67771300D02*
X85235000Y-61928200D01*
X101336200Y-102222200D02*
X100434100Y-103124300D01*
X99107200Y-107309100D02*
X100434100Y-107309100D01*
X90009900Y-53496200D02*
X85235000Y-48721300D01*
X90009900Y-72546200D02*
X85235000Y-67771300D01*
X85407200Y-98529100D02*
X85407200Y-96198900D01*
X101336200Y-102222200D02*
X101336200Y-103734496D01*
X101286200Y-88300500D02*
X100475500Y-88300500D01*
X90009900Y-72546200D02*
X95770100Y-72546200D01*
X108001704Y-110400000D02*
X155617772Y-110400000D01*
X85407200Y-96198900D02*
X90009900Y-91596200D01*
X95770100Y-72546200D02*
X99107200Y-69209100D01*
X90009900Y-53496200D02*
X95770100Y-53496200D01*
X163617772Y-118400000D02*
X170859469Y-118400000D01*
X176873907Y-124414438D02*
X179685562Y-124414438D01*
X188900000Y-115200000D02*
X201200000Y-115200000D01*
X85235000Y-48721300D02*
X85235000Y-42878200D01*
X155617772Y-110400000D02*
X163617772Y-118400000D01*
X201200000Y-115200000D02*
X201500000Y-115200000D01*
X95770100Y-91596200D02*
X99107200Y-88259100D01*
X95770100Y-53496200D02*
X99107200Y-50159100D01*
X201500000Y-115200000D02*
X203600000Y-113100000D01*
X90009900Y-91596200D02*
X95770100Y-91596200D01*
X85407200Y-41379100D02*
X85407200Y-42706000D01*
X85235000Y-86821300D02*
X85235000Y-80978200D01*
X85407200Y-58098900D02*
X90009900Y-53496200D01*
X85407200Y-79479100D02*
X85407200Y-77148900D01*
X170859469Y-118400000D02*
X176873907Y-124414438D01*
X100475500Y-88300500D02*
X100434100Y-88259100D01*
X99107200Y-88259100D02*
X100434100Y-88259100D01*
X85235000Y-61928200D02*
X85407200Y-61756000D01*
%TO.N,Column 2*%
X195523700Y-110340000D02*
X192861300Y-107677600D01*
X118157200Y-88259100D02*
X118157200Y-86932200D01*
X119655400Y-63924100D02*
X119655400Y-59536200D01*
X119484100Y-107309100D02*
X120671900Y-106121300D01*
X118157200Y-67882200D02*
X119655400Y-66384000D01*
X104457200Y-60429100D02*
X108734100Y-56152200D01*
X111617400Y-80602100D02*
X111617400Y-80602200D01*
X116816500Y-53491200D02*
X118157200Y-52150500D01*
X107851200Y-109426700D02*
X104272900Y-105848400D01*
X118157200Y-69209100D02*
X118157200Y-67882200D01*
X119655400Y-66384000D02*
X119655400Y-63924100D01*
X118157200Y-107309100D02*
X119484100Y-107309100D01*
X120671900Y-106121300D02*
X120671900Y-100644300D01*
X116816500Y-53491200D02*
X116816500Y-55446600D01*
X104285800Y-48776200D02*
X109000800Y-53491200D01*
X108734100Y-56152200D02*
X116110900Y-56152200D01*
X118157200Y-52150500D02*
X118157200Y-50159100D01*
X109000800Y-53491200D02*
X116816500Y-53491200D01*
X104457200Y-42706000D02*
X104285800Y-42877400D01*
X119592300Y-85497100D02*
X118157200Y-86932200D01*
X104457200Y-79479100D02*
X104620200Y-79479100D01*
X119592300Y-82547200D02*
X119592300Y-83341300D01*
X104457200Y-98529100D02*
X104457200Y-99856000D01*
X117366500Y-109426700D02*
X107851200Y-109426700D01*
X119592300Y-83341300D02*
X119592300Y-85497100D01*
X192861300Y-107677600D02*
X122228200Y-107677600D01*
X104620200Y-79479000D02*
X106697000Y-77402200D01*
X104272900Y-100040300D02*
X104457200Y-99856000D01*
X104272900Y-105848400D02*
X104272900Y-100040300D01*
X119420800Y-107372500D02*
X119420700Y-107372500D01*
X111617400Y-80602200D02*
X114458600Y-80602200D01*
X116110900Y-56152200D02*
X116191200Y-56071900D01*
X119655400Y-59536200D02*
X116191200Y-56071900D01*
X119420700Y-107372500D02*
X117366500Y-109426700D01*
X120646900Y-63924100D02*
X119655400Y-63924100D01*
X114458600Y-80602200D02*
X115497700Y-81641300D01*
X201550000Y-110340000D02*
X195523700Y-110340000D01*
X118686400Y-81641300D02*
X119592300Y-82547200D01*
X104285800Y-42877400D02*
X104285800Y-48776200D01*
X122228200Y-107677600D02*
X120671900Y-106121300D01*
X115497700Y-81641300D02*
X118686400Y-81641300D01*
X119484100Y-107309200D02*
X119420800Y-107372500D01*
X104457200Y-41379100D02*
X104457200Y-42706000D01*
X104620200Y-79479100D02*
X104620200Y-79479000D01*
X119484100Y-107309100D02*
X119484100Y-107309200D01*
X116816500Y-55446600D02*
X116191200Y-56071900D01*
X120646900Y-83341300D02*
X119592300Y-83341300D01*
X108417500Y-77402200D02*
X111617400Y-80602100D01*
X106697000Y-77402200D02*
X108417500Y-77402200D01*
%TO.N,Column 6*%
X182897000Y-55875200D02*
X184617500Y-55875200D01*
X194907900Y-98177000D02*
X191660400Y-98177000D01*
X194205700Y-139216500D02*
X194205700Y-137932800D01*
X194205700Y-137932800D02*
X195489400Y-137932800D01*
X194891300Y-135762400D02*
X193674600Y-134545700D01*
X195828500Y-102033900D02*
X195828500Y-99594900D01*
X194357200Y-47682100D02*
X194357200Y-49009000D01*
X195875200Y-51971700D02*
X193700900Y-49797400D01*
X195627100Y-135835500D02*
X195554000Y-135762400D01*
X191660400Y-60077000D02*
X194907900Y-60077000D01*
X196183900Y-137238300D02*
X196183900Y-137164600D01*
X194357200Y-103505200D02*
X195828500Y-102033900D01*
X215673100Y-110340000D02*
X215673100Y-117785500D01*
X195824100Y-60993200D02*
X195824100Y-63938300D01*
X194357200Y-85782100D02*
X192259000Y-87880300D01*
X187817400Y-59075200D02*
X190658600Y-59075200D01*
X180484800Y-84389300D02*
X180484800Y-78501400D01*
X191913600Y-69175700D02*
X194357200Y-66732100D01*
X193700900Y-49797400D02*
X194357200Y-49141100D01*
X195828500Y-99594900D02*
X195828500Y-99097600D01*
X180530300Y-40355900D02*
X180530300Y-46327700D01*
X194357200Y-49141100D02*
X194357200Y-49009000D01*
X208140500Y-125318100D02*
X208140400Y-125318100D01*
X180820200Y-57952000D02*
X182897000Y-55875200D01*
X187817400Y-59075100D02*
X187817400Y-59075200D01*
X195875200Y-59109700D02*
X195875200Y-52269600D01*
X192259000Y-87880300D02*
X183975800Y-87880300D01*
X195875200Y-52269600D02*
X197361500Y-52269600D01*
X216800000Y-110340000D02*
X215673100Y-110340000D01*
X195875200Y-52269600D02*
X195875200Y-51971700D01*
X184000000Y-49797400D02*
X193700900Y-49797400D01*
X185928800Y-93972000D02*
X181410400Y-93972000D01*
X195489400Y-137932800D02*
X196183900Y-137238300D01*
X201980400Y-124403800D02*
X202894700Y-125318100D01*
X194357200Y-104832100D02*
X194357200Y-103505200D01*
X215673100Y-117785500D02*
X208140500Y-125318100D01*
X193989600Y-139432600D02*
X194205700Y-139216500D01*
X180530300Y-46327700D02*
X184000000Y-49797400D01*
X196183900Y-137164600D02*
X195627100Y-136607800D01*
X194907900Y-60077000D02*
X195875200Y-59109700D01*
X188004300Y-96047500D02*
X185928800Y-93972000D01*
X191660400Y-98177000D02*
X189530900Y-96047500D01*
X193674600Y-129789100D02*
X199059900Y-124403800D01*
X195824100Y-63938300D02*
X194357200Y-65405200D01*
X180657200Y-40229000D02*
X180530300Y-40355900D01*
X195828500Y-99594900D02*
X197353200Y-99594900D01*
X194907900Y-60077000D02*
X195824100Y-60993200D01*
X180657200Y-96052100D02*
X180657200Y-94725200D01*
X199059900Y-124403800D02*
X201980400Y-124403800D01*
X194739200Y-136466900D02*
X194205700Y-137932800D01*
X195828500Y-99097600D02*
X194907900Y-98177000D01*
X180657200Y-77243900D02*
X180657200Y-77002100D01*
X195627100Y-136607800D02*
X195627100Y-135835500D01*
X207606900Y-126784000D02*
X208140400Y-125318100D01*
X184617500Y-55875200D02*
X187817400Y-59075100D01*
X180657200Y-77243900D02*
X180657200Y-78329000D01*
X186160900Y-69175700D02*
X191913600Y-69175700D01*
X180484800Y-78501400D02*
X180657200Y-78329000D01*
X181410400Y-93972000D02*
X180657200Y-94725200D01*
X202894700Y-125318100D02*
X208140400Y-125318100D01*
X189530900Y-96047500D02*
X188004300Y-96047500D01*
X180657200Y-77002100D02*
X180657200Y-74679400D01*
X193674600Y-134545700D02*
X193674600Y-129789100D01*
X190658600Y-59075200D02*
X191660400Y-60077000D01*
X180657200Y-74679400D02*
X186160900Y-69175700D01*
X195554000Y-135762400D02*
X194891300Y-135762400D01*
X180657200Y-57952100D02*
X180820200Y-57952100D01*
X183975800Y-87880300D02*
X180484800Y-84389300D01*
X180657200Y-38902100D02*
X180657200Y-40229000D01*
X194357200Y-66732100D02*
X194357200Y-65405200D01*
X180820200Y-57952100D02*
X180820200Y-57952000D01*
%TO.N,Column 5*%
X165567300Y-91689200D02*
X168767200Y-94889100D01*
X189281100Y-129242100D02*
X189512300Y-129473300D01*
X161607000Y-55907900D02*
X161607000Y-55666100D01*
X216800000Y-107800000D02*
X215673100Y-107800000D01*
X175307000Y-83496100D02*
X175307000Y-82169200D01*
X175307000Y-64446100D02*
X175307000Y-65773000D01*
X175810500Y-95891100D02*
X176782400Y-96863000D01*
X161607000Y-55666100D02*
X161607000Y-50864300D01*
X168767200Y-94889100D02*
X168767200Y-94889200D01*
X171608400Y-75839200D02*
X172610200Y-76841000D01*
X175307000Y-104520900D02*
X175416900Y-104630800D01*
X168767200Y-94889200D02*
X171608400Y-94889200D01*
X168767200Y-75839200D02*
X171608400Y-75839200D01*
X209789100Y-122110900D02*
X214200000Y-117700000D01*
X171608400Y-94889200D02*
X172610300Y-95891100D01*
X163846800Y-72639200D02*
X165567300Y-72639200D01*
X161607000Y-56993000D02*
X161436100Y-57163900D01*
X190573200Y-123199200D02*
X190519000Y-123199200D01*
X176740800Y-77790000D02*
X176740800Y-80735400D01*
X161770000Y-93766100D02*
X161770000Y-93766000D01*
X161436100Y-57163900D02*
X161436100Y-63006300D01*
X161607000Y-55907900D02*
X161607000Y-56993000D01*
X161480100Y-44057200D02*
X161480100Y-38069900D01*
X176782400Y-96863000D02*
X176782400Y-99743800D01*
X214200000Y-110400000D02*
X216800000Y-107800000D01*
X189281000Y-126600800D02*
X189281100Y-126600800D01*
X161607000Y-36616100D02*
X161607000Y-37943000D01*
X214200000Y-117700000D02*
X214200000Y-110400000D01*
X161607000Y-50864300D02*
X164947100Y-47524200D01*
X175307000Y-45396100D02*
X173178900Y-47524200D01*
X161436100Y-63006300D02*
X164991200Y-66561400D01*
X175791800Y-76841000D02*
X176740800Y-77790000D01*
X189281100Y-126600800D02*
X189281100Y-129242100D01*
X175121900Y-71526000D02*
X176787400Y-73191500D01*
X172610200Y-76841000D02*
X175791800Y-76841000D01*
X165567300Y-72639200D02*
X168767200Y-75839100D01*
X174650700Y-66561400D02*
X175307000Y-65905100D01*
X189900000Y-124900000D02*
X190519000Y-123199200D01*
X168767200Y-75839100D02*
X168767200Y-75839200D01*
X175121900Y-67032600D02*
X175121900Y-71526000D01*
X173178900Y-47524200D02*
X164947100Y-47524200D01*
X175307000Y-102546100D02*
X175307000Y-101219200D01*
X176740800Y-80735400D02*
X175307000Y-82169200D01*
X176787400Y-75845400D02*
X175791800Y-76841000D01*
X175307000Y-65905100D02*
X175307000Y-65773000D01*
X164947100Y-47524200D02*
X161480100Y-44057200D01*
X161770000Y-74716000D02*
X163846800Y-72639200D01*
X161480100Y-38069900D02*
X161607000Y-37943000D01*
X161607000Y-93766100D02*
X161770000Y-93766100D01*
X191661500Y-122110900D02*
X209789100Y-122110900D01*
X188893400Y-131174100D02*
X189512400Y-129473300D01*
X174650700Y-66561400D02*
X175121900Y-67032600D01*
X161607000Y-74716100D02*
X161770000Y-74716100D01*
X172610300Y-95891100D02*
X175810500Y-95891100D01*
X163846800Y-91689200D02*
X165567300Y-91689200D01*
X189900000Y-124900000D02*
X189281000Y-126600800D01*
X191661500Y-122110900D02*
X190573200Y-123199200D01*
X161770000Y-74716100D02*
X161770000Y-74716000D01*
X175307000Y-102546100D02*
X175307000Y-104520900D01*
X164991200Y-66561400D02*
X174650700Y-66561400D01*
X161770000Y-93766000D02*
X163846800Y-91689200D01*
X189512300Y-129473300D02*
X189512400Y-129473300D01*
X176787400Y-73191500D02*
X176787400Y-75845400D01*
X176782400Y-99743800D02*
X175307000Y-101219200D01*
%TO.N,Column 4*%
X142557200Y-72240100D02*
X142557200Y-73567000D01*
X142557200Y-53190100D02*
X142557200Y-54517000D01*
X142107400Y-100486300D02*
X142107400Y-93066800D01*
X153295300Y-117654600D02*
X153295300Y-115650000D01*
X181906500Y-108456000D02*
X170965400Y-108456000D01*
X153295300Y-115650000D02*
X152880400Y-115235100D01*
X153315800Y-112941700D02*
X152880300Y-114566900D01*
X154875000Y-48553000D02*
X153818400Y-48553000D01*
X142557200Y-70842800D02*
X142557200Y-72240100D01*
X143771600Y-102150500D02*
X142107400Y-100486300D01*
X142430300Y-63230300D02*
X144400000Y-65200000D01*
X145946000Y-45056000D02*
X154121300Y-45056000D01*
X142557200Y-73567000D02*
X142093500Y-74030700D01*
X152880400Y-115235100D02*
X152040200Y-115235100D01*
X156687000Y-102150500D02*
X143771600Y-102150500D01*
X157584100Y-100070100D02*
X157584100Y-101253400D01*
X216800000Y-105260000D02*
X215673100Y-105260000D01*
X153813600Y-83463700D02*
X156257200Y-81020100D01*
X152880400Y-114566900D02*
X152880300Y-114566900D01*
X142557200Y-54517000D02*
X142430300Y-54643900D01*
X142557200Y-35467000D02*
X142396000Y-35628200D01*
X156257200Y-100070100D02*
X157584100Y-100070100D01*
X142557200Y-85451400D02*
X144544900Y-83463700D01*
X154875000Y-45809700D02*
X154121300Y-45056000D01*
X152859900Y-119279700D02*
X153295300Y-117654600D01*
X142430300Y-60500000D02*
X142430300Y-63230300D01*
X156257200Y-61970100D02*
X156257200Y-60643200D01*
X156257200Y-60643200D02*
X157779300Y-59121100D01*
X142557200Y-34140100D02*
X142557200Y-35467000D01*
X152880400Y-115235100D02*
X152880400Y-114566900D01*
X144544900Y-83463700D02*
X153813600Y-83463700D01*
X157779300Y-59121100D02*
X157779300Y-51457300D01*
X146203300Y-64413700D02*
X153813600Y-64413700D01*
X142396000Y-41506000D02*
X145946000Y-45056000D01*
X142107400Y-93066800D02*
X142557200Y-92617000D01*
X144400000Y-69000000D02*
X142557200Y-70842800D01*
X154875000Y-48553000D02*
X154875000Y-45809700D01*
X142557200Y-91290100D02*
X142557200Y-85451400D01*
X142557200Y-91531900D02*
X142557200Y-92617000D01*
X153818400Y-48553000D02*
X153554800Y-48816600D01*
X157779300Y-51457300D02*
X154875000Y-48553000D01*
X142396000Y-35628200D02*
X142396000Y-41506000D01*
X142093500Y-81012300D02*
X144544900Y-83463700D01*
X142557200Y-91531900D02*
X142557200Y-91290100D01*
X142430300Y-54643900D02*
X142430300Y-60500000D01*
X152040200Y-115235100D02*
X151393900Y-115881400D01*
X157584100Y-101253400D02*
X156687000Y-102150500D01*
X209383500Y-111549600D02*
X185000100Y-111549600D01*
X153813600Y-64413700D02*
X156257200Y-61970100D01*
X142093500Y-74030700D02*
X142093500Y-81012300D01*
X142430300Y-60640700D02*
X146203300Y-64413700D01*
X144400000Y-65200000D02*
X144400000Y-69000000D01*
X154121300Y-45056000D02*
X156257200Y-42920100D01*
X142430300Y-60500000D02*
X142430300Y-60640700D01*
X185000100Y-111549600D02*
X181906500Y-108456000D01*
X215673100Y-105260000D02*
X209383500Y-111549600D01*
%TO.N,Column 3*%
X138694100Y-39741300D02*
X138694100Y-40134200D01*
X130667400Y-37739100D02*
X130667400Y-37739200D01*
X138723700Y-73822500D02*
X135220000Y-70318800D01*
X123507200Y-55666100D02*
X123507200Y-56993000D01*
X137207200Y-64446100D02*
X137207200Y-65864900D01*
X138495700Y-102546100D02*
X138723700Y-102318100D01*
X130667400Y-37739200D02*
X133508600Y-37739200D01*
X134136300Y-89021200D02*
X133668400Y-89489100D01*
X215623100Y-102720000D02*
X211813100Y-106530000D01*
X137207200Y-82169200D02*
X138723700Y-80652700D01*
X137207200Y-84823000D02*
X136786100Y-85244100D01*
X127467500Y-34539200D02*
X130667400Y-37739100D01*
X137207200Y-102546100D02*
X138495700Y-102546100D01*
X192122100Y-106944400D02*
X143350000Y-106944400D01*
X137207200Y-65864900D02*
X135841000Y-67231100D01*
X123670200Y-36616100D02*
X123670200Y-36616000D01*
X137693800Y-38741000D02*
X138694100Y-39741300D01*
X123354200Y-63042800D02*
X123354200Y-57146000D01*
X123507200Y-74716100D02*
X127784100Y-70439200D01*
X139957700Y-96283200D02*
X138723700Y-96283200D01*
X138723700Y-96283200D02*
X138723700Y-92872500D01*
X211813100Y-106530000D02*
X192536500Y-106530000D01*
X135220000Y-70318800D02*
X135841000Y-69697800D01*
X137207200Y-45174300D02*
X137207200Y-45396100D01*
X133508600Y-37739200D02*
X134510400Y-38741000D01*
X123507200Y-36616100D02*
X123670200Y-36616100D01*
X134872400Y-89021200D02*
X134136300Y-89021200D01*
X137207200Y-83496100D02*
X137207200Y-84823000D01*
X136786100Y-85244100D02*
X136786100Y-87802700D01*
X127784100Y-70439200D02*
X135099600Y-70439200D01*
X135220000Y-89368800D02*
X134872400Y-89021200D01*
X127542500Y-67231100D02*
X123354200Y-63042800D01*
X137207200Y-45174300D02*
X137207200Y-44069200D01*
X138723700Y-92872500D02*
X135220000Y-89368800D01*
X192536500Y-106530000D02*
X192122100Y-106944400D01*
X134510400Y-38741000D02*
X137693800Y-38741000D01*
X137207200Y-83496100D02*
X137207200Y-82169200D01*
X143350000Y-106944400D02*
X138723700Y-102318100D01*
X133668400Y-89489200D02*
X127784100Y-89489200D01*
X133668400Y-89489100D02*
X133668400Y-89489200D01*
X135841000Y-67231100D02*
X127542500Y-67231100D01*
X123354200Y-57146000D02*
X123507200Y-56993000D01*
X123670200Y-36616000D02*
X125747000Y-34539200D01*
X135099600Y-70439200D02*
X135220000Y-70318800D01*
X138694100Y-42582300D02*
X137207200Y-44069200D01*
X216800000Y-102720000D02*
X215623100Y-102720000D01*
X125747000Y-34539200D02*
X127467500Y-34539200D01*
X138694100Y-40134200D02*
X139957700Y-40134200D01*
X138723700Y-102318100D02*
X138723700Y-96283200D01*
X138694100Y-40134200D02*
X138694100Y-42582300D01*
X135841000Y-69697800D02*
X135841000Y-67231100D01*
X138723700Y-80652700D02*
X138723700Y-73822500D01*
X136786100Y-87802700D02*
X135220000Y-89368800D01*
X127784100Y-89489200D02*
X123507200Y-93766100D01*
%TO.N,Row 1*%
X171482000Y-30816100D02*
X171482000Y-30327600D01*
X198473100Y-94454600D02*
X195617600Y-91599100D01*
X171482000Y-30327600D02*
X171491100Y-30336700D01*
X172707000Y-30816100D02*
X172707000Y-31793000D01*
X198473100Y-95100000D02*
X198473100Y-94454600D01*
X114332200Y-35579100D02*
X114332200Y-36556000D01*
X169982900Y-28340100D02*
X171482000Y-29839200D01*
X190532200Y-34079000D02*
X174993000Y-34079000D01*
X171482000Y-30327600D02*
X171482000Y-29839200D01*
X148218500Y-30816100D02*
X134607200Y-30816100D01*
X114332200Y-36556000D02*
X96507200Y-36556000D01*
X174993000Y-34079000D02*
X172707000Y-31793000D01*
X177751600Y-76312600D02*
X177751600Y-67458900D01*
X172707000Y-30816100D02*
X171491100Y-30816100D01*
X150694400Y-28340200D02*
X148218500Y-30816100D01*
X190532200Y-33102100D02*
X190532200Y-34079000D01*
X153657200Y-28340100D02*
X152432200Y-28340100D01*
X96507200Y-35579100D02*
X96507200Y-36556000D01*
X191757200Y-33102100D02*
X190532200Y-33102100D01*
X133382200Y-30816100D02*
X134607200Y-30816100D01*
X178299200Y-76860200D02*
X177751600Y-76312600D01*
X95282200Y-35579100D02*
X96507200Y-35579100D01*
X114332200Y-35579100D02*
X115557200Y-35579100D01*
X171491100Y-30336700D02*
X171491100Y-30816100D01*
X150694400Y-28340100D02*
X150694400Y-28340200D01*
X152432200Y-28340100D02*
X151405300Y-28340100D01*
X151405300Y-28340100D02*
X150694400Y-28340100D01*
X201550000Y-95100000D02*
X198473100Y-95100000D01*
X153657200Y-28340100D02*
X169982900Y-28340100D01*
%TO.N,Row 2*%
X152441300Y-47869400D02*
X152441300Y-47390100D01*
X142755400Y-49866100D02*
X146208300Y-46413200D01*
X153049300Y-47390100D02*
X153657200Y-47390100D01*
X95282200Y-54629100D02*
X96507200Y-54629100D01*
X114486300Y-55700000D02*
X115557200Y-54629100D01*
X153049300Y-47390100D02*
X152441300Y-47390100D01*
X99900000Y-57800000D02*
X105500000Y-57800000D01*
X152432200Y-47390100D02*
X152432200Y-46413200D01*
X201550000Y-97640000D02*
X200024000Y-97640000D01*
X114332200Y-55117500D02*
X114332200Y-55606000D01*
X178791300Y-76324300D02*
X178791300Y-53991300D01*
X175075200Y-51175200D02*
X177800000Y-53900000D01*
X107600000Y-55700000D02*
X114486300Y-55700000D01*
X96507200Y-55606000D02*
X97706000Y-55606000D01*
X152432200Y-47878500D02*
X152441300Y-47869400D01*
X121680000Y-48889200D02*
X133382200Y-48889200D01*
X133382200Y-49866100D02*
X133382200Y-50354500D01*
X134607200Y-49866100D02*
X142755400Y-49866100D01*
X194176800Y-91792800D02*
X194176800Y-90630000D01*
X191928800Y-88382000D02*
X183778400Y-88382000D01*
X133999300Y-49866100D02*
X133391300Y-49866100D01*
X194176800Y-90630000D02*
X191928800Y-88382000D01*
X97706000Y-55606000D02*
X99900000Y-57800000D01*
X133391300Y-50345400D02*
X133391300Y-49866100D01*
X183800000Y-50800000D02*
X189180100Y-50800000D01*
X173039200Y-51175200D02*
X175075200Y-51175200D01*
X133999300Y-49866100D02*
X134607200Y-49866100D01*
X172707000Y-49866100D02*
X172707000Y-50843000D01*
X119844700Y-50724500D02*
X121680000Y-48889200D01*
X189180100Y-50800000D02*
X190532200Y-52152100D01*
X114949300Y-54629100D02*
X115557200Y-54629100D01*
X171482000Y-49866100D02*
X172707000Y-49866100D01*
X114949300Y-54629100D02*
X114341300Y-54629100D01*
X133382200Y-50354500D02*
X133391300Y-50345400D01*
X152432200Y-47390100D02*
X152432200Y-47878500D01*
X96507200Y-54629100D02*
X96507200Y-55606000D01*
X114332200Y-54629100D02*
X114332200Y-55117500D01*
X191757200Y-52152100D02*
X190532200Y-52152100D01*
X114332200Y-55117500D02*
X114341300Y-55108400D01*
X146208300Y-46413200D02*
X152432200Y-46413200D01*
X133382200Y-49866100D02*
X133382200Y-48889200D01*
X183778400Y-88382000D02*
X179026100Y-83629700D01*
X105500000Y-57800000D02*
X107600000Y-55700000D01*
X173039200Y-51175200D02*
X172707000Y-50843000D01*
X178700000Y-53900000D02*
X180700000Y-53900000D01*
X200024000Y-97640000D02*
X194176800Y-91792800D01*
X180700000Y-53900000D02*
X183800000Y-50800000D01*
X178791300Y-53991300D02*
X178700000Y-53900000D01*
X177800000Y-53900000D02*
X178700000Y-53900000D01*
X179026100Y-83629700D02*
X179026100Y-76559100D01*
X114341300Y-55108400D02*
X114341300Y-54629100D01*
X179026100Y-76559100D02*
X178791300Y-76324300D01*
%TO.N,Row 3*%
X97762800Y-71446600D02*
X113076600Y-71446600D01*
X171482000Y-67939200D02*
X156372200Y-67939200D01*
X119787200Y-73679100D02*
X115557200Y-73679100D01*
X171482000Y-68916100D02*
X171482000Y-67939200D01*
X197671600Y-77971300D02*
X191879300Y-72179000D01*
X191757200Y-71202100D02*
X190532200Y-71202100D01*
X133382200Y-69893000D02*
X123573300Y-69893000D01*
X156372200Y-67939200D02*
X154873100Y-66440100D01*
X96507200Y-73679100D02*
X96507200Y-72702200D01*
X113076600Y-71446600D02*
X114332200Y-72702200D01*
X197671600Y-79984000D02*
X197671600Y-77971300D01*
X96507200Y-72702200D02*
X97762800Y-71446600D01*
X153657200Y-66440100D02*
X152432200Y-66440100D01*
X115557200Y-73679100D02*
X114332200Y-73679100D01*
X95282200Y-73679100D02*
X96507200Y-73679100D01*
X191757200Y-71202100D02*
X191757200Y-72179000D01*
X114332200Y-73679100D02*
X114332200Y-72702200D01*
X153657200Y-66440100D02*
X154873100Y-66440100D01*
X171482000Y-68916100D02*
X172707000Y-68916100D01*
X133382200Y-68916100D02*
X133382200Y-69893000D01*
X134607200Y-68916100D02*
X133382200Y-68916100D01*
X123573300Y-69893000D02*
X119787200Y-73679100D01*
X191879300Y-72179000D02*
X191757200Y-72179000D01*
%TO.N,Row 4*%
X142567800Y-83599700D02*
X138822500Y-87345000D01*
X198423100Y-97772800D02*
X198423100Y-102720000D01*
X95282200Y-92729100D02*
X96507200Y-92729100D01*
X173922900Y-87966100D02*
X177756800Y-91800000D01*
X134607200Y-87966100D02*
X133391300Y-87966100D01*
X133382200Y-88454500D02*
X133382200Y-88943000D01*
X201550000Y-102720000D02*
X198423100Y-102720000D01*
X191879300Y-91229000D02*
X198423100Y-97772800D01*
X114332200Y-91752200D02*
X114332200Y-92729100D01*
X191757200Y-90252100D02*
X191757200Y-91229000D01*
X190337100Y-88832000D02*
X191757200Y-90252100D01*
X121766100Y-92729100D02*
X125552200Y-88943000D01*
X138822500Y-87345000D02*
X137513000Y-87345000D01*
X171482000Y-87966100D02*
X172707000Y-87966100D01*
X172707000Y-87966100D02*
X173922900Y-87966100D01*
X156372200Y-86989200D02*
X154873100Y-85490100D01*
X153657200Y-85490100D02*
X152432200Y-85490100D01*
X171482000Y-87966100D02*
X171482000Y-86989200D01*
X96507200Y-92729100D02*
X96507200Y-91752200D01*
X181100000Y-91800000D02*
X184068000Y-88832000D01*
X133382200Y-88454500D02*
X133391300Y-88445400D01*
X105600000Y-89600000D02*
X106496600Y-90496600D01*
X115557200Y-92729100D02*
X114332200Y-92729100D01*
X153657200Y-85490100D02*
X154873100Y-85490100D01*
X100600000Y-89600000D02*
X105600000Y-89600000D01*
X96507200Y-91752200D02*
X97984400Y-90275000D01*
X97984400Y-90275000D02*
X99925000Y-90275000D01*
X99925000Y-90275000D02*
X100600000Y-89600000D01*
X133382200Y-87966100D02*
X133382200Y-88454500D01*
X113076600Y-90496600D02*
X114332200Y-91752200D01*
X125552200Y-88943000D02*
X133382200Y-88943000D01*
X106496600Y-90496600D02*
X113076600Y-90496600D01*
X191757200Y-91229000D02*
X191879300Y-91229000D01*
X184068000Y-88832000D02*
X190337100Y-88832000D01*
X171482000Y-86989200D02*
X156372200Y-86989200D01*
X177756800Y-91800000D02*
X181100000Y-91800000D01*
X190532200Y-90252100D02*
X191757200Y-90252100D01*
X115557200Y-92729100D02*
X121766100Y-92729100D01*
X133391300Y-88445400D02*
X133391300Y-87966100D01*
%TO.N,Row 5*%
X191968900Y-114136100D02*
X193193900Y-114136100D01*
X181016300Y-110918700D02*
X181016300Y-111398100D01*
X161957200Y-109112100D02*
X163182200Y-109112100D01*
X183016400Y-113159200D02*
X182232200Y-112375000D01*
X182232200Y-111398100D02*
X181016300Y-111398100D01*
X163182200Y-109112100D02*
X163182200Y-110089000D01*
X180675000Y-110089000D02*
X181007200Y-110421200D01*
X182232200Y-111398100D02*
X182232200Y-112375000D01*
X181007200Y-110909600D02*
X181016300Y-110918700D01*
X181007200Y-110909600D02*
X181007200Y-110421200D01*
X191968900Y-113159200D02*
X183016400Y-113159200D01*
X191968900Y-114136100D02*
X191968900Y-113159200D01*
X163182200Y-110089000D02*
X180675000Y-110089000D01*
X181007200Y-111398100D02*
X181007200Y-110909600D01*
%TO.N,Net-(D11-A)*%
X86607200Y-47619100D02*
X86607200Y-46292200D01*
X96307200Y-40506000D02*
X95438700Y-41374500D01*
X86417000Y-46102000D02*
X86607200Y-46292200D01*
X95161300Y-37852200D02*
X96307200Y-37852200D01*
X96307200Y-39087300D02*
X96307200Y-39179100D01*
X92733600Y-41374500D02*
X90623200Y-43484900D01*
X92888200Y-35579100D02*
X95161300Y-37852200D01*
X90507200Y-35579100D02*
X91732200Y-35579100D01*
X87372500Y-43484900D02*
X86417000Y-44440400D01*
X95438700Y-41374500D02*
X92733600Y-41374500D01*
X96307200Y-39179100D02*
X96307200Y-40506000D01*
X96307200Y-39087300D02*
X96307200Y-37852200D01*
X86417000Y-44440400D02*
X86417000Y-46102000D01*
X91732200Y-35579100D02*
X92888200Y-35579100D01*
X90623200Y-43484900D02*
X87372500Y-43484900D01*
%TO.N,Net-(D12-A)*%
X96307200Y-58137300D02*
X96307200Y-58229100D01*
X86607200Y-66669100D02*
X86607200Y-65342200D01*
X92888200Y-54629100D02*
X95161300Y-56902200D01*
X86417000Y-65152000D02*
X86607200Y-65342200D01*
X96307200Y-58137300D02*
X96307200Y-56902200D01*
X92733600Y-60424500D02*
X90623200Y-62534900D01*
X95438700Y-60424500D02*
X92733600Y-60424500D01*
X95161300Y-56902200D02*
X96307200Y-56902200D01*
X91732200Y-54629100D02*
X92888200Y-54629100D01*
X90623200Y-62534900D02*
X87372500Y-62534900D01*
X87372500Y-62534900D02*
X86417000Y-63490400D01*
X86417000Y-63490400D02*
X86417000Y-65152000D01*
X90507200Y-54629100D02*
X91732200Y-54629100D01*
X96307200Y-58229100D02*
X96307200Y-59556000D01*
X96307200Y-59556000D02*
X95438700Y-60424500D01*
%TO.N,Net-(D13-A)*%
X90623200Y-81584900D02*
X87372500Y-81584900D01*
X87372500Y-81584900D02*
X86417000Y-82540400D01*
X95253800Y-75952200D02*
X92980700Y-73679100D01*
X96307200Y-77279100D02*
X96307200Y-78606000D01*
X96307200Y-75952200D02*
X95253800Y-75952200D01*
X96307200Y-77187300D02*
X96307200Y-77279100D01*
X96307200Y-78606000D02*
X95438700Y-79474500D01*
X96307200Y-77187300D02*
X96307200Y-75952200D01*
X86417000Y-84202000D02*
X86607200Y-84392200D01*
X86417000Y-82540400D02*
X86417000Y-84202000D01*
X91732200Y-73679100D02*
X90507200Y-73679100D01*
X95438700Y-79474500D02*
X92733600Y-79474500D01*
X86607200Y-85719100D02*
X86607200Y-84392200D01*
X92733600Y-79474500D02*
X90623200Y-81584900D01*
X92980700Y-73679100D02*
X91732200Y-73679100D01*
%TO.N,Net-(D14-A)*%
X91732200Y-92729100D02*
X90507200Y-92729100D01*
X86417000Y-101590400D02*
X86417000Y-103252000D01*
X92980700Y-92729100D02*
X91732200Y-92729100D01*
X96307200Y-96237300D02*
X96307200Y-95002200D01*
X90623200Y-100634900D02*
X87372500Y-100634900D01*
X96307200Y-96329100D02*
X96307200Y-97656000D01*
X96307200Y-97656000D02*
X95438700Y-98524500D01*
X96307200Y-96237300D02*
X96307200Y-96329100D01*
X86417000Y-103252000D02*
X86607200Y-103442200D01*
X92733600Y-98524500D02*
X90623200Y-100634900D01*
X96307200Y-95002200D02*
X95253800Y-95002200D01*
X95253800Y-95002200D02*
X92980700Y-92729100D01*
X86607200Y-104769100D02*
X86607200Y-103442200D01*
X87372500Y-100634900D02*
X86417000Y-101590400D01*
X95438700Y-98524500D02*
X92733600Y-98524500D01*
%TO.N,Net-(D51-A)*%
X162641900Y-41364100D02*
X162807000Y-41529200D01*
X171638500Y-36611500D02*
X168933400Y-36611500D01*
X171453600Y-33089200D02*
X169180500Y-30816100D01*
X172507000Y-34416100D02*
X172507000Y-35743000D01*
X162641900Y-39701100D02*
X162641900Y-41364100D01*
X166707000Y-30816100D02*
X167932000Y-30816100D01*
X172507000Y-34324300D02*
X172507000Y-33089200D01*
X162807000Y-42856100D02*
X162807000Y-41529200D01*
X172507000Y-35743000D02*
X171638500Y-36611500D01*
X163621100Y-38721900D02*
X162641900Y-39701100D01*
X172507000Y-33089200D02*
X171453600Y-33089200D01*
X172507000Y-34324300D02*
X172507000Y-34416100D01*
X166823000Y-38721900D02*
X163621100Y-38721900D01*
X169180500Y-30816100D02*
X167932000Y-30816100D01*
X168933400Y-36611500D02*
X166823000Y-38721900D01*
%TO.N,Net-(D52-A)*%
X172507000Y-53466100D02*
X172507000Y-52139200D01*
X172507000Y-53557800D02*
X172507000Y-53466100D01*
X172507000Y-53557800D02*
X172507000Y-54793000D01*
X166823000Y-57771900D02*
X163607100Y-57771900D01*
X162616800Y-58762200D02*
X162616800Y-60389000D01*
X168933400Y-55661500D02*
X166823000Y-57771900D01*
X172507000Y-54793000D02*
X171638500Y-55661500D01*
X163607100Y-57771900D02*
X162616800Y-58762200D01*
X171638500Y-55661500D02*
X168933400Y-55661500D01*
X171453600Y-52139200D02*
X169180500Y-49866100D01*
X162616800Y-60389000D02*
X162807000Y-60579200D01*
X172507000Y-52139200D02*
X171453600Y-52139200D01*
X169180500Y-49866100D02*
X167932000Y-49866100D01*
X162807000Y-61906100D02*
X162807000Y-60579200D01*
X166707000Y-49866100D02*
X167932000Y-49866100D01*
%TO.N,Net-(D21-A)*%
X116773100Y-34793700D02*
X116773100Y-38990100D01*
X115532200Y-39179100D02*
X115492000Y-39179100D01*
X116581600Y-34602200D02*
X116773100Y-34793700D01*
X111783600Y-41374500D02*
X109673200Y-43484900D01*
X115357200Y-39179100D02*
X115492000Y-39179100D01*
X113434200Y-41374500D02*
X111783600Y-41374500D01*
X109557200Y-35579100D02*
X110782200Y-35579100D01*
X115492000Y-39179100D02*
X115492000Y-39316700D01*
X110782200Y-35579100D02*
X110782200Y-34602200D01*
X109673200Y-43484900D02*
X106409700Y-43484900D01*
X105467000Y-46102000D02*
X105657200Y-46292200D01*
X110782200Y-34602200D02*
X116581600Y-34602200D01*
X115492000Y-39316700D02*
X113434200Y-41374500D01*
X105657200Y-47619100D02*
X105657200Y-46292200D01*
X106409700Y-43484900D02*
X105467000Y-44427600D01*
X105467000Y-44427600D02*
X105467000Y-46102000D01*
X115532200Y-39179100D02*
X116584100Y-39179100D01*
X116773100Y-38990100D02*
X116584100Y-39179100D01*
%TO.N,Net-(D22-A)*%
X112250900Y-60929100D02*
X112929600Y-60929100D01*
X112929600Y-60929100D02*
X115492000Y-58366700D01*
X115357200Y-58229100D02*
X115492000Y-58229100D01*
X105467000Y-65152000D02*
X105657200Y-65342200D01*
X110140500Y-62534900D02*
X106409700Y-62534900D01*
X112250900Y-60929100D02*
X111746300Y-60929100D01*
X105467000Y-63477600D02*
X105467000Y-65152000D01*
X105657200Y-66669100D02*
X105657200Y-65342200D01*
X111746300Y-60929100D02*
X110140500Y-62534900D01*
X106409700Y-62534900D02*
X105467000Y-63477600D01*
X109557200Y-54629100D02*
X110782200Y-54629100D01*
X115492000Y-58366700D02*
X115492000Y-58229100D01*
%TO.N,Net-(D23-A)*%
X105657200Y-85719100D02*
X105657200Y-84392200D01*
X105212100Y-84392200D02*
X105657200Y-84392200D01*
X115357200Y-75952200D02*
X114512900Y-75107900D01*
X108726400Y-75107900D02*
X107791400Y-74172900D01*
X110048100Y-71968100D02*
X110782200Y-72702200D01*
X104161200Y-83341300D02*
X105212100Y-84392200D01*
X109557200Y-73679100D02*
X110782200Y-73679100D01*
X114512900Y-75107900D02*
X108726400Y-75107900D01*
X110782200Y-73679100D02*
X110782200Y-72702200D01*
X115357200Y-77279100D02*
X115357200Y-75952200D01*
X108102400Y-71968100D02*
X110048100Y-71968100D01*
X107791400Y-72279100D02*
X108102400Y-71968100D01*
X107791400Y-74172900D02*
X107791400Y-72279100D01*
%TO.N,Net-(D24-A)*%
X115357200Y-96329100D02*
X115357200Y-97656000D01*
X115357200Y-97656000D02*
X114488700Y-98524500D01*
X110048100Y-91018100D02*
X110782200Y-91752200D01*
X109557200Y-92729100D02*
X110782200Y-92729100D01*
X106409700Y-100634900D02*
X105467000Y-101577600D01*
X114488700Y-98524500D02*
X111783600Y-98524500D01*
X115357200Y-96237300D02*
X115357200Y-95002200D01*
X115357200Y-95002200D02*
X114512900Y-94157900D01*
X109673200Y-100634900D02*
X106409700Y-100634900D01*
X108102400Y-91018100D02*
X110048100Y-91018100D01*
X105467000Y-101577600D02*
X105467000Y-103252000D01*
X107791400Y-91329100D02*
X108102400Y-91018100D01*
X107791400Y-93222900D02*
X107791400Y-91329100D01*
X114512900Y-94157900D02*
X108726400Y-94157900D01*
X108726400Y-94157900D02*
X107791400Y-93222900D01*
X110782200Y-92729100D02*
X110782200Y-91752200D01*
X115357200Y-96237300D02*
X115357200Y-96329100D01*
X111783600Y-98524500D02*
X109673200Y-100634900D01*
X105657200Y-104769100D02*
X105657200Y-103442200D01*
X105467000Y-103252000D02*
X105657200Y-103442200D01*
%TO.N,Net-(D53-A)*%
X160201900Y-77024100D02*
X160201900Y-73634300D01*
X171453600Y-71189200D02*
X169180500Y-68916100D01*
X164920100Y-68916100D02*
X166707000Y-68916100D01*
X162807000Y-79629200D02*
X160201900Y-77024100D01*
X160201900Y-73634300D02*
X164920100Y-68916100D01*
X166707000Y-68916100D02*
X167932000Y-68916100D01*
X169180500Y-68916100D02*
X167932000Y-68916100D01*
X172507000Y-71189200D02*
X171453600Y-71189200D01*
X172507000Y-72516100D02*
X172507000Y-71189200D01*
X162807000Y-80956100D02*
X162807000Y-79629200D01*
%TO.N,Net-(D61-A)*%
X181857200Y-45142100D02*
X181857200Y-43815200D01*
X191557200Y-36702100D02*
X191557200Y-38029000D01*
X185757200Y-33102100D02*
X186982200Y-33102100D01*
X187983600Y-38897500D02*
X185873200Y-41007900D01*
X191557200Y-36702100D02*
X191557200Y-35375200D01*
X185836300Y-35077600D02*
X186335900Y-34578000D01*
X190688700Y-38897500D02*
X187983600Y-38897500D01*
X181667000Y-41974200D02*
X181667000Y-43625000D01*
X191557200Y-38029000D02*
X190688700Y-38897500D01*
X185873200Y-41007900D02*
X182633300Y-41007900D01*
X190760000Y-34578000D02*
X191557200Y-35375200D01*
X181667000Y-43625000D02*
X181857200Y-43815200D01*
X182633300Y-41007900D02*
X181667000Y-41974200D01*
X186335900Y-34578000D02*
X190760000Y-34578000D01*
%TO.N,Net-(D31-A)*%
X129579900Y-31944300D02*
X128857200Y-32667000D01*
X122180300Y-39002300D02*
X122180300Y-35424100D01*
X133262300Y-31944300D02*
X129832200Y-31944300D01*
X134407200Y-34416100D02*
X134407200Y-33089200D01*
X126788300Y-30816100D02*
X128607200Y-30816100D01*
X129832200Y-31944300D02*
X129579900Y-31944300D01*
X122180300Y-35424100D02*
X126788300Y-30816100D01*
X128607200Y-30816100D02*
X129832200Y-30816100D01*
X124707200Y-41529200D02*
X122180300Y-39002300D01*
X129832200Y-31944300D02*
X129832200Y-30816100D01*
X124707200Y-42856100D02*
X124707200Y-41529200D01*
X134407200Y-33089200D02*
X133262300Y-31944300D01*
%TO.N,Net-(D32-A)*%
X134407200Y-53374300D02*
X134407200Y-53466100D01*
X134407200Y-53466100D02*
X134407200Y-54793000D01*
X124538900Y-60410900D02*
X124707200Y-60579200D01*
X124538900Y-58756100D02*
X124538900Y-60410900D01*
X128723200Y-57771900D02*
X125523100Y-57771900D01*
X124707200Y-61906100D02*
X124707200Y-60579200D01*
X134407200Y-54793000D02*
X133538700Y-55661500D01*
X129832200Y-49866100D02*
X128607200Y-49866100D01*
X130833600Y-55661500D02*
X128723200Y-57771900D01*
X134407200Y-52139200D02*
X133353800Y-52139200D01*
X133538700Y-55661500D02*
X130833600Y-55661500D01*
X134407200Y-53374300D02*
X134407200Y-52139200D01*
X131080700Y-49866100D02*
X129832200Y-49866100D01*
X133353800Y-52139200D02*
X131080700Y-49866100D01*
X125523100Y-57771900D02*
X124538900Y-58756100D01*
%TO.N,Net-(D33-A)*%
X124517000Y-79439000D02*
X124707200Y-79629200D01*
X130329000Y-75216100D02*
X128723200Y-76821900D01*
X128607200Y-68916100D02*
X129832200Y-68916100D01*
X128723200Y-76821900D02*
X125472500Y-76821900D01*
X124707200Y-80956100D02*
X124707200Y-79629200D01*
X131979600Y-75216100D02*
X131822400Y-75216100D01*
X125472500Y-76821900D02*
X124517000Y-77777400D01*
X134542000Y-72516100D02*
X134542000Y-72653700D01*
X134407200Y-72516100D02*
X134542000Y-72516100D01*
X124517000Y-77777400D02*
X124517000Y-79439000D01*
X131822400Y-75216100D02*
X130329000Y-75216100D01*
X134542000Y-72653700D02*
X131979600Y-75216100D01*
%TO.N,Net-(D34-A)*%
X132484200Y-93761500D02*
X130833600Y-93761500D01*
X128723200Y-95871900D02*
X125472500Y-95871900D01*
X134407200Y-91566100D02*
X134542000Y-91566100D01*
X134407200Y-91566100D02*
X134407200Y-90239200D01*
X124517000Y-96827400D02*
X124517000Y-98489000D01*
X128607200Y-87966100D02*
X129832200Y-87966100D01*
X134542000Y-91703700D02*
X132484200Y-93761500D01*
X124517000Y-98489000D02*
X124707200Y-98679200D01*
X130833600Y-93761500D02*
X128723200Y-95871900D01*
X134437300Y-90209100D02*
X134407200Y-90239200D01*
X125472500Y-95871900D02*
X124517000Y-96827400D01*
X124707200Y-100006100D02*
X124707200Y-98679200D01*
X134542000Y-91566100D02*
X134542000Y-91703700D01*
X134437300Y-89748100D02*
X134437300Y-90209100D01*
%TO.N,Net-(D62-A)*%
X179293700Y-60301700D02*
X179293700Y-56790500D01*
X179293700Y-56790500D02*
X183932100Y-52152100D01*
X190503800Y-54425200D02*
X188230700Y-52152100D01*
X186982200Y-52152100D02*
X185757200Y-52152100D01*
X183932100Y-52152100D02*
X185757200Y-52152100D01*
X181857200Y-62865200D02*
X179293700Y-60301700D01*
X191557200Y-54425200D02*
X190503800Y-54425200D01*
X181857200Y-64192100D02*
X181857200Y-62865200D01*
X191557200Y-55752100D02*
X191557200Y-54425200D01*
X188230700Y-52152100D02*
X186982200Y-52152100D01*
%TO.N,Net-(D63-A)*%
X181667000Y-81725000D02*
X181857200Y-81915200D01*
X191557200Y-74710300D02*
X191557200Y-74802100D01*
X185873200Y-79107900D02*
X182633300Y-79107900D01*
X190688700Y-76997500D02*
X187983600Y-76997500D01*
X191557200Y-76129000D02*
X190688700Y-76997500D01*
X182633300Y-79107900D02*
X181667000Y-80074200D01*
X186982200Y-71202100D02*
X188138200Y-71202100D01*
X181857200Y-83242100D02*
X181857200Y-81915200D01*
X191557200Y-74710300D02*
X191557200Y-73475200D01*
X187983600Y-76997500D02*
X185873200Y-79107900D01*
X185757200Y-71202100D02*
X186982200Y-71202100D01*
X191557200Y-74802100D02*
X191557200Y-76129000D01*
X181667000Y-80074200D02*
X181667000Y-81725000D01*
X188138200Y-71202100D02*
X190411300Y-73475200D01*
X190411300Y-73475200D02*
X191557200Y-73475200D01*
%TO.N,Net-(D41-A)*%
X152588700Y-34135500D02*
X149883600Y-34135500D01*
X153457200Y-33267000D02*
X152588700Y-34135500D01*
X149883600Y-34135500D02*
X147773200Y-36245900D01*
X153457200Y-31940100D02*
X153457200Y-33267000D01*
X143567000Y-37877700D02*
X143239100Y-37877700D01*
X147773200Y-36245900D02*
X144509700Y-36245900D01*
X147657200Y-28340100D02*
X148882200Y-28340100D01*
X143567000Y-38863000D02*
X143757200Y-39053200D01*
X143757200Y-40380100D02*
X143757200Y-39053200D01*
X143567000Y-37877700D02*
X143567000Y-38863000D01*
X144509700Y-36245900D02*
X143567000Y-37188600D01*
X143567000Y-37188600D02*
X143567000Y-37877700D01*
%TO.N,Net-(D42-A)*%
X143592100Y-57300700D02*
X143256300Y-57300700D01*
X153457200Y-49663200D02*
X152403800Y-49663200D01*
X152588700Y-53185500D02*
X149883600Y-53185500D01*
X152403800Y-49663200D02*
X150130700Y-47390100D01*
X144571300Y-55295900D02*
X143592100Y-56275100D01*
X143757200Y-59430100D02*
X143757200Y-58103200D01*
X143592100Y-56275100D02*
X143592100Y-57300700D01*
X143592100Y-57300700D02*
X143592100Y-57938100D01*
X153457200Y-52317000D02*
X152588700Y-53185500D01*
X147657200Y-47390100D02*
X148882200Y-47390100D01*
X149883600Y-53185500D02*
X147773200Y-55295900D01*
X150130700Y-47390100D02*
X148882200Y-47390100D01*
X153457200Y-50898300D02*
X153457200Y-49663200D01*
X153457200Y-50898300D02*
X153457200Y-50990100D01*
X143592100Y-57938100D02*
X143757200Y-58103200D01*
X147773200Y-55295900D02*
X144571300Y-55295900D01*
X153457200Y-50990100D02*
X153457200Y-52317000D01*
%TO.N,Net-(D43-A)*%
X143757200Y-77816600D02*
X142832700Y-78741100D01*
X147773200Y-74345900D02*
X144591600Y-74345900D01*
X153457200Y-69948300D02*
X153457200Y-68713200D01*
X143757200Y-78480100D02*
X143757200Y-77816600D01*
X150130700Y-66440100D02*
X148882200Y-66440100D01*
X143567000Y-76963000D02*
X143757200Y-77153200D01*
X152403800Y-68713200D02*
X150130700Y-66440100D01*
X147657200Y-66440100D02*
X148882200Y-66440100D01*
X149883600Y-72235500D02*
X147773200Y-74345900D01*
X153457200Y-69948300D02*
X153457200Y-70040100D01*
X153457200Y-70040100D02*
X153457200Y-71367000D01*
X153457200Y-71367000D02*
X152588700Y-72235500D01*
X143757200Y-77816600D02*
X143757200Y-77153200D01*
X144591600Y-74345900D02*
X143567000Y-75370500D01*
X143567000Y-75370500D02*
X143567000Y-76963000D01*
X153457200Y-68713200D02*
X152403800Y-68713200D01*
X142832700Y-78741100D02*
X142832700Y-80720200D01*
X152588700Y-72235500D02*
X149883600Y-72235500D01*
%TO.N,Net-(D44-A)*%
X147773200Y-93395900D02*
X144551700Y-93395900D01*
X152403800Y-87763200D02*
X150130700Y-85490100D01*
X153457200Y-89090100D02*
X153457200Y-90417000D01*
X143567000Y-94380600D02*
X143567000Y-96013000D01*
X143567000Y-96013000D02*
X143757200Y-96203200D01*
X149883600Y-91285500D02*
X147773200Y-93395900D01*
X153457200Y-88998300D02*
X153457200Y-89090100D01*
X153457200Y-88998300D02*
X153457200Y-87763200D01*
X143757200Y-96866600D02*
X143757200Y-96203200D01*
X143757200Y-96866600D02*
X142832700Y-97791100D01*
X142832700Y-97791100D02*
X142832700Y-100144800D01*
X152588700Y-91285500D02*
X149883600Y-91285500D01*
X153457200Y-90417000D02*
X152588700Y-91285500D01*
X153457200Y-87763200D02*
X152403800Y-87763200D01*
X147657200Y-85490100D02*
X148882200Y-85490100D01*
X144551700Y-93395900D02*
X143567000Y-94380600D01*
X150130700Y-85490100D02*
X148882200Y-85490100D01*
X142832700Y-100144800D02*
X142834300Y-100144800D01*
X143757200Y-97530100D02*
X143757200Y-96866600D01*
%TO.N,Net-(D45-A)*%
X162221100Y-110462600D02*
X159757700Y-110462600D01*
X163784100Y-112025600D02*
X162221100Y-110462600D01*
X159384100Y-110089000D02*
X158407200Y-110089000D01*
X165901700Y-125403800D02*
X165901700Y-125092800D01*
X164845800Y-112025600D02*
X163784100Y-112025600D01*
X164276600Y-124968400D02*
X165901700Y-125403800D01*
X158407200Y-109112100D02*
X158407200Y-110089000D01*
X165901700Y-125092800D02*
X166199100Y-124795400D01*
X157182200Y-109112100D02*
X158407200Y-109112100D01*
X164413800Y-113637800D02*
X164845800Y-112025600D01*
X159757700Y-110462600D02*
X159384100Y-110089000D01*
%TO.N,Net-(D64-A)*%
X179248900Y-94994100D02*
X183990900Y-90252100D01*
X179248900Y-98356900D02*
X179248900Y-94994100D01*
X190411300Y-92525200D02*
X191557200Y-92525200D01*
X186982200Y-90252100D02*
X188138200Y-90252100D01*
X185757200Y-90252100D02*
X186982200Y-90252100D01*
X181857200Y-102292100D02*
X181857200Y-100965200D01*
X183990900Y-90252100D02*
X185757200Y-90252100D01*
X191557200Y-93760300D02*
X191557200Y-93852100D01*
X191557200Y-93760300D02*
X191557200Y-92525200D01*
X188138200Y-90252100D02*
X190411300Y-92525200D01*
X181857200Y-100965200D02*
X179248900Y-98356900D01*
%TO.N,Net-(D54-A)*%
X172507000Y-91566100D02*
X172507000Y-90239200D01*
X171453600Y-90239200D02*
X169180500Y-87966100D01*
X164920100Y-87966100D02*
X166707000Y-87966100D01*
X160201900Y-92684300D02*
X164920100Y-87966100D01*
X162807000Y-100006100D02*
X162807000Y-98679200D01*
X166707000Y-87966100D02*
X167932000Y-87966100D01*
X162807000Y-98679200D02*
X160201900Y-96074100D01*
X160201900Y-96074100D02*
X160201900Y-92684300D01*
X169180500Y-87966100D02*
X167932000Y-87966100D01*
X172507000Y-90239200D02*
X171453600Y-90239200D01*
%TO.N,Net-(D55-A)*%
X177457200Y-117309400D02*
X177457200Y-111398100D01*
X177321800Y-117618900D02*
X177321800Y-117444800D01*
X177321800Y-117444800D02*
X177457200Y-117309400D01*
X176232200Y-111398100D02*
X177457200Y-111398100D01*
X179022600Y-118237900D02*
X177321800Y-117618900D01*
%TO.N,Net-(D65-A)*%
X187193900Y-114136100D02*
X188418900Y-114136100D01*
X204079100Y-136040200D02*
X204079100Y-135395000D01*
X204356000Y-126383200D02*
X203750300Y-125777500D01*
X205912000Y-137873100D02*
X204079100Y-136040200D01*
X203750300Y-125777500D02*
X201332800Y-125777500D01*
%TO.N,ground*%
X216800000Y-97640000D02*
X214660000Y-97640000D01*
X214660000Y-97640000D02*
X207600000Y-104700000D01*
X207600000Y-104700000D02*
X207600000Y-104800000D01*
%TD*%
%TA.AperFunction,Conductor*%
%TO.N,ground*%
G36*
X215742230Y-103587972D02*
G01*
X215786575Y-103616471D01*
X215870653Y-103700549D01*
X215928600Y-103758496D01*
X216122169Y-103894034D01*
X216126861Y-103896743D01*
X216126299Y-103897715D01*
X216174500Y-103940152D01*
X216193655Y-104007345D01*
X216173443Y-104074227D01*
X216140783Y-104107942D01*
X215978594Y-104221508D01*
X215811506Y-104388597D01*
X215811505Y-104388599D01*
X215674400Y-104584404D01*
X215619823Y-104628029D01*
X215582178Y-104636055D01*
X215582181Y-104636069D01*
X215581932Y-104636108D01*
X215576724Y-104637219D01*
X215574474Y-104637289D01*
X215574468Y-104637290D01*
X215555226Y-104642880D01*
X215536187Y-104646823D01*
X215516317Y-104649334D01*
X215516303Y-104649337D01*
X215475698Y-104665413D01*
X215464654Y-104669194D01*
X215422714Y-104681379D01*
X215422710Y-104681381D01*
X215405466Y-104691579D01*
X215388005Y-104700133D01*
X215369374Y-104707510D01*
X215369362Y-104707517D01*
X215334033Y-104733185D01*
X215324273Y-104739596D01*
X215286680Y-104761829D01*
X215272514Y-104775995D01*
X215257724Y-104788627D01*
X215241514Y-104800404D01*
X215241511Y-104800407D01*
X215213673Y-104834058D01*
X215205811Y-104842697D01*
X209160728Y-110887781D01*
X209099405Y-110921266D01*
X209073047Y-110924100D01*
X202903232Y-110924100D01*
X202836193Y-110904415D01*
X202790438Y-110851611D01*
X202780494Y-110782453D01*
X202783457Y-110768007D01*
X202801489Y-110700708D01*
X202835063Y-110575408D01*
X202855659Y-110340000D01*
X202835063Y-110104592D01*
X202784052Y-109914214D01*
X202773905Y-109876344D01*
X202773904Y-109876343D01*
X202773903Y-109876337D01*
X202674035Y-109662171D01*
X202674034Y-109662169D01*
X202538494Y-109468597D01*
X202371403Y-109301506D01*
X202253157Y-109218710D01*
X202185838Y-109171573D01*
X202142215Y-109116999D01*
X202135021Y-109047500D01*
X202166543Y-108985145D01*
X202185836Y-108968428D01*
X202371401Y-108838495D01*
X202538495Y-108671401D01*
X202674035Y-108477830D01*
X202773903Y-108263663D01*
X202835063Y-108035408D01*
X202855659Y-107800000D01*
X202855211Y-107794885D01*
X202848918Y-107722956D01*
X202835063Y-107564592D01*
X202774993Y-107340406D01*
X202773905Y-107336344D01*
X202773900Y-107336330D01*
X202771837Y-107331906D01*
X202761344Y-107262829D01*
X202789863Y-107199045D01*
X202848339Y-107160804D01*
X202884218Y-107155500D01*
X211730357Y-107155500D01*
X211745977Y-107157224D01*
X211746004Y-107156939D01*
X211753760Y-107157671D01*
X211753767Y-107157673D01*
X211820973Y-107155561D01*
X211824868Y-107155500D01*
X211852446Y-107155500D01*
X211852450Y-107155500D01*
X211856424Y-107154997D01*
X211868063Y-107154080D01*
X211911727Y-107152709D01*
X211930969Y-107147117D01*
X211950012Y-107143174D01*
X211969892Y-107140664D01*
X212010501Y-107124585D01*
X212021544Y-107120803D01*
X212063490Y-107108618D01*
X212080729Y-107098422D01*
X212098203Y-107089862D01*
X212116827Y-107082488D01*
X212116827Y-107082487D01*
X212116832Y-107082486D01*
X212152183Y-107056800D01*
X212161914Y-107050408D01*
X212199520Y-107028170D01*
X212213689Y-107013999D01*
X212228479Y-107001368D01*
X212244687Y-106989594D01*
X212272538Y-106955926D01*
X212280379Y-106947309D01*
X215611217Y-103616471D01*
X215672538Y-103582988D01*
X215742230Y-103587972D01*
G37*
%TD.AperFunction*%
%TA.AperFunction,Conductor*%
G36*
X216214230Y-93672621D02*
G01*
X216260232Y-93725210D01*
X216270500Y-93794321D01*
X216241774Y-93858012D01*
X216200086Y-93889632D01*
X216122171Y-93925964D01*
X216122169Y-93925965D01*
X215928597Y-94061505D01*
X215761506Y-94228597D01*
X215761501Y-94228604D01*
X215625967Y-94422165D01*
X215625965Y-94422169D01*
X215526098Y-94636335D01*
X215526094Y-94636344D01*
X215464938Y-94864586D01*
X215464936Y-94864596D01*
X215444341Y-95099999D01*
X215444341Y-95100000D01*
X215464936Y-95335403D01*
X215464938Y-95335413D01*
X215526094Y-95563655D01*
X215526096Y-95563659D01*
X215526097Y-95563663D01*
X215572512Y-95663200D01*
X215625964Y-95777828D01*
X215625965Y-95777830D01*
X215761505Y-95971402D01*
X215928597Y-96138494D01*
X216114594Y-96268730D01*
X216158219Y-96323307D01*
X216165413Y-96392805D01*
X216133890Y-96455160D01*
X216114595Y-96471880D01*
X215928922Y-96601890D01*
X215928920Y-96601891D01*
X215761894Y-96768917D01*
X215626399Y-96962421D01*
X215526570Y-97176507D01*
X215526567Y-97176513D01*
X215469364Y-97389999D01*
X215469364Y-97390000D01*
X216366314Y-97390000D01*
X216340507Y-97430156D01*
X216300000Y-97568111D01*
X216300000Y-97711889D01*
X216340507Y-97849844D01*
X216366314Y-97890000D01*
X215469364Y-97890000D01*
X215526567Y-98103486D01*
X215526570Y-98103492D01*
X215626399Y-98317577D01*
X215626400Y-98317579D01*
X215761886Y-98511073D01*
X215761891Y-98511079D01*
X215928920Y-98678108D01*
X215928926Y-98678113D01*
X216114594Y-98808119D01*
X216158219Y-98862696D01*
X216165413Y-98932194D01*
X216133890Y-98994549D01*
X216114595Y-99011269D01*
X215928594Y-99141508D01*
X215761506Y-99308597D01*
X215761501Y-99308604D01*
X215625967Y-99502165D01*
X215625965Y-99502169D01*
X215526098Y-99716335D01*
X215526094Y-99716344D01*
X215464938Y-99944586D01*
X215464936Y-99944596D01*
X215444341Y-100179999D01*
X215444341Y-100180000D01*
X215464936Y-100415403D01*
X215464938Y-100415413D01*
X215526094Y-100643655D01*
X215526096Y-100643659D01*
X215526097Y-100643663D01*
X215553080Y-100701527D01*
X215625964Y-100857828D01*
X215625965Y-100857830D01*
X215761505Y-101051402D01*
X215928597Y-101218494D01*
X216114158Y-101348425D01*
X216157783Y-101403002D01*
X216164977Y-101472500D01*
X216133454Y-101534855D01*
X216114158Y-101551575D01*
X215928597Y-101681505D01*
X215761506Y-101848597D01*
X215761505Y-101848599D01*
X215624400Y-102044404D01*
X215569823Y-102088029D01*
X215532178Y-102096055D01*
X215532181Y-102096069D01*
X215531932Y-102096108D01*
X215526724Y-102097219D01*
X215524474Y-102097289D01*
X215524468Y-102097290D01*
X215505226Y-102102880D01*
X215486187Y-102106823D01*
X215466317Y-102109334D01*
X215466303Y-102109337D01*
X215425698Y-102125413D01*
X215414654Y-102129194D01*
X215372714Y-102141379D01*
X215372710Y-102141381D01*
X215355466Y-102151579D01*
X215338005Y-102160133D01*
X215319374Y-102167510D01*
X215319362Y-102167517D01*
X215284033Y-102193185D01*
X215274273Y-102199596D01*
X215236680Y-102221829D01*
X215222514Y-102235995D01*
X215207724Y-102248627D01*
X215191514Y-102260404D01*
X215191511Y-102260407D01*
X215163673Y-102294058D01*
X215155811Y-102302697D01*
X211590328Y-105868181D01*
X211529005Y-105901666D01*
X211502647Y-105904500D01*
X202884218Y-105904500D01*
X202817179Y-105884815D01*
X202771424Y-105832011D01*
X202761480Y-105762853D01*
X202771837Y-105728094D01*
X202773900Y-105723669D01*
X202773903Y-105723663D01*
X202835063Y-105495408D01*
X202855659Y-105260000D01*
X202835063Y-105024592D01*
X202779991Y-104819059D01*
X202773905Y-104796344D01*
X202773904Y-104796343D01*
X202773903Y-104796337D01*
X202674035Y-104582171D01*
X202674034Y-104582169D01*
X202538494Y-104388597D01*
X202371403Y-104221506D01*
X202287927Y-104163056D01*
X202185838Y-104091573D01*
X202142215Y-104036999D01*
X202135021Y-103967500D01*
X202166543Y-103905145D01*
X202185836Y-103888428D01*
X202371401Y-103758495D01*
X202538495Y-103591401D01*
X202674035Y-103397830D01*
X202773903Y-103183663D01*
X202835063Y-102955408D01*
X202855659Y-102720000D01*
X202855032Y-102712839D01*
X202844345Y-102590682D01*
X202835063Y-102484592D01*
X202784010Y-102294058D01*
X202773905Y-102256344D01*
X202773904Y-102256343D01*
X202773903Y-102256337D01*
X202674035Y-102042171D01*
X202674034Y-102042169D01*
X202538494Y-101848597D01*
X202371403Y-101681506D01*
X202275099Y-101614074D01*
X202185838Y-101551573D01*
X202142215Y-101496999D01*
X202135021Y-101427500D01*
X202166543Y-101365145D01*
X202185836Y-101348428D01*
X202371401Y-101218495D01*
X202538495Y-101051401D01*
X202674035Y-100857830D01*
X202773903Y-100643663D01*
X202835063Y-100415408D01*
X202855659Y-100180000D01*
X202855584Y-100179148D01*
X202849856Y-100113676D01*
X202835063Y-99944592D01*
X202774438Y-99718335D01*
X202773905Y-99716344D01*
X202773904Y-99716343D01*
X202773903Y-99716337D01*
X202674035Y-99502171D01*
X202674034Y-99502169D01*
X202538494Y-99308597D01*
X202371403Y-99141506D01*
X202279258Y-99076986D01*
X202185838Y-99011573D01*
X202142215Y-98956999D01*
X202135021Y-98887500D01*
X202166543Y-98825145D01*
X202185836Y-98808428D01*
X202371401Y-98678495D01*
X202538495Y-98511401D01*
X202674035Y-98317830D01*
X202773903Y-98103663D01*
X202835063Y-97875408D01*
X202855659Y-97640000D01*
X202835063Y-97404592D01*
X202773903Y-97176337D01*
X202674035Y-96962171D01*
X202660767Y-96943221D01*
X202538494Y-96768597D01*
X202402987Y-96633090D01*
X202369502Y-96571767D01*
X202374486Y-96502075D01*
X202416358Y-96446142D01*
X202447336Y-96429227D01*
X202542326Y-96393798D01*
X202542326Y-96393797D01*
X202542331Y-96393796D01*
X202657546Y-96307546D01*
X202743796Y-96192331D01*
X202794091Y-96057483D01*
X202800500Y-95997873D01*
X202800499Y-94202128D01*
X202794091Y-94142517D01*
X202790341Y-94132464D01*
X202743797Y-94007671D01*
X202743793Y-94007664D01*
X202674128Y-93914604D01*
X202649710Y-93849140D01*
X202664561Y-93780867D01*
X202713966Y-93731461D01*
X202772803Y-93716294D01*
X208463593Y-93689324D01*
X216147099Y-93653251D01*
X216214230Y-93672621D01*
G37*
%TD.AperFunction*%
%TA.AperFunction,Conductor*%
G36*
X217993039Y-97409685D02*
G01*
X218038794Y-97462489D01*
X218050000Y-97514000D01*
X218050000Y-97766000D01*
X218030315Y-97833039D01*
X217977511Y-97878794D01*
X217926000Y-97890000D01*
X217233686Y-97890000D01*
X217259493Y-97849844D01*
X217300000Y-97711889D01*
X217300000Y-97568111D01*
X217259493Y-97430156D01*
X217233686Y-97390000D01*
X217926000Y-97390000D01*
X217993039Y-97409685D01*
G37*
%TD.AperFunction*%
%TD*%
M02*
