<?xml version="1.0" standalone="no"?>
 <!DOCTYPE svg PUBLIC "-//W3C//DTD SVG 1.1//EN" 
 "http://www.w3.org/Graphics/SVG/1.1/DTD/svg11.dtd"> 
<svg
  xmlns:svg="http://www.w3.org/2000/svg"
  xmlns="http://www.w3.org/2000/svg"
  xmlns:xlink="http://www.w3.org/1999/xlink"
  version="1.1"
  width="136.8806mm" height="122.6312mm" viewBox="0.0000 0.0000 136.8806 122.6312">
<title>SVG Image created as xurp-brd.svg date 2024/03/09 20:02:18 </title>
  <desc>Image generated by PCBNEW </desc>
<g style="fill:#000000; fill-opacity:1.0000;stroke:#000000; stroke-opacity:1.0000;
stroke-linecap:round; stroke-linejoin:round;"
 transform="translate(0 0) scale(1 1)">
</g>
<g style="fill:#000000; fill-opacity:0.0; 
stroke:#000000; stroke-width:0.0000; stroke-opacity:1; 
stroke-linecap:round; stroke-linejoin:round;">
</g>
<g style="fill:#000000; fill-opacity:1.0000; 
stroke:#000000; stroke-width:0.0212; stroke-opacity:1; 
stroke-linecap:round; stroke-linejoin:round;">
<rect x="-5.000000" y="-5.000000" width="146.904986" height="132.636067" rx="0.000000" />
</g>
<g style="fill:#FFFFFF; fill-opacity:1.0000; 
stroke:#FFFFFF; stroke-width:0.0212; stroke-opacity:1; 
stroke-linecap:round; stroke-linejoin:round;">
</g>
<g style="fill:#FFFFFF; fill-opacity:0.0; 
stroke:#FFFFFF; stroke-width:0.1000; stroke-opacity:1; 
stroke-linecap:round; stroke-linejoin:round;">
<path d="M0.0550 85.2500 A1.0050 1.0050 0.0 0 0 0.9550 86.3500" />
<path d="M136.8550 95.8500
L136.7550 67.0500
" />
<path d="M114.1550 6.1500
L98.8550 2.6500
" />
<path d="M0.9550 86.3500
L49.3550 86.3500
" />
<path d="M77.1550 0.0500
L58.1550 0.0500
" />
<path d="M136.7550 67.0500
L115.4550 67.1500
" />
<path d="M49.3550 86.3500
L54.3550 86.3500
" />
<path d="M20.0550 7.3500
L1.0550 7.3500
" />
<path d="M0.0550 8.3500
L0.0550 85.2500
" />
<path d="M55.1550 86.3500
L54.3550 86.3500
" />
<path d="M115.4550 67.1500
L115.3550 7.3500
" />
<path d="M104.5550 116.6500
L120.9525 122.5769
" />
<path d="M38.9550 3.3500
L20.0550 7.3500
" />
<path d="M58.1550 0.0500
L38.9550 3.3500
" />
<path d="M65.5550 98.7500
L104.5550 116.6500
" />
<path d="M120.9525 122.5769 A2.2361 2.2361 0.0 0 0 123.3550 120.7500" />
<path d="M1.0550 7.3500 A1.0000 1.0000 0.0 0 0 0.0550 8.3500" />
<path d="M123.3550 120.7500
L136.8550 95.8500
" />
<path d="M98.8550 2.6500
L77.1550 0.0500
" />
<path d="M115.3550 7.3500 A1.2000 1.2000 0.0 0 0 114.1550 6.1500" />
<path d="M65.5550 98.7500
L55.1550 86.3500
" />
</g>
<g style="fill:#FFFFFF; fill-opacity:0.0; 
stroke:#FFFFFF; stroke-width:0.1500; stroke-opacity:1; 
stroke-linecap:round; stroke-linejoin:round;">
<text x="20.0611" y="63.3139"
textLength="2.0119" font-size="1.3333" lengthAdjust="spacingAndGlyphs"
text-anchor="middle" opacity="0">s2</text>
<g class="stroked-text"><desc>s2</desc>
<path d="M19.3706 63.2211
L19.4658 63.2687
" />
<path d="M19.4658 63.2687
L19.6563 63.2687
" />
<path d="M19.6563 63.2687
L19.7516 63.2211
" />
<path d="M19.7516 63.2211
L19.7992 63.1259
" />
<path d="M19.7992 63.1259
L19.7992 63.0782
" />
<path d="M19.7992 63.0782
L19.7516 62.9830
" />
<path d="M19.7516 62.9830
L19.6563 62.9354
" />
<path d="M19.6563 62.9354
L19.5135 62.9354
" />
<path d="M19.5135 62.9354
L19.4182 62.8878
" />
<path d="M19.4182 62.8878
L19.3706 62.7925
" />
<path d="M19.3706 62.7925
L19.3706 62.7449
" />
<path d="M19.3706 62.7449
L19.4182 62.6497
" />
<path d="M19.4182 62.6497
L19.5135 62.6021
" />
<path d="M19.5135 62.6021
L19.6563 62.6021
" />
<path d="M19.6563 62.6021
L19.7516 62.6497
" />
<path d="M20.1801 62.3640
L20.2278 62.3163
" />
<path d="M20.2278 62.3163
L20.3230 62.2687
" />
<path d="M20.3230 62.2687
L20.5611 62.2687
" />
<path d="M20.5611 62.2687
L20.6563 62.3163
" />
<path d="M20.6563 62.3163
L20.7039 62.3640
" />
<path d="M20.7039 62.3640
L20.7516 62.4592
" />
<path d="M20.7516 62.4592
L20.7516 62.5544
" />
<path d="M20.7516 62.5544
L20.7039 62.6973
" />
<path d="M20.7039 62.6973
L20.1325 63.2687
" />
<path d="M20.1325 63.2687
L20.7516 63.2687
" />
</g><text x="96.2611" y="21.5139"
textLength="2.0119" font-size="1.3333" lengthAdjust="spacingAndGlyphs"
text-anchor="middle" opacity="0">s4</text>
<g class="stroked-text"><desc>s4</desc>
<path d="M95.5706 21.4211
L95.6658 21.4687
" />
<path d="M95.6658 21.4687
L95.8563 21.4687
" />
<path d="M95.8563 21.4687
L95.9516 21.4211
" />
<path d="M95.9516 21.4211
L95.9992 21.3259
" />
<path d="M95.9992 21.3259
L95.9992 21.2782
" />
<path d="M95.9992 21.2782
L95.9516 21.1830
" />
<path d="M95.9516 21.1830
L95.8563 21.1354
" />
<path d="M95.8563 21.1354
L95.7135 21.1354
" />
<path d="M95.7135 21.1354
L95.6182 21.0878
" />
<path d="M95.6182 21.0878
L95.5706 20.9925
" />
<path d="M95.5706 20.9925
L95.5706 20.9449
" />
<path d="M95.5706 20.9449
L95.6182 20.8497
" />
<path d="M95.6182 20.8497
L95.7135 20.8021
" />
<path d="M95.7135 20.8021
L95.8563 20.8021
" />
<path d="M95.8563 20.8021
L95.9516 20.8497
" />
<path d="M96.8563 20.8021
L96.8563 21.4687
" />
<path d="M96.6182 20.4211
L96.3801 21.1354
" />
<path d="M96.3801 21.1354
L96.9992 21.1354
" />
</g><text x="20.0611" y="25.2139"
textLength="2.0119" font-size="1.3333" lengthAdjust="spacingAndGlyphs"
text-anchor="middle" opacity="0">s1</text>
<g class="stroked-text"><desc>s1</desc>
<path d="M19.3706 25.1211
L19.4658 25.1687
" />
<path d="M19.4658 25.1687
L19.6563 25.1687
" />
<path d="M19.6563 25.1687
L19.7516 25.1211
" />
<path d="M19.7516 25.1211
L19.7992 25.0259
" />
<path d="M19.7992 25.0259
L19.7992 24.9782
" />
<path d="M19.7992 24.9782
L19.7516 24.8830
" />
<path d="M19.7516 24.8830
L19.6563 24.8354
" />
<path d="M19.6563 24.8354
L19.5135 24.8354
" />
<path d="M19.5135 24.8354
L19.4182 24.7878
" />
<path d="M19.4182 24.7878
L19.3706 24.6925
" />
<path d="M19.3706 24.6925
L19.3706 24.6449
" />
<path d="M19.3706 24.6449
L19.4182 24.5497
" />
<path d="M19.4182 24.5497
L19.5135 24.5021
" />
<path d="M19.5135 24.5021
L19.6563 24.5021
" />
<path d="M19.6563 24.5021
L19.7516 24.5497
" />
<path d="M20.7516 25.1687
L20.1801 25.1687
" />
<path d="M20.4658 25.1687
L20.4658 24.1687
" />
<path d="M20.4658 24.1687
L20.3706 24.3116
" />
<path d="M20.3706 24.3116
L20.2754 24.4068
" />
<path d="M20.2754 24.4068
L20.1801 24.4544
" />
</g><text x="120.1611" y="89.4139"
textLength="2.0119" font-size="1.3333" lengthAdjust="spacingAndGlyphs"
text-anchor="middle" opacity="0">s6</text>
<g class="stroked-text"><desc>s6</desc>
<path d="M119.4706 89.3211
L119.5658 89.3687
" />
<path d="M119.5658 89.3687
L119.7563 89.3687
" />
<path d="M119.7563 89.3687
L119.8516 89.3211
" />
<path d="M119.8516 89.3211
L119.8992 89.2259
" />
<path d="M119.8992 89.2259
L119.8992 89.1782
" />
<path d="M119.8992 89.1782
L119.8516 89.0830
" />
<path d="M119.8516 89.0830
L119.7563 89.0354
" />
<path d="M119.7563 89.0354
L119.6135 89.0354
" />
<path d="M119.6135 89.0354
L119.5182 88.9878
" />
<path d="M119.5182 88.9878
L119.4706 88.8925
" />
<path d="M119.4706 88.8925
L119.4706 88.8449
" />
<path d="M119.4706 88.8449
L119.5182 88.7497
" />
<path d="M119.5182 88.7497
L119.6135 88.7021
" />
<path d="M119.6135 88.7021
L119.7563 88.7021
" />
<path d="M119.7563 88.7021
L119.8516 88.7497
" />
<path d="M120.7563 88.3687
L120.5658 88.3687
" />
<path d="M120.5658 88.3687
L120.4706 88.4163
" />
<path d="M120.4706 88.4163
L120.4230 88.4640
" />
<path d="M120.4230 88.4640
L120.3278 88.6068
" />
<path d="M120.3278 88.6068
L120.2801 88.7973
" />
<path d="M120.2801 88.7973
L120.2801 89.1782
" />
<path d="M120.2801 89.1782
L120.3278 89.2735
" />
<path d="M120.3278 89.2735
L120.3754 89.3211
" />
<path d="M120.3754 89.3211
L120.4706 89.3687
" />
<path d="M120.4706 89.3687
L120.6611 89.3687
" />
<path d="M120.6611 89.3687
L120.7563 89.3211
" />
<path d="M120.7563 89.3211
L120.8039 89.2735
" />
<path d="M120.8039 89.2735
L120.8516 89.1782
" />
<path d="M120.8516 89.1782
L120.8516 88.9401
" />
<path d="M120.8516 88.9401
L120.8039 88.8449
" />
<path d="M120.8039 88.8449
L120.7563 88.7973
" />
<path d="M120.7563 88.7973
L120.6611 88.7497
" />
<path d="M120.6611 88.7497
L120.4706 88.7497
" />
<path d="M120.4706 88.7497
L120.3754 88.7973
" />
<path d="M120.3754 88.7973
L120.3278 88.8449
" />
<path d="M120.3278 88.8449
L120.2801 88.9401
" />
</g><text x="58.2611" y="38.2139"
textLength="2.0119" font-size="1.3333" lengthAdjust="spacingAndGlyphs"
text-anchor="middle" opacity="0">s3</text>
<g class="stroked-text"><desc>s3</desc>
<path d="M57.5706 38.1211
L57.6658 38.1687
" />
<path d="M57.6658 38.1687
L57.8563 38.1687
" />
<path d="M57.8563 38.1687
L57.9516 38.1211
" />
<path d="M57.9516 38.1211
L57.9992 38.0259
" />
<path d="M57.9992 38.0259
L57.9992 37.9782
" />
<path d="M57.9992 37.9782
L57.9516 37.8830
" />
<path d="M57.9516 37.8830
L57.8563 37.8354
" />
<path d="M57.8563 37.8354
L57.7135 37.8354
" />
<path d="M57.7135 37.8354
L57.6182 37.7878
" />
<path d="M57.6182 37.7878
L57.5706 37.6925
" />
<path d="M57.5706 37.6925
L57.5706 37.6449
" />
<path d="M57.5706 37.6449
L57.6182 37.5497
" />
<path d="M57.6182 37.5497
L57.7135 37.5021
" />
<path d="M57.7135 37.5021
L57.8563 37.5021
" />
<path d="M57.8563 37.5021
L57.9516 37.5497
" />
<path d="M58.3325 37.1687
L58.9516 37.1687
" />
<path d="M58.9516 37.1687
L58.6182 37.5497
" />
<path d="M58.6182 37.5497
L58.7611 37.5497
" />
<path d="M58.7611 37.5497
L58.8563 37.5973
" />
<path d="M58.8563 37.5973
L58.9039 37.6449
" />
<path d="M58.9039 37.6449
L58.9516 37.7401
" />
<path d="M58.9516 37.7401
L58.9516 37.9782
" />
<path d="M58.9516 37.9782
L58.9039 38.0735
" />
<path d="M58.9039 38.0735
L58.8563 38.1211
" />
<path d="M58.8563 38.1211
L58.7611 38.1687
" />
<path d="M58.7611 38.1687
L58.4754 38.1687
" />
<path d="M58.4754 38.1687
L58.3801 38.1211
" />
<path d="M58.3801 38.1211
L58.3325 38.0735
" />
</g><text x="96.4611" y="59.3139"
textLength="2.0119" font-size="1.3333" lengthAdjust="spacingAndGlyphs"
text-anchor="middle" opacity="0">s5</text>
<g class="stroked-text"><desc>s5</desc>
<path d="M95.7706 59.2211
L95.8658 59.2687
" />
<path d="M95.8658 59.2687
L96.0563 59.2687
" />
<path d="M96.0563 59.2687
L96.1516 59.2211
" />
<path d="M96.1516 59.2211
L96.1992 59.1259
" />
<path d="M96.1992 59.1259
L96.1992 59.0782
" />
<path d="M96.1992 59.0782
L96.1516 58.9830
" />
<path d="M96.1516 58.9830
L96.0563 58.9354
" />
<path d="M96.0563 58.9354
L95.9135 58.9354
" />
<path d="M95.9135 58.9354
L95.8182 58.8878
" />
<path d="M95.8182 58.8878
L95.7706 58.7925
" />
<path d="M95.7706 58.7925
L95.7706 58.7449
" />
<path d="M95.7706 58.7449
L95.8182 58.6497
" />
<path d="M95.8182 58.6497
L95.9135 58.6021
" />
<path d="M95.9135 58.6021
L96.0563 58.6021
" />
<path d="M96.0563 58.6021
L96.1516 58.6497
" />
<path d="M97.1039 58.2687
L96.6278 58.2687
" />
<path d="M96.6278 58.2687
L96.5801 58.7449
" />
<path d="M96.5801 58.7449
L96.6278 58.6973
" />
<path d="M96.6278 58.6973
L96.7230 58.6497
" />
<path d="M96.7230 58.6497
L96.9611 58.6497
" />
<path d="M96.9611 58.6497
L97.0563 58.6973
" />
<path d="M97.0563 58.6973
L97.1039 58.7449
" />
<path d="M97.1039 58.7449
L97.1516 58.8401
" />
<path d="M97.1516 58.8401
L97.1516 59.0782
" />
<path d="M97.1516 59.0782
L97.1039 59.1735
" />
<path d="M97.1039 59.1735
L97.0563 59.2211
" />
<path d="M97.0563 59.2211
L96.9611 59.2687
" />
<path d="M96.9611 59.2687
L96.7230 59.2687
" />
<path d="M96.7230 59.2687
L96.6278 59.2211
" />
<path d="M96.6278 59.2211
L96.5801 59.1735
" />
</g><g >
</g>
<g >
</g>
<g >
</g>
<g >
</g>
<g >
</g>
<g >
</g>
<g >
</g>
<g >
</g>
<g >
</g>
<g >
</g>
<g >
</g>
<g >
</g>
<g >
</g>
<g >
</g>
<g >
</g>
<g >
</g>
<g >
</g>
<g >
</g>
<g >
</g>
<g >
</g>
<g >
</g>
<g >
</g>
<g >
</g>
<g >
</g>
<g >
</g>
<g >
</g>
<g >
</g>
<g >
</g>
<g >
</g>
<g >
</g>
<g >
</g>
<g >
</g>
<g >
</g>
<g >
</g>
<g >
</g>
<g >
</g>
<g >
</g>
<g >
</g>
<g >
</g>
<g >
</g>
<g >
</g>
<g >
</g>
<g >
</g>
<g >
</g>
<g >
</g>
<g >
</g>
<g >
</g>
<g >
</g>
<g >
</g>
<g >
</g>
<g >
</g>
<g >
</g>
<g >
</g>
<g >
</g>
<g >
</g>
<g >
</g>
<g >
</g>
<g >
</g>
<g >
</g>
<g >
</g>
<g >
</g>
<g >
</g>
<g >
</g>
<g >
</g>
<g >
</g>
</g> 
</svg>
