%TF.GenerationSoftware,KiCad,Pcbnew,7.0.10*%
%TF.CreationDate,2024-03-21T20:23:52+01:00*%
%TF.ProjectId,duosync_right,64756f73-796e-4635-9f72-696768742e6b,rev?*%
%TF.SameCoordinates,Original*%
%TF.FileFunction,Paste,Top*%
%TF.FilePolarity,Positive*%
%FSLAX46Y46*%
G04 Gerber Fmt 4.6, Leading zero omitted, Abs format (unit mm)*
G04 Created by KiCad (PCBNEW 7.0.10) date 2024-03-21 20:23:52*
%MOMM*%
%LPD*%
G01*
G04 APERTURE LIST*
G04 Aperture macros list*
%AMRotRect*
0 Rectangle, with rotation*
0 The origin of the aperture is its center*
0 $1 length*
0 $2 width*
0 $3 Rotation angle, in degrees counterclockwise*
0 Add horizontal line*
21,1,$1,$2,0,0,$3*%
G04 Aperture macros list end*
%ADD10R,2.000000X2.000000*%
%ADD11R,1.800000X2.000000*%
%ADD12R,1.400000X1.300000*%
%ADD13RotRect,1.500000X2.000000X110.000000*%
%ADD14RotRect,2.000000X2.000000X200.000000*%
%ADD15RotRect,1.900000X2.000000X200.000000*%
%ADD16RotRect,2.000000X2.000000X195.000000*%
%ADD17RotRect,1.900000X2.000000X195.000000*%
G04 APERTURE END LIST*
D10*
%TO.C,K42*%
X157218900Y-61970100D03*
X143518900Y-53190100D03*
D11*
X154418900Y-50990100D03*
D10*
X144718900Y-59430100D03*
%TD*%
D12*
%TO.C,D13*%
X206993900Y-73679100D03*
X210543900Y-73679100D03*
%TD*%
D10*
%TO.C,K54*%
X138169100Y-102546100D03*
X124469100Y-93766100D03*
D11*
X135369100Y-91566100D03*
D10*
X125669100Y-100006100D03*
%TD*%
D12*
%TO.C,D31*%
X168893900Y-30816100D03*
X172443900Y-30816100D03*
%TD*%
D10*
%TO.C,K41*%
X157218900Y-42920100D03*
X143518900Y-34140100D03*
D11*
X154418900Y-31940100D03*
D10*
X144718900Y-40380100D03*
%TD*%
D12*
%TO.C,D55*%
X121268900Y-111398100D03*
X124818900Y-111398100D03*
%TD*%
D10*
%TO.C,K34*%
X176268900Y-102546100D03*
X162568900Y-93766100D03*
D11*
X173468900Y-91566100D03*
D10*
X163768900Y-100006100D03*
%TD*%
%TO.C,K14*%
X214368900Y-107309100D03*
X200668900Y-98529100D03*
D11*
X211568900Y-96329100D03*
D10*
X201868900Y-104769100D03*
%TD*%
D12*
%TO.C,D33*%
X168893900Y-68916100D03*
X172443900Y-68916100D03*
%TD*%
D10*
%TO.C,K51*%
X138169100Y-45396100D03*
X124469100Y-36616100D03*
D11*
X135369100Y-34416100D03*
D10*
X125669100Y-42856100D03*
%TD*%
D12*
%TO.C,D34*%
X168893900Y-87966100D03*
X172443900Y-87966100D03*
%TD*%
%TO.C,D65*%
X110307200Y-114136100D03*
X113857200Y-114136100D03*
%TD*%
D10*
%TO.C,K24*%
X195318900Y-107309100D03*
X181618900Y-98529100D03*
D11*
X192518900Y-96329100D03*
D10*
X182818900Y-104769100D03*
%TD*%
D12*
%TO.C,D52*%
X130794100Y-49866100D03*
X134344100Y-49866100D03*
%TD*%
D10*
%TO.C,K44*%
X157218900Y-100070100D03*
X143518900Y-91290100D03*
D11*
X154418900Y-89090100D03*
D10*
X144718900Y-97530100D03*
%TD*%
D12*
%TO.C,D51*%
X130794100Y-30816100D03*
X134344100Y-30816100D03*
%TD*%
D10*
%TO.C,K52*%
X138169100Y-64446100D03*
X124469100Y-55666100D03*
D11*
X135369100Y-53466100D03*
D10*
X125669100Y-61906100D03*
%TD*%
%TO.C,K21*%
X195318900Y-50159100D03*
X181618900Y-41379100D03*
D11*
X192518900Y-39179100D03*
D10*
X182818900Y-47619100D03*
%TD*%
%TO.C,K61*%
X119118900Y-47682100D03*
X105418900Y-38902100D03*
D11*
X116318900Y-36702100D03*
D10*
X106618900Y-45142100D03*
%TD*%
%TO.C,K11*%
X214368900Y-50159100D03*
X200668900Y-41379100D03*
D11*
X211568900Y-39179100D03*
D10*
X201868900Y-47619100D03*
%TD*%
%TO.C,K13*%
X214368900Y-88259100D03*
X200668900Y-79479100D03*
D11*
X211568900Y-77279100D03*
D10*
X201868900Y-85719100D03*
%TD*%
%TO.C,K33*%
X176268900Y-83496100D03*
X162568900Y-74716100D03*
D11*
X173468900Y-72516100D03*
D10*
X163768900Y-80956100D03*
%TD*%
%TO.C,K32*%
X176268900Y-64446100D03*
X162568900Y-55666100D03*
D11*
X173468900Y-53466100D03*
D10*
X163768900Y-61906100D03*
%TD*%
%TO.C,K43*%
X157218900Y-81020100D03*
X143518900Y-72240100D03*
D11*
X154418900Y-70040100D03*
D10*
X144718900Y-78480100D03*
%TD*%
%TO.C,K23*%
X195318900Y-88259100D03*
X181618900Y-79479100D03*
D11*
X192518900Y-77279100D03*
D10*
X182818900Y-85719100D03*
%TD*%
D12*
%TO.C,D42*%
X149843900Y-47390100D03*
X153393900Y-47390100D03*
%TD*%
%TO.C,D54*%
X130794100Y-87966100D03*
X134344100Y-87966100D03*
%TD*%
%TO.C,D61*%
X111743900Y-33102100D03*
X115293900Y-33102100D03*
%TD*%
D10*
%TO.C,K22*%
X195318900Y-69209100D03*
X181618900Y-60429100D03*
D11*
X192518900Y-58229100D03*
D10*
X182818900Y-66669100D03*
%TD*%
D12*
%TO.C,D32*%
X168893900Y-49866100D03*
X172443900Y-49866100D03*
%TD*%
%TO.C,D14*%
X206993900Y-92729100D03*
X210543900Y-92729100D03*
%TD*%
%TO.C,D22*%
X187943900Y-54629100D03*
X191493900Y-54629100D03*
%TD*%
%TO.C,D44*%
X149843900Y-85490100D03*
X153393900Y-85490100D03*
%TD*%
D10*
%TO.C,K53*%
X138169100Y-83496100D03*
X124469100Y-74716100D03*
D11*
X135369100Y-72516100D03*
D10*
X125669100Y-80956100D03*
%TD*%
D12*
%TO.C,D23*%
X187943900Y-73679100D03*
X191493900Y-73679100D03*
%TD*%
%TO.C,D63*%
X111743900Y-71202100D03*
X115293900Y-71202100D03*
%TD*%
D10*
%TO.C,K31*%
X176268900Y-45396100D03*
X162568900Y-36616100D03*
D11*
X173468900Y-34416100D03*
D10*
X163768900Y-42856100D03*
%TD*%
D12*
%TO.C,D41*%
X149843900Y-28340100D03*
X153393900Y-28340100D03*
%TD*%
D10*
%TO.C,K12*%
X214368900Y-69209100D03*
X200668900Y-60429100D03*
D11*
X211568900Y-58229100D03*
D10*
X201868900Y-66669100D03*
%TD*%
D12*
%TO.C,D53*%
X130794100Y-68916100D03*
X134344100Y-68916100D03*
%TD*%
%TO.C,D24*%
X187943900Y-92729100D03*
X191493900Y-92729100D03*
%TD*%
D10*
%TO.C,K64*%
X119118900Y-104832100D03*
X105418900Y-96052100D03*
D11*
X116318900Y-93852100D03*
D10*
X106618900Y-102292100D03*
%TD*%
D12*
%TO.C,D21*%
X187943900Y-35579100D03*
X191493900Y-35579100D03*
%TD*%
D10*
%TO.C,K63*%
X119118900Y-85782100D03*
X105418900Y-77002100D03*
D11*
X116318900Y-74802100D03*
D10*
X106618900Y-83242100D03*
%TD*%
D12*
%TO.C,D43*%
X149843900Y-66440100D03*
X153393900Y-66440100D03*
%TD*%
%TO.C,D11*%
X206993900Y-35579100D03*
X210543900Y-35579100D03*
%TD*%
%TO.C,D64*%
X111743900Y-90252100D03*
X115293900Y-90252100D03*
%TD*%
%TO.C,D62*%
X111743900Y-52152100D03*
X115293900Y-52152100D03*
%TD*%
D10*
%TO.C,K62*%
X119118900Y-66732100D03*
X105418900Y-57952100D03*
D11*
X116318900Y-55752100D03*
D10*
X106618900Y-64192100D03*
%TD*%
D12*
%TO.C,D12*%
X206993900Y-54629100D03*
X210543900Y-54629100D03*
%TD*%
%TO.C,D45*%
X140318900Y-109112100D03*
X143868900Y-109112100D03*
%TD*%
D13*
%TO.C,K65*%
X96169644Y-127514921D03*
X101622902Y-124253085D03*
X97989672Y-139941872D03*
X107452447Y-133837259D03*
%TD*%
D14*
%TO.C,K55*%
X110851715Y-124220400D03*
X114113552Y-129673658D03*
D15*
X120341920Y-118425057D03*
D14*
X126728441Y-127785226D03*
%TD*%
D16*
%TO.C,K45*%
X133312270Y-117134609D03*
X136086412Y-122851403D03*
D17*
X143271460Y-112188444D03*
D16*
X148817885Y-122069617D03*
%TD*%
M02*
