M48
; DRILL file {KiCad 7.0.10} date Thu Mar 21 20:23:49 2024
; FORMAT={-:-/ absolute / metric / decimal}
; #@! TF.CreationDate,2024-03-21T20:23:49+01:00
; #@! TF.GenerationSoftware,Kicad,Pcbnew,7.0.10
; #@! TF.FileFunction,Plated,1,2,PTH
FMAT,2
METRIC
; #@! TA.AperFunction,Plated,PTH,ViaDrill
T1C0.400
; #@! TA.AperFunction,Plated,PTH,ComponentDrill
T2C0.400
; #@! TA.AperFunction,Plated,PTH,ComponentDrill
T3C0.813
; #@! TA.AperFunction,Plated,PTH,ComponentDrill
T4C1.000
; #@! TA.AperFunction,Plated,PTH,ComponentDrill
T5C2.300
%
G90
G05
T1
X88.237Y-100.18
X89.1Y-111.9
X91.827Y-113.275
X92.6Y-108.7
X93.92Y-127.037
X94.535Y-114.552
X102.639Y-140.378
X104.755Y-107.818
X109.028Y-132.464
X112.807Y-109.138
X114.309Y-132.194
X120.872Y-81.084
X123.206Y-99.715
X127.35Y-122.614
X135.225Y-48.181
X136.077Y-124.795
X136.338Y-51.491
X139.929Y-102.449
X142.183Y-115.44
X142.245Y-51.24
X142.832Y-81.037
X144.193Y-37.878
X144.201Y-57.301
X147.574Y-101.897
X150.882Y-115.881
X151.341Y-64.477
X153.281Y-65.047
X173.394Y-32.667
X178.22Y-71.997
X178.754Y-64.516
X178.804Y-40.134
X178.804Y-96.283
X181.679Y-106.858
X181.785Y-88.195
X182.345Y-68.877
X194.86Y-91.627
X198.115Y-44.355
X198.115Y-63.918
X200.94Y-63.918
X217.37Y-63.918
T2
X97.676Y-118.7
X98.116Y-117.64
X98.116Y-119.76
X99.176Y-117.2
X99.176Y-120.2
X100.236Y-117.64
X100.236Y-119.76
X100.676Y-118.7
X121.376Y-88.6
X121.576Y-50.8
X121.816Y-87.54
X121.816Y-89.66
X122.016Y-49.74
X122.016Y-51.86
X122.876Y-87.1
X122.876Y-90.1
X123.076Y-49.3
X123.076Y-52.3
X123.936Y-87.54
X123.936Y-89.66
X124.136Y-49.74
X124.136Y-51.86
X124.376Y-88.6
X124.576Y-50.8
X159.576Y-67.5
X160.016Y-66.44
X160.016Y-68.56
X161.076Y-66.0
X161.076Y-69.0
X162.136Y-66.44
X162.136Y-68.56
X162.576Y-67.5
X197.776Y-54.5
X197.776Y-92.6
X198.216Y-53.44
X198.216Y-55.56
X198.216Y-91.54
X198.216Y-93.66
X199.276Y-53.0
X199.276Y-56.0
X199.276Y-91.1
X199.276Y-94.1
X200.336Y-53.44
X200.336Y-55.56
X200.336Y-91.54
X200.336Y-93.66
X200.776Y-54.5
X200.776Y-92.6
T3
X109.082Y-114.136
X110.519Y-33.102
X110.519Y-52.152
X110.519Y-71.202
X110.519Y-90.252
X115.082Y-114.136
X116.519Y-33.102
X116.519Y-52.152
X116.519Y-71.202
X116.519Y-90.252
X120.044Y-111.398
X126.044Y-111.398
X129.569Y-30.816
X129.569Y-49.866
X129.569Y-68.916
X129.569Y-87.966
X135.569Y-30.816
X135.569Y-49.866
X135.569Y-68.916
X135.569Y-87.966
X139.094Y-109.112
X145.094Y-109.112
X148.619Y-28.34
X148.619Y-47.39
X148.619Y-66.44
X148.619Y-85.49
X154.619Y-28.34
X154.619Y-47.39
X154.619Y-66.44
X154.619Y-85.49
X167.669Y-30.816
X167.669Y-49.866
X167.669Y-68.916
X167.669Y-87.966
X173.669Y-30.816
X173.669Y-49.866
X173.669Y-68.916
X173.669Y-87.966
X186.719Y-35.579
X186.719Y-54.629
X186.719Y-73.679
X186.719Y-92.729
X192.719Y-35.579
X192.719Y-54.629
X192.719Y-73.679
X192.719Y-92.729
X205.769Y-35.579
X205.769Y-54.629
X205.769Y-73.679
X205.769Y-92.729
X211.769Y-35.579
X211.769Y-54.629
X211.769Y-73.679
X211.769Y-92.729
T4
X85.476Y-95.1
X85.476Y-97.64
X85.476Y-100.18
X85.476Y-102.72
X85.476Y-105.26
X85.476Y-107.8
X85.476Y-110.34
X100.726Y-95.1
X100.726Y-97.64
X100.726Y-100.18
X100.726Y-102.72
X100.726Y-105.26
X100.726Y-107.8
X100.726Y-110.34
T5
X99.176Y-118.7
X122.876Y-88.6
X123.076Y-50.8
X161.076Y-67.5
X199.276Y-54.5
X199.276Y-92.6
M30
